<svg width="328" height="157" viewBox="0 0 328 157" fill="none" xmlns="http://www.w3.org/2000/svg">
<g opacity="0.21">
<g filter="url(#filter0_f_210_1842)">
<ellipse cx="11.185" cy="8.52469" rx="11.185" ry="8.52469" transform="matrix(0.861853 0.507158 -0.55356 0.83281 53.6298 59.6699)" fill="url(#paint0_linear_210_1842)" stroke="#FFFFF6" stroke-width="2"/>
<ellipse cx="9.3597" cy="7.13351" rx="9.3597" ry="7.13351" transform="matrix(-0.611907 0.79093 0.823229 0.567709 105.602 52.4258)" fill="url(#paint1_linear_210_1842)" stroke="#FFFFF6" stroke-width="2"/>
<ellipse cx="9.20721" cy="6.28084" rx="9.20721" ry="6.28084" transform="matrix(0.477377 0.878698 -0.903504 0.428579 58.4324 62.8706)" fill="#17B4C8"/>
<ellipse cx="7.70515" cy="5.25619" rx="7.70515" ry="5.25619" transform="matrix(-0.149439 0.988771 0.995467 0.0951091 99.3818 55.6128)" fill="#17B4C8"/>
<g filter="url(#filter1_d_210_1842)">
<path d="M89.8265 65.4132C111.107 65.8974 126.201 81.3624 125.776 100.007C125.584 108.458 122.484 116.557 115.546 122.707C115.501 124.65 115.284 126.789 115.099 128.951C114.491 136.027 114.464 140.663 108.549 140.155C105.797 139.919 103.395 138.46 101.673 136.257C101.064 137.277 100.266 138.258 99.2826 139.144C94.9162 143.082 88.5821 143.715 85.1344 140.558C83.63 139.181 82.9235 137.31 82.9681 135.31C82.3658 135.916 81.6866 136.49 80.9318 137.014C75.8295 140.555 69.2721 140.571 66.2855 137.049C64.8302 135.333 64.4934 133.094 65.1189 130.839C59.652 133.719 53.1594 133.346 49.5647 129.609C45.4075 125.286 49.366 122.556 55.1329 118.004C52.0549 111.498 51.7372 104.882 51.8363 100.527C52.197 84.673 68.5464 64.929 89.8265 65.4132Z" fill="url(#paint2_radial_210_1842)"/>
<path d="M89.8265 65.4132L89.8493 64.4134L89.8265 65.4132ZM125.776 100.007L126.776 100.029L126.776 100.029L125.776 100.007ZM115.546 122.707L114.883 121.959C114.675 122.144 114.553 122.406 114.547 122.684L115.546 122.707ZM115.099 128.951L114.102 128.865L115.099 128.951ZM108.549 140.155L108.464 141.152L108.464 141.152L108.549 140.155ZM101.673 136.257L102.461 135.641C102.258 135.381 101.94 135.238 101.611 135.259C101.282 135.279 100.984 135.461 100.815 135.744L101.673 136.257ZM99.2826 139.144L99.9523 139.887L99.9523 139.887L99.2826 139.144ZM85.1344 140.558L84.4592 141.296L84.4592 141.296L85.1344 140.558ZM82.9681 135.31L83.9678 135.333C83.977 134.924 83.7362 134.551 83.3599 134.39C82.9836 134.23 82.5476 134.315 82.2592 134.605L82.9681 135.31ZM80.9318 137.014L81.502 137.835L81.502 137.835L80.9318 137.014ZM66.2855 137.049L65.5228 137.696L65.5229 137.696L66.2855 137.049ZM65.1189 130.839L66.0825 131.106C66.1892 130.721 66.057 130.31 65.7463 130.06C65.4356 129.81 65.0058 129.768 64.6528 129.954L65.1189 130.839ZM49.5647 129.609L48.844 130.302L48.844 130.302L49.5647 129.609ZM55.1329 118.004L55.7525 118.789C56.1182 118.5 56.2361 117.997 56.0369 117.576L55.1329 118.004ZM51.8363 100.527L50.8365 100.504L50.8365 100.504L51.8363 100.527ZM89.8265 65.4132L89.8038 66.4129C110.594 66.886 125.187 81.9521 124.777 99.9838L125.776 100.007L126.776 100.029C127.214 80.7728 111.619 64.9088 89.8493 64.4134L89.8265 65.4132ZM125.776 100.007L124.777 99.9838C124.59 108.196 121.585 116.017 114.883 121.959L115.546 122.707L116.21 123.456C123.383 117.096 126.578 108.721 126.776 100.029L125.776 100.007ZM115.546 122.707L114.547 122.684C114.503 124.587 114.29 126.679 114.102 128.865L115.099 128.951L116.095 129.036C116.278 126.9 116.5 124.714 116.546 122.731L115.546 122.707ZM115.099 128.951L114.102 128.865C113.949 130.656 113.836 132.237 113.659 133.632C113.482 135.028 113.249 136.149 112.891 137.013C112.54 137.859 112.09 138.406 111.493 138.742C110.882 139.085 109.992 139.275 108.635 139.159L108.549 140.155L108.464 141.152C110.063 141.289 111.395 141.09 112.472 140.486C113.563 139.873 114.267 138.915 114.738 137.78C115.201 136.664 115.459 135.331 115.643 133.884C115.827 132.435 115.945 130.783 116.095 129.036L115.099 128.951ZM108.549 140.155L108.635 139.159C106.197 138.95 104.037 137.658 102.461 135.641L101.673 136.257L100.885 136.872C102.753 139.263 105.396 140.889 108.464 141.152L108.549 140.155ZM101.673 136.257L100.815 135.744C100.257 136.677 99.5238 137.58 98.6128 138.402L99.2826 139.144L99.9523 139.887C101.008 138.935 101.87 137.877 102.532 136.769L101.673 136.257ZM99.2826 139.144L98.6129 138.402C94.4833 142.126 88.748 142.511 85.8097 139.821L85.1344 140.558L84.4592 141.296C88.4162 144.919 95.3492 144.038 99.9523 139.887L99.2826 139.144ZM85.1344 140.558L85.8097 139.821C84.539 138.657 83.929 137.074 83.9678 135.333L82.9681 135.31L81.9683 135.288C81.9179 137.546 82.7209 139.704 84.4592 141.296L85.1344 140.558ZM82.9681 135.31L82.2592 134.605C81.6992 135.168 81.0663 135.703 80.3615 136.192L80.9318 137.014L81.502 137.835C82.3069 137.276 83.0324 136.664 83.677 136.016L82.9681 135.31ZM80.9318 137.014L80.3615 136.192C77.9687 137.853 75.2503 138.674 72.8128 138.68C70.3669 138.686 68.2995 137.878 67.0482 136.403L66.2855 137.049L65.5229 137.696C67.2581 139.743 69.9627 140.687 72.8177 140.68C75.6811 140.673 78.7925 139.716 81.502 137.835L80.9318 137.014ZM66.2855 137.049L67.0483 136.403C65.8449 134.984 65.5287 133.103 66.0825 131.106L65.1189 130.839L64.1553 130.571C63.4582 133.085 63.8155 135.683 65.5228 137.696L66.2855 137.049ZM65.1189 130.839L64.6528 129.954C59.4437 132.699 53.4763 132.233 50.2855 128.915L49.5647 129.609L48.844 130.302C52.8426 134.459 59.8604 134.74 65.5851 131.723L65.1189 130.839ZM49.5647 129.609L50.2855 128.915C49.3284 127.92 48.9466 127.127 48.8614 126.481C48.7789 125.856 48.9533 125.208 49.4601 124.446C49.9783 123.666 50.7998 122.835 51.8985 121.887C52.994 120.942 54.2957 119.939 55.7525 118.789L55.1329 118.004L54.5133 117.219C53.0867 118.345 51.7309 119.39 50.5922 120.373C49.4567 121.352 48.4671 122.327 47.7944 123.339C47.1104 124.368 46.7142 125.498 46.8786 126.743C47.0401 127.967 47.7225 129.136 48.844 130.302L49.5647 129.609ZM55.1329 118.004L56.0369 117.576C53.0563 111.276 52.7384 104.843 52.836 100.55L51.8363 100.527L50.8365 100.504C50.7361 104.921 51.0534 111.719 54.229 118.431L55.1329 118.004ZM51.8363 100.527L52.836 100.55C53.0094 92.9302 57.0444 84.2631 63.6971 77.547C70.3363 70.8445 79.4906 66.1783 89.8038 66.4129L89.8265 65.4132L89.8493 64.4134C78.8823 64.1639 69.2219 69.1276 62.2762 76.1395C55.344 83.1377 51.0239 92.2696 50.8365 100.504L51.8363 100.527Z" fill="#FFFFF6"/>
</g>
<path d="M94.3578 76.6851C95.0239 74.694 98.1813 74.208 100.394 74.9481C102.606 75.6882 103.859 77.9023 103.193 79.8934C102.527 81.8844 100.194 82.8986 97.9814 82.1584C95.7691 81.4183 93.6917 78.6762 94.3578 76.6851Z" fill="#FFFFF9" fill-opacity="0.67"/>
<path d="M88.1808 74.3051C88.4302 73.5595 89.6126 73.3775 90.441 73.6546C91.2694 73.9318 91.7388 74.7609 91.4894 75.5064C91.2399 76.252 90.3661 76.6318 89.5377 76.3546C88.7093 76.0775 87.9314 75.0507 88.1808 74.3051Z" fill="#FFFFF9" fill-opacity="0.67"/>
<path d="M59.7321 103.281C60.5484 102.885 61.653 103.713 62.0932 104.62C62.5333 105.527 62.2284 106.583 61.4121 106.979C60.5957 107.376 59.5771 106.961 59.137 106.054C58.6968 105.147 58.9158 103.677 59.7321 103.281Z" fill="#54F6FD" fill-opacity="0.26"/>
<path d="M101.522 128.602C101.334 128.611 100.962 128.786 100.408 129.13C100.129 129.303 99.8542 129.473 99.6241 129.683C99.394 129.893 99.2171 130.137 98.7609 130.64" stroke="#00C8A3" stroke-opacity="0.5" stroke-width="2" stroke-linecap="round"/>
<path d="M62.5621 122.503C62.728 122.593 62.9875 122.911 63.3383 123.461C63.5151 123.737 63.6891 124.01 63.8058 124.299C63.9224 124.588 63.9762 124.884 64.1699 125.535" stroke="#00C8A3" stroke-opacity="0.5" stroke-width="2" stroke-linecap="round"/>
<path d="M79.0321 127.503C79.2916 127.749 79.8277 128.092 80.2732 128.54C80.779 129.048 81.2371 129.912 81.7324 130.878C82.0623 131.52 82.7832 130.365 83.4163 129.954C83.9466 129.609 84.4675 129.437 84.9983 129.234C85.3038 129.227 85.5958 129.184 85.9084 129.106C86.0939 129.087 86.3339 129.111 86.5812 129.136" stroke="#00C6E0" stroke-opacity="0.8" stroke-width="2" stroke-linecap="round"/>
<path d="M103.356 99.4781C103.436 99.214 103.715 99.0645 103.979 99.1438C104.243 99.2235 104.393 99.5024 104.313 99.7667C104.087 100.52 103.473 101.491 102.34 101.89C101.263 102.27 99.8553 102.088 98.0969 100.971C96.6524 102.471 95.3283 102.981 94.1921 102.866C92.9964 102.745 92.1712 101.947 91.7731 101.269C91.6335 101.031 91.7129 100.724 91.9508 100.585C92.1888 100.445 92.4952 100.524 92.635 100.762C92.9235 101.254 93.504 101.792 94.2924 101.872C95.0639 101.95 96.2016 101.605 97.6466 99.9859C97.6491 99.983 97.6517 99.9799 97.6544 99.9771C97.67 99.9603 97.6875 99.9459 97.705 99.9317C97.7146 99.9239 97.7237 99.9156 97.7337 99.9086C97.749 99.8979 97.7652 99.889 97.7814 99.8802C97.794 99.8734 97.8064 99.8666 97.8195 99.8609C97.8349 99.8542 97.8506 99.8486 97.8665 99.8435C97.8823 99.8384 97.8981 99.8344 97.9142 99.8309C97.9264 99.8283 97.9385 99.8262 97.9508 99.8245C97.9715 99.8217 97.9922 99.8193 98.0131 99.8191C98.0253 99.8189 98.0375 99.8198 98.0497 99.8206C98.0681 99.8217 98.0863 99.8237 98.1045 99.8268C98.1185 99.8292 98.1322 99.8329 98.146 99.8366C98.1639 99.8412 98.1817 99.8461 98.1991 99.8528C98.2108 99.8574 98.222 99.8629 98.2334 99.8684C98.2536 99.878 98.2734 99.8882 98.2924 99.9007C98.2959 99.903 98.2996 99.9049 98.303 99.9073C100.089 101.139 101.276 101.206 102.008 100.948C102.755 100.684 103.192 100.024 103.356 99.4781Z" fill="#002427"/>
<path d="M103.356 99.4781L102.877 99.3337L102.877 99.3341L103.356 99.4781ZM103.979 99.1438L104.123 98.6651L104.123 98.6649L103.979 99.1438ZM104.313 99.7667L104.792 99.9107L104.792 99.9106L104.313 99.7667ZM102.34 101.89L102.506 102.362L102.506 102.362L102.34 101.89ZM98.0969 100.971L98.3651 100.549L98.0202 100.329L97.7368 100.624L98.0969 100.971ZM94.1921 102.866L94.1418 103.364L94.1419 103.364L94.1921 102.866ZM91.7731 101.269L91.3417 101.522L91.3418 101.522L91.7731 101.269ZM91.9508 100.585L91.6979 100.153L91.6974 100.153L91.9508 100.585ZM92.635 100.762L93.0662 100.509L93.066 100.509L92.635 100.762ZM94.2924 101.872L94.242 102.369L94.2421 102.369L94.2924 101.872ZM97.6466 99.9859L97.2735 99.653L97.2735 99.653L97.6466 99.9859ZM97.6544 99.9771L98.0197 100.318L98.0197 100.318L97.6544 99.9771ZM97.705 99.9317L98.0202 100.32L98.0209 100.319L97.705 99.9317ZM97.7337 99.9086L97.4482 99.4981L97.4474 99.4987L97.7337 99.9086ZM97.7814 99.8802L98.0192 100.32L98.0201 100.32L97.7814 99.8802ZM97.8195 99.8609L97.6201 99.4024L97.6194 99.4027L97.8195 99.8609ZM97.8665 99.8435L98.0189 100.32L98.0195 100.32L97.8665 99.8435ZM97.9142 99.8309L97.8093 99.342L97.8089 99.3421L97.9142 99.8309ZM97.9508 99.8245L98.0194 100.32L98.0197 100.32L97.9508 99.8245ZM98.0131 99.8191L98.0067 99.3191L98.0063 99.3191L98.0131 99.8191ZM98.0497 99.8206L98.0196 100.32L98.0201 100.32L98.0497 99.8206ZM98.1045 99.8268L98.1896 99.3341L98.1889 99.334L98.1045 99.8268ZM98.146 99.8366L98.0189 100.32L98.0198 100.32L98.146 99.8366ZM98.1991 99.8528L98.3795 99.3865L98.3787 99.3862L98.1991 99.8528ZM98.2334 99.8684L98.0182 100.32L98.0188 100.32L98.2334 99.8684ZM98.2924 99.9007L98.0185 100.319L98.0188 100.319L98.2924 99.9007ZM98.303 99.9073L98.5869 99.4957L98.5868 99.4956L98.303 99.9073ZM102.008 100.948L102.174 101.419L102.174 101.419L102.008 100.948ZM103.356 99.4781L103.835 99.6224L103.835 99.6227L103.979 99.1438L104.123 98.6649C103.595 98.5065 103.037 98.8047 102.877 99.3337L103.356 99.4781ZM103.979 99.1438L103.835 99.6225L103.834 99.6228L104.313 99.7667L104.792 99.9106C104.951 99.3826 104.652 98.8246 104.123 98.6651L103.979 99.1438ZM104.313 99.7667L103.835 99.6227C103.639 100.273 103.113 101.087 102.174 101.419L102.34 101.89L102.506 102.362C103.833 101.894 104.535 100.767 104.792 99.9107L104.313 99.7667ZM102.34 101.89L102.174 101.419C101.292 101.73 100.047 101.617 98.3651 100.549L98.0969 100.971L97.8288 101.393C99.6632 102.558 101.234 102.811 102.506 102.362L102.34 101.89ZM98.0969 100.971L97.7368 100.624C96.3545 102.059 95.1721 102.463 94.2424 102.369L94.1921 102.866L94.1419 103.364C95.4845 103.499 96.9503 102.882 98.4571 101.317L98.0969 100.971ZM94.1921 102.866L94.2425 102.369C93.251 102.269 92.5481 101.602 92.2043 101.016L91.7731 101.269L91.3418 101.522C91.7942 102.293 92.7418 103.222 94.1418 103.364L94.1921 102.866ZM91.7731 101.269L92.2044 101.016L92.2041 101.016L91.9508 100.585L91.6974 100.153C91.2212 100.433 91.0629 101.046 91.3417 101.522L91.7731 101.269ZM91.9508 100.585L92.2037 101.016L92.2039 101.016L92.635 100.762L93.066 100.509C92.7861 100.033 92.1735 99.8743 91.6979 100.153L91.9508 100.585ZM92.635 100.762L92.2037 101.015C92.5473 101.601 93.2504 102.269 94.242 102.369L94.2924 101.872L94.3427 101.374C93.7576 101.315 93.2998 100.907 93.0662 100.509L92.635 100.762ZM94.2924 101.872L94.2421 102.369C95.2341 102.47 96.5169 102.003 98.0196 100.319L97.6466 99.9859L97.2735 99.653C95.8863 101.207 94.8937 101.43 94.3426 101.374L94.2924 101.872ZM97.6466 99.9859L98.0196 100.319C98.022 100.316 98.0241 100.314 98.0252 100.312C98.0258 100.312 98.0264 100.311 98.0266 100.311C98.027 100.31 98.0271 100.31 98.0271 100.31C98.0277 100.31 98.0244 100.313 98.0197 100.318L97.6544 99.9771L97.289 99.6358C97.2816 99.6436 97.2758 99.6504 97.2737 99.6527C97.2731 99.6534 97.2726 99.654 97.2723 99.6543C97.2719 99.6548 97.2718 99.6549 97.2718 99.6549C97.2716 99.6551 97.2724 99.6542 97.2735 99.653L97.6466 99.9859ZM97.6544 99.9771L98.0197 100.318C98.0165 100.322 98.0138 100.325 98.012 100.326C98.0102 100.328 98.0091 100.329 98.009 100.329C98.009 100.329 98.0098 100.328 98.0117 100.327C98.0137 100.325 98.0162 100.323 98.0202 100.32L97.705 99.9317L97.3898 99.5436C97.3734 99.5569 97.331 99.5908 97.289 99.6358L97.6544 99.9771ZM97.705 99.9317L98.0209 100.319C98.0266 100.315 98.0315 100.31 98.0342 100.308C98.0363 100.306 98.0363 100.306 98.0376 100.305C98.038 100.305 98.0382 100.305 98.0384 100.305C98.0385 100.305 98.0386 100.305 98.0386 100.304C98.0386 100.304 98.0387 100.304 98.0387 100.304C98.0387 100.304 98.0387 100.304 98.0387 100.304C98.0387 100.304 98.0387 100.304 98.0387 100.304C98.0387 100.304 98.0386 100.304 98.0386 100.304C98.0386 100.305 98.0385 100.305 98.0384 100.305C98.0382 100.305 98.0379 100.305 98.0376 100.305C98.0368 100.306 98.0356 100.307 98.0341 100.308C98.0311 100.31 98.0263 100.314 98.02 100.319L97.7337 99.9086L97.4474 99.4987C97.4255 99.514 97.4083 99.5281 97.3996 99.5352C97.3956 99.5386 97.3911 99.5424 97.39 99.5434C97.388 99.5451 97.3882 99.5449 97.3891 99.5441L97.705 99.9317ZM97.7337 99.9086L98.0191 100.319C98.0159 100.321 98.0133 100.323 98.0116 100.324C98.0099 100.325 98.0089 100.326 98.0089 100.326C98.0089 100.326 98.0091 100.326 98.0095 100.325C98.0099 100.325 98.0105 100.325 98.0114 100.324C98.0132 100.323 98.0156 100.322 98.0192 100.32L97.7814 99.8802L97.5436 99.4404C97.5282 99.4488 97.4892 99.4696 97.4482 99.4981L97.7337 99.9086ZM97.7814 99.8802L98.0201 100.32C98.0237 100.318 98.0257 100.317 98.0276 100.316C98.0285 100.315 98.0291 100.315 98.0295 100.315C98.0299 100.314 98.0301 100.314 98.0301 100.314C98.0301 100.314 98.0298 100.314 98.0294 100.315C98.0289 100.315 98.0283 100.315 98.0274 100.316C98.0257 100.316 98.023 100.318 98.0195 100.319L97.8195 99.8609L97.6194 99.4027C97.583 99.4186 97.5509 99.4364 97.5428 99.4409L97.7814 99.8802ZM97.8195 99.8609L98.0188 100.319L98.0189 100.32L97.8665 99.8435L97.7142 99.3673C97.6876 99.3758 97.6553 99.3871 97.6201 99.4024L97.8195 99.8609ZM97.8665 99.8435L98.0195 100.32L98.0195 100.32L97.9142 99.8309L97.8089 99.3421C97.7801 99.3483 97.7479 99.3564 97.7136 99.3675L97.8665 99.8435ZM97.9142 99.8309L98.0192 100.32L98.0194 100.32L97.9508 99.8245L97.8823 99.3293C97.8606 99.3323 97.836 99.3363 97.8093 99.342L97.9142 99.8309ZM97.9508 99.8245L98.0197 100.32L98.0199 100.319L98.0131 99.8191L98.0063 99.3191C97.9543 99.3198 97.9095 99.3255 97.882 99.3293L97.9508 99.8245ZM98.0131 99.8191L98.0196 100.319C98.0111 100.319 98.0057 100.319 98.0062 100.319C98.0063 100.319 98.0071 100.319 98.0095 100.319C98.0108 100.319 98.0119 100.319 98.0137 100.319C98.0154 100.319 98.0174 100.32 98.0196 100.32L98.0497 99.8206L98.0798 99.3215C98.0796 99.3215 98.0657 99.3206 98.0566 99.3201C98.0449 99.3195 98.0273 99.3188 98.0067 99.3191L98.0131 99.8191ZM98.0497 99.8206L98.0201 100.32L98.0201 100.32L98.1045 99.8268L98.1889 99.334C98.151 99.3275 98.1144 99.3235 98.0793 99.3214L98.0497 99.8206ZM98.1045 99.8268L98.0194 100.319C98.0152 100.319 98.0118 100.318 98.0097 100.318C98.0086 100.317 98.0078 100.317 98.0072 100.317C98.0067 100.317 98.0064 100.317 98.0064 100.317C98.0064 100.317 98.0066 100.317 98.0071 100.317C98.0077 100.317 98.0084 100.317 98.0095 100.318C98.0106 100.318 98.0118 100.318 98.0134 100.319C98.0148 100.319 98.017 100.32 98.0189 100.32L98.146 99.8366L98.2731 99.353C98.2675 99.3515 98.2297 99.341 98.1896 99.3341L98.1045 99.8268ZM98.146 99.8366L98.0198 100.32C98.0233 100.321 98.0256 100.322 98.0274 100.322C98.0291 100.323 98.0298 100.323 98.0298 100.323C98.0297 100.323 98.0287 100.323 98.027 100.322C98.0253 100.322 98.0227 100.321 98.0195 100.319L98.1991 99.8528L98.3787 99.3862C98.3331 99.3686 98.2919 99.3579 98.2723 99.3528L98.146 99.8366ZM98.1991 99.8528L98.0187 100.319C98.0144 100.317 98.0111 100.316 98.009 100.315C98.0079 100.315 98.0071 100.314 98.0065 100.314C98.0063 100.314 98.0061 100.314 98.0059 100.314C98.0058 100.314 98.0057 100.314 98.0057 100.314C98.0057 100.314 98.0058 100.314 98.0059 100.314C98.006 100.314 98.0062 100.314 98.0065 100.314C98.007 100.314 98.0078 100.315 98.0088 100.315C98.01 100.316 98.011 100.316 98.0127 100.317C98.0143 100.318 98.0162 100.319 98.0182 100.32L98.2334 99.8684L98.4487 99.4171C98.4484 99.417 98.4356 99.4108 98.427 99.4068C98.416 99.4017 98.3994 99.3942 98.3795 99.3865L98.1991 99.8528ZM98.2334 99.8684L98.0188 100.32L98.0185 100.319L98.2924 99.9007L98.5662 99.4823C98.5202 99.4522 98.4777 99.4309 98.4481 99.4168L98.2334 99.8684ZM98.2924 99.9007L98.0188 100.319C98.0261 100.324 98.0322 100.328 98.0359 100.33C98.0377 100.331 98.0393 100.332 98.0402 100.333C98.0407 100.333 98.0411 100.333 98.0413 100.333C98.0416 100.333 98.0416 100.333 98.0417 100.333C98.042 100.334 98.0394 100.332 98.036 100.33C98.0323 100.328 98.0264 100.324 98.0192 100.319L98.303 99.9073L98.5868 99.4956C98.5779 99.4895 98.5702 99.4846 98.5648 99.4812C98.5596 99.4779 98.5552 99.4753 98.5538 99.4745C98.5533 99.4742 98.5529 99.474 98.5528 99.4739C98.5525 99.4738 98.5525 99.4737 98.5525 99.4737C98.5525 99.4737 98.5532 99.4741 98.5542 99.4747C98.556 99.4759 98.5604 99.4785 98.566 99.4822L98.2924 99.9007ZM98.303 99.9073L98.0191 100.319C99.877 101.6 101.234 101.751 102.174 101.419L102.008 100.948L101.841 100.476C101.319 100.66 100.302 100.678 98.5869 99.4957L98.303 99.9073ZM102.008 100.948L102.174 101.419C103.114 101.087 103.64 100.272 103.835 99.622L103.356 99.4781L102.877 99.3341C102.744 99.7762 102.396 100.28 101.841 100.476L102.008 100.948Z" fill="#002427"/>
<ellipse cx="81.6187" cy="100.262" rx="3.55431" ry="4.88717" transform="rotate(-6.83007 81.6187 100.262)" fill="#002427"/>
<ellipse cx="111.266" cy="95.7193" rx="3.55431" ry="4.88717" transform="rotate(-6.83007 111.266 95.7193)" fill="#002427"/>
</g>
<ellipse cx="10.7776" cy="8.21417" rx="10.7776" ry="8.21417" transform="matrix(0.788673 0.614813 -0.657049 0.753848 56.2452 61.1787)" fill="url(#paint3_linear_210_1842)" stroke="#FFFFF6" stroke-width="2"/>
<ellipse cx="9.01876" cy="6.87367" rx="9.01876" ry="6.87367" transform="matrix(-0.573015 0.819545 0.849672 0.527311 104.438 54.7837)" fill="url(#paint4_linear_210_1842)" stroke="#FFFFF6" stroke-width="2"/>
<ellipse cx="8.87183" cy="6.05205" rx="8.87183" ry="6.05205" transform="matrix(0.788673 0.614813 -0.657049 0.753848 55.5586 65.5884)" fill="#17B4C8"/>
<ellipse cx="7.42449" cy="5.06473" rx="7.42449" ry="5.06473" transform="matrix(-0.573015 0.819545 0.849672 0.527311 106.072 58.1416)" fill="#17B4C8"/>
<g filter="url(#filter2_d_210_1842)">
<path d="M89.8265 67.8468C109.041 68.2841 122.661 82.6627 122.266 100.008C122.091 107.727 119.382 115.129 113.353 120.816C113.287 122.605 113.102 124.541 112.942 126.496C112.362 133.55 112.33 138.171 106.781 137.673C104.382 137.458 102.267 136.189 100.686 134.25C100.153 135.104 99.4939 135.924 98.7083 136.677C94.6065 140.608 88.6627 141.246 85.4322 138.105C84.0222 136.734 83.3612 134.869 83.4061 132.876C82.84 133.48 82.202 134.053 81.4928 134.577C76.7011 138.114 70.5492 138.139 67.7517 134.632C66.3887 132.924 66.0751 130.693 66.6647 128.444C61.5315 131.322 55.4408 130.958 52.0731 127.238C48.143 122.896 51.9643 120.16 57.4607 115.54C57.577 115.442 57.6924 115.344 57.8083 115.246C55.6451 109.71 55.4164 104.244 55.5007 100.538C55.8363 85.7886 70.6116 67.4096 89.8265 67.8468Z" fill="url(#paint5_radial_210_1842)"/>
<path d="M89.8265 67.8468L89.8492 66.847L89.8492 66.847L89.8265 67.8468ZM122.266 100.008L123.266 100.031L123.266 100.031L122.266 100.008ZM113.353 120.816L112.667 120.088C112.476 120.268 112.364 120.516 112.354 120.778L113.353 120.816ZM112.942 126.496L111.945 126.414L112.942 126.496ZM106.781 137.673L106.692 138.669L106.692 138.669L106.781 137.673ZM100.686 134.25L101.461 133.618C101.257 133.368 100.945 133.231 100.623 133.252C100.301 133.272 100.008 133.447 99.8374 133.721L100.686 134.25ZM98.7083 136.677L99.4002 137.399L99.4002 137.399L98.7083 136.677ZM85.4322 138.105L84.735 138.822L84.735 138.822L85.4322 138.105ZM83.4061 132.876L84.4058 132.898C84.4151 132.484 84.1678 132.107 83.784 131.95C83.4002 131.793 82.9595 131.89 82.6761 132.192L83.4061 132.876ZM81.4928 134.577L82.0867 135.381L82.0868 135.381L81.4928 134.577ZM67.7517 134.632L66.97 135.256L66.97 135.256L67.7517 134.632ZM66.6647 128.444L67.632 128.698C67.7337 128.31 67.5937 127.898 67.2763 127.653C66.9589 127.407 66.5256 127.376 66.1756 127.572L66.6647 128.444ZM52.0731 127.238L51.3317 127.909L51.3317 127.909L52.0731 127.238ZM57.4607 115.54L58.1041 116.305L58.1041 116.305L57.4607 115.54ZM57.8083 115.246L58.4531 116.01C58.7803 115.734 58.8955 115.281 58.7397 114.882L57.8083 115.246ZM55.5007 100.538L54.5009 100.516L55.5007 100.538ZM89.8265 67.8468L89.8037 68.8465C108.5 69.272 121.648 83.2249 121.267 99.9854L122.266 100.008L123.266 100.031C123.674 82.1005 109.583 67.2961 89.8492 66.847L89.8265 67.8468ZM122.266 100.008L121.267 99.9854C121.096 107.479 118.473 114.612 112.667 120.088L113.353 120.816L114.039 121.543C120.292 115.646 123.085 107.976 123.266 100.031L122.266 100.008ZM113.353 120.816L112.354 120.778C112.288 122.538 112.107 124.439 111.945 126.414L112.942 126.496L113.938 126.578C114.097 124.643 114.285 122.671 114.353 120.853L113.353 120.816ZM112.942 126.496L111.945 126.414C111.798 128.199 111.69 129.776 111.522 131.169C111.354 132.563 111.134 133.685 110.794 134.552C110.46 135.404 110.036 135.944 109.491 136.27C108.938 136.601 108.127 136.79 106.871 136.677L106.781 137.673L106.692 138.669C108.21 138.806 109.485 138.604 110.516 137.987C111.556 137.366 112.216 136.404 112.656 135.282C113.09 134.174 113.334 132.849 113.508 131.408C113.682 129.966 113.795 128.321 113.938 126.578L112.942 126.496ZM106.781 137.673L106.871 136.677C104.782 136.49 102.902 135.385 101.461 133.618L100.686 134.25L99.9108 134.882C101.633 136.994 103.981 138.426 106.692 138.669L106.781 137.673ZM100.686 134.25L99.8374 133.721C99.3486 134.504 98.7418 135.26 98.0164 135.955L98.7083 136.677L99.4002 137.399C100.246 136.589 100.958 135.703 101.534 134.779L100.686 134.25ZM98.7083 136.677L98.0164 135.955C94.147 139.663 88.8353 140.019 86.1293 137.388L85.4322 138.105L84.735 138.822C88.4901 142.474 95.066 141.552 99.4002 137.399L98.7083 136.677ZM85.4322 138.105L86.1293 137.388C84.9452 136.236 84.3663 134.653 84.4058 132.898L83.4061 132.876L82.4063 132.853C82.3561 135.085 83.0992 137.231 84.735 138.822L85.4322 138.105ZM83.4061 132.876L82.6761 132.192C82.1507 132.753 81.5581 133.286 80.8989 133.772L81.4928 134.577L82.0868 135.381C82.8459 134.821 83.5292 134.207 84.136 133.559L83.4061 132.876ZM81.4928 134.577L80.899 133.772C78.6611 135.424 76.1292 136.237 73.8704 136.246C71.6086 136.255 69.6962 135.466 68.5334 134.009L67.7517 134.632L66.97 135.256C68.6047 137.305 71.167 138.257 73.8784 138.246C76.5928 138.235 79.5328 137.267 82.0867 135.381L81.4928 134.577ZM67.7517 134.632L68.5334 134.009C67.406 132.596 67.1052 130.707 67.632 128.698L66.6647 128.444L65.6974 128.19C65.0449 130.679 65.3713 133.252 66.97 135.256L67.7517 134.632ZM66.6647 128.444L66.1756 127.572C61.3142 130.297 55.7758 129.838 52.8145 126.567L52.0731 127.238L51.3317 127.909C55.1057 132.078 61.7489 132.347 67.1537 129.316L66.6647 128.444ZM52.0731 127.238L52.8145 126.567C51.9146 125.572 51.5537 124.774 51.4774 124.113C51.4027 123.467 51.5824 122.803 52.075 122.031C52.5779 121.243 53.3687 120.403 54.4207 119.446C55.471 118.489 56.7134 117.474 58.1041 116.305L57.4607 115.54L56.8173 114.774C55.4598 115.915 54.1634 116.975 53.0742 117.967C51.9866 118.957 51.0372 119.939 50.3889 120.955C49.7304 121.987 49.3481 123.11 49.4906 124.343C49.6313 125.56 50.2665 126.732 51.3317 127.909L52.0731 127.238ZM57.4607 115.54L58.1041 116.305C58.2183 116.209 58.3456 116.101 58.4531 116.01L57.8083 115.246L57.1635 114.482C57.0392 114.586 56.9356 114.675 56.8173 114.774L57.4607 115.54ZM57.8083 115.246L58.7397 114.882C56.6462 109.524 56.4174 104.211 56.5004 100.561L55.5007 100.538L54.5009 100.516C54.4153 104.277 54.644 109.895 56.8769 115.61L57.8083 115.246ZM55.5007 100.538L56.5004 100.561C56.6615 93.4839 60.305 85.4309 66.3047 79.1905C72.2926 72.9625 80.5342 68.6356 89.8037 68.8465L89.8265 67.8468L89.8492 66.847C79.9038 66.6207 71.1503 71.2648 64.863 77.8044C58.5874 84.3317 54.6755 92.8431 54.5009 100.516L55.5007 100.538Z" fill="#FFFFF6"/>
</g>
<path d="M93.8506 78.0856C94.4925 76.1671 97.5349 75.6987 99.6666 76.4119C101.798 77.1251 103.006 79.2585 102.364 81.177C101.722 83.0956 99.474 84.0728 97.3423 83.3596C95.2106 82.6464 93.2088 80.0042 93.8506 78.0856Z" fill="#FFFFF9" fill-opacity="0.67"/>
<path d="M87.8985 75.792C88.1389 75.0736 89.2781 74.8982 90.0764 75.1653C90.8746 75.4323 91.3269 76.2312 91.0866 76.9497C90.8462 77.6681 90.0043 78.034 89.206 77.767C88.4078 77.4999 87.6582 76.5105 87.8985 75.792Z" fill="#FFFFF9" fill-opacity="0.67"/>
<path d="M60.4863 103.713C61.2729 103.331 62.3373 104.129 62.7614 105.003C63.1855 105.877 62.8917 106.895 62.1051 107.277C61.3185 107.658 60.337 107.259 59.9129 106.385C59.4888 105.511 59.6998 104.094 60.4863 103.713Z" fill="#54F6FD" fill-opacity="0.26"/>
<path d="M103.397 123.488C103.215 123.497 102.857 123.665 102.323 123.996C102.054 124.163 101.789 124.327 101.568 124.529C101.346 124.732 101.175 124.967 100.736 125.452" stroke="#00C8A3" stroke-opacity="0.5" stroke-width="2" stroke-linecap="round"/>
<path d="M65.8554 117.611C66.0152 117.697 66.2652 118.004 66.6033 118.533C66.7736 118.8 66.9413 119.063 67.0537 119.341C67.1661 119.619 67.218 119.905 67.4045 120.533" stroke="#00C8A3" stroke-opacity="0.5" stroke-width="2" stroke-linecap="round"/>
<path d="M81.7255 122.429C81.9756 122.666 82.4922 122.996 82.9214 123.428C83.4088 123.918 83.8502 124.75 84.3275 125.68C84.6454 126.3 85.34 125.187 85.95 124.79C86.461 124.458 86.9629 124.293 87.4744 124.097C87.7687 124.09 88.0501 124.049 88.3514 123.973C88.5301 123.955 88.7614 123.978 88.9996 124.002" stroke="#00C6E0" stroke-opacity="0.8" stroke-width="2" stroke-linecap="round"/>
<path d="M101.678 93.881C101.793 93.6299 102.089 93.5192 102.34 93.6332C102.591 93.7475 102.702 94.0439 102.588 94.2952C102.273 94.9888 101.558 95.8417 100.417 96.0789C99.3348 96.3037 98.0132 95.9454 96.4804 94.6568C94.909 95.8984 93.5773 96.2165 92.5022 95.9589C91.3687 95.6872 90.6804 94.8131 90.3864 94.1102C90.2799 93.8556 90.3997 93.5627 90.6541 93.456C90.9088 93.3496 91.2017 93.4693 91.3084 93.7238C91.5188 94.2273 92.0002 94.8095 92.7357 94.9858C93.4545 95.158 94.5794 94.9802 96.1659 93.6226C96.1687 93.6202 96.1719 93.6182 96.1748 93.6159C96.1944 93.5999 96.2147 93.5855 96.236 93.5729C96.2432 93.5686 96.2504 93.5644 96.2577 93.5605C96.2768 93.5504 96.2966 93.5424 96.3167 93.535C96.3291 93.5304 96.3413 93.5255 96.354 93.5219C96.3702 93.5173 96.3865 93.5138 96.403 93.5109C96.4189 93.5081 96.4349 93.5061 96.4509 93.5048C96.4562 93.5044 96.4613 93.5034 96.4666 93.5031L96.5291 93.5041C96.534 93.5044 96.5388 93.5057 96.5437 93.5062C96.5597 93.5079 96.5756 93.5105 96.5914 93.5138C96.6079 93.5172 96.624 93.5212 96.6401 93.5262C96.6536 93.5305 96.6667 93.5361 96.6799 93.5415C96.6966 93.5483 96.7134 93.555 96.7294 93.5637C96.7428 93.5711 96.7552 93.5801 96.7681 93.5887C96.7835 93.5991 96.7981 93.6104 96.8125 93.6226C96.8167 93.6262 96.8218 93.6288 96.826 93.6326C98.3704 95.0374 99.4896 95.2493 100.213 95.0991C100.954 94.9453 101.453 94.3778 101.678 93.881Z" fill="#002427"/>
<path d="M101.678 93.881L101.223 93.6738L101.223 93.6742L101.678 93.881ZM102.34 93.6332L102.547 93.1781L102.547 93.1778L102.34 93.6332ZM102.588 94.2952L103.043 94.5021L103.043 94.5019L102.588 94.2952ZM100.417 96.0789L100.519 96.5685L100.519 96.5684L100.417 96.0789ZM96.4804 94.6568L96.8021 94.274L96.4901 94.0118L96.1704 94.2645L96.4804 94.6568ZM92.5022 95.9589L92.3856 96.4451L92.3857 96.4452L92.5022 95.9589ZM90.3864 94.1102L89.9251 94.3031L89.9251 94.3032L90.3864 94.1102ZM90.6541 93.456L90.4614 92.9947L90.4609 92.9949L90.6541 93.456ZM91.3084 93.7238L91.7697 93.5309L91.7695 93.5305L91.3084 93.7238ZM92.7357 94.9858L92.6192 95.472L92.6192 95.472L92.7357 94.9858ZM96.1659 93.6226L95.8411 93.2424L95.8408 93.2427L96.1659 93.6226ZM96.1748 93.6159L96.4912 94.003L96.4915 94.0028L96.1748 93.6159ZM96.236 93.5729L96.4909 94.003L96.4914 94.0027L96.236 93.5729ZM96.2577 93.5605L96.0248 93.118L96.0241 93.1184L96.2577 93.5605ZM96.3167 93.535L96.4904 94.0039L96.4911 94.0036L96.3167 93.535ZM96.354 93.5219L96.218 93.0407L96.2175 93.0409L96.354 93.5219ZM96.403 93.5109L96.49 94.0033L96.4904 94.0032L96.403 93.5109ZM96.4509 93.5048L96.4118 93.0064L96.4115 93.0064L96.4509 93.5048ZM96.4666 93.5031L96.4742 93.0032L96.4586 93.0029L96.443 93.0037L96.4666 93.5031ZM96.5291 93.5041L96.5675 93.0055L96.5521 93.0043L96.5367 93.0041L96.5291 93.5041ZM96.5437 93.5062L96.597 93.0091L96.5967 93.009L96.5437 93.5062ZM96.5914 93.5138L96.4904 94.0035L96.4908 94.0036L96.5914 93.5138ZM96.6401 93.5262L96.79 93.0493L96.7893 93.049L96.6401 93.5262ZM96.6799 93.5415L96.4895 94.0038L96.4904 94.0042L96.6799 93.5415ZM96.7294 93.5637L96.9691 93.125L96.9683 93.1245L96.7294 93.5637ZM96.7681 93.5887L96.4887 94.0034L96.4893 94.0038L96.7681 93.5887ZM96.8125 93.6226L96.4887 94.0036L96.4888 94.0037L96.8125 93.6226ZM96.826 93.6326L97.1624 93.2627L97.1621 93.2624L96.826 93.6326ZM100.213 95.0991L100.315 95.5887L100.315 95.5887L100.213 95.0991ZM101.678 93.881L102.133 94.0881L102.134 94.0885L102.34 93.6332L102.547 93.1778C102.045 92.9503 101.452 93.1708 101.223 93.6738L101.678 93.881ZM102.34 93.6332L102.133 94.0882L102.133 94.0885L102.588 94.2952L103.043 94.5019C103.271 93.9999 103.05 93.407 102.547 93.1781L102.34 93.6332ZM102.588 94.2952L102.133 94.0883C101.862 94.6844 101.255 95.394 100.315 95.5894L100.417 96.0789L100.519 96.5684C101.861 96.2894 102.684 95.2933 103.043 94.5021L102.588 94.2952ZM100.417 96.0789L100.316 95.5894C99.436 95.772 98.2663 95.5049 96.8021 94.274L96.4804 94.6568L96.1586 95.0395C97.7602 96.3859 99.2337 96.8353 100.519 96.5685L100.417 96.0789ZM96.4804 94.6568L96.1704 94.2645C94.6694 95.4505 93.4923 95.682 92.6186 95.4727L92.5022 95.9589L92.3857 96.4452C93.6623 96.751 95.1486 96.3464 96.7904 95.0491L96.4804 94.6568ZM92.5022 95.9589L92.6187 95.4727C91.685 95.2489 91.1003 94.5213 90.8477 93.9173L90.3864 94.1102L89.9251 94.3032C90.2605 95.105 91.0524 96.1255 92.3856 96.4451L92.5022 95.9589ZM90.3864 94.1102L90.8477 93.9174L90.8474 93.9171L90.6541 93.456L90.4609 92.9949C89.9513 93.2084 89.7124 93.7944 89.9251 94.3031L90.3864 94.1102ZM90.6541 93.456L90.8469 93.9174L90.8472 93.9171L91.3084 93.7238L91.7695 93.5305C91.5559 93.0209 90.9699 92.7822 90.4614 92.9947L90.6541 93.456ZM91.3084 93.7238L90.847 93.9166C91.0997 94.521 91.6854 95.2483 92.6192 95.472L92.7357 94.9858L92.8522 94.4996C92.3149 94.3708 91.938 93.9335 91.7697 93.5309L91.3084 93.7238ZM92.7357 94.9858L92.6192 95.472C93.5533 95.6958 94.8383 95.4167 96.491 94.0025L96.1659 93.6226L95.8408 93.2427C94.3204 94.5437 93.3557 94.6202 92.8522 94.4995L92.7357 94.9858ZM96.1659 93.6226L96.4907 94.0027C96.4814 94.0107 96.4736 94.0167 96.4687 94.0204C96.4642 94.0238 96.4607 94.0263 96.4612 94.0259C96.4614 94.0258 96.4611 94.026 96.4617 94.0256C96.462 94.0254 96.4625 94.025 96.4631 94.0245C96.4643 94.0237 96.4664 94.0222 96.4688 94.0204C96.4737 94.0168 96.4817 94.0108 96.4912 94.003L96.1748 93.6159L95.8584 93.2287C95.8665 93.2221 95.8731 93.2172 95.8764 93.2148C95.8781 93.2135 95.8794 93.2126 95.8799 93.2123C95.88 93.2122 95.8806 93.2117 95.8795 93.2125C95.8785 93.2132 95.8735 93.2168 95.8675 93.2213C95.8612 93.2261 95.8519 93.2333 95.8411 93.2424L96.1659 93.6226ZM96.1748 93.6159L96.4915 94.0028L96.4909 94.003L96.236 93.5729L95.9811 93.1427C95.9365 93.1691 95.8956 93.1983 95.8581 93.229L96.1748 93.6159ZM96.236 93.5729L96.4914 94.0027L96.4912 94.0026L96.2577 93.5605L96.0241 93.1184C96.0043 93.1289 95.9871 93.1391 95.9806 93.143L96.236 93.5729ZM96.2577 93.5605L96.4906 94.0029L96.4904 94.0039L96.3167 93.535L96.143 93.0662C96.1156 93.0763 96.0723 93.0931 96.0248 93.118L96.2577 93.5605ZM96.3167 93.535L96.4911 94.0036C96.4955 94.002 96.5004 94.0001 96.5023 93.9994C96.5036 93.9989 96.5044 93.9986 96.5051 93.9984C96.5054 93.9982 96.5056 93.9982 96.5058 93.9981C96.5059 93.998 96.506 93.998 96.506 93.998C96.506 93.998 96.5059 93.9981 96.5057 93.9981C96.5056 93.9982 96.5053 93.9983 96.505 93.9984C96.5044 93.9986 96.5034 93.9989 96.5021 93.9994C96.4996 94.0002 96.4956 94.0015 96.4905 94.0029L96.354 93.5219L96.2175 93.0409C96.195 93.0473 96.1764 93.0538 96.1645 93.0581C96.1585 93.0603 96.1531 93.0623 96.1497 93.0636C96.1454 93.0653 96.1441 93.0657 96.1423 93.0664L96.3167 93.535ZM96.354 93.5219L96.4899 94.0031L96.49 94.0033L96.403 93.5109L96.316 93.0186C96.288 93.0235 96.2546 93.0304 96.218 93.0407L96.354 93.5219ZM96.403 93.5109L96.4904 94.0032L96.4904 94.0033L96.4509 93.5048L96.4115 93.0064C96.38 93.0089 96.348 93.0129 96.3156 93.0186L96.403 93.5109ZM96.4509 93.5048L96.4901 94.0033C96.5014 94.0024 96.5106 94.0013 96.5161 94.0007C96.5189 94.0003 96.5212 94 96.5226 93.9998C96.5233 93.9997 96.5239 93.9996 96.5242 93.9996C96.5246 93.9995 96.5247 93.9995 96.5248 93.9995C96.5253 93.9995 96.5214 94 96.5162 94.0006C96.5106 94.0012 96.5015 94.002 96.4901 94.0026L96.4666 93.5031L96.443 93.0037C96.429 93.0043 96.4173 93.0054 96.4092 93.0063C96.4013 93.0071 96.3949 93.008 96.3928 93.0083C96.3922 93.0084 96.3916 93.0084 96.3914 93.0085C96.391 93.0085 96.391 93.0085 96.391 93.0085C96.3911 93.0085 96.3921 93.0084 96.3936 93.0082C96.3965 93.0078 96.4031 93.007 96.4118 93.0064L96.4509 93.5048ZM96.4666 93.5031L96.459 94.003L96.5215 94.004L96.5291 93.5041L96.5367 93.0041L96.4742 93.0032L96.4666 93.5031ZM96.5291 93.5041L96.4907 94.0026C96.477 94.0015 96.466 94 96.4593 93.9991C96.453 93.9981 96.4483 93.9973 96.449 93.9974C96.4491 93.9974 96.4491 93.9974 96.4496 93.9975C96.45 93.9976 96.4508 93.9977 96.4516 93.9978C96.4532 93.9981 96.456 93.9986 96.4594 93.9992C96.466 94.0003 96.477 94.002 96.4907 94.0034L96.5437 93.5062L96.5967 93.009C96.6079 93.0102 96.6165 93.0116 96.6207 93.0123C96.6229 93.0126 96.6244 93.0129 96.6248 93.013C96.6251 93.013 96.6252 93.013 96.625 93.013C96.6249 93.013 96.6243 93.0129 96.6238 93.0128C96.622 93.0125 96.6149 93.0112 96.6062 93.0099C96.5971 93.0085 96.5837 93.0068 96.5675 93.0055L96.5291 93.5041ZM96.5437 93.5062L96.4904 94.0034L96.4904 94.0035L96.5914 93.5138L96.6925 93.0241C96.6627 93.018 96.6308 93.0127 96.597 93.0091L96.5437 93.5062ZM96.5914 93.5138L96.4908 94.0036L96.4908 94.0035L96.6401 93.5262L96.7893 93.049C96.7553 93.0384 96.7226 93.0303 96.6921 93.024L96.5914 93.5138ZM96.6401 93.5262L96.4902 94.0032C96.4858 94.0019 96.4825 94.0007 96.4803 93.9999C96.4792 93.9995 96.4784 93.9992 96.4778 93.999C96.4773 93.9988 96.477 93.9987 96.477 93.9987C96.477 93.9987 96.4772 93.9988 96.4777 93.999C96.4783 93.9992 96.479 93.9995 96.4801 93.9999C96.4812 94.0004 96.4824 94.0009 96.484 94.0016C96.4855 94.0022 96.4875 94.003 96.4895 94.0038L96.6799 93.5415L96.8703 93.0792C96.8661 93.0774 96.8291 93.0616 96.79 93.0493L96.6401 93.5262ZM96.6799 93.5415L96.4904 94.0042C96.496 94.0065 96.4982 94.0074 96.5013 94.0087C96.5025 94.0092 96.5034 94.0095 96.504 94.0098C96.5046 94.01 96.5048 94.0101 96.5048 94.0101C96.5048 94.0101 96.5044 94.01 96.5038 94.0097C96.5032 94.0094 96.5022 94.009 96.501 94.0084C96.4986 94.0072 96.495 94.0054 96.4904 94.0029L96.7294 93.5637L96.9683 93.1245C96.9231 93.0999 96.8777 93.0822 96.8694 93.0788L96.6799 93.5415ZM96.7294 93.5637L96.4896 94.0025C96.4837 93.9993 96.4791 93.9965 96.4762 93.9947C96.4748 93.9938 96.4737 93.9931 96.473 93.9927C96.4726 93.9924 96.4723 93.9923 96.4721 93.9921C96.4721 93.9921 96.472 93.992 96.4719 93.992C96.4719 93.992 96.4719 93.992 96.4719 93.992C96.4719 93.992 96.4719 93.992 96.4719 93.992C96.472 93.992 96.472 93.9921 96.4721 93.9921C96.4723 93.9923 96.4726 93.9924 96.4729 93.9927C96.4737 93.9932 96.4746 93.9938 96.4761 93.9948C96.4784 93.9964 96.4836 94 96.4887 94.0034L96.7681 93.5887L97.0474 93.174C97.0461 93.1732 97.0449 93.1723 97.0409 93.1696C97.0376 93.1673 97.0321 93.1636 97.026 93.1595C97.0139 93.1514 96.9939 93.1385 96.9691 93.125L96.7294 93.5637ZM96.7681 93.5887L96.4893 94.0038L96.4887 94.0036L96.8125 93.6226L97.1362 93.2416C97.1104 93.2197 97.0807 93.1964 97.0468 93.1737L96.7681 93.5887ZM96.8125 93.6226L96.4888 94.0037C96.5047 94.0172 96.5185 94.0273 96.5267 94.0331C96.531 94.0361 96.5345 94.0385 96.5366 94.04C96.5376 94.0407 96.5385 94.0413 96.539 94.0416C96.5393 94.0418 96.5395 94.042 96.5396 94.042C96.5398 94.0421 96.5398 94.0422 96.5398 94.0422C96.54 94.0423 96.5386 94.0413 96.5366 94.04C96.5345 94.0385 96.5311 94.0361 96.5269 94.033C96.5187 94.027 96.5053 94.0168 96.4899 94.0028L96.826 93.6326L97.1621 93.2624C97.1446 93.2465 97.1291 93.2346 97.1186 93.2269C97.1086 93.2196 97.1001 93.2139 97.0987 93.2129C97.0969 93.2117 97.098 93.2125 97.0985 93.2128C97.0994 93.2134 97.1018 93.215 97.1049 93.2172C97.1108 93.2214 97.1224 93.2298 97.1362 93.2416L96.8125 93.6226ZM96.826 93.6326L96.4896 94.0025C98.0984 95.4659 99.3745 95.7839 100.315 95.5887L100.213 95.0991L100.112 94.6096C99.6047 94.7148 98.6425 94.609 97.1624 93.2627L96.826 93.6326ZM100.213 95.0991L100.315 95.5887C101.255 95.3934 101.863 94.6841 102.133 94.0878L101.678 93.881L101.223 93.6742C101.043 94.0715 100.652 94.4972 100.112 94.6096L100.213 95.0991Z" fill="#002427"/>
<ellipse cx="80.8361" cy="91.8318" rx="3.42484" ry="4.70915" transform="rotate(0.868495 80.8361 91.8318)" fill="#002427"/>
<ellipse cx="109.731" cy="91.3206" rx="3.42484" ry="4.70915" transform="rotate(0.868495 109.731 91.3206)" fill="#002427"/>
</g>
<g opacity="0.4">
<g filter="url(#filter3_f_210_1842)">
<path d="M285.165 132.132C284.387 130.858 283.998 129.554 283.967 128.5C283.936 127.422 284.271 126.77 284.722 126.495C285.173 126.219 285.906 126.219 286.851 126.739C287.775 127.248 288.756 128.19 289.534 129.464C290.312 130.738 290.702 132.041 290.732 133.095C290.763 134.174 290.429 134.825 289.977 135.101C289.526 135.376 288.793 135.377 287.848 134.856C286.925 134.348 285.943 133.406 285.165 132.132Z" fill="url(#paint6_linear_210_1842)" stroke="#FFFFF6" stroke-width="1.5"/>
<path d="M292.329 131.469C291.559 130.208 291.21 128.894 291.235 127.813C291.26 126.722 291.653 125.974 292.239 125.616C292.825 125.258 293.67 125.25 294.652 125.726C295.626 126.198 296.635 127.108 297.405 128.369C298.175 129.63 298.524 130.944 298.499 132.025C298.473 133.116 298.08 133.864 297.495 134.222C296.909 134.58 296.064 134.588 295.082 134.112C294.108 133.64 293.099 132.729 292.329 131.469Z" fill="url(#paint7_linear_210_1842)" stroke="#FFFFF6" stroke-width="1.5"/>
<path d="M298.684 127.587C297.906 126.313 297.517 125.01 297.486 123.956C297.455 122.878 297.79 122.226 298.241 121.95C298.693 121.675 299.425 121.674 300.37 122.195C301.294 122.704 302.275 123.645 303.053 124.919C303.832 126.194 304.221 127.497 304.251 128.551C304.283 129.629 303.948 130.281 303.497 130.556C303.045 130.832 302.313 130.832 301.368 130.312C300.444 129.803 299.463 128.862 298.684 127.587Z" fill="url(#paint8_linear_210_1842)" stroke="#FFFFF6" stroke-width="1.5"/>
<path d="M302.82 121.35C302.039 120.072 301.636 118.772 301.587 117.727C301.535 116.65 301.853 116.033 302.257 115.787C302.66 115.54 303.354 115.539 304.289 116.077C305.196 116.599 306.168 117.551 306.949 118.829C307.73 120.108 308.132 121.408 308.182 122.453C308.233 123.53 307.916 124.146 307.512 124.393C307.108 124.639 306.415 124.64 305.48 124.103C304.573 123.581 303.601 122.629 302.82 121.35Z" fill="url(#paint9_linear_210_1842)" stroke="#FFFFF6" stroke-width="1.5"/>
<path d="M277.836 94.0107C288.337 87.2389 302.356 90.4977 307.927 99.1352C313.451 107.7 309.673 120.231 299.091 127.056C288.508 133.881 275.534 132.152 270.011 123.588C264.443 114.953 267.333 100.785 277.836 94.0107Z" fill="url(#paint10_radial_210_1842)" stroke="#FFFFF6" stroke-width="1.5"/>
<ellipse cx="285.211" cy="106.051" rx="5.86543" ry="4.26576" transform="rotate(-28.2343 285.211 106.051)" fill="#FCFFE8" fill-opacity="0.6"/>
<ellipse cx="286.659" cy="96.2705" rx="3.6254" ry="2.63665" transform="rotate(2.83836 286.659 96.2705)" fill="#FCFFE8" fill-opacity="0.6"/>
<ellipse cx="3.6254" cy="2.63665" rx="3.6254" ry="2.63665" transform="matrix(-0.47037 0.882469 0.882469 0.47037 275.205 99.4902)" fill="#FCFFE8" fill-opacity="0.6"/>
</g>
<path d="M286.005 132.916C285.227 131.642 284.838 130.338 284.807 129.284C284.776 128.206 285.111 127.554 285.562 127.279C286.013 127.003 286.746 127.003 287.691 127.524C288.615 128.032 289.596 128.974 290.374 130.248C291.152 131.522 291.541 132.825 291.572 133.879C291.603 134.958 291.269 135.61 290.817 135.885C290.366 136.161 289.633 136.161 288.688 135.64C287.765 135.132 286.783 134.19 286.005 132.916Z" fill="url(#paint11_linear_210_1842)" stroke="#FFFFF6" stroke-width="1.5"/>
<path d="M293.169 132.253C292.399 130.992 292.05 129.678 292.075 128.597C292.1 127.506 292.493 126.758 293.079 126.4C293.665 126.042 294.51 126.034 295.492 126.51C296.465 126.982 297.474 127.892 298.244 129.153C299.014 130.414 299.363 131.728 299.338 132.809C299.313 133.9 298.92 134.648 298.334 135.006C297.748 135.364 296.903 135.372 295.921 134.896C294.948 134.424 293.939 133.514 293.169 132.253Z" fill="url(#paint12_linear_210_1842)" stroke="#FFFFF6" stroke-width="1.5"/>
<path d="M299.524 128.371C298.746 127.097 298.357 125.794 298.326 124.74C298.295 123.662 298.63 123.01 299.081 122.734C299.532 122.459 300.265 122.459 301.21 122.979C302.134 123.488 303.115 124.429 303.893 125.704C304.672 126.978 305.061 128.281 305.091 129.335C305.123 130.413 304.788 131.065 304.337 131.341C303.885 131.616 303.153 131.616 302.208 131.096C301.284 130.587 300.303 129.646 299.524 128.371Z" fill="url(#paint13_linear_210_1842)" stroke="#FFFFF6" stroke-width="1.5"/>
<path d="M303.659 122.135C302.879 120.856 302.476 119.556 302.426 118.511C302.375 117.434 302.692 116.817 303.096 116.571C303.5 116.324 304.194 116.324 305.128 116.861C306.035 117.383 307.008 118.335 307.788 119.613C308.569 120.892 308.972 122.192 309.022 123.237C309.073 124.314 308.755 124.931 308.352 125.177C307.948 125.424 307.254 125.425 306.32 124.887C305.413 124.365 304.44 123.413 303.659 122.135Z" fill="url(#paint14_linear_210_1842)" stroke="#FFFFF6" stroke-width="1.5"/>
<path d="M278.676 94.7948C289.177 88.0231 303.196 91.2818 308.767 99.9194C314.291 108.484 310.513 121.015 299.931 127.84C289.348 134.665 276.374 132.936 270.851 124.372C265.283 115.737 268.173 101.569 278.676 94.7948Z" fill="url(#paint15_radial_210_1842)" stroke="#FFFFF6" stroke-width="1.5"/>
<ellipse cx="286.051" cy="106.834" rx="5.86543" ry="4.26576" transform="rotate(-28.2343 286.051 106.834)" fill="#FCFFE8" fill-opacity="0.6"/>
<ellipse cx="287.499" cy="97.0546" rx="3.6254" ry="2.63665" transform="rotate(2.83836 287.499 97.0546)" fill="#FCFFE8" fill-opacity="0.6"/>
<ellipse cx="3.6254" cy="2.63665" rx="3.6254" ry="2.63665" transform="matrix(-0.47037 0.882469 0.882469 0.47037 276.045 100.274)" fill="#FCFFE8" fill-opacity="0.6"/>
</g>
<g opacity="0.22">
<g filter="url(#filter4_f_210_1842)">
<path d="M15.8612 14.4402C15.4584 12.5451 17.7159 11.2416 19.1557 12.538L22.5924 15.6324C23.2363 16.2122 24.1803 16.3114 24.9307 15.8782L28.9356 13.566C30.6134 12.5972 32.5507 14.3415 31.7627 16.1115L29.8817 20.3361C29.5293 21.1277 29.7266 22.0561 30.3705 22.6359L33.8072 25.7303C35.247 27.0267 34.1867 29.4081 32.2599 29.2056L27.6607 28.7222C26.799 28.6316 25.977 29.1062 25.6246 29.8978L23.7437 34.1224C22.9556 35.8924 20.3631 35.6199 19.9603 33.7248L18.9988 29.2014C18.8186 28.3539 18.1133 27.7187 17.2515 27.6282L12.6524 27.1448C10.7256 26.9423 10.1836 24.3924 11.8615 23.4237L15.8664 21.1114C16.6167 20.6782 17.0028 19.8111 16.8227 18.9636L15.8612 14.4402Z" fill="url(#paint16_radial_210_1842)"/>
<path d="M15.1274 14.5959C14.5738 11.9904 17.6774 10.1986 19.6571 11.9807L23.0945 15.075C23.4969 15.4373 24.0864 15.4991 24.5553 15.2284L28.5607 12.9159C30.8677 11.5843 33.5317 13.9832 32.4482 16.4168L30.5671 20.641C30.3468 21.1357 30.4701 21.7159 30.8726 22.0783L34.3091 25.1731C36.2886 26.9557 34.8309 30.2295 32.1816 29.9512L27.5828 29.4681C27.0442 29.4115 26.5302 29.7083 26.31 30.203L24.4289 34.4273C23.3454 36.8608 19.7805 36.4866 19.2264 33.8811L18.2653 29.3571C18.1526 28.8275 17.7117 28.4306 17.1733 28.3739L12.5744 27.8909C9.92503 27.6124 9.17923 24.1058 11.4863 22.7738L15.4908 20.4618C15.9598 20.191 16.2019 19.6491 16.0893 19.1194L15.1274 14.5959Z" stroke="#FFFFF6" stroke-width="1.5"/>
</g>
<path d="M16.2405 16.3391C15.6868 13.7334 18.7913 11.941 20.771 13.7233L23.3857 16.0782C23.788 16.4404 24.3777 16.5022 24.8466 16.2316L27.8937 14.4723C30.2008 13.1403 32.8642 15.5387 31.7807 17.9723L30.3504 21.1864C30.1302 21.6811 30.2535 22.2614 30.6559 22.6237L33.2705 24.9786C35.2499 26.7611 33.7922 30.0348 31.1431 29.7567L27.6436 29.3887C27.1051 29.3322 26.5911 29.629 26.3708 30.1236L24.9397 33.3382C23.8561 35.7717 20.292 35.3972 19.738 32.7916L19.006 29.3498C18.8933 28.8202 18.4525 28.4232 17.914 28.3666L14.4145 27.9987C11.7656 27.7198 11.0208 24.2139 13.3277 22.882L16.3749 21.1227C16.8436 20.8519 17.085 20.3103 16.9725 19.7808L16.2405 16.3391Z" fill="url(#paint17_radial_210_1842)" stroke="#FFFFF6" stroke-width="1.5"/>
</g>
<defs>
<filter id="filter0_f_210_1842" x="34.0914" y="41.7653" width="105.394" height="114.504" filterUnits="userSpaceOnUse" color-interpolation-filters="sRGB">
<feFlood flood-opacity="0" result="BackgroundImageFix"/>
<feBlend mode="normal" in="SourceGraphic" in2="BackgroundImageFix" result="shape"/>
<feGaussianBlur stdDeviation="6.35" result="effect1_foregroundBlur_210_1842"/>
</filter>
<filter id="filter1_d_210_1842" x="42.3415" y="56.9043" width="88.9437" height="88.165" filterUnits="userSpaceOnUse" color-interpolation-filters="sRGB">
<feFlood flood-opacity="0" result="BackgroundImageFix"/>
<feColorMatrix in="SourceAlpha" type="matrix" values="0 0 0 0 0 0 0 0 0 0 0 0 0 0 0 0 0 0 127 0" result="hardAlpha"/>
<feOffset dy="-3"/>
<feGaussianBlur stdDeviation="2.25"/>
<feComposite in2="hardAlpha" operator="out"/>
<feColorMatrix type="matrix" values="0 0 0 0 0 0 0 0 0 0 0 0 0 0 0 0 0 0 0.25 0"/>
<feBlend mode="normal" in2="BackgroundImageFix" result="effect1_dropShadow_210_1842"/>
<feBlend mode="normal" in="SourceGraphic" in2="effect1_dropShadow_210_1842" result="shape"/>
</filter>
<filter id="filter2_d_210_1842" x="44.9609" y="59.3394" width="82.8138" height="83.2632" filterUnits="userSpaceOnUse" color-interpolation-filters="sRGB">
<feFlood flood-opacity="0" result="BackgroundImageFix"/>
<feColorMatrix in="SourceAlpha" type="matrix" values="0 0 0 0 0 0 0 0 0 0 0 0 0 0 0 0 0 0 127 0" result="hardAlpha"/>
<feOffset dy="-3"/>
<feGaussianBlur stdDeviation="2.25"/>
<feComposite in2="hardAlpha" operator="out"/>
<feColorMatrix type="matrix" values="0 0 0 0 0 0 0 0 0 0 0 0 0 0 0 0 0 0 0.25 0"/>
<feBlend mode="normal" in2="BackgroundImageFix" result="effect1_dropShadow_210_1842"/>
<feBlend mode="normal" in="SourceGraphic" in2="effect1_dropShadow_210_1842" result="shape"/>
</filter>
<filter id="filter3_f_210_1842" x="255.68" y="78.8289" width="66.3322" height="68.0058" filterUnits="userSpaceOnUse" color-interpolation-filters="sRGB">
<feFlood flood-opacity="0" result="BackgroundImageFix"/>
<feBlend mode="normal" in="SourceGraphic" in2="BackgroundImageFix" result="shape"/>
<feGaussianBlur stdDeviation="5.4" result="effect1_foregroundBlur_210_1842"/>
</filter>
<filter id="filter4_f_210_1842" x="5.35822" y="6.51074" width="34.6212" height="34.2993" filterUnits="userSpaceOnUse" color-interpolation-filters="sRGB">
<feFlood flood-opacity="0" result="BackgroundImageFix"/>
<feBlend mode="normal" in="SourceGraphic" in2="BackgroundImageFix" result="shape"/>
<feGaussianBlur stdDeviation="2" result="effect1_foregroundBlur_210_1842"/>
</filter>
<linearGradient id="paint0_linear_210_1842" x1="9.80413" y1="12.7721" x2="14.926" y2="-0.0897464" gradientUnits="userSpaceOnUse">
<stop stop-color="#3DDCFF"/>
<stop offset="1" stop-color="#61FFB0"/>
</linearGradient>
<linearGradient id="paint1_linear_210_1842" x1="8.20415" y1="10.6878" x2="12.4902" y2="-0.0751002" gradientUnits="userSpaceOnUse">
<stop stop-color="#3DDCFF"/>
<stop offset="1" stop-color="#61FFB0"/>
</linearGradient>
<radialGradient id="paint2_radial_210_1842" cx="0" cy="0" r="1" gradientUnits="userSpaceOnUse" gradientTransform="translate(88.6592 122.157) rotate(67.7818) scale(52.2762 76.5822)">
<stop stop-color="#25FBFF"/>
<stop offset="0.303481" stop-color="#95EEFC"/>
<stop offset="0.591346" stop-color="#FFE2F8"/>
<stop offset="1" stop-color="#84FFC1"/>
</radialGradient>
<linearGradient id="paint3_linear_210_1842" x1="9.447" y1="12.3069" x2="14.3823" y2="-0.086477" gradientUnits="userSpaceOnUse">
<stop stop-color="#3DDCFF"/>
<stop offset="1" stop-color="#61FFB0"/>
</linearGradient>
<linearGradient id="paint4_linear_210_1842" x1="7.90531" y1="10.2985" x2="12.0352" y2="-0.0723643" gradientUnits="userSpaceOnUse">
<stop stop-color="#3DDCFF"/>
<stop offset="1" stop-color="#61FFB0"/>
</linearGradient>
<radialGradient id="paint5_radial_210_1842" cx="0" cy="0" r="1" gradientUnits="userSpaceOnUse" gradientTransform="translate(87.3606 124.381) rotate(69.026) scale(51.6343 72.5128)">
<stop stop-color="#25FBFF"/>
<stop offset="0.303481" stop-color="#95EEFC"/>
<stop offset="0.591346" stop-color="#FFE2F8"/>
<stop offset="1" stop-color="#84FFC1"/>
</radialGradient>
<linearGradient id="paint6_linear_210_1842" x1="290.071" y1="135.604" x2="290.095" y2="123.914" gradientUnits="userSpaceOnUse">
<stop stop-color="#36C0DF"/>
<stop offset="0.653846" stop-color="#61FFB0"/>
</linearGradient>
<linearGradient id="paint7_linear_210_1842" x1="297.568" y1="134.737" x2="296.979" y2="122.711" gradientUnits="userSpaceOnUse">
<stop stop-color="#36C0DF"/>
<stop offset="0.653846" stop-color="#61FFB0"/>
</linearGradient>
<linearGradient id="paint8_linear_210_1842" x1="303.59" y1="131.06" x2="303.615" y2="119.369" gradientUnits="userSpaceOnUse">
<stop stop-color="#36C0DF"/>
<stop offset="0.653846" stop-color="#61FFB0"/>
</linearGradient>
<linearGradient id="paint9_linear_210_1842" x1="307.612" y1="124.892" x2="307.862" y2="113.347" gradientUnits="userSpaceOnUse">
<stop stop-color="#36C0DF"/>
<stop offset="0.653846" stop-color="#61FFB0"/>
</linearGradient>
<radialGradient id="paint10_radial_210_1842" cx="0" cy="0" r="1" gradientUnits="userSpaceOnUse" gradientTransform="translate(295.171 107.908) rotate(47.8919) scale(35.1933 54.6021)">
<stop stop-color="#25FBFF"/>
<stop offset="0.303481" stop-color="#95EEFC"/>
<stop offset="0.591346" stop-color="#FFE2F8"/>
<stop offset="1" stop-color="#84FFC1"/>
</radialGradient>
<linearGradient id="paint11_linear_210_1842" x1="290.91" y1="136.388" x2="290.935" y2="124.698" gradientUnits="userSpaceOnUse">
<stop stop-color="#36C0DF"/>
<stop offset="0.653846" stop-color="#61FFB0"/>
</linearGradient>
<linearGradient id="paint12_linear_210_1842" x1="298.408" y1="135.522" x2="297.819" y2="123.495" gradientUnits="userSpaceOnUse">
<stop stop-color="#36C0DF"/>
<stop offset="0.653846" stop-color="#61FFB0"/>
</linearGradient>
<linearGradient id="paint13_linear_210_1842" x1="304.43" y1="131.844" x2="304.455" y2="120.154" gradientUnits="userSpaceOnUse">
<stop stop-color="#36C0DF"/>
<stop offset="0.653846" stop-color="#61FFB0"/>
</linearGradient>
<linearGradient id="paint14_linear_210_1842" x1="308.451" y1="125.676" x2="308.702" y2="114.132" gradientUnits="userSpaceOnUse">
<stop stop-color="#36C0DF"/>
<stop offset="0.653846" stop-color="#61FFB0"/>
</linearGradient>
<radialGradient id="paint15_radial_210_1842" cx="0" cy="0" r="1" gradientUnits="userSpaceOnUse" gradientTransform="translate(296.011 108.692) rotate(47.8919) scale(35.1933 54.6021)">
<stop stop-color="#25FBFF"/>
<stop offset="0.303481" stop-color="#95EEFC"/>
<stop offset="0.591346" stop-color="#FFE2F8"/>
<stop offset="1" stop-color="#84FFC1"/>
</radialGradient>
<radialGradient id="paint16_radial_210_1842" cx="0" cy="0" r="1" gradientUnits="userSpaceOnUse" gradientTransform="translate(27.598 30.2256) rotate(37.4318) scale(23.0636 32.7215)">
<stop stop-color="#25FBFF"/>
<stop offset="0.303481" stop-color="#95EEFC"/>
<stop offset="0.591346" stop-color="#FFE2F8"/>
<stop offset="1" stop-color="#84FFC1"/>
</radialGradient>
<radialGradient id="paint17_radial_210_1842" cx="0" cy="0" r="1" gradientUnits="userSpaceOnUse" gradientTransform="translate(27.5343 29.9971) rotate(37.4318) scale(20.9783 29.7629)">
<stop stop-color="#25FBFF"/>
<stop offset="0.303481" stop-color="#95EEFC"/>
<stop offset="0.591346" stop-color="#FFE2F8"/>
<stop offset="1" stop-color="#84FFC1"/>
</radialGradient>
</defs>
</svg>
