<svg width="32" height="34" viewBox="0 0 32 34" fill="none" xmlns="http://www.w3.org/2000/svg">
<g filter="url(#filter0_f_574_1256)">
<ellipse cx="2.9345" cy="2.37854" rx="2.9345" ry="2.37854" transform="matrix(0.942495 0.334221 -0.338273 0.941048 5.67322 8.14722)" fill="url(#paint0_linear_574_1256)" stroke="#FFFFF6" stroke-width="2"/>
<ellipse cx="2.9345" cy="2.37854" rx="2.9345" ry="2.37854" transform="matrix(-0.942495 0.334221 0.338273 0.941048 26.5427 8.14722)" fill="url(#paint1_linear_574_1256)" stroke="#FFFFF6" stroke-width="2"/>
<ellipse cx="2.41568" cy="1.75252" rx="2.41568" ry="1.75252" transform="matrix(0.942495 0.334221 -0.338273 0.941048 5.90198 9.18237)" fill="#17B4C8"/>
<g filter="url(#filter1_d_574_1256)">
<path d="M16.3258 8.88525C21.9968 8.88525 26.111 13.1813 26.111 18.481C26.111 20.0386 25.5756 21.5074 24.732 22.8081C25.8921 23.5348 26.5318 24.7076 26.2369 25.8013C25.8475 27.245 23.9782 28.0024 22.0621 27.4927C21.9967 27.4753 21.9326 27.453 21.8688 27.4331C21.6764 28.6304 20.4906 29.5532 19.0514 29.5532C17.983 29.5532 17.0536 29.044 16.566 28.2925C16.0573 29.0438 15.0878 29.5531 13.9733 29.5532C12.3315 29.5532 11.0006 28.4512 11.0006 27.0923C11.0006 27.0259 11.0041 26.9601 11.0104 26.895C10.7278 27.0385 10.4221 27.1596 10.0953 27.2466C8.17912 27.7566 6.31004 26.999 5.92053 25.5552C5.60487 24.3847 6.35773 23.1213 7.67541 22.4136C6.97422 21.2131 6.54065 19.8828 6.54064 18.481C6.54064 13.1814 10.6548 8.88532 16.3258 8.88525Z" fill="url(#paint2_radial_574_1256)"/>
<path d="M16.3258 8.88525V7.88525H16.3258L16.3258 8.88525ZM26.111 18.481L27.111 18.481V18.481H26.111ZM24.732 22.8081L23.8931 22.264C23.7473 22.4888 23.6978 22.7627 23.7557 23.0243C23.8136 23.2859 23.9741 23.5133 24.2012 23.6555L24.732 22.8081ZM26.2369 25.8013L27.2024 26.0617L27.2024 26.0616L26.2369 25.8013ZM22.0621 27.4927L21.8049 28.459L21.805 28.4591L22.0621 27.4927ZM21.8688 27.4331L22.1661 26.4783C21.8892 26.3921 21.5885 26.4303 21.342 26.5831C21.0955 26.7359 20.9274 26.9882 20.8814 27.2745L21.8688 27.4331ZM19.0514 29.5532V30.5532H19.0514L19.0514 29.5532ZM16.566 28.2925L17.4049 27.7482C17.2224 27.4669 16.9111 27.2958 16.5759 27.2925C16.2406 27.2892 15.926 27.4542 15.738 27.7318L16.566 28.2925ZM13.9733 29.5532V30.5532H13.9734L13.9733 29.5532ZM11.0006 27.0923L10.0006 27.0922V27.0923H11.0006ZM11.0104 26.895L12.0058 26.9906C12.0406 26.6275 11.8751 26.2743 11.5737 26.0688C11.2724 25.8633 10.8831 25.8382 10.5578 26.0033L11.0104 26.895ZM10.0953 27.2466L10.3525 28.2129L10.3525 28.2129L10.0953 27.2466ZM5.92053 25.5552L4.95502 25.8155L4.95504 25.8156L5.92053 25.5552ZM7.67541 22.4136L8.14858 23.2945C8.38769 23.1661 8.56433 22.946 8.63793 22.6848C8.71154 22.4235 8.6758 22.1436 8.53891 21.9092L7.67541 22.4136ZM6.54064 18.481H5.54064V18.481L6.54064 18.481ZM16.3258 8.88525V9.88525C21.4451 9.88525 25.111 13.7341 25.111 18.481H26.111H27.111C27.111 12.6285 22.5486 7.88525 16.3258 7.88525V8.88525ZM26.111 18.481L25.111 18.481C25.111 19.8042 24.6565 21.0869 23.8931 22.264L24.732 22.8081L25.571 23.3523C26.4948 21.928 27.1109 20.2729 27.111 18.481L26.111 18.481ZM24.732 22.8081L24.2012 23.6555C25.1407 24.2441 25.411 25.0231 25.2714 25.5409L26.2369 25.8013L27.2024 26.0616C27.6526 24.392 26.6434 22.8255 25.2629 21.9607L24.732 22.8081ZM26.2369 25.8013L25.2715 25.5408C25.1763 25.8934 24.883 26.2353 24.3465 26.4527C23.8098 26.6701 23.087 26.7305 22.3192 26.5263L22.0621 27.4927L21.805 28.4591C22.9533 28.7645 24.1232 28.7011 25.0975 28.3063C26.072 27.9115 26.9081 27.1529 27.2024 26.0617L26.2369 25.8013ZM22.0621 27.4927L22.3193 26.5263C22.2797 26.5158 22.2727 26.5115 22.1661 26.4783L21.8688 27.4331L21.5715 28.3879C21.5925 28.3944 21.7137 28.4347 21.8049 28.459L22.0621 27.4927ZM21.8688 27.4331L20.8814 27.2745C20.782 27.8936 20.1005 28.5532 19.0513 28.5532L19.0514 29.5532L19.0514 30.5532C20.8807 30.5531 22.5709 29.3672 22.8561 27.5917L21.8688 27.4331ZM19.0514 29.5532V28.5532C18.2918 28.5532 17.6924 28.1912 17.4049 27.7482L16.566 28.2925L15.7271 28.8368C16.4149 29.8967 17.6743 30.5532 19.0514 30.5532V29.5532ZM16.566 28.2925L15.738 27.7318C15.4373 28.1759 14.7973 28.5531 13.9732 28.5532L13.9733 29.5532L13.9734 30.5532C15.3784 30.5531 16.6773 29.9117 17.3941 28.8532L16.566 28.2925ZM13.9733 29.5532V28.5532C12.6987 28.5532 12.0006 27.7305 12.0006 27.0923H11.0006H10.0006C10.0006 29.1719 11.9642 30.5532 13.9733 30.5532V29.5532ZM11.0006 27.0923L12.0006 27.0924C12.0006 27.0611 12.0023 27.0274 12.0058 26.9906L11.0104 26.895L10.0149 26.7995C10.006 26.8928 10.0006 26.9906 10.0006 27.0922L11.0006 27.0923ZM11.0104 26.895L10.5578 26.0033C10.3319 26.1179 10.0916 26.2128 9.83812 26.2802L10.0953 27.2466L10.3525 28.2129C10.7527 28.1064 11.1236 27.959 11.4629 27.7868L11.0104 26.895ZM10.0953 27.2466L9.83815 26.2802C9.07028 26.4846 8.34758 26.4242 7.81095 26.2067C7.27457 25.9894 6.98117 25.6474 6.88601 25.2947L5.92053 25.5552L4.95504 25.8156C5.2494 26.9068 6.08529 27.6655 7.05988 28.0604C8.03422 28.4552 9.20417 28.5186 10.3525 28.2129L10.0953 27.2466ZM5.92053 25.5552L6.88604 25.2948C6.73674 24.7412 7.06374 23.8772 8.14858 23.2945L7.67541 22.4136L7.20224 21.5326C5.65173 22.3654 4.47301 24.0281 4.95502 25.8155L5.92053 25.5552ZM7.67541 22.4136L8.53891 21.9092C7.90867 20.8302 7.54065 19.6722 7.54064 18.481L6.54064 18.481L5.54064 18.481C5.54065 20.0934 6.03978 21.596 6.81191 22.9179L7.67541 22.4136ZM6.54064 18.481H7.54064C7.54064 13.7342 11.2066 9.88531 16.3258 9.88525L16.3258 8.88525L16.3258 7.88525C10.1031 7.88533 5.54064 12.6286 5.54064 18.481H6.54064Z" fill="#FFFFF6"/>
</g>
<path d="M17.831 20.8643C17.9421 20.6116 18.2374 20.4965 18.4901 20.6074C18.7427 20.7185 18.8577 21.0139 18.747 21.2666C18.6275 21.5387 18.3478 21.8886 17.8778 21.9932C17.4908 22.079 17.0783 21.9748 16.6552 21.6924C16.2325 21.9743 15.8212 22.0788 15.4345 21.9932C14.9644 21.8887 14.6849 21.5388 14.5653 21.2666C14.4544 21.0138 14.5694 20.7184 14.8222 20.6074C15.0749 20.4968 15.3704 20.6116 15.4814 20.8643C15.5131 20.9365 15.5788 21.0005 15.6513 21.0166C15.7084 21.0291 15.9217 21.0447 16.3271 20.6895C16.3304 20.6865 16.3344 20.6845 16.3378 20.6816C16.3532 20.6688 16.3691 20.6572 16.3857 20.6465C16.3983 20.6383 16.4106 20.6299 16.4237 20.623C16.4374 20.6159 16.4516 20.6103 16.4657 20.6045C16.4816 20.598 16.4973 20.5917 16.5136 20.5869C16.5274 20.5828 16.5415 20.58 16.5556 20.5771C16.5744 20.5733 16.5932 20.57 16.6122 20.5684C16.6158 20.568 16.6194 20.5676 16.623 20.5674H16.6884C16.6917 20.5676 16.6949 20.5681 16.6982 20.5684C16.7172 20.57 16.736 20.5734 16.7548 20.5771C16.7689 20.58 16.7829 20.5828 16.7968 20.5869C16.8131 20.5917 16.8288 20.598 16.8446 20.6045C16.8588 20.6103 16.873 20.6159 16.8866 20.623C16.9004 20.6303 16.9134 20.6389 16.9267 20.6475C16.9421 20.6574 16.9572 20.6679 16.9716 20.6797C16.9758 20.6832 16.9811 20.6858 16.9853 20.6895C17.3915 21.0454 17.6045 21.0291 17.661 21.0166C17.7334 21.0004 17.7993 20.9364 17.831 20.8643Z" fill="#002427"/>
<path d="M17.831 20.8643L17.3733 20.663L17.3731 20.6633L17.831 20.8643ZM18.4901 20.6074L18.6915 20.1498L18.6911 20.1496L18.4901 20.6074ZM18.747 21.2666L19.2048 21.4676L19.2049 21.4673L18.747 21.2666ZM17.8778 21.9932L17.9861 22.4813L17.9864 22.4812L17.8778 21.9932ZM16.6552 21.6924L16.9328 21.2765L16.6553 21.0913L16.3778 21.2764L16.6552 21.6924ZM15.4345 21.9932L15.3261 22.4813L15.3263 22.4813L15.4345 21.9932ZM14.5653 21.2666L14.1075 21.4675L14.1075 21.4676L14.5653 21.2666ZM14.8222 20.6074L14.6216 20.1494L14.6211 20.1496L14.8222 20.6074ZM15.4814 20.8643L15.0236 21.0653L15.0236 21.0654L15.4814 20.8643ZM15.6513 21.0166L15.5429 21.5047L15.5445 21.5051L15.6513 21.0166ZM16.3271 20.6895L15.998 20.313L15.9975 20.3134L16.3271 20.6895ZM16.3378 20.6816L16.657 21.0665L16.6572 21.0664L16.3378 20.6816ZM16.3857 20.6465L16.6568 21.0666L16.6571 21.0664L16.3857 20.6465ZM16.4237 20.623L16.1916 20.1802L16.1911 20.1804L16.4237 20.623ZM16.4657 20.6045L16.656 21.0669L16.6563 21.0667L16.4657 20.6045ZM16.5136 20.5869L16.6557 21.0663L16.6557 21.0663L16.5136 20.5869ZM16.5556 20.5771L16.4556 20.0872L16.4553 20.0873L16.5556 20.5771ZM16.6122 20.5684L16.6553 21.0665L16.6559 21.0664L16.6122 20.5684ZM16.623 20.5674V20.0674H16.6064L16.59 20.0685L16.623 20.5674ZM16.6884 20.5674L16.7212 20.0685L16.7048 20.0674H16.6884V20.5674ZM16.6982 20.5684L16.6556 21.0665L16.6562 21.0666L16.6982 20.5684ZM16.7548 20.5771L16.854 20.0871L16.8537 20.087L16.7548 20.5771ZM16.7968 20.5869L16.6558 21.0666L16.6558 21.0666L16.7968 20.5869ZM16.8446 20.6045L16.655 21.0671L16.6553 21.0673L16.8446 20.6045ZM16.8866 20.623L17.1183 20.18L17.1179 20.1797L16.8866 20.623ZM16.9267 20.6475L16.6542 21.0667L16.6545 21.0669L16.9267 20.6475ZM16.9716 20.6797L16.6545 21.0663L16.6546 21.0664L16.9716 20.6797ZM16.9853 20.6895L17.3148 20.3134L17.3146 20.3133L16.9853 20.6895ZM17.661 21.0166L17.769 21.5048L17.7705 21.5045L17.661 21.0166ZM17.831 20.8643L18.2887 21.0655L18.2892 21.0653L18.4901 20.6074L18.6911 20.1496C18.1855 19.9277 17.5954 20.1578 17.3733 20.663L17.831 20.8643ZM18.4901 20.6074L18.2888 21.0651L18.289 21.0659L18.747 21.2666L19.2049 21.4673C19.4264 20.9621 19.1966 20.372 18.6915 20.1498L18.4901 20.6074ZM18.747 21.2666L18.2892 21.0656C18.213 21.2391 18.0394 21.445 17.7693 21.5051L17.8778 21.9932L17.9864 22.4812C18.6561 22.3323 19.042 21.8384 19.2048 21.4676L18.747 21.2666ZM17.8778 21.9932L17.7695 21.505C17.5537 21.5529 17.2796 21.508 16.9328 21.2765L16.6552 21.6924L16.3776 22.1083C16.8769 22.4415 17.4279 22.6051 17.9861 22.4813L17.8778 21.9932ZM16.6552 21.6924L16.3778 21.2764C16.0309 21.5078 15.7579 21.5527 15.5426 21.505L15.4345 21.9932L15.3263 22.4813C15.8845 22.605 16.4342 22.4407 16.9326 22.1084L16.6552 21.6924ZM15.4345 21.9932L15.5429 21.5051C15.2728 21.4451 15.0994 21.2393 15.0231 21.0656L14.5653 21.2666L14.1075 21.4676C14.2703 21.8382 14.6559 22.3324 15.3261 22.4813L15.4345 21.9932ZM14.5653 21.2666L15.0232 21.0657L15.0233 21.0652L14.8222 20.6074L14.6211 20.1496C14.1154 20.3718 13.8857 20.9621 14.1075 21.4675L14.5653 21.2666ZM14.8222 20.6074L15.0227 21.0654L15.0236 21.0653L15.4814 20.8643L15.9391 20.6632C15.7169 20.1572 15.1264 19.9284 14.6216 20.1494L14.8222 20.6074ZM15.4814 20.8643L15.0236 21.0654C15.102 21.2437 15.2768 21.4456 15.5429 21.5047L15.6513 21.0166L15.7597 20.5285C15.827 20.5435 15.8688 20.5745 15.8892 20.5932C15.9105 20.6128 15.927 20.6355 15.9391 20.6632L15.4814 20.8643ZM15.6513 21.0166L15.5445 21.5051C15.8133 21.5638 16.1834 21.4801 16.6566 21.0655L16.3271 20.6895L15.9975 20.3134C15.8283 20.4617 15.7281 20.5069 15.6932 20.5191C15.665 20.5289 15.6916 20.5136 15.758 20.5281L15.6513 21.0166ZM16.3271 20.6895L16.6561 21.0659C16.642 21.0782 16.63 21.0873 16.6226 21.0926C16.6188 21.0954 16.6157 21.0975 16.6138 21.0988C16.612 21.1 16.6107 21.1009 16.6109 21.1008C16.6109 21.1008 16.6109 21.1007 16.6111 21.1007C16.6112 21.1006 16.6114 21.1004 16.6116 21.1003C16.6121 21.1 16.6129 21.0994 16.6139 21.0988C16.6157 21.0975 16.6189 21.0954 16.6227 21.0927C16.6301 21.0875 16.6425 21.0785 16.657 21.0665L16.3378 20.6816L16.0186 20.2968C16.0314 20.2862 16.042 20.2785 16.0476 20.2746C16.0505 20.2725 16.0528 20.271 16.0537 20.2704C16.0543 20.27 16.0553 20.2693 16.0539 20.2702C16.0529 20.2709 16.0455 20.2759 16.0368 20.2822C16.0276 20.2888 16.0138 20.2992 15.998 20.313L16.3271 20.6895ZM16.3378 20.6816L16.6572 21.0664L16.6568 21.0666L16.3857 20.6465L16.1145 20.2264C16.0808 20.2481 16.0488 20.2717 16.0185 20.2969L16.3378 20.6816ZM16.3857 20.6465L16.6571 21.0664C16.6594 21.0649 16.6616 21.0635 16.6633 21.0623C16.6653 21.061 16.6663 21.0604 16.6678 21.0594C16.669 21.0587 16.6698 21.0581 16.6704 21.0577C16.6707 21.0575 16.671 21.0574 16.6711 21.0573C16.6713 21.0572 16.6713 21.0571 16.6713 21.0571C16.6713 21.0571 16.6712 21.0572 16.6711 21.0573C16.6709 21.0574 16.6707 21.0575 16.6704 21.0577C16.6698 21.0581 16.6689 21.0587 16.6676 21.0594C16.6652 21.0608 16.6614 21.063 16.6563 21.0656L16.4237 20.623L16.1911 20.1804C16.1684 20.1924 16.1498 20.2038 16.1377 20.2114C16.1316 20.2153 16.1261 20.2188 16.1224 20.2212C16.1177 20.2243 16.1166 20.225 16.1142 20.2266L16.3857 20.6465ZM16.4237 20.623L16.6559 21.0659C16.6514 21.0682 16.6478 21.07 16.6455 21.071C16.6443 21.0716 16.6434 21.072 16.6428 21.0723C16.6422 21.0725 16.6419 21.0727 16.6419 21.0727C16.6419 21.0727 16.6421 21.0726 16.6427 21.0723C16.6433 21.0721 16.6441 21.0717 16.6453 21.0712C16.6466 21.0707 16.6479 21.0702 16.6498 21.0694C16.6515 21.0687 16.6537 21.0678 16.656 21.0669L16.4657 20.6045L16.2754 20.1421C16.2726 20.1433 16.231 20.1595 16.1916 20.1802L16.4237 20.623ZM16.4657 20.6045L16.6563 21.0667L16.6557 21.0663L16.5136 20.5869L16.3715 20.1075C16.3291 20.1201 16.2933 20.1347 16.2751 20.1422L16.4657 20.6045ZM16.5136 20.5869L16.6557 21.0663C16.6518 21.0675 16.6487 21.0683 16.6467 21.0688C16.6457 21.069 16.645 21.0692 16.6445 21.0693C16.6442 21.0694 16.644 21.0694 16.6439 21.0695C16.6438 21.0695 16.6437 21.0695 16.6437 21.0695C16.6437 21.0695 16.6437 21.0695 16.6439 21.0695C16.644 21.0694 16.6442 21.0694 16.6444 21.0693C16.645 21.0692 16.6457 21.0691 16.6467 21.0689C16.6493 21.0683 16.6512 21.0679 16.6559 21.067L16.5556 20.5771L16.4553 20.0873C16.4481 20.0888 16.4104 20.096 16.3715 20.1075L16.5136 20.5869ZM16.5556 20.5771L16.6556 21.0671L16.6553 21.0665L16.6122 20.5684L16.5691 20.0702C16.5222 20.0743 16.482 20.0819 16.4556 20.0872L16.5556 20.5771ZM16.6122 20.5684L16.6559 21.0664C16.6593 21.0662 16.6621 21.0659 16.6637 21.0657C16.6645 21.0656 16.6653 21.0656 16.6657 21.0655C16.6661 21.0655 16.6663 21.0655 16.6663 21.0655C16.6669 21.0654 16.6623 21.0659 16.656 21.0663L16.623 20.5674L16.59 20.0685C16.58 20.0691 16.5719 20.0699 16.5689 20.0702C16.568 20.0703 16.5672 20.0704 16.5668 20.0704C16.5663 20.0705 16.5662 20.0705 16.5661 20.0705C16.5659 20.0705 16.567 20.0704 16.5685 20.0703L16.6122 20.5684ZM16.623 20.5674V21.0674H16.6884V20.5674V20.0674H16.623V20.5674ZM16.6884 20.5674L16.6556 21.0663C16.6496 21.0659 16.6449 21.0655 16.642 21.0652C16.6392 21.0649 16.6373 21.0647 16.6375 21.0647C16.6375 21.0647 16.6376 21.0647 16.6378 21.0648C16.6379 21.0648 16.6383 21.0648 16.6386 21.0649C16.6393 21.0649 16.6406 21.0651 16.642 21.0652C16.6449 21.0655 16.6497 21.066 16.6556 21.0665L16.6982 20.5684L16.7407 20.0702C16.745 20.0705 16.7482 20.0709 16.7494 20.071C16.75 20.0711 16.7505 20.0711 16.7504 20.0711C16.7503 20.0711 16.7502 20.0711 16.75 20.0711C16.7498 20.0711 16.7494 20.071 16.749 20.071C16.7477 20.0708 16.7441 20.0704 16.7397 20.07C16.7351 20.0695 16.7288 20.069 16.7212 20.0685L16.6884 20.5674ZM16.6982 20.5684L16.6562 21.0666L16.6559 21.0673L16.7548 20.5771L16.8537 20.087C16.8301 20.0823 16.7886 20.0742 16.7401 20.0701L16.6982 20.5684ZM16.7548 20.5771L16.6556 21.0672C16.6594 21.068 16.6616 21.0684 16.6635 21.0688C16.6644 21.069 16.6651 21.0691 16.6655 21.0692C16.6659 21.0693 16.6661 21.0694 16.6661 21.0694C16.6661 21.0694 16.6659 21.0693 16.6655 21.0692C16.665 21.0691 16.6644 21.069 16.6635 21.0687C16.6618 21.0683 16.6591 21.0676 16.6558 21.0666L16.7968 20.5869L16.9378 20.1072C16.8998 20.0961 16.8646 20.0892 16.854 20.0871L16.7548 20.5771ZM16.7968 20.5869L16.6558 21.0666C16.6523 21.0656 16.6496 21.0647 16.6478 21.0641C16.6461 21.0635 16.6451 21.0631 16.6451 21.0631C16.6451 21.0631 16.6452 21.0632 16.6457 21.0634C16.6461 21.0635 16.6467 21.0638 16.6475 21.0641C16.6493 21.0648 16.6516 21.0657 16.655 21.0671L16.8446 20.6045L17.0342 20.1418C17.0188 20.1355 16.9816 20.1201 16.9378 20.1072L16.7968 20.5869ZM16.8446 20.6045L16.6553 21.0673C16.6573 21.0681 16.6595 21.069 16.6609 21.0696C16.6626 21.0702 16.6638 21.0707 16.6649 21.0712C16.666 21.0716 16.6668 21.0719 16.6673 21.0722C16.6678 21.0724 16.668 21.0725 16.668 21.0725C16.668 21.0725 16.6677 21.0723 16.6672 21.0721C16.6666 21.0719 16.6658 21.0715 16.6647 21.071C16.6626 21.07 16.6594 21.0685 16.6554 21.0663L16.8866 20.623L17.1179 20.1797C17.079 20.1595 17.04 20.1442 17.034 20.1417L16.8446 20.6045ZM16.8866 20.623L16.6549 21.0661C16.6509 21.064 16.6477 21.0622 16.6457 21.0611C16.6447 21.0605 16.644 21.06 16.6435 21.0597C16.643 21.0594 16.6427 21.0592 16.6427 21.0592C16.6427 21.0592 16.6429 21.0594 16.6434 21.0597C16.6439 21.06 16.6446 21.0604 16.6455 21.0611C16.648 21.0627 16.6498 21.0638 16.6542 21.0667L16.9267 20.6475L17.1991 20.2282C17.1926 20.224 17.1576 20.2005 17.1183 20.18L16.8866 20.623ZM16.9267 20.6475L16.6545 21.0669L16.6545 21.0663L16.9716 20.6797L17.2887 20.2931C17.2537 20.2644 17.2212 20.2425 17.1988 20.228L16.9267 20.6475ZM16.9716 20.6797L16.6546 21.0664C16.6704 21.0793 16.6839 21.0889 16.6918 21.0943C16.6959 21.0971 16.6992 21.0993 16.7012 21.1006C16.7023 21.1013 16.7031 21.1019 16.7036 21.1022C16.7039 21.1024 16.7041 21.1025 16.7042 21.1026C16.7044 21.1027 16.7044 21.1027 16.7044 21.1027C16.7046 21.1029 16.7033 21.102 16.7014 21.1007C16.6994 21.0994 16.6962 21.0972 16.6922 21.0943C16.6844 21.0888 16.6713 21.0791 16.6559 21.0657L16.9853 20.6895L17.3146 20.3133C17.2972 20.298 17.2818 20.2866 17.2718 20.2794C17.2621 20.2726 17.2539 20.2672 17.2525 20.2663C17.2507 20.2651 17.2518 20.2658 17.2521 20.2661C17.253 20.2666 17.2552 20.2681 17.2581 20.2701C17.2636 20.2739 17.2749 20.2818 17.2886 20.293L16.9716 20.6797ZM16.9853 20.6895L16.6558 21.0655C17.1296 21.4807 17.5001 21.5643 17.769 21.5048L17.661 21.0166L17.5531 20.5284C17.6202 20.5136 17.6473 20.529 17.6194 20.5192C17.5847 20.5071 17.4844 20.462 17.3148 20.3134L16.9853 20.6895ZM17.661 21.0166L17.7705 21.5045C18.0349 21.4451 18.2101 21.2446 18.2888 21.0652L17.831 20.8643L17.3731 20.6633C17.3855 20.6351 17.4022 20.6123 17.4233 20.5929C17.4435 20.5744 17.4848 20.5437 17.5516 20.5287L17.661 21.0166Z" fill="#002427"/>
<path d="M12.239 12.8108C12.618 13.2927 12.2257 14.1376 11.6866 14.5559C11.1475 14.9741 10.4033 14.9226 10.0243 14.4407C9.64526 13.9588 9.77503 13.229 10.3141 12.8108C10.8532 12.3925 11.86 12.3289 12.239 12.8108Z" fill="#FFFFF9" fill-opacity="0.61"/>
<path d="M13.8207 11.6932C13.9626 11.8737 13.8157 12.1901 13.6138 12.3467C13.4119 12.5034 13.1332 12.484 12.9913 12.3036C12.8493 12.1231 12.8979 11.8498 13.0998 11.6932C13.3017 11.5365 13.6787 11.5127 13.8207 11.6932Z" fill="#FFFFF9" fill-opacity="0.61"/>
<path d="M22.3958 23.8945C22.3467 23.8945 22.2479 23.9351 22.0996 24.0169C22.0249 24.0582 21.9513 24.0988 21.8889 24.1501C21.8265 24.2015 21.7774 24.2624 21.6526 24.3866" stroke="#00C8A3" stroke-opacity="0.23" stroke-width="2" stroke-linecap="round"/>
<path d="M10.2571 23.8945C10.3061 23.8945 10.405 23.9351 10.5532 24.0169C10.6279 24.0582 10.7015 24.0988 10.7639 24.1501C10.8263 24.2015 10.8754 24.2624 11.0002 24.3866" stroke="#00C8A3" stroke-opacity="0.23" stroke-width="2" stroke-linecap="round"/>
<path d="M15.6385 25.4595C15.7137 25.4762 15.8633 25.4943 15.9931 25.5256C16.1405 25.5613 16.2878 25.6341 16.4481 25.716C16.5548 25.7705 16.701 25.6323 16.8498 25.5716C16.9746 25.5207 17.1027 25.4874 17.2324 25.4507C17.3107 25.4407 17.3844 25.4274 17.4622 25.41C17.5093 25.4024 17.5718 25.3975 17.6363 25.3924" stroke="#00C6E0" stroke-opacity="0.48" stroke-width="2" stroke-linecap="round"/>
<ellipse cx="11.991" cy="20.0806" rx="0.990898" ry="1.35326" fill="#002427"/>
<ellipse cx="21.1572" cy="20.0806" rx="0.990898" ry="1.35326" fill="#002427"/>
</g>
<ellipse cx="3.06301" cy="2.33448" rx="3.06301" ry="2.33448" transform="matrix(0.857618 0.514287 -0.560446 0.828191 5.6167 7)" fill="url(#paint3_linear_574_1256)" stroke="#FFFFF6" stroke-width="0.5"/>
<ellipse cx="3.06301" cy="2.33448" rx="3.06301" ry="2.33448" transform="matrix(-0.857618 0.514287 0.560446 0.828191 26.6821 7)" fill="url(#paint4_linear_574_1256)" stroke="#FFFFF6" stroke-width="0.5"/>
<ellipse cx="2.52147" cy="1.72006" rx="2.52147" ry="1.72006" transform="matrix(0.857618 0.514287 -0.560446 0.828191 5.57568 8.26782)" fill="#17B4C8"/>
<ellipse cx="2.52147" cy="1.72006" rx="2.52147" ry="1.72006" transform="matrix(-0.857618 0.514287 0.560446 0.828191 26.7234 8.26782)" fill="#17B4C8"/>
<g filter="url(#filter2_d_574_1256)">
<path d="M16.7088 28.7461C16.6288 28.7517 16.5496 28.7529 16.4715 28.7549C15.9107 29.3857 14.9538 29.8018 13.867 29.8018C12.1643 29.8016 10.7799 28.7816 10.7401 27.5117C10.4454 27.6615 10.1271 27.7877 9.78696 27.8789C7.77029 28.4193 5.80252 27.6177 5.39243 26.0879C5.06 24.8473 5.85367 23.5087 7.24106 22.7588C6.50278 21.4865 6.04575 20.0766 6.04575 18.5908C6.04584 12.9751 10.376 8.42285 16.3446 8.42285C22.3132 8.42286 26.6433 12.9751 26.6434 18.5908C26.6434 20.2414 26.0801 21.7985 25.1922 23.1768C26.4128 23.9469 27.0857 25.1898 26.7752 26.3486C26.3652 27.8786 24.3974 28.681 22.3807 28.1406C22.2877 28.1157 22.1972 28.0853 22.1073 28.0557C21.7679 29.0601 20.6028 29.8016 19.2127 29.8018C18.1663 29.8018 17.2452 29.382 16.7088 28.7461Z" fill="url(#paint5_radial_574_1256)"/>
<path d="M16.7088 28.7461L16.8999 28.5849C16.8484 28.5239 16.7709 28.4911 16.6912 28.4967L16.7088 28.7461ZM16.4715 28.7549L16.4651 28.505C16.3959 28.5068 16.3306 28.5371 16.2847 28.5888L16.4715 28.7549ZM13.867 29.8018L13.867 30.0518H13.867V29.8018ZM10.7401 27.5117L10.99 27.5039C10.9873 27.4184 10.9411 27.3402 10.8675 27.2966C10.7939 27.253 10.7031 27.2501 10.6268 27.2888L10.7401 27.5117ZM9.78696 27.8789L9.85166 28.1204L9.85169 28.1204L9.78696 27.8789ZM5.39243 26.0879L5.15094 26.1526L5.15095 26.1526L5.39243 26.0879ZM7.24106 22.7588L7.35993 22.9787C7.41941 22.9466 7.46334 22.8917 7.48168 22.8266C7.50003 22.7615 7.49123 22.6918 7.45729 22.6333L7.24106 22.7588ZM6.04575 18.5908L5.79575 18.5908V18.5908H6.04575ZM16.3446 8.42285V8.17285V8.42285ZM26.6434 18.5908H26.8934V18.5908L26.6434 18.5908ZM25.1922 23.1768L24.9821 23.0414C24.9459 23.0974 24.9337 23.1656 24.9481 23.2308C24.9626 23.2959 25.0024 23.3526 25.0588 23.3882L25.1922 23.1768ZM26.7752 26.3486L27.0167 26.4133L27.0167 26.4133L26.7752 26.3486ZM22.3807 28.1406L22.316 28.3821L22.316 28.3821L22.3807 28.1406ZM22.1073 28.0557L22.1856 27.8182C22.0551 27.7752 21.9144 27.8455 21.8704 27.9756L22.1073 28.0557ZM19.2127 29.8018V30.0518H19.2128L19.2127 29.8018ZM16.7088 28.7461L16.6912 28.4967C16.6184 28.5019 16.5471 28.5028 16.4651 28.505L16.4715 28.7549L16.478 29.0048C16.552 29.0029 16.6392 29.0016 16.7264 28.9955L16.7088 28.7461ZM16.4715 28.7549L16.2847 28.5888C15.7788 29.1577 14.8946 29.5518 13.867 29.5518V29.8018V30.0518C15.013 30.0518 16.0425 29.6137 16.6584 28.921L16.4715 28.7549ZM13.867 29.8018L13.8671 29.5518C13.0639 29.5517 12.3451 29.3108 11.8279 28.9313C11.3105 28.5517 11.0069 28.0447 10.99 27.5039L10.7401 27.5117L10.4902 27.5196C10.5131 28.2486 10.9216 28.8865 11.5321 29.3344C12.1427 29.7825 12.9674 30.0517 13.867 30.0518L13.867 29.8018ZM10.7401 27.5117L10.6268 27.2888C10.3463 27.4314 10.0442 27.5511 9.72222 27.6374L9.78696 27.8789L9.85169 28.1204C10.2099 28.0244 10.5444 27.8915 10.8533 27.7346L10.7401 27.5117ZM9.78696 27.8789L9.72225 27.6374C8.76174 27.8948 7.82188 27.8299 7.08157 27.5282C6.34145 27.2266 5.81431 26.6962 5.6339 26.0232L5.39243 26.0879L5.15095 26.1526C5.38064 27.0094 6.04243 27.6447 6.89289 27.9912C7.74315 28.3377 8.7955 28.4034 9.85166 28.1204L9.78696 27.8789ZM5.39243 26.0879L5.63391 26.0232C5.34252 24.9357 6.03119 23.6969 7.35993 22.9787L7.24106 22.7588L7.12218 22.5389C5.67615 23.3205 4.77748 24.7588 5.15094 26.1526L5.39243 26.0879ZM7.24106 22.7588L7.45729 22.6333C6.73658 21.3913 6.29575 20.0243 6.29575 18.5908H6.04575H5.79575C5.79575 20.129 6.26898 21.5817 7.02482 22.8843L7.24106 22.7588ZM6.04575 18.5908L6.29575 18.5908C6.29584 13.1117 10.5155 8.67285 16.3446 8.67285V8.42285V8.17285C10.2364 8.17285 5.79584 12.8385 5.79575 18.5908L6.04575 18.5908ZM16.3446 8.42285L16.3446 8.67285C22.1736 8.67286 26.3933 13.1117 26.3934 18.5908L26.6434 18.5908L26.8934 18.5908C26.8933 12.8385 22.4527 8.17286 16.3446 8.17285V8.42285ZM26.6434 18.5908H26.3934C26.3934 20.1833 25.8501 21.694 24.9821 23.0414L25.1922 23.1768L25.4024 23.3121C26.3102 21.9029 26.8934 20.2996 26.8934 18.5908H26.6434ZM25.1922 23.1768L25.0588 23.3882C26.2239 24.1233 26.806 25.2679 26.5338 26.2839L26.7752 26.3486L27.0167 26.4133C27.3655 25.1118 26.6018 23.7705 25.3256 22.9653L25.1922 23.1768ZM26.7752 26.3486L26.5338 26.2839C26.3534 26.957 25.8262 27.4877 25.0861 27.7895C24.3458 28.0914 23.4059 28.1565 22.4454 27.8991L22.3807 28.1406L22.316 28.3821C23.3722 28.6651 24.4246 28.5992 25.2749 28.2525C26.1254 27.9057 26.7871 27.2702 27.0167 26.4133L26.7752 26.3486ZM22.3807 28.1406L22.4454 27.8991C22.3608 27.8765 22.2778 27.8487 22.1856 27.8182L22.1073 28.0557L22.029 28.2931C22.1165 28.322 22.2146 28.3549 22.316 28.3821L22.3807 28.1406ZM22.1073 28.0557L21.8704 27.9756C21.5744 28.8516 20.5269 29.5516 19.2127 29.5518L19.2127 29.8018L19.2128 30.0518C20.6787 30.0516 21.9613 29.2685 22.3441 28.1357L22.1073 28.0557ZM19.2127 29.8018V29.5518C18.2293 29.5518 17.3823 29.1568 16.8999 28.5849L16.7088 28.7461L16.5177 28.9073C17.1081 29.6072 18.1033 30.0518 19.2127 30.0518V29.8018Z" fill="#FFFFF6"/>
</g>
<path d="M12.8225 12.3591C13.231 12.882 12.8082 13.7989 12.2271 14.2528C11.6461 14.7067 10.8439 14.6507 10.4354 14.1278C10.0268 13.6048 10.1667 12.813 10.7478 12.3591C11.3288 11.9052 12.414 11.8361 12.8225 12.3591Z" fill="#FFFFF9" fill-opacity="0.67"/>
<path d="M14.5273 11.1466C14.6803 11.3424 14.522 11.6858 14.3044 11.8558C14.0867 12.0258 13.7863 12.0048 13.6333 11.809C13.4803 11.6131 13.5327 11.3165 13.7503 11.1466C13.9679 10.9766 14.3743 10.9507 14.5273 11.1466Z" fill="#FFFFF9" fill-opacity="0.67"/>
<path d="M24.4609 16.4373C24.682 16.3238 24.9896 16.5437 25.1158 16.7893C25.2419 17.0349 25.165 17.3261 24.944 17.4397C24.7229 17.5532 24.4414 17.4462 24.3152 17.2005C24.1891 16.9549 24.2399 16.5509 24.4609 16.4373Z" fill="#54F6FD" fill-opacity="0.26"/>
<path d="M22.732 24.3271C22.6804 24.3271 22.5764 24.3702 22.4203 24.4569C22.3417 24.5005 22.2643 24.5436 22.1986 24.598C22.1329 24.6524 22.0812 24.7169 21.9498 24.8486" stroke="#00C8A3" stroke-opacity="0.4" stroke-width="0.5" stroke-linecap="round"/>
<path d="M9.95647 24.3271C10.0081 24.3271 10.1121 24.3702 10.2682 24.4569C10.3468 24.5005 10.4242 24.5436 10.4899 24.598C10.5556 24.6524 10.6072 24.7169 10.7386 24.8486" stroke="#00C8A3" stroke-opacity="0.4" stroke-width="0.5" stroke-linecap="round"/>
<path d="M15.6924 25.7971C15.7714 25.8148 15.9289 25.834 16.0656 25.8672C16.2207 25.905 16.3757 25.9822 16.5444 26.0689C16.6567 26.1267 16.8106 25.9803 16.9672 25.9159C17.0985 25.862 17.2334 25.8268 17.3699 25.7879C17.4523 25.7772 17.5299 25.7632 17.6117 25.7447C17.6613 25.7366 17.7271 25.7314 17.7949 25.726" stroke="#00C6E0" stroke-opacity="0.6" stroke-width="0.5" stroke-linecap="round"/>
<path d="M18.0194 18.8829C18.0746 18.7566 18.2221 18.6982 18.3485 18.7531C18.4747 18.8083 18.5332 18.9558 18.4784 19.0822C18.3826 19.302 18.1592 19.5792 17.7929 19.6613C17.4602 19.7355 17.0736 19.6349 16.6444 19.3058C16.2155 19.6347 15.8295 19.7354 15.497 19.6613C15.1305 19.5793 14.9073 19.3021 14.8114 19.0822C14.7565 18.9557 14.8149 18.8082 14.9413 18.7531C15.0678 18.6983 15.2153 18.7565 15.2704 18.8829C15.3231 19.0035 15.4391 19.1357 15.6054 19.173C15.7637 19.2083 16.0485 19.1752 16.4794 18.7951C16.4834 18.7915 16.4879 18.7885 16.4921 18.7853C16.495 18.783 16.4979 18.7806 16.5009 18.7785C16.5101 18.772 16.5194 18.766 16.5292 18.7609C16.5362 18.7572 16.5434 18.7541 16.5507 18.7511C16.5585 18.748 16.5661 18.7446 16.5741 18.7423C16.5808 18.7404 16.5878 18.7398 16.5946 18.7384C16.6179 18.7337 16.6415 18.7316 16.6649 18.7335C16.6748 18.7343 16.6845 18.7365 16.6942 18.7384C16.7004 18.7397 16.7067 18.7406 16.7128 18.7423C16.7218 18.7449 16.7304 18.7485 16.7392 18.7521C16.746 18.7549 16.753 18.7574 16.7597 18.7609C16.7695 18.766 16.7788 18.772 16.788 18.7785C16.791 18.7806 16.7938 18.783 16.7968 18.7853C16.8011 18.7886 16.8063 18.7914 16.8105 18.7951C17.2414 19.1752 17.5263 19.2084 17.6845 19.173C17.8506 19.1356 17.9668 19.0035 18.0194 18.8829Z" fill="#002427"/>
<ellipse cx="11.9728" cy="18.3655" rx="0.973375" ry="1.33839" fill="#002427"/>
<ellipse cx="21.0382" cy="18.3655" rx="0.973375" ry="1.33839" fill="#002427"/>
<defs>
<filter id="filter0_f_574_1256" x="0.645728" y="4.78525" width="30.9245" height="28.868" filterUnits="userSpaceOnUse" color-interpolation-filters="sRGB">
<feFlood flood-opacity="0" result="BackgroundImageFix"/>
<feBlend mode="normal" in="SourceGraphic" in2="BackgroundImageFix" result="shape"/>
<feGaussianBlur stdDeviation="1.55" result="effect1_foregroundBlur_574_1256"/>
</filter>
<filter id="filter1_d_574_1256" x="0.345825" y="0.385254" width="31.4652" height="31.668" filterUnits="userSpaceOnUse" color-interpolation-filters="sRGB">
<feFlood flood-opacity="0" result="BackgroundImageFix"/>
<feColorMatrix in="SourceAlpha" type="matrix" values="0 0 0 0 0 0 0 0 0 0 0 0 0 0 0 0 0 0 127 0" result="hardAlpha"/>
<feOffset dy="-3"/>
<feGaussianBlur stdDeviation="2.25"/>
<feComposite in2="hardAlpha" operator="out"/>
<feColorMatrix type="matrix" values="0 0 0 0 0 0 0 0 0 0 0 0 0 0 0 0 0 0 0.25 0"/>
<feBlend mode="normal" in2="BackgroundImageFix" result="effect1_dropShadow_574_1256"/>
<feBlend mode="normal" in="SourceGraphic" in2="effect1_dropShadow_574_1256" result="shape"/>
</filter>
<filter id="filter2_d_574_1256" x="0.566284" y="0.672852" width="31.0349" height="30.8789" filterUnits="userSpaceOnUse" color-interpolation-filters="sRGB">
<feFlood flood-opacity="0" result="BackgroundImageFix"/>
<feColorMatrix in="SourceAlpha" type="matrix" values="0 0 0 0 0 0 0 0 0 0 0 0 0 0 0 0 0 0 127 0" result="hardAlpha"/>
<feOffset dy="-3"/>
<feGaussianBlur stdDeviation="2.25"/>
<feComposite in2="hardAlpha" operator="out"/>
<feColorMatrix type="matrix" values="0 0 0 0 0 0 0 0 0 0 0 0 0 0 0 0 0 0 0.25 0"/>
<feBlend mode="normal" in2="BackgroundImageFix" result="effect1_dropShadow_574_1256"/>
<feBlend mode="normal" in="SourceGraphic" in2="effect1_dropShadow_574_1256" result="shape"/>
</filter>
<linearGradient id="paint0_linear_574_1256" x1="2.57221" y1="3.56364" x2="4.06526" y2="0.0381803" gradientUnits="userSpaceOnUse">
<stop stop-color="#3DDCFF"/>
<stop offset="1" stop-color="#61FFB0"/>
</linearGradient>
<linearGradient id="paint1_linear_574_1256" x1="2.57221" y1="3.56364" x2="4.06526" y2="0.0381803" gradientUnits="userSpaceOnUse">
<stop stop-color="#3DDCFF"/>
<stop offset="1" stop-color="#61FFB0"/>
</linearGradient>
<radialGradient id="paint2_radial_574_1256" cx="0" cy="0" r="1" gradientUnits="userSpaceOnUse" gradientTransform="translate(16.2025 24.1402) rotate(67.3991) scale(13.8588 19.6845)">
<stop stop-color="#25FBFF"/>
<stop offset="0.303481" stop-color="#95EEFC"/>
<stop offset="0.591346" stop-color="#FFE2F8"/>
<stop offset="1" stop-color="#84FFC1"/>
</radialGradient>
<linearGradient id="paint3_linear_574_1256" x1="2.68485" y1="3.49763" x2="4.08747" y2="-0.0245768" gradientUnits="userSpaceOnUse">
<stop stop-color="#3DDCFF"/>
<stop offset="1" stop-color="#61FFB0"/>
</linearGradient>
<linearGradient id="paint4_linear_574_1256" x1="2.68485" y1="3.49763" x2="4.08747" y2="-0.0245768" gradientUnits="userSpaceOnUse">
<stop stop-color="#3DDCFF"/>
<stop offset="1" stop-color="#61FFB0"/>
</linearGradient>
<radialGradient id="paint5_radial_574_1256" cx="0" cy="0" r="1" gradientUnits="userSpaceOnUse" gradientTransform="translate(16.2141 24.5873) rotate(67.5359) scale(14.6705 20.7384)">
<stop stop-color="#25FBFF"/>
<stop offset="0.303481" stop-color="#95EEFC"/>
<stop offset="0.591346" stop-color="#FFE2F8"/>
<stop offset="1" stop-color="#84FFC1"/>
</radialGradient>
</defs>
</svg>