<svg width="328" height="301" viewBox="0 0 328 301" fill="none" xmlns="http://www.w3.org/2000/svg">
<g filter="url(#filter0_f_210_1842)">
<ellipse cx="15.8109" cy="12.0503" rx="15.8109" ry="12.0503" transform="matrix(0.861853 0.507158 -0.55356 0.83281 106.576 129.978)" fill="url(#paint0_linear_210_1842)" stroke="#FFFFF6" stroke-width="2"/>
<ellipse cx="13.2307" cy="10.0838" rx="13.2307" ry="10.0838" transform="matrix(-0.611907 0.79093 0.823229 0.567709 180.043 119.738)" fill="url(#paint1_linear_210_1842)" stroke="#FFFFF6" stroke-width="2"/>
<ellipse cx="13.0151" cy="8.87847" rx="13.0151" ry="8.87847" transform="matrix(0.477377 0.878698 -0.903504 0.428579 113.364 134.502)" fill="#17B4C8"/>
<ellipse cx="10.8919" cy="7.43005" rx="10.8919" ry="7.43005" transform="matrix(-0.149439 0.988771 0.995467 0.0951091 171.25 124.243)" fill="#17B4C8"/>
<g filter="url(#filter1_d_210_1842)">
<path d="M157.742 138.096C187.823 138.781 209.16 160.641 208.56 186.996C208.288 198.944 203.906 210.392 194.099 219.087C194.035 221.833 193.729 224.857 193.466 227.912C192.608 237.915 192.569 244.468 184.208 243.751C180.318 243.417 176.923 241.357 174.489 238.243C173.628 239.685 172.5 241.069 171.11 242.322C164.938 247.888 155.983 248.783 151.109 244.32C148.984 242.374 147.985 239.73 148.048 236.905C147.197 237.76 146.236 238.569 145.169 239.309C137.957 244.316 128.687 244.339 124.465 239.36C122.41 236.937 121.93 233.774 122.811 230.589C115.085 234.657 105.908 234.123 100.828 228.841C94.9524 222.731 100.547 218.872 108.699 212.437C104.348 203.24 103.9 193.888 104.04 187.732C104.55 165.321 127.661 137.412 157.742 138.096Z" fill="url(#paint2_radial_210_1842)"/>
<path d="M157.742 138.096L157.765 137.096L157.742 138.096ZM208.56 186.996L209.56 187.019L209.56 187.019L208.56 186.996ZM194.099 219.087L193.436 218.338C193.228 218.523 193.106 218.786 193.099 219.064L194.099 219.087ZM193.466 227.912L192.47 227.827L193.466 227.912ZM184.208 243.751L184.123 244.747L184.123 244.747L184.208 243.751ZM174.489 238.243L175.277 237.627C175.074 237.368 174.756 237.225 174.427 237.245C174.098 237.266 173.8 237.447 173.631 237.73L174.489 238.243ZM171.11 242.322L171.78 243.064L171.78 243.064L171.11 242.322ZM151.109 244.32L150.434 245.058L150.434 245.058L151.109 244.32ZM148.048 236.905L149.048 236.927C149.057 236.518 148.816 236.145 148.44 235.985C148.063 235.825 147.628 235.91 147.339 236.2L148.048 236.905ZM145.169 239.309L145.739 240.13L145.739 240.13L145.169 239.309ZM124.465 239.36L123.703 240.007L123.703 240.007L124.465 239.36ZM122.811 230.589L123.775 230.856C123.881 230.471 123.749 230.06 123.438 229.81C123.128 229.56 122.698 229.518 122.345 229.704L122.811 230.589ZM100.828 228.841L100.108 229.535L100.108 229.535L100.828 228.841ZM108.699 212.437L109.318 213.222C109.684 212.933 109.802 212.431 109.603 212.01L108.699 212.437ZM104.04 187.732L103.04 187.709L103.04 187.709L104.04 187.732ZM157.742 138.096L157.72 139.096C187.311 139.769 208.146 161.231 207.56 186.973L208.56 186.996L209.56 187.019C210.173 160.052 188.336 137.792 157.765 137.096L157.742 138.096ZM208.56 186.996L207.56 186.973C207.294 198.681 203.007 209.852 193.436 218.338L194.099 219.087L194.762 219.835C204.805 210.932 209.283 199.206 209.56 187.019L208.56 186.996ZM194.099 219.087L193.099 219.064C193.036 221.77 192.734 224.747 192.47 227.827L193.466 227.912L194.463 227.998C194.723 224.968 195.034 221.897 195.099 219.11L194.099 219.087ZM193.466 227.912L192.47 227.827C192.253 230.35 192.093 232.599 191.841 234.582C191.59 236.566 191.256 238.194 190.727 239.468C190.206 240.723 189.518 241.582 188.572 242.113C187.612 242.652 186.263 242.923 184.294 242.755L184.208 243.751L184.123 244.747C186.334 244.937 188.125 244.658 189.551 243.857C190.991 243.049 191.933 241.779 192.574 240.235C193.208 238.71 193.567 236.869 193.825 234.834C194.084 232.797 194.25 230.476 194.463 227.998L193.466 227.912ZM184.208 243.751L184.294 242.755C180.718 242.448 177.565 240.554 175.277 237.627L174.489 238.243L173.701 238.859C176.281 242.16 179.918 244.387 184.123 244.747L184.208 243.751ZM174.489 238.243L173.631 237.73C172.822 239.084 171.758 240.391 170.441 241.579L171.11 242.322L171.78 243.064C173.241 241.747 174.434 240.286 175.348 238.756L174.489 238.243ZM171.11 242.322L170.441 241.579C164.505 246.932 156.149 247.579 151.785 243.583L151.109 244.32L150.434 245.058C155.817 249.986 165.371 248.844 171.78 243.064L171.11 242.322ZM151.109 244.32L151.785 243.583C149.893 241.85 148.991 239.494 149.048 236.927L148.048 236.905L147.048 236.883C146.98 239.966 148.075 242.897 150.434 245.058L151.109 244.32ZM148.048 236.905L147.339 236.2C146.531 237.011 145.617 237.781 144.599 238.487L145.169 239.309L145.739 240.13C146.855 239.356 147.862 238.509 148.757 237.61L148.048 236.905ZM145.169 239.309L144.599 238.487C141.151 240.881 137.227 242.07 133.693 242.079C130.151 242.088 127.097 240.918 125.228 238.714L124.465 239.36L123.703 240.007C126.056 242.782 129.747 244.089 133.698 244.079C137.658 244.069 141.975 242.744 145.739 240.13L145.169 239.309ZM124.465 239.36L125.228 238.714C123.424 236.586 122.966 233.782 123.775 230.856L122.811 230.589L121.847 230.323C120.895 233.767 121.396 237.287 123.703 240.007L124.465 239.36ZM122.811 230.589L122.345 229.704C114.877 233.636 106.226 233.011 101.549 228.148L100.828 228.841L100.108 229.535C105.591 235.236 115.292 235.678 123.277 231.474L122.811 230.589ZM100.828 228.841L101.549 228.148C100.162 226.706 99.5606 225.507 99.4244 224.475C99.2909 223.463 99.5832 222.448 100.336 221.315C101.101 220.164 102.296 218.959 103.857 217.613C105.414 216.27 107.265 214.843 109.318 213.222L108.699 212.437L108.079 211.652C106.056 213.249 104.151 214.718 102.551 216.099C100.953 217.477 99.5893 218.825 98.6705 220.208C97.7403 221.607 97.2262 223.105 97.4416 224.736C97.6542 226.347 98.5565 227.922 100.108 229.535L100.828 228.841ZM108.699 212.437L109.603 212.01C105.349 203.019 104.901 193.849 105.04 187.755L104.04 187.732L103.04 187.709C102.899 193.927 103.346 203.462 107.795 212.865L108.699 212.437ZM104.04 187.732L105.04 187.755C105.288 176.857 111.05 164.509 120.512 154.957C129.961 145.419 143.006 138.761 157.72 139.096L157.742 138.096L157.765 137.096C142.398 136.747 128.847 143.702 119.092 153.55C109.35 163.384 103.302 176.196 103.04 187.709L104.04 187.732Z" fill="#FFFFF6"/>
</g>
<path d="M164.148 154.03C165.089 151.216 169.553 150.529 172.68 151.575C175.807 152.621 177.579 155.751 176.637 158.565C175.696 161.38 172.397 162.814 169.27 161.767C166.143 160.721 163.206 156.845 164.148 154.03Z" fill="#FFFFF9" fill-opacity="0.67"/>
<path d="M155.416 150.666C155.768 149.612 157.44 149.355 158.611 149.746C159.782 150.138 160.445 151.31 160.093 152.364C159.74 153.418 158.505 153.955 157.334 153.563C156.163 153.171 155.063 151.72 155.416 150.666Z" fill="#FFFFF9" fill-opacity="0.67"/>
<path d="M115.202 191.626C116.355 191.066 117.917 192.237 118.539 193.519C119.161 194.801 118.73 196.294 117.576 196.854C116.422 197.414 114.982 196.829 114.36 195.547C113.738 194.264 114.048 192.186 115.202 191.626Z" fill="#54F6FD" fill-opacity="0.26"/>
<path d="M174.275 227.419C174.009 227.432 173.483 227.679 172.7 228.165C172.306 228.409 171.917 228.65 171.592 228.947C171.267 229.244 171.017 229.589 170.372 230.301" stroke="#00C8A3" stroke-opacity="0.5" stroke-width="2" stroke-linecap="round"/>
<path d="M119.202 218.798C119.436 218.924 119.803 219.375 120.299 220.151C120.549 220.542 120.795 220.928 120.96 221.336C121.125 221.744 121.201 222.164 121.475 223.084" stroke="#00C8A3" stroke-opacity="0.5" stroke-width="2" stroke-linecap="round"/>
<path d="M142.484 225.866C142.85 226.212 143.608 226.697 144.238 227.331C144.953 228.05 145.601 229.271 146.301 230.635C146.767 231.544 147.786 229.911 148.681 229.33C149.431 228.842 150.167 228.599 150.917 228.312C151.349 228.302 151.762 228.241 152.204 228.13C152.466 228.104 152.805 228.138 153.155 228.173" stroke="#00C6E0" stroke-opacity="0.8" stroke-width="2" stroke-linecap="round"/>
<path d="M177.066 186.31C177.146 186.046 177.425 185.896 177.689 185.976C177.953 186.056 178.103 186.334 178.023 186.599C177.716 187.621 176.886 188.928 175.363 189.466C173.893 189.984 171.924 189.734 169.401 188.091C167.338 190.282 165.485 190.991 163.935 190.835C162.329 190.672 161.213 189.597 160.673 188.677C160.533 188.439 160.613 188.132 160.851 187.993C161.089 187.853 161.395 187.933 161.535 188.17C161.965 188.904 162.836 189.718 164.035 189.839C165.217 189.958 166.886 189.421 168.952 187.106C168.955 187.103 168.957 187.1 168.96 187.097C168.975 187.08 168.993 187.066 169.01 187.052C169.02 187.044 169.03 187.036 169.04 187.029C169.054 187.019 169.068 187.01 169.083 187.002C169.097 186.994 169.111 186.987 169.126 186.981C169.141 186.975 169.156 186.97 169.171 186.965C169.187 186.96 169.202 186.955 169.219 186.951C169.224 186.95 169.229 186.948 169.234 186.947L169.296 186.94C169.301 186.94 169.306 186.94 169.311 186.94C169.327 186.94 169.343 186.94 169.359 186.941C169.376 186.942 169.392 186.944 169.409 186.947C169.423 186.949 169.437 186.953 169.45 186.957C169.468 186.961 169.486 186.966 169.504 186.973C169.515 186.978 169.526 186.983 169.538 186.989C169.558 186.998 169.578 187.008 169.597 187.021C169.6 187.023 169.604 187.025 169.607 187.027C172.162 188.789 173.91 188.917 175.031 188.522C176.167 188.121 176.821 187.125 177.066 186.31Z" fill="#002427"/>
<path d="M177.066 186.31L176.588 186.166L176.587 186.166L177.066 186.31ZM177.689 185.976L177.834 185.497L177.833 185.497L177.689 185.976ZM178.023 186.599L178.502 186.743L178.502 186.743L178.023 186.599ZM175.363 189.466L175.529 189.937L175.529 189.937L175.363 189.466ZM169.401 188.091L169.674 187.672L169.324 187.444L169.037 187.748L169.401 188.091ZM163.935 190.835L163.885 191.332L163.885 191.332L163.935 190.835ZM160.673 188.677L160.241 188.93L160.242 188.93L160.673 188.677ZM160.851 187.993L160.598 187.561L160.597 187.562L160.851 187.993ZM161.535 188.17L161.966 187.917L161.966 187.917L161.535 188.17ZM164.035 189.839L163.985 190.336L163.985 190.336L164.035 189.839ZM168.952 187.106L168.579 186.773L168.579 186.773L168.952 187.106ZM168.96 187.097L168.595 186.755L168.595 186.755L168.96 187.097ZM169.01 187.052L169.325 187.44L169.326 187.44L169.01 187.052ZM169.04 187.029L168.756 186.617L168.755 186.618L169.04 187.029ZM169.083 187.002L169.324 187.44L169.325 187.439L169.083 187.002ZM169.126 186.981L168.928 186.522L168.927 186.522L169.126 186.981ZM169.171 186.965L169.324 187.441L169.324 187.441L169.171 186.965ZM169.219 186.951L169.113 186.462L169.113 186.462L169.219 186.951ZM169.234 186.947L169.174 186.451L169.159 186.453L169.144 186.455L169.234 186.947ZM169.296 186.94L169.268 186.441L169.252 186.442L169.237 186.443L169.296 186.94ZM169.311 186.94L169.297 186.44L169.297 186.44L169.311 186.94ZM169.359 186.941L169.324 187.44L169.325 187.44L169.359 186.941ZM169.409 186.947L169.494 186.454L169.493 186.454L169.409 186.947ZM169.45 186.957L169.323 187.44L169.324 187.441L169.45 186.957ZM169.504 186.973L169.684 186.507L169.683 186.506L169.504 186.973ZM169.538 186.989L169.323 187.44L169.323 187.44L169.538 186.989ZM169.597 187.021L169.323 187.439L169.323 187.439L169.597 187.021ZM169.607 187.027L169.891 186.616L169.891 186.616L169.607 187.027ZM175.031 188.522L175.197 188.994L175.197 188.993L175.031 188.522ZM177.066 186.31L177.545 186.454L177.545 186.455L177.689 185.976L177.833 185.497C177.305 185.338 176.747 185.637 176.588 186.166L177.066 186.31ZM177.689 185.976L177.545 186.455L177.545 186.455L178.023 186.599L178.502 186.743C178.661 186.215 178.362 185.657 177.834 185.497L177.689 185.976ZM178.023 186.599L177.545 186.455C177.268 187.374 176.526 188.525 175.197 188.994L175.363 189.466L175.529 189.937C177.246 189.332 178.164 187.868 178.502 186.743L178.023 186.599ZM175.363 189.466L175.197 188.994C173.927 189.442 172.123 189.267 169.674 187.672L169.401 188.091L169.128 188.51C171.726 190.201 173.86 190.526 175.529 189.937L175.363 189.466ZM169.401 188.091L169.037 187.748C167.035 189.875 165.325 190.472 163.985 190.337L163.935 190.835L163.885 191.332C165.646 191.51 167.642 190.689 169.765 188.433L169.401 188.091ZM163.935 190.835L163.985 190.337C162.583 190.195 161.59 189.252 161.104 188.424L160.673 188.677L160.242 188.93C160.836 189.943 162.074 191.149 163.885 191.332L163.935 190.835ZM160.673 188.677L161.104 188.424L161.104 188.424L160.851 187.993L160.597 187.562C160.121 187.842 159.963 188.454 160.241 188.93L160.673 188.677ZM160.851 187.993L161.103 188.424L161.104 188.424L161.535 188.17L161.966 187.917C161.686 187.441 161.073 187.283 160.598 187.561L160.851 187.993ZM161.535 188.17L161.103 188.423C161.589 189.251 162.583 190.194 163.985 190.336L164.035 189.839L164.085 189.342C163.09 189.241 162.341 188.558 161.966 187.917L161.535 188.17ZM164.035 189.839L163.985 190.336C165.387 190.478 167.201 189.819 169.325 187.439L168.952 187.106L168.579 186.773C166.57 189.024 165.047 189.439 164.085 189.342L164.035 189.839ZM168.952 187.106L169.325 187.439C169.327 187.436 169.329 187.434 169.331 187.432C169.331 187.432 169.332 187.431 169.332 187.431C169.333 187.43 169.333 187.43 169.333 187.43C169.333 187.43 169.33 187.434 169.325 187.439L168.96 187.097L168.595 186.755C168.587 186.764 168.581 186.771 168.579 186.773C168.578 186.774 168.578 186.774 168.578 186.775C168.577 186.775 168.577 186.775 168.577 186.775C168.577 186.775 168.577 186.775 168.577 186.775C168.577 186.775 168.577 186.775 168.578 186.774C168.578 186.774 168.578 186.774 168.579 186.773L168.952 187.106ZM168.96 187.097L169.325 187.439C169.322 187.442 169.319 187.445 169.317 187.446C169.316 187.448 169.315 187.449 169.315 187.449C169.315 187.449 169.315 187.448 169.317 187.447C169.319 187.445 169.321 187.443 169.325 187.44L169.01 187.052L168.696 186.663C168.678 186.678 168.636 186.711 168.595 186.755L168.96 187.097ZM169.01 187.052L169.326 187.44C169.328 187.438 169.329 187.437 169.331 187.436C169.332 187.434 169.333 187.434 169.334 187.433C169.335 187.432 169.336 187.432 169.336 187.431C169.336 187.431 169.337 187.431 169.337 187.431C169.337 187.431 169.337 187.431 169.337 187.431C169.337 187.431 169.337 187.431 169.337 187.431C169.337 187.431 169.336 187.431 169.336 187.431C169.336 187.432 169.335 187.432 169.334 187.433C169.332 187.434 169.329 187.437 169.325 187.439L169.04 187.029L168.755 186.618C168.737 186.63 168.723 186.641 168.713 186.649C168.708 186.653 168.704 186.656 168.701 186.659C168.698 186.662 168.697 186.662 168.695 186.664L169.01 187.052ZM169.04 187.029L169.324 187.44L169.324 187.44L169.083 187.002L168.842 186.564C168.81 186.581 168.781 186.6 168.756 186.617L169.04 187.029ZM169.083 187.002L169.325 187.439L169.324 187.44L169.126 186.981L168.927 186.522C168.901 186.534 168.872 186.547 168.841 186.564L169.083 187.002ZM169.126 186.981L169.324 187.44C169.32 187.441 169.318 187.442 169.316 187.443C169.315 187.443 169.315 187.444 169.314 187.444C169.314 187.444 169.314 187.444 169.314 187.444C169.314 187.444 169.314 187.444 169.314 187.444C169.315 187.444 169.315 187.443 169.316 187.443C169.318 187.443 169.32 187.442 169.324 187.441L169.171 186.965L169.018 186.489C169.004 186.493 168.968 186.505 168.928 186.522L169.126 186.981ZM169.171 186.965L169.324 187.441C169.328 187.439 169.331 187.438 169.333 187.438C169.334 187.438 169.334 187.437 169.335 187.437C169.335 187.437 169.336 187.437 169.336 187.437C169.336 187.437 169.335 187.437 169.335 187.437C169.334 187.437 169.334 187.438 169.333 187.438C169.331 187.438 169.328 187.439 169.324 187.44L169.219 186.951L169.113 186.462C169.069 186.472 169.031 186.485 169.018 186.489L169.171 186.965ZM169.219 186.951L169.324 187.44C169.335 187.437 169.344 187.435 169.35 187.434C169.352 187.433 169.355 187.432 169.356 187.432C169.357 187.432 169.357 187.432 169.358 187.432C169.358 187.431 169.358 187.431 169.358 187.431C169.359 187.431 169.355 187.432 169.35 187.434C169.344 187.435 169.335 187.437 169.324 187.439L169.234 186.947L169.144 186.455C169.13 186.458 169.118 186.461 169.11 186.463C169.103 186.465 169.096 186.466 169.094 186.467C169.094 186.467 169.093 186.467 169.093 186.467C169.093 186.467 169.093 186.467 169.093 186.467C169.093 186.467 169.094 186.467 169.095 186.467C169.098 186.466 169.105 186.464 169.113 186.462L169.219 186.951ZM169.234 186.947L169.293 187.444L169.355 187.436L169.296 186.94L169.237 186.443L169.174 186.451L169.234 186.947ZM169.296 186.94L169.324 187.439C169.311 187.44 169.3 187.44 169.293 187.44C169.287 187.44 169.282 187.439 169.283 187.439C169.283 187.439 169.283 187.439 169.284 187.439C169.284 187.44 169.285 187.44 169.285 187.44C169.287 187.44 169.29 187.44 169.293 187.44C169.3 187.44 169.311 187.44 169.324 187.44L169.311 186.94L169.297 186.44C169.308 186.44 169.317 186.44 169.321 186.44C169.323 186.44 169.325 186.44 169.325 186.44C169.325 186.44 169.325 186.44 169.325 186.44C169.325 186.44 169.324 186.44 169.324 186.44C169.322 186.44 169.315 186.44 169.306 186.44C169.297 186.44 169.284 186.44 169.268 186.441L169.296 186.94ZM169.311 186.94L169.324 187.44L169.324 187.44L169.359 186.941L169.394 186.442C169.363 186.44 169.331 186.439 169.297 186.44L169.311 186.94ZM169.359 186.941L169.325 187.44L169.325 187.44L169.409 186.947L169.493 186.454C169.457 186.448 169.424 186.444 169.394 186.442L169.359 186.941ZM169.409 186.947L169.324 187.44C169.32 187.439 169.316 187.438 169.314 187.438C169.313 187.438 169.312 187.437 169.312 187.437C169.311 187.437 169.311 187.437 169.311 187.437C169.311 187.437 169.311 187.437 169.312 187.437C169.312 187.437 169.313 187.438 169.314 187.438C169.315 187.438 169.316 187.438 169.318 187.439C169.319 187.439 169.321 187.44 169.323 187.44L169.45 186.957L169.578 186.473C169.572 186.472 169.534 186.461 169.494 186.454L169.409 186.947ZM169.45 186.957L169.324 187.441C169.328 187.441 169.33 187.442 169.332 187.443C169.334 187.443 169.334 187.443 169.334 187.443C169.334 187.443 169.333 187.443 169.331 187.442C169.33 187.442 169.327 187.441 169.324 187.44L169.504 186.973L169.683 186.506C169.638 186.489 169.596 186.478 169.577 186.473L169.45 186.957ZM169.504 186.973L169.323 187.439C169.319 187.438 169.315 187.436 169.313 187.435C169.312 187.435 169.311 187.435 169.311 187.434C169.311 187.434 169.31 187.434 169.31 187.434C169.31 187.434 169.31 187.434 169.31 187.434C169.31 187.434 169.31 187.434 169.31 187.434C169.31 187.434 169.311 187.434 169.311 187.434C169.311 187.435 169.312 187.435 169.313 187.435C169.314 187.436 169.315 187.436 169.317 187.437C169.319 187.438 169.321 187.439 169.323 187.44L169.538 186.989L169.753 186.537C169.753 186.537 169.718 186.52 169.684 186.507L169.504 186.973ZM169.538 186.989L169.323 187.44L169.323 187.439L169.597 187.021L169.871 186.602C169.825 186.572 169.782 186.551 169.753 186.537L169.538 186.989ZM169.597 187.021L169.323 187.439C169.331 187.444 169.337 187.448 169.34 187.45C169.342 187.451 169.344 187.452 169.344 187.453C169.345 187.453 169.345 187.453 169.345 187.453C169.346 187.453 169.346 187.453 169.346 187.453C169.346 187.454 169.344 187.452 169.34 187.45C169.337 187.448 169.331 187.444 169.324 187.439L169.607 187.027L169.891 186.616C169.882 186.61 169.874 186.605 169.869 186.601C169.864 186.598 169.86 186.596 169.858 186.595C169.858 186.595 169.858 186.594 169.857 186.594C169.857 186.594 169.857 186.594 169.857 186.594C169.857 186.594 169.857 186.594 169.857 186.594C169.857 186.594 169.857 186.594 169.858 186.594C169.858 186.594 169.858 186.595 169.859 186.595C169.86 186.596 169.865 186.599 169.87 186.602L169.597 187.021ZM169.607 187.027L169.324 187.439C171.95 189.25 173.868 189.463 175.197 188.994L175.031 188.522L174.864 188.05C173.953 188.372 172.375 188.329 169.891 186.616L169.607 187.027ZM175.031 188.522L175.197 188.993C176.526 188.524 177.269 187.373 177.545 186.454L177.066 186.31L176.587 186.166C176.374 186.877 175.808 187.717 174.864 188.051L175.031 188.522Z" fill="#002427"/>
<ellipse cx="146.139" cy="187.358" rx="5.0243" ry="6.90841" transform="rotate(-6.83007 146.139 187.358)" fill="#002427"/>
<ellipse cx="188.049" cy="180.937" rx="5.0243" ry="6.90841" transform="rotate(-6.83007 188.049 180.937)" fill="#002427"/>
</g>
<ellipse cx="15.235" cy="11.6114" rx="15.235" ry="11.6114" transform="matrix(0.788673 0.614813 -0.657049 0.753848 110.273 132.111)" fill="url(#paint3_linear_210_1842)" stroke="#FFFFF6" stroke-width="2"/>
<ellipse cx="12.7487" cy="9.71648" rx="12.7487" ry="9.71648" transform="matrix(-0.573015 0.819545 0.849672 0.527311 178.397 123.071)" fill="url(#paint4_linear_210_1842)" stroke="#FFFFF6" stroke-width="2"/>
<ellipse cx="12.541" cy="8.55507" rx="12.541" ry="8.55507" transform="matrix(0.788673 0.614813 -0.657049 0.753848 109.302 138.344)" fill="#17B4C8"/>
<ellipse cx="10.4951" cy="7.1594" rx="10.4951" ry="7.1594" transform="matrix(-0.573015 0.819545 0.849672 0.527311 180.707 127.817)" fill="#17B4C8"/>
<g filter="url(#filter2_d_210_1842)">
<path d="M157.743 141.536C184.905 142.154 204.157 162.48 203.599 186.999C203.351 197.912 199.525 208.38 191 216.419C190.906 218.945 190.645 221.681 190.418 224.442C189.599 234.412 189.554 240.944 181.711 240.241C178.319 239.936 175.329 238.145 173.094 235.404C172.341 236.611 171.408 237.769 170.298 238.833C164.5 244.39 156.097 245.293 151.531 240.852C149.537 238.914 148.604 236.277 148.668 233.459C147.867 234.314 146.966 235.124 145.963 235.864C139.189 240.864 130.493 240.899 126.538 235.943C124.613 233.53 124.167 230.379 124.997 227.203C117.743 231.267 109.134 230.748 104.375 225.49C98.8196 219.353 104.221 215.485 111.99 208.954C112.155 208.816 112.318 208.677 112.482 208.539C109.424 200.713 109.101 192.986 109.22 187.748C109.694 166.898 130.581 140.918 157.743 141.536Z" fill="url(#paint5_radial_210_1842)"/>
<path d="M157.743 141.536L157.765 140.536L157.743 141.536ZM203.599 186.999L204.599 187.022L204.599 187.022L203.599 186.999ZM191 216.419L190.314 215.691C190.123 215.871 190.011 216.119 190.001 216.381L191 216.419ZM190.418 224.442L189.421 224.36L190.418 224.442ZM181.711 240.241L181.621 241.237L181.621 241.237L181.711 240.241ZM173.094 235.404L173.869 234.772C173.665 234.522 173.353 234.385 173.031 234.406C172.709 234.426 172.416 234.601 172.245 234.875L173.094 235.404ZM170.298 238.833L170.99 239.555L170.298 238.833ZM151.531 240.852L150.833 241.569L150.833 241.569L151.531 240.852ZM148.668 233.459L149.668 233.482C149.677 233.067 149.43 232.69 149.046 232.533C148.662 232.376 148.221 232.473 147.938 232.775L148.668 233.459ZM145.963 235.864L146.557 236.668L146.557 236.668L145.963 235.864ZM126.538 235.943L125.756 236.566L125.757 236.566L126.538 235.943ZM124.997 227.203L125.965 227.456C126.066 227.068 125.926 226.657 125.609 226.412C125.292 226.167 124.858 226.135 124.509 226.331L124.997 227.203ZM104.375 225.49L103.633 226.161L103.633 226.161L104.375 225.49ZM111.99 208.954L112.634 209.72L111.99 208.954ZM112.482 208.539L113.127 209.303C113.454 209.027 113.569 208.573 113.414 208.175L112.482 208.539ZM109.22 187.748L108.22 187.725L108.22 187.725L109.22 187.748ZM157.743 141.536L157.72 142.536C184.363 143.142 203.144 163.042 202.6 186.977L203.599 186.999L204.599 187.022C205.17 161.918 185.446 141.166 157.765 140.536L157.743 141.536ZM203.599 186.999L202.6 186.977C202.356 197.664 198.616 207.863 190.314 215.691L191 216.419L191.686 217.146C200.434 208.897 204.346 198.161 204.599 187.022L203.599 186.999ZM191 216.419L190.001 216.381C189.907 218.879 189.65 221.579 189.421 224.36L190.418 224.442L191.415 224.523C191.64 221.783 191.904 219.012 191.999 216.456L191 216.419ZM190.418 224.442L189.421 224.36C189.215 226.873 189.061 229.117 188.822 231.096C188.583 233.076 188.267 234.704 187.767 235.979C187.273 237.24 186.625 238.091 185.752 238.613C184.872 239.139 183.63 239.409 181.8 239.245L181.711 240.241L181.621 241.237C183.713 241.424 185.418 241.142 186.778 240.329C188.145 239.513 189.03 238.24 189.63 236.709C190.224 235.193 190.563 233.362 190.808 231.335C191.053 229.307 191.212 226.995 191.415 224.523L190.418 224.442ZM181.711 240.241L181.8 239.245C178.719 238.968 175.963 237.34 173.869 234.772L173.094 235.404L172.319 236.036C174.695 238.95 177.918 240.905 181.621 241.237L181.711 240.241ZM173.094 235.404L172.245 234.875C171.537 236.011 170.657 237.105 169.606 238.111L170.298 238.833L170.99 239.555C172.16 238.434 173.145 237.211 173.942 235.933L173.094 235.404ZM170.298 238.833L169.606 238.111C164.04 243.445 156.27 244.066 152.228 240.135L151.531 240.852L150.833 241.569C155.925 246.52 164.959 245.334 170.99 239.555L170.298 238.833ZM151.531 240.852L152.228 240.135C150.461 238.417 149.609 236.062 149.668 233.482L148.668 233.459L147.668 233.436C147.599 236.492 148.614 239.411 150.833 241.569L151.531 240.852ZM148.668 233.459L147.938 232.775C147.178 233.587 146.322 234.356 145.369 235.059L145.963 235.864L146.557 236.668C147.61 235.891 148.557 235.041 149.398 234.142L148.668 233.459ZM145.963 235.864L145.369 235.059C142.14 237.443 138.477 238.624 135.189 238.637C131.899 238.65 129.061 237.502 127.32 235.319L126.538 235.943L125.757 236.566C127.97 239.34 131.457 240.652 135.197 240.637C138.94 240.622 143.012 239.285 146.557 236.668L145.963 235.864ZM126.538 235.943L127.32 235.319C125.63 233.201 125.197 230.392 125.965 227.456L124.997 227.203L124.03 226.95C123.137 230.366 123.596 233.858 125.756 236.566L126.538 235.943ZM124.997 227.203L124.509 226.331C117.526 230.242 109.469 229.629 105.116 224.819L104.375 225.49L103.633 226.161C108.798 231.868 117.959 232.292 125.486 228.075L124.997 227.203ZM104.375 225.49L105.116 224.819C103.81 223.376 103.243 222.17 103.122 221.121C103.002 220.087 103.298 219.053 104.029 217.907C104.77 216.746 105.92 215.53 107.415 214.169C108.907 212.81 110.675 211.366 112.634 209.72L111.99 208.954L111.347 208.189C109.421 209.807 107.6 211.296 106.068 212.691C104.538 214.084 103.229 215.443 102.343 216.832C101.446 218.237 100.948 219.729 101.135 221.35C101.321 222.956 102.162 224.536 103.633 226.161L104.375 225.49ZM111.99 208.954L112.634 209.72C112.798 209.582 112.969 209.436 113.127 209.303L112.482 208.539L111.837 207.774C111.668 207.917 111.512 208.05 111.347 208.189L111.99 208.954ZM112.482 208.539L113.414 208.175C110.426 200.527 110.102 192.953 110.22 187.771L109.22 187.748L108.22 187.725C108.1 193.02 108.423 200.898 111.551 208.902L112.482 208.539ZM109.22 187.748L110.22 187.771C110.45 177.644 115.656 166.165 124.194 157.285C132.721 148.416 144.477 142.235 157.72 142.536L157.743 141.536L157.765 140.536C143.847 140.22 131.579 146.719 122.753 155.899C113.939 165.066 108.464 177.003 108.22 187.725L109.22 187.748Z" fill="#FFFFF6"/>
</g>
<path d="M163.431 156.01C164.338 153.298 168.639 152.635 171.652 153.644C174.666 154.652 176.373 157.667 175.466 160.379C174.559 163.092 171.38 164.473 168.367 163.465C165.354 162.457 162.524 158.722 163.431 156.01Z" fill="#FFFFF9" fill-opacity="0.67"/>
<path d="M155.017 152.768C155.357 151.752 156.967 151.504 158.096 151.882C159.224 152.259 159.864 153.389 159.524 154.404C159.184 155.42 157.994 155.937 156.865 155.56C155.737 155.182 154.677 153.784 155.017 152.768Z" fill="#FFFFF9" fill-opacity="0.67"/>
<path d="M116.268 192.236C117.38 191.696 118.884 192.825 119.484 194.06C120.083 195.295 119.668 196.734 118.556 197.274C117.444 197.814 116.057 197.249 115.457 196.014C114.858 194.779 115.156 192.775 116.268 192.236Z" fill="#54F6FD" fill-opacity="0.26"/>
<path d="M176.925 220.189C176.668 220.201 176.162 220.44 175.407 220.908C175.027 221.143 174.653 221.376 174.339 221.662C174.026 221.948 173.785 222.28 173.164 222.966" stroke="#00C8A3" stroke-opacity="0.5" stroke-width="2" stroke-linecap="round"/>
<path d="M123.857 211.882C124.083 212.004 124.437 212.438 124.915 213.186C125.155 213.563 125.392 213.934 125.551 214.328C125.71 214.721 125.783 215.125 126.047 216.012" stroke="#00C8A3" stroke-opacity="0.5" stroke-width="2" stroke-linecap="round"/>
<path d="M146.291 218.693C146.645 219.027 147.375 219.495 147.982 220.105C148.671 220.798 149.295 221.975 149.969 223.289C150.419 224.165 151.401 222.592 152.263 222.031C152.985 221.562 153.695 221.327 154.418 221.05C154.834 221.041 155.231 220.982 155.657 220.876C155.91 220.85 156.237 220.883 156.574 220.916" stroke="#00C6E0" stroke-opacity="0.8" stroke-width="2" stroke-linecap="round"/>
<path d="M174.685 178.423C174.799 178.172 175.096 178.062 175.347 178.175C175.598 178.29 175.708 178.586 175.594 178.837C175.167 179.777 174.202 180.924 172.671 181.242C171.196 181.548 169.347 181.054 167.153 179.166C164.903 180.987 163.04 181.425 161.575 181.074C160.055 180.71 159.124 179.535 158.725 178.583C158.619 178.328 158.739 178.035 158.993 177.929C159.248 177.822 159.541 177.942 159.647 178.196C159.962 178.949 160.685 179.833 161.807 180.102C162.913 180.367 164.569 180.072 166.839 178.13C166.841 178.128 166.844 178.126 166.846 178.124C166.864 178.109 166.883 178.097 166.902 178.086C166.913 178.079 166.924 178.071 166.935 178.066C166.952 178.057 166.969 178.05 166.986 178.044C167 178.039 167.013 178.034 167.027 178.03C167.043 178.025 167.059 178.022 167.076 178.019C167.092 178.016 167.107 178.014 167.124 178.013C167.129 178.012 167.134 178.011 167.139 178.011L167.202 178.012C167.207 178.012 167.211 178.014 167.216 178.014C167.232 178.016 167.248 178.018 167.264 178.022C167.28 178.025 167.297 178.029 167.313 178.034C167.326 178.038 167.339 178.044 167.353 178.049C167.37 178.056 167.387 178.064 167.403 178.073C167.415 178.079 167.426 178.087 167.438 178.095C167.454 178.105 167.47 178.117 167.485 178.13C167.489 178.133 167.494 178.136 167.499 178.139C169.709 180.15 171.355 180.494 172.468 180.263C173.598 180.028 174.347 179.166 174.685 178.423Z" fill="#002427"/>
<path d="M174.685 178.423L174.23 178.216L174.229 178.217L174.685 178.423ZM175.347 178.175L175.554 177.72L175.553 177.72L175.347 178.175ZM175.594 178.837L176.05 179.044L176.05 179.044L175.594 178.837ZM172.671 181.242L172.773 181.731L172.773 181.731L172.671 181.242ZM167.153 179.166L167.479 178.787L167.163 178.514L166.838 178.777L167.153 179.166ZM161.575 181.074L161.458 181.561L161.458 181.561L161.575 181.074ZM158.725 178.583L158.264 178.776L158.264 178.776L158.725 178.583ZM158.993 177.929L158.8 177.467L158.8 177.467L158.993 177.929ZM159.647 178.196L160.109 178.003L160.108 178.003L159.647 178.196ZM161.807 180.102L161.691 180.589L161.691 180.589L161.807 180.102ZM166.839 178.13L166.514 177.75L166.513 177.751L166.839 178.13ZM166.846 178.124L167.164 178.51L167.164 178.51L166.846 178.124ZM166.902 178.086L167.164 178.511L167.164 178.511L166.902 178.086ZM166.935 178.066L166.707 177.62L166.707 177.621L166.935 178.066ZM166.986 178.044L167.163 178.512L167.164 178.511L166.986 178.044ZM167.027 178.03L166.891 177.549L166.89 177.549L167.027 178.03ZM167.076 178.019L167.163 178.511L167.163 178.511L167.076 178.019ZM167.124 178.013L167.163 178.511L167.163 178.511L167.124 178.013ZM167.139 178.011L167.147 177.511L167.131 177.511L167.116 177.512L167.139 178.011ZM167.202 178.012L167.24 177.513L167.225 177.512L167.209 177.512L167.202 178.012ZM167.216 178.014L167.163 178.511L167.163 178.511L167.216 178.014ZM167.264 178.022L167.163 178.511L167.163 178.511L167.264 178.022ZM167.313 178.034L167.463 177.557L167.462 177.557L167.313 178.034ZM167.353 178.049L167.162 178.512L167.163 178.512L167.353 178.049ZM167.403 178.073L167.644 177.635L167.643 177.634L167.403 178.073ZM167.438 178.095L167.161 178.511L167.162 178.511L167.438 178.095ZM167.485 178.13L167.162 178.511L167.162 178.511L167.485 178.13ZM167.499 178.139L167.835 177.77L167.835 177.769L167.499 178.139ZM172.468 180.263L172.57 180.752L172.57 180.752L172.468 180.263ZM174.685 178.423L175.14 178.631L175.14 178.631L175.347 178.175L175.553 177.72C175.051 177.493 174.459 177.714 174.23 178.216L174.685 178.423ZM175.347 178.175L175.139 178.631L175.139 178.631L175.594 178.837L176.05 179.044C176.277 178.542 176.057 177.949 175.554 177.72L175.347 178.175ZM175.594 178.837L175.139 178.631C174.757 179.473 173.899 180.476 172.569 180.752L172.671 181.242L172.773 181.731C174.504 181.371 175.578 180.082 176.05 179.044L175.594 178.837ZM172.671 181.242L172.569 180.752C171.301 181.015 169.606 180.617 167.479 178.787L167.153 179.166L166.827 179.545C169.088 181.491 171.09 182.081 172.773 181.731L172.671 181.242ZM167.153 179.166L166.838 178.777C164.657 180.542 162.95 180.89 161.691 180.588L161.575 181.074L161.458 181.561C163.129 181.961 165.148 181.431 167.467 179.554L167.153 179.166ZM161.575 181.074L161.691 180.588C160.371 180.272 159.543 179.243 159.187 178.39L158.725 178.583L158.264 178.776C158.704 179.827 159.739 181.149 161.458 181.561L161.575 181.074ZM158.725 178.583L159.187 178.39L159.186 178.39L158.993 177.929L158.8 177.467C158.29 177.681 158.051 178.267 158.264 178.776L158.725 178.583ZM158.993 177.929L159.186 178.39L159.186 178.39L159.647 178.196L160.108 178.003C159.895 177.493 159.309 177.255 158.8 177.467L158.993 177.929ZM159.647 178.196L159.186 178.389C159.543 179.242 160.37 180.272 161.691 180.589L161.807 180.102L161.924 179.616C161.001 179.395 160.382 178.656 160.109 178.003L159.647 178.196ZM161.807 180.102L161.691 180.589C163.012 180.905 164.828 180.509 167.164 178.51L166.839 178.13L166.513 177.751C164.31 179.636 162.813 179.829 161.924 179.616L161.807 180.102ZM166.839 178.13L167.163 178.51L167.164 178.51L166.846 178.124L166.529 177.737C166.524 177.741 166.52 177.745 166.518 177.747C166.517 177.748 166.515 177.749 166.515 177.749C166.514 177.75 166.514 177.75 166.514 177.75L166.839 178.13ZM166.846 178.124L167.164 178.51C167.158 178.515 167.155 178.517 167.155 178.517C167.155 178.517 167.155 178.517 167.157 178.516C167.159 178.515 167.161 178.513 167.164 178.511L166.902 178.086L166.64 177.66C166.616 177.674 166.574 177.701 166.529 177.737L166.846 178.124ZM166.902 178.086L167.164 178.511C167.169 178.508 167.174 178.505 167.176 178.504C167.177 178.503 167.178 178.502 167.179 178.502C167.179 178.502 167.179 178.502 167.18 178.502C167.18 178.501 167.18 178.501 167.18 178.501C167.18 178.501 167.18 178.501 167.18 178.502C167.179 178.502 167.179 178.502 167.179 178.502C167.178 178.502 167.177 178.503 167.176 178.504C167.173 178.505 167.169 178.508 167.164 178.51L166.935 178.066L166.707 177.621C166.685 177.632 166.667 177.642 166.657 177.649C166.652 177.652 166.647 177.655 166.644 177.657C166.641 177.659 166.64 177.66 166.639 177.66L166.902 178.086ZM166.935 178.066L167.163 178.511C167.16 178.512 167.157 178.514 167.155 178.514C167.153 178.515 167.152 178.516 167.152 178.516C167.152 178.516 167.153 178.515 167.155 178.515C167.157 178.514 167.159 178.513 167.163 178.512L166.986 178.044L166.81 177.576C166.793 177.582 166.752 177.598 166.707 177.62L166.935 178.066ZM166.986 178.044L167.164 178.511C167.168 178.51 167.17 178.509 167.172 178.508C167.173 178.508 167.174 178.508 167.174 178.507C167.175 178.507 167.175 178.507 167.175 178.507C167.175 178.507 167.175 178.507 167.174 178.507C167.174 178.508 167.173 178.508 167.172 178.508C167.17 178.509 167.167 178.51 167.163 178.511L167.027 178.03L166.89 177.549C166.852 177.56 166.816 177.574 166.809 177.576L166.986 178.044ZM167.027 178.03L167.163 178.511L167.163 178.511L167.076 178.019L166.989 177.526C166.961 177.531 166.927 177.538 166.891 177.549L167.027 178.03ZM167.076 178.019L167.163 178.511L167.163 178.511L167.124 178.013L167.084 177.514C167.052 177.517 167.02 177.521 166.988 177.526L167.076 178.019ZM167.124 178.013L167.163 178.511C167.174 178.51 167.183 178.509 167.189 178.509C167.192 178.508 167.194 178.508 167.195 178.508C167.196 178.508 167.197 178.508 167.197 178.507C167.197 178.507 167.197 178.507 167.197 178.507C167.198 178.507 167.194 178.508 167.189 178.508C167.183 178.509 167.174 178.51 167.163 178.51L167.139 178.011L167.116 177.512C167.102 177.512 167.09 177.513 167.082 177.514C167.074 177.515 167.067 177.516 167.065 177.516C167.065 177.516 167.064 177.516 167.064 177.516C167.064 177.516 167.064 177.516 167.064 177.516C167.064 177.516 167.065 177.516 167.066 177.516C167.069 177.516 167.076 177.515 167.084 177.514L167.124 178.013ZM167.139 178.011L167.132 178.511L167.194 178.512L167.202 178.012L167.209 177.512L167.147 177.511L167.139 178.011ZM167.202 178.012L167.163 178.51C167.149 178.509 167.139 178.508 167.132 178.507C167.126 178.506 167.121 178.505 167.122 178.505C167.122 178.505 167.122 178.505 167.122 178.505C167.123 178.505 167.124 178.506 167.124 178.506C167.126 178.506 167.129 178.507 167.132 178.507C167.139 178.508 167.149 178.51 167.163 178.511L167.216 178.014L167.27 177.517C167.281 177.518 167.289 177.519 167.293 177.52C167.295 177.52 167.297 177.521 167.297 177.521C167.298 177.521 167.298 177.521 167.297 177.521C167.297 177.521 167.297 177.521 167.296 177.521C167.294 177.52 167.287 177.519 167.279 177.518C167.27 177.516 167.256 177.515 167.24 177.513L167.202 178.012ZM167.216 178.014L167.163 178.511L167.163 178.511L167.264 178.022L167.365 177.532C167.335 177.526 167.303 177.521 167.27 177.517L167.216 178.014ZM167.264 178.022L167.163 178.511L167.163 178.511L167.313 178.034L167.462 177.557C167.428 177.546 167.395 177.538 167.365 177.532L167.264 178.022ZM167.313 178.034L167.163 178.511C167.158 178.51 167.155 178.509 167.153 178.508C167.152 178.507 167.151 178.507 167.151 178.507C167.15 178.507 167.15 178.507 167.15 178.507C167.15 178.507 167.15 178.507 167.15 178.507C167.151 178.507 167.152 178.507 167.153 178.508C167.154 178.508 167.155 178.509 167.157 178.509C167.158 178.51 167.16 178.511 167.162 178.512L167.353 178.049L167.543 177.587C167.538 177.585 167.502 177.569 167.463 177.557L167.313 178.034ZM167.353 178.049L167.163 178.512C167.166 178.513 167.168 178.514 167.17 178.515C167.172 178.516 167.172 178.516 167.172 178.516C167.172 178.516 167.171 178.515 167.17 178.515C167.168 178.514 167.165 178.513 167.162 178.511L167.403 178.073L167.643 177.634C167.601 177.611 167.561 177.595 167.542 177.587L167.353 178.049ZM167.403 178.073L167.162 178.511C167.158 178.508 167.155 178.506 167.153 178.505C167.152 178.505 167.151 178.504 167.15 178.504C167.15 178.504 167.149 178.503 167.149 178.503C167.149 178.503 167.15 178.503 167.15 178.503C167.15 178.504 167.15 178.504 167.15 178.504C167.151 178.504 167.151 178.505 167.152 178.505C167.153 178.506 167.154 178.507 167.156 178.508C167.157 178.509 167.159 178.51 167.161 178.511L167.438 178.095L167.714 177.678C167.712 177.677 167.679 177.654 167.644 177.635L167.403 178.073ZM167.438 178.095L167.162 178.511L167.162 178.511L167.485 178.13L167.809 177.748C167.772 177.717 167.738 177.694 167.714 177.678L167.438 178.095ZM167.485 178.13L167.162 178.511C167.177 178.524 167.191 178.534 167.199 178.54C167.204 178.543 167.207 178.545 167.209 178.547C167.21 178.548 167.211 178.548 167.212 178.548C167.212 178.549 167.212 178.549 167.212 178.549C167.212 178.549 167.212 178.549 167.212 178.549C167.213 178.549 167.211 178.548 167.209 178.547C167.207 178.545 167.204 178.543 167.2 178.54C167.191 178.534 167.178 178.524 167.163 178.51L167.499 178.139L167.835 177.769C167.817 177.753 167.802 177.741 167.791 177.734C167.781 177.726 167.773 177.721 167.771 177.72C167.77 177.719 167.771 177.719 167.771 177.72C167.772 177.72 167.774 177.722 167.778 177.724C167.783 177.728 167.795 177.737 167.809 177.748L167.485 178.13ZM167.499 178.139L167.162 178.509C169.436 180.578 171.24 181.029 172.57 180.752L172.468 180.263L172.366 179.773C171.47 179.959 169.981 179.722 167.835 177.77L167.499 178.139ZM172.468 180.263L172.57 180.752C173.9 180.476 174.757 179.472 175.14 178.63L174.685 178.423L174.229 178.217C173.937 178.861 173.296 179.58 172.366 179.773L172.468 180.263Z" fill="#002427"/>
<ellipse cx="145.034" cy="175.441" rx="4.84128" ry="6.65677" transform="rotate(0.868495 145.034 175.441)" fill="#002427"/>
<ellipse cx="185.881" cy="174.719" rx="4.84128" ry="6.65677" transform="rotate(0.868495 185.881 174.719)" fill="#002427"/>
<path d="M278 0C283.523 0 288 4.47715 288 10V65C288 70.5229 283.523 75 278 75H166.083L161.464 83C159.924 85.6665 156.076 85.6665 154.536 83L149.917 75H37C31.4772 75 27 70.5229 27 65V10C27 4.47715 31.4772 0 37 0H278Z" fill="#FFFFF6"/>
<path d="M61.1117 21.688V34.106H59.7257V21.688H61.1117ZM54.5317 22.612C55.1477 22.612 55.6937 22.794 56.1697 23.158C56.655 23.5127 57.033 24.0213 57.3037 24.684C57.5744 25.3373 57.7097 26.098 57.7097 26.966C57.7097 27.8433 57.5744 28.6133 57.3037 29.276C57.033 29.9387 56.655 30.452 56.1697 30.816C55.6937 31.1707 55.1477 31.348 54.5317 31.348C53.9157 31.348 53.365 31.1707 52.8797 30.816C52.3944 30.452 52.0164 29.9387 51.7457 29.276C51.475 28.6133 51.3397 27.8433 51.3397 26.966C51.3397 26.098 51.475 25.3373 51.7457 24.684C52.0164 24.0213 52.3944 23.5127 52.8797 23.158C53.365 22.794 53.9157 22.612 54.5317 22.612ZM54.5317 23.858C53.9717 23.858 53.519 24.138 53.1737 24.698C52.8377 25.258 52.6697 26.014 52.6697 26.966C52.6697 27.9273 52.8377 28.6927 53.1737 29.262C53.519 29.822 53.9717 30.102 54.5317 30.102C55.0824 30.102 55.5304 29.822 55.8757 29.262C56.221 28.6927 56.3937 27.9273 56.3937 26.966C56.3937 26.014 56.221 25.258 55.8757 24.698C55.5304 24.138 55.0824 23.858 54.5317 23.858ZM75.2726 24.502V21.716H76.6446V30.928H75.2726V25.636H72.7386V24.502H75.2726ZM70.7646 22.444V23.928C70.7646 24.796 71.0212 25.594 71.5346 26.322C72.0572 27.05 72.7712 27.5773 73.6766 27.904L72.9486 28.954C72.2859 28.702 71.7119 28.338 71.2266 27.862C70.7412 27.3767 70.3679 26.812 70.1066 26.168C69.8359 26.8867 69.4439 27.512 68.9306 28.044C68.4172 28.576 67.8012 28.982 67.0826 29.262L66.3686 28.17C67.3019 27.834 68.0392 27.274 68.5806 26.49C69.1219 25.706 69.3926 24.8473 69.3926 23.914V22.444H70.7646ZM69.9666 29.934V32.72H76.9246V33.84H68.5806V29.934H69.9666ZM83.9249 22.57V23.69H80.4389V25.034H83.7989V26.084H80.4389V27.526C81.2882 27.5167 82.0022 27.4933 82.5809 27.456C83.1596 27.4093 83.7476 27.3347 84.3449 27.232L84.4709 28.338C83.8082 28.4593 83.1456 28.5433 82.4829 28.59C81.8296 28.6273 80.9802 28.646 79.9349 28.646H79.1229V22.57H83.9249ZM89.1049 21.702V29.234H87.8029V25.986H86.3889V29.164H85.1009V21.94H86.3889V24.866H87.8029V21.702H89.1049ZM89.1049 29.836V34.092H87.7469V30.956H80.7189V29.836H89.1049ZM101.047 21.688V34.106H99.6612V21.688H101.047ZM94.4672 22.612C95.0832 22.612 95.6292 22.794 96.1052 23.158C96.5906 23.5127 96.9686 24.0213 97.2392 24.684C97.5099 25.3373 97.6452 26.098 97.6452 26.966C97.6452 27.8433 97.5099 28.6133 97.2392 29.276C96.9686 29.9387 96.5906 30.452 96.1052 30.816C95.6292 31.1707 95.0832 31.348 94.4672 31.348C93.8512 31.348 93.3006 31.1707 92.8152 30.816C92.3299 30.452 91.9519 29.9387 91.6812 29.276C91.4106 28.6133 91.2752 27.8433 91.2752 26.966C91.2752 26.098 91.4106 25.3373 91.6812 24.684C91.9519 24.0213 92.3299 23.5127 92.8152 23.158C93.3006 22.794 93.8512 22.612 94.4672 22.612ZM94.4672 23.858C93.9072 23.858 93.4546 24.138 93.1092 24.698C92.7732 25.258 92.6052 26.014 92.6052 26.966C92.6052 27.9273 92.7732 28.6927 93.1092 29.262C93.4546 29.822 93.9072 30.102 94.4672 30.102C95.0179 30.102 95.4659 29.822 95.8112 29.262C96.1566 28.6927 96.3292 27.9273 96.3292 26.966C96.3292 26.014 96.1566 25.258 95.8112 24.698C95.4659 24.138 95.0179 23.858 94.4672 23.858ZM115.936 21.688V26.462H117.868V27.61H115.936V34.106H114.55V21.688H115.936ZM112.618 22.892V23.998H108.222V29.906C109.342 29.8967 110.299 29.864 111.092 29.808C111.895 29.752 112.702 29.6493 113.514 29.5L113.654 30.648C112.758 30.816 111.871 30.928 110.994 30.984C110.126 31.04 109.076 31.068 107.844 31.068H106.85V22.892H112.618ZM124.168 21.968C125.531 21.968 126.604 22.178 127.388 22.598C128.182 23.018 128.578 23.5967 128.578 24.334C128.578 25.0713 128.182 25.65 127.388 26.07C126.604 26.49 125.531 26.7 124.168 26.7C122.806 26.7 121.728 26.49 120.934 26.07C120.15 25.65 119.758 25.0713 119.758 24.334C119.758 23.5967 120.15 23.018 120.934 22.598C121.728 22.178 122.806 21.968 124.168 21.968ZM124.168 23.046C123.216 23.046 122.479 23.158 121.956 23.382C121.434 23.5967 121.172 23.914 121.172 24.334C121.172 24.7447 121.434 25.062 121.956 25.286C122.488 25.51 123.226 25.622 124.168 25.622C125.102 25.622 125.83 25.51 126.352 25.286C126.884 25.062 127.15 24.7447 127.15 24.334C127.15 23.914 126.889 23.5967 126.366 23.382C125.844 23.158 125.111 23.046 124.168 23.046ZM128.396 29.808V33.938H119.912V29.808H128.396ZM121.256 30.9V32.846H127.052V30.9H121.256ZM129.754 27.624V28.73H118.568V27.624H129.754ZM141.361 21.702V34.092H140.059V21.702H141.361ZM138.855 21.954V33.49H137.567V27.54H136.237C136.181 28.7533 135.915 29.71 135.439 30.41C134.963 31.1007 134.342 31.446 133.577 31.446C133.045 31.446 132.578 31.2687 132.177 30.914C131.775 30.5593 131.467 30.0507 131.253 29.388C131.038 28.7253 130.931 27.946 130.931 27.05C130.931 26.154 131.038 25.3793 131.253 24.726C131.467 24.0633 131.775 23.5547 132.177 23.2C132.578 22.8453 133.045 22.668 133.577 22.668C134.323 22.668 134.935 23.004 135.411 23.676C135.887 24.3387 136.162 25.2533 136.237 26.42H137.567V21.954H138.855ZM133.577 23.97C133.138 23.97 132.797 24.2407 132.555 24.782C132.312 25.314 132.191 26.07 132.191 27.05C132.191 28.03 132.312 28.7953 132.555 29.346C132.797 29.8873 133.138 30.158 133.577 30.158C134.015 30.158 134.361 29.8873 134.613 29.346C134.865 28.7953 134.991 28.03 134.991 27.05C134.991 26.0793 134.865 25.3233 134.613 24.782C134.361 24.2407 134.015 23.97 133.577 23.97ZM152.498 22.85V23.97H148.242V29.934C149.362 29.9247 150.29 29.8967 151.028 29.85C151.765 29.794 152.507 29.696 153.254 29.556L153.394 30.676C152.563 30.8347 151.737 30.942 150.916 30.998C150.104 31.054 149.077 31.082 147.836 31.082H146.87V22.85H152.498ZM156.544 21.702V34.12H155.172V27.232H151.826V26.112H155.172V21.702H156.544ZM168.353 22.528C168.353 24.0867 167.835 25.3933 166.799 26.448C165.772 27.5027 164.335 28.2493 162.487 28.688L161.955 27.61C163.439 27.274 164.601 26.7607 165.441 26.07C166.29 25.37 166.766 24.558 166.869 23.634H162.571V22.528H168.353ZM171.923 21.702V28.436H170.537V21.702H171.923ZM172.091 29.08V30.172H170.495V32.804H172.217V33.896H163.649V32.804H165.371V30.172H163.761V29.08H172.091ZM169.137 32.804V30.172H166.701V32.804H169.137ZM185.153 28.142V29.248H173.967V28.142H185.153ZM176.753 30.242V32.734H183.907V33.854H175.381V30.242H176.753ZM179.567 22.094C180.454 22.094 181.228 22.1967 181.891 22.402C182.554 22.598 183.067 22.8873 183.431 23.27C183.795 23.6433 183.977 24.0867 183.977 24.6C183.977 25.1133 183.795 25.5613 183.431 25.944C183.067 26.3173 182.554 26.6067 181.891 26.812C181.228 27.008 180.454 27.106 179.567 27.106C178.68 27.106 177.906 27.008 177.243 26.812C176.58 26.6067 176.067 26.3173 175.703 25.944C175.339 25.5613 175.157 25.1133 175.157 24.6C175.157 24.0867 175.339 23.6433 175.703 23.27C176.067 22.8873 176.58 22.598 177.243 22.402C177.906 22.1967 178.68 22.094 179.567 22.094ZM179.567 23.214C178.634 23.214 177.901 23.3353 177.369 23.578C176.837 23.8207 176.571 24.1613 176.571 24.6C176.571 25.048 176.837 25.3933 177.369 25.636C177.901 25.8787 178.634 26 179.567 26C180.5 26 181.228 25.8787 181.751 25.636C182.283 25.3933 182.549 25.048 182.549 24.6C182.549 24.1613 182.283 23.8207 181.751 23.578C181.228 23.3353 180.5 23.214 179.567 23.214ZM199.104 21.716V25.384H200.84V26.504H199.104V30.06H197.732V21.716H199.104ZM189.332 28.66C190.694 28.66 191.754 28.6507 192.51 28.632V27.792C191.81 27.7173 191.259 27.526 190.858 27.218C190.456 26.9007 190.256 26.4947 190.256 26C190.256 25.44 190.522 24.9967 191.054 24.67C191.586 24.334 192.295 24.166 193.182 24.166C194.078 24.166 194.792 24.334 195.324 24.67C195.856 24.9967 196.122 25.44 196.122 26C196.122 26.4947 195.921 26.9007 195.52 27.218C195.118 27.526 194.572 27.7173 193.882 27.792V28.576C195.114 28.5107 196.178 28.4173 197.074 28.296L197.186 29.262C196.028 29.4673 194.852 29.598 193.658 29.654C192.463 29.71 191.077 29.7427 189.5 29.752L189.332 28.66ZM199.104 30.634V34.092H197.732V31.712H190.872V30.634H199.104ZM192.51 22.738V21.604H193.882V22.738H196.724V23.76H189.64V22.738H192.51ZM193.182 25.076C192.678 25.076 192.281 25.16 191.992 25.328C191.702 25.4867 191.558 25.7107 191.558 26C191.558 26.28 191.702 26.504 191.992 26.672C192.281 26.84 192.678 26.924 193.182 26.924C193.686 26.924 194.082 26.84 194.372 26.672C194.67 26.504 194.82 26.28 194.82 26C194.82 25.7107 194.67 25.4867 194.372 25.328C194.082 25.16 193.686 25.076 193.182 25.076ZM211.858 21.716V30.76H210.472V21.716H211.858ZM205.166 29.92V32.72H212.222V33.84H203.794V29.92H205.166ZM206.146 22.374V23.634C206.146 24.53 206.412 25.356 206.944 26.112C207.485 26.8587 208.227 27.3907 209.17 27.708L208.442 28.814C207.751 28.562 207.154 28.1887 206.65 27.694C206.146 27.19 205.754 26.602 205.474 25.93C205.203 26.6487 204.807 27.2787 204.284 27.82C203.771 28.352 203.155 28.7533 202.436 29.024L201.722 27.932C202.357 27.6987 202.903 27.3627 203.36 26.924C203.817 26.476 204.163 25.9673 204.396 25.398C204.639 24.8287 204.76 24.2407 204.76 23.634V22.374H206.146ZM219.502 21.912C220.893 21.912 221.976 22.094 222.75 22.458C223.525 22.822 223.912 23.3493 223.912 24.04C223.912 24.7213 223.525 25.2487 222.75 25.622C221.976 25.986 220.893 26.168 219.502 26.168C218.112 26.168 217.029 25.986 216.254 25.622C215.48 25.2487 215.092 24.7213 215.092 24.04C215.092 23.3493 215.475 22.822 216.24 22.458C217.015 22.094 218.102 21.912 219.502 21.912ZM219.502 22.92C218.532 22.92 217.79 23.018 217.276 23.214C216.763 23.4007 216.506 23.676 216.506 24.04C216.506 24.404 216.763 24.6793 217.276 24.866C217.79 25.0527 218.532 25.146 219.502 25.146C220.464 25.146 221.201 25.0527 221.714 24.866C222.228 24.6793 222.484 24.404 222.484 24.04C222.484 23.676 222.228 23.4007 221.714 23.214C221.201 23.018 220.464 22.92 219.502 22.92ZM225.088 26.91V28.016H213.902V26.91H225.088ZM223.688 28.926V31.866H216.604V32.93H224.038V33.98H215.26V30.886H222.33V29.962H215.218V28.926H223.688ZM231.199 22.304V23.998H234.293V22.304H235.651V27.778H229.841V22.304H231.199ZM231.199 26.686H234.293V25.048H231.199V26.686ZM239.039 21.702V24.348H240.789V25.468H239.039V28.296H237.667V21.702H239.039ZM234.643 28.912V31.88H231.913V32.93C232.809 32.9207 233.5 32.902 233.985 32.874C234.48 32.8367 234.97 32.7667 235.455 32.664L235.581 33.686C235.04 33.798 234.489 33.868 233.929 33.896C233.369 33.9333 232.511 33.952 231.353 33.952H230.597V30.914H233.327V29.948H230.569V28.912H234.643ZM239.039 28.912V34.036H237.681V30.004H235.161V28.912H239.039ZM251.78 21.702V34.092H250.394V21.702H251.78ZM244.864 23.648V21.842H246.25V23.648H249.26V24.754H241.854V23.648H244.864ZM245.578 25.65C246.166 25.65 246.693 25.7713 247.16 26.014C247.636 26.2567 248.004 26.5973 248.266 27.036C248.536 27.4747 248.672 27.974 248.672 28.534C248.672 29.094 248.536 29.5933 248.266 30.032C248.004 30.4613 247.636 30.802 247.16 31.054C246.693 31.2967 246.166 31.418 245.578 31.418C244.98 31.418 244.448 31.2967 243.982 31.054C243.515 30.8113 243.146 30.4707 242.876 30.032C242.614 29.5933 242.484 29.094 242.484 28.534C242.484 27.974 242.614 27.4747 242.876 27.036C243.146 26.5973 243.515 26.2567 243.982 26.014C244.448 25.7713 244.98 25.65 245.578 25.65ZM245.578 26.77C245.055 26.77 244.626 26.9333 244.29 27.26C243.954 27.5867 243.786 28.0113 243.786 28.534C243.786 29.0567 243.954 29.4813 244.29 29.808C244.626 30.1253 245.055 30.284 245.578 30.284C246.1 30.284 246.525 30.1253 246.852 29.808C247.188 29.4813 247.356 29.0567 247.356 28.534C247.356 28.002 247.188 27.5773 246.852 27.26C246.525 26.9333 246.1 26.77 245.578 26.77ZM264.044 21.702V27.988H262.658V21.702H264.044ZM260.334 22.248C260.334 25.384 258.393 27.3813 254.51 28.24L254.034 27.134C255.537 26.8167 256.689 26.336 257.492 25.692C258.295 25.0387 258.743 24.2593 258.836 23.354H254.664V22.248H260.334ZM264.044 28.548V31.698H257.324V32.902H264.408V33.966H255.966V30.676H262.658V29.626H255.938V28.548H264.044ZM78.2754 51.404V48.492H79.6474V51.404H84.6314V52.538H73.4034V51.404H78.2754ZM79.6894 42.458V43.396C79.6894 44.0307 79.8901 44.6467 80.2914 45.244C80.7021 45.832 81.2481 46.336 81.9294 46.756C82.6107 47.176 83.3527 47.4513 84.1554 47.582L83.5674 48.744C82.5501 48.5387 81.6261 48.142 80.7954 47.554C79.9741 46.966 79.3627 46.2567 78.9614 45.426C78.5507 46.2567 77.9347 46.966 77.1134 47.554C76.2921 48.142 75.3727 48.5387 74.3554 48.744L73.7814 47.582C74.5747 47.4513 75.3121 47.176 75.9934 46.756C76.6841 46.3267 77.2301 45.818 77.6314 45.23C78.0327 44.6327 78.2334 44.0213 78.2334 43.396V42.458H79.6894ZM91.2397 41.842C92.6304 41.842 93.7131 42.0287 94.4877 42.402C95.2624 42.766 95.6497 43.2887 95.6497 43.97C95.6497 44.6513 95.2624 45.1787 94.4877 45.552C93.7131 45.9253 92.6304 46.112 91.2397 46.112C89.8491 46.112 88.7664 45.9253 87.9917 45.552C87.2171 45.1787 86.8297 44.6513 86.8297 43.97C86.8297 43.2887 87.2171 42.766 87.9917 42.402C88.7664 42.0287 89.8491 41.842 91.2397 41.842ZM91.2397 42.864C90.2691 42.864 89.5271 42.962 89.0137 43.158C88.5004 43.3447 88.2437 43.6153 88.2437 43.97C88.2437 44.334 88.5004 44.6093 89.0137 44.796C89.5271 44.9827 90.2691 45.076 91.2397 45.076C92.2011 45.076 92.9384 44.9827 93.4517 44.796C93.9651 44.6093 94.2217 44.334 94.2217 43.97C94.2217 43.6153 93.9651 43.3447 93.4517 43.158C92.9384 42.962 92.2011 42.864 91.2397 42.864ZM96.8257 46.812V47.904H91.9117V48.926H95.4257V51.866H88.3417V52.93H95.7757V53.98H86.9977V50.886H94.0677V49.962H86.9557V48.926H90.5397V47.904H85.6397V46.812H96.8257ZM103.07 43.074V46.308H104.652V41.954H105.94V53.49H104.652V47.428H103.07V50.858H98.2961V43.074H103.07ZM99.5701 44.152V49.78H101.782V44.152H99.5701ZM108.432 41.702V54.092H107.13V41.702H108.432ZM120.29 41.688V54.106H118.904V41.688H120.29ZM113.71 42.612C114.326 42.612 114.872 42.794 115.348 43.158C115.834 43.5127 116.212 44.0213 116.482 44.684C116.753 45.3373 116.888 46.098 116.888 46.966C116.888 47.8433 116.753 48.6133 116.482 49.276C116.212 49.9387 115.834 50.452 115.348 50.816C114.872 51.1707 114.326 51.348 113.71 51.348C113.094 51.348 112.544 51.1707 112.058 50.816C111.573 50.452 111.195 49.9387 110.924 49.276C110.654 48.6133 110.518 47.8433 110.518 46.966C110.518 46.098 110.654 45.3373 110.924 44.684C111.195 44.0213 111.573 43.5127 112.058 43.158C112.544 42.794 113.094 42.612 113.71 42.612ZM113.71 43.858C113.15 43.858 112.698 44.138 112.352 44.698C112.016 45.258 111.848 46.014 111.848 46.966C111.848 47.9273 112.016 48.6927 112.352 49.262C112.698 49.822 113.15 50.102 113.71 50.102C114.261 50.102 114.709 49.822 115.054 49.262C115.4 48.6927 115.572 47.9273 115.572 46.966C115.572 46.014 115.4 45.258 115.054 44.698C114.709 44.138 114.261 43.858 113.71 43.858ZM132.205 42.696V43.802H125.135V45.44H131.939V46.532H125.135V48.254H132.331V49.36H123.749V42.696H132.205ZM133.577 51.432V52.552H122.349V51.432H133.577ZM144.175 41.688V46.616H146.065V47.75H144.175V54.092H142.789V41.688H144.175ZM140.941 43.004C140.941 44.8987 140.493 46.5973 139.597 48.1C138.71 49.6027 137.296 50.8393 135.355 51.81L134.585 50.76C137.628 49.2107 139.284 46.9987 139.555 44.124H135.201V43.004H140.941ZM159.708 41.702V44.894H161.472V46.028H159.708V49.15H158.336V41.702H159.708ZM159.708 49.794V53.938H151.826V49.794H159.708ZM153.17 50.9V52.846H158.364V50.9H153.17ZM153.03 42.934V41.604H154.416V42.934H157.37V44.04H150.076V42.934H153.03ZM153.716 44.558C154.304 44.558 154.827 44.6513 155.284 44.838C155.741 45.0153 156.096 45.272 156.348 45.608C156.6 45.944 156.726 46.3313 156.726 46.77C156.726 47.442 156.446 47.9787 155.886 48.38C155.335 48.7813 154.612 48.982 153.716 48.982C152.82 48.982 152.097 48.7813 151.546 48.38C151.005 47.9787 150.734 47.442 150.734 46.77C150.734 46.3313 150.855 45.944 151.098 45.608C151.35 45.272 151.7 45.0153 152.148 44.838C152.605 44.6513 153.128 44.558 153.716 44.558ZM153.716 45.594C153.212 45.594 152.806 45.7013 152.498 45.916C152.199 46.1213 152.05 46.406 152.05 46.77C152.05 47.134 152.199 47.4233 152.498 47.638C152.806 47.8527 153.212 47.96 153.716 47.96C154.229 47.96 154.635 47.8527 154.934 47.638C155.242 47.4233 155.396 47.134 155.396 46.77C155.396 46.406 155.242 46.1213 154.934 45.916C154.635 45.7013 154.229 45.594 153.716 45.594ZM165.294 43.158C165.294 44.8007 165.154 46.2893 164.874 47.624C164.594 48.9493 164.067 50.1673 163.292 51.278L162.214 50.676C162.877 49.7613 163.348 48.7907 163.628 47.764C163.918 46.728 164.086 45.566 164.132 44.278H162.536V43.158H165.294ZM168.052 43.158C168.052 44.446 168.001 45.552 167.898 46.476H169.27V41.996H170.558V53.476H169.27V47.596H167.744C167.427 49.3227 166.858 50.7927 166.036 52.006L164.958 51.39C165.677 50.4007 166.167 49.3273 166.428 48.17C166.69 47.0127 166.834 45.7153 166.862 44.278H165.686V43.158H168.052ZM172.91 41.702V54.092H171.594V41.702H172.91ZM188.933 47.638V48.744H177.747V47.638H188.933ZM183.333 49.64C184.668 49.64 185.708 49.836 186.455 50.228C187.211 50.6107 187.589 51.1567 187.589 51.866C187.589 52.5753 187.211 53.1213 186.455 53.504C185.708 53.896 184.668 54.092 183.333 54.092C181.989 54.092 180.939 53.896 180.183 53.504C179.436 53.1213 179.063 52.5753 179.063 51.866C179.063 51.1567 179.436 50.6107 180.183 50.228C180.939 49.836 181.989 49.64 183.333 49.64ZM183.333 50.69C182.409 50.69 181.695 50.7927 181.191 50.998C180.696 51.2033 180.449 51.4927 180.449 51.866C180.449 52.2487 180.696 52.5427 181.191 52.748C181.686 52.944 182.4 53.042 183.333 53.042C184.257 53.042 184.966 52.944 185.461 52.748C185.956 52.5427 186.203 52.2487 186.203 51.866C186.203 51.4927 185.951 51.2033 185.447 50.998C184.952 50.7927 184.248 50.69 183.333 50.69ZM183.347 41.996C184.234 41.996 185.008 42.094 185.671 42.29C186.343 42.4767 186.856 42.752 187.211 43.116C187.575 43.48 187.757 43.9047 187.757 44.39C187.757 44.8753 187.575 45.3 187.211 45.664C186.856 46.028 186.343 46.308 185.671 46.504C185.008 46.6907 184.234 46.784 183.347 46.784C182.46 46.784 181.681 46.6907 181.009 46.504C180.346 46.308 179.833 46.028 179.469 45.664C179.114 45.3 178.937 44.8753 178.937 44.39C178.937 43.9047 179.114 43.48 179.469 43.116C179.833 42.752 180.346 42.4767 181.009 42.29C181.681 42.094 182.46 41.996 183.347 41.996ZM183.347 43.074C182.404 43.074 181.667 43.1907 181.135 43.424C180.612 43.648 180.351 43.97 180.351 44.39C180.351 44.81 180.612 45.132 181.135 45.356C181.667 45.58 182.404 45.692 183.347 45.692C184.29 45.692 185.022 45.58 185.545 45.356C186.068 45.132 186.329 44.81 186.329 44.39C186.329 43.97 186.063 43.648 185.531 43.424C185.008 43.1907 184.28 43.074 183.347 43.074ZM200.217 41.702V51.11H198.845V49.948H196.395V48.982H198.845V41.702H200.217ZM192.965 50.2V52.72H200.511V53.84H191.593V50.2H192.965ZM189.913 47.33C191.416 47.33 192.825 47.3067 194.141 47.26C195.457 47.2133 196.699 47.12 197.865 46.98L197.949 47.96C196.979 48.1187 195.915 48.2353 194.757 48.31V50.718H193.385V48.38C192.405 48.4267 191.309 48.45 190.095 48.45L189.913 47.33ZM193.917 42.178C194.515 42.178 195.047 42.2713 195.513 42.458C195.98 42.6353 196.339 42.8873 196.591 43.214C196.853 43.5407 196.983 43.9187 196.983 44.348C196.983 45.0107 196.699 45.5427 196.129 45.944C195.569 46.336 194.832 46.532 193.917 46.532C193.32 46.532 192.788 46.4433 192.321 46.266C191.855 46.0887 191.491 45.8367 191.229 45.51C190.977 45.174 190.851 44.7867 190.851 44.348C190.851 43.9187 190.982 43.5407 191.243 43.214C191.505 42.8873 191.864 42.6353 192.321 42.458C192.788 42.2713 193.32 42.178 193.917 42.178ZM193.917 43.186C193.395 43.186 192.97 43.2933 192.643 43.508C192.326 43.7133 192.167 43.9933 192.167 44.348C192.167 44.7027 192.326 44.9873 192.643 45.202C192.97 45.4073 193.395 45.51 193.917 45.51C194.449 45.51 194.874 45.4073 195.191 45.202C195.509 44.9967 195.667 44.712 195.667 44.348C195.667 43.984 195.509 43.6993 195.191 43.494C194.874 43.2887 194.449 43.186 193.917 43.186ZM211.88 41.674V44.53H213.658V45.664H211.88V48.45H210.508V41.674H211.88ZM211.88 49.038V51.936H205.286V52.93H212.3V53.98H203.942V50.97H210.522V50.06H203.9V49.038H211.88ZM205.202 42.738V41.576H206.588V42.738H209.542V43.788H202.248V42.738H205.202ZM205.888 44.25C206.802 44.25 207.53 44.432 208.072 44.796C208.622 45.16 208.898 45.6547 208.898 46.28C208.898 46.896 208.622 47.386 208.072 47.75C207.521 48.114 206.793 48.296 205.888 48.296C204.982 48.296 204.259 48.114 203.718 47.75C203.176 47.386 202.906 46.896 202.906 46.28C202.906 45.6547 203.176 45.16 203.718 44.796C204.259 44.432 204.982 44.25 205.888 44.25ZM205.888 45.244C205.374 45.244 204.968 45.3373 204.67 45.524C204.371 45.7013 204.222 45.9533 204.222 46.28C204.222 46.5973 204.371 46.8493 204.67 47.036C204.968 47.2227 205.374 47.316 205.888 47.316C206.401 47.316 206.807 47.2227 207.106 47.036C207.414 46.8493 207.568 46.5973 207.568 46.28C207.568 45.9533 207.414 45.7013 207.106 45.524C206.807 45.3373 206.401 45.244 205.888 45.244ZM225.026 41.702V54.092H223.71V41.702H225.026ZM222.408 41.996V53.476H221.12V47.75H218.796C218.049 49.234 216.845 50.4707 215.184 51.46L214.386 50.48C215.655 49.7147 216.617 48.828 217.27 47.82C217.923 46.8027 218.301 45.6453 218.404 44.348H214.974V43.228H219.79C219.79 44.4973 219.617 45.636 219.272 46.644H221.12V41.996H222.408ZM229.338 51.432V48.198C228.834 47.918 228.442 47.5587 228.162 47.12C227.882 46.6813 227.742 46.1913 227.742 45.65C227.742 45.006 227.938 44.4367 228.33 43.942C228.722 43.4473 229.259 43.0693 229.94 42.808C230.631 42.5373 231.415 42.402 232.292 42.402C233.17 42.402 233.954 42.5373 234.644 42.808C235.335 43.0693 235.872 43.4473 236.254 43.942C236.646 44.4367 236.842 45.006 236.842 45.65C236.842 46.1913 236.702 46.6813 236.422 47.12C236.152 47.5493 235.764 47.9087 235.26 48.198V51.432H237.92V52.552H226.692V51.432H229.338ZM232.292 43.494C231.34 43.494 230.566 43.69 229.968 44.082C229.38 44.4647 229.086 44.9873 229.086 45.65C229.086 46.3127 229.38 46.84 229.968 47.232C230.566 47.6147 231.34 47.806 232.292 47.806C233.244 47.806 234.014 47.61 234.602 47.218C235.2 46.826 235.498 46.3033 235.498 45.65C235.498 44.9967 235.2 44.474 234.602 44.082C234.014 43.69 233.244 43.494 232.292 43.494ZM233.888 51.432V48.716C233.403 48.828 232.871 48.884 232.292 48.884C231.732 48.884 231.205 48.828 230.71 48.716V51.432H233.888ZM241.407 50.368H240.147L239.909 42.584H241.617L241.407 50.368ZM240.791 51.656C241.033 51.656 241.225 51.7307 241.365 51.88C241.514 52.02 241.589 52.2113 241.589 52.454C241.589 52.6967 241.514 52.8927 241.365 53.042C241.215 53.2007 241.024 53.28 240.791 53.28C240.548 53.28 240.347 53.2007 240.189 53.042C240.039 52.8927 239.965 52.6967 239.965 52.454C239.965 52.2207 240.039 52.0293 240.189 51.88C240.347 51.7307 240.548 51.656 240.791 51.656Z" fill="#000414"/>
<g opacity="0.4">
<g filter="url(#filter3_f_210_1842)">
<path d="M285.165 283.132C284.387 281.858 283.998 280.554 283.967 279.5C283.936 278.422 284.271 277.77 284.722 277.495C285.173 277.219 285.906 277.219 286.851 277.739C287.775 278.248 288.756 279.19 289.534 280.464C290.312 281.738 290.702 283.041 290.732 284.095C290.763 285.174 290.429 285.825 289.977 286.101C289.526 286.376 288.793 286.377 287.848 285.856C286.925 285.348 285.943 284.406 285.165 283.132Z" fill="url(#paint6_linear_210_1842)" stroke="#FFFFF6" stroke-width="1.5"/>
<path d="M292.329 282.469C291.559 281.208 291.21 279.894 291.235 278.813C291.26 277.722 291.653 276.974 292.239 276.616C292.825 276.258 293.67 276.25 294.652 276.726C295.626 277.198 296.635 278.108 297.405 279.369C298.175 280.63 298.524 281.944 298.499 283.025C298.473 284.116 298.08 284.864 297.495 285.222C296.909 285.58 296.064 285.588 295.082 285.112C294.108 284.64 293.099 283.729 292.329 282.469Z" fill="url(#paint7_linear_210_1842)" stroke="#FFFFF6" stroke-width="1.5"/>
<path d="M298.684 278.587C297.906 277.313 297.517 276.01 297.486 274.956C297.455 273.878 297.79 273.226 298.241 272.95C298.693 272.675 299.425 272.674 300.37 273.195C301.294 273.704 302.275 274.645 303.053 275.919C303.832 277.194 304.221 278.497 304.251 279.551C304.283 280.629 303.948 281.281 303.497 281.556C303.045 281.832 302.313 281.832 301.368 281.312C300.444 280.803 299.463 279.862 298.684 278.587Z" fill="url(#paint8_linear_210_1842)" stroke="#FFFFF6" stroke-width="1.5"/>
<path d="M302.82 272.35C302.039 271.072 301.636 269.772 301.587 268.727C301.535 267.65 301.853 267.033 302.257 266.787C302.66 266.54 303.354 266.539 304.289 267.077C305.196 267.599 306.168 268.551 306.949 269.829C307.73 271.108 308.132 272.408 308.182 273.453C308.233 274.53 307.916 275.146 307.512 275.393C307.108 275.639 306.415 275.64 305.48 275.103C304.573 274.581 303.601 273.629 302.82 272.35Z" fill="url(#paint9_linear_210_1842)" stroke="#FFFFF6" stroke-width="1.5"/>
<path d="M277.836 245.011C288.337 238.239 302.356 241.498 307.927 250.135C313.451 258.7 309.673 271.231 299.091 278.056C288.508 284.881 275.534 283.152 270.011 274.588C264.443 265.953 267.333 251.785 277.836 245.011Z" fill="url(#paint10_radial_210_1842)" stroke="#FFFFF6" stroke-width="1.5"/>
<ellipse cx="285.211" cy="257.051" rx="5.86543" ry="4.26576" transform="rotate(-28.2343 285.211 257.051)" fill="#FCFFE8" fill-opacity="0.6"/>
<ellipse cx="286.659" cy="247.27" rx="3.6254" ry="2.63665" transform="rotate(2.83836 286.659 247.27)" fill="#FCFFE8" fill-opacity="0.6"/>
<ellipse cx="3.6254" cy="2.63665" rx="3.6254" ry="2.63665" transform="matrix(-0.47037 0.882469 0.882469 0.47037 275.205 250.49)" fill="#FCFFE8" fill-opacity="0.6"/>
</g>
<path d="M286.005 283.916C285.227 282.642 284.838 281.338 284.807 280.284C284.776 279.206 285.111 278.554 285.562 278.279C286.013 278.003 286.746 278.003 287.691 278.524C288.615 279.032 289.596 279.974 290.374 281.248C291.152 282.522 291.541 283.825 291.572 284.879C291.603 285.958 291.269 286.61 290.817 286.885C290.366 287.161 289.633 287.161 288.688 286.64C287.765 286.132 286.783 285.19 286.005 283.916Z" fill="url(#paint11_linear_210_1842)" stroke="#FFFFF6" stroke-width="1.5"/>
<path d="M293.169 283.253C292.399 281.992 292.05 280.678 292.075 279.597C292.1 278.506 292.493 277.758 293.079 277.4C293.665 277.042 294.51 277.034 295.492 277.51C296.465 277.982 297.474 278.892 298.244 280.153C299.014 281.414 299.363 282.728 299.338 283.809C299.313 284.9 298.92 285.648 298.334 286.006C297.748 286.364 296.903 286.372 295.921 285.896C294.948 285.424 293.939 284.514 293.169 283.253Z" fill="url(#paint12_linear_210_1842)" stroke="#FFFFF6" stroke-width="1.5"/>
<path d="M299.524 279.371C298.746 278.097 298.357 276.794 298.326 275.74C298.295 274.662 298.63 274.01 299.081 273.734C299.532 273.459 300.265 273.459 301.21 273.979C302.134 274.488 303.115 275.429 303.893 276.704C304.672 277.978 305.061 279.281 305.091 280.335C305.123 281.413 304.788 282.065 304.337 282.341C303.885 282.616 303.153 282.616 302.208 282.096C301.284 281.587 300.303 280.646 299.524 279.371Z" fill="url(#paint13_linear_210_1842)" stroke="#FFFFF6" stroke-width="1.5"/>
<path d="M303.659 273.135C302.879 271.856 302.476 270.556 302.426 269.511C302.375 268.434 302.692 267.817 303.096 267.571C303.5 267.324 304.194 267.324 305.128 267.861C306.035 268.383 307.008 269.335 307.788 270.613C308.569 271.892 308.972 273.192 309.022 274.237C309.073 275.314 308.755 275.931 308.352 276.177C307.948 276.424 307.254 276.425 306.32 275.887C305.413 275.365 304.44 274.413 303.659 273.135Z" fill="url(#paint14_linear_210_1842)" stroke="#FFFFF6" stroke-width="1.5"/>
<path d="M278.676 245.795C289.177 239.023 303.196 242.282 308.767 250.919C314.291 259.484 310.513 272.015 299.931 278.84C289.348 285.665 276.374 283.936 270.851 275.372C265.283 266.737 268.173 252.569 278.676 245.795Z" fill="url(#paint15_radial_210_1842)" stroke="#FFFFF6" stroke-width="1.5"/>
<ellipse cx="286.051" cy="257.835" rx="5.86543" ry="4.26576" transform="rotate(-28.2343 286.051 257.835)" fill="#FCFFE8" fill-opacity="0.6"/>
<ellipse cx="287.499" cy="248.055" rx="3.6254" ry="2.63665" transform="rotate(2.83836 287.499 248.055)" fill="#FCFFE8" fill-opacity="0.6"/>
<ellipse cx="3.6254" cy="2.63665" rx="3.6254" ry="2.63665" transform="matrix(-0.47037 0.882469 0.882469 0.47037 276.045 251.274)" fill="#FCFFE8" fill-opacity="0.6"/>
</g>
<g opacity="0.22">
<g filter="url(#filter4_f_210_1842)">
<path d="M15.8612 165.44C15.4584 163.545 17.7159 162.242 19.1557 163.538L22.5924 166.632C23.2363 167.212 24.1803 167.311 24.9307 166.878L28.9356 164.566C30.6134 163.597 32.5507 165.342 31.7627 167.111L29.8817 171.336C29.5293 172.128 29.7266 173.056 30.3705 173.636L33.8072 176.73C35.247 178.027 34.1867 180.408 32.2599 180.206L27.6607 179.722C26.799 179.632 25.977 180.106 25.6246 180.898L23.7437 185.122C22.9556 186.892 20.3631 186.62 19.9603 184.725L18.9988 180.201C18.8186 179.354 18.1133 178.719 17.2515 178.628L12.6524 178.145C10.7256 177.942 10.1836 175.392 11.8615 174.424L15.8664 172.111C16.6167 171.678 17.0028 170.811 16.8227 169.964L15.8612 165.44Z" fill="url(#paint16_radial_210_1842)"/>
<path d="M15.1274 165.596C14.5738 162.99 17.6774 161.199 19.6571 162.981L23.0945 166.075C23.4969 166.437 24.0864 166.499 24.5553 166.228L28.5607 163.916C30.8677 162.584 33.5317 164.983 32.4482 167.417L30.5671 171.641C30.3468 172.136 30.4701 172.716 30.8726 173.078L34.3091 176.173C36.2886 177.956 34.8309 181.23 32.1816 180.951L27.5828 180.468C27.0442 180.412 26.5302 180.708 26.31 181.203L24.4289 185.427C23.3454 187.861 19.7805 187.487 19.2264 184.881L18.2653 180.357C18.1526 179.828 17.7117 179.431 17.1733 179.374L12.5744 178.891C9.92503 178.612 9.17923 175.106 11.4863 173.774L15.4908 171.462C15.9598 171.191 16.2019 170.649 16.0893 170.119L15.1274 165.596Z" stroke="#FFFFF6" stroke-width="1.5"/>
</g>
<path d="M16.2405 167.339C15.6868 164.733 18.7914 162.941 20.7711 164.723L23.3857 167.078C23.7881 167.44 24.3777 167.502 24.8466 167.232L27.8937 165.472C30.2008 164.14 32.8643 166.539 31.7807 168.972L30.3505 172.186C30.1302 172.681 30.2535 173.261 30.6559 173.624L33.2706 175.979C35.2499 177.761 33.7922 181.035 31.1431 180.757L27.6436 180.389C27.1052 180.332 26.5911 180.629 26.3708 181.124L24.9397 184.338C23.8561 186.772 20.2921 186.397 19.7381 183.792L19.006 180.35C18.8934 179.82 18.4525 179.423 17.914 179.367L14.4145 178.999C11.7656 178.72 11.0209 175.214 13.3278 173.882L16.3749 172.123C16.8436 171.852 17.085 171.31 16.9725 170.781L16.2405 167.339Z" fill="url(#paint17_radial_210_1842)" stroke="#FFFFF6" stroke-width="1.5"/>
</g>
<defs>
<filter id="filter0_f_210_1842" x="84.6324" y="110.323" width="137.64" height="150.539" filterUnits="userSpaceOnUse" color-interpolation-filters="sRGB">
<feFlood flood-opacity="0" result="BackgroundImageFix"/>
<feBlend mode="normal" in="SourceGraphic" in2="BackgroundImageFix" result="shape"/>
<feGaussianBlur stdDeviation="6.35" result="effect1_foregroundBlur_210_1842"/>
</filter>
<filter id="filter1_d_210_1842" x="92.8928" y="129.584" width="121.18" height="120.078" filterUnits="userSpaceOnUse" color-interpolation-filters="sRGB">
<feFlood flood-opacity="0" result="BackgroundImageFix"/>
<feColorMatrix in="SourceAlpha" type="matrix" values="0 0 0 0 0 0 0 0 0 0 0 0 0 0 0 0 0 0 127 0" result="hardAlpha"/>
<feOffset dy="-3"/>
<feGaussianBlur stdDeviation="2.25"/>
<feComposite in2="hardAlpha" operator="out"/>
<feColorMatrix type="matrix" values="0 0 0 0 0 0 0 0 0 0 0 0 0 0 0 0 0 0 0.25 0"/>
<feBlend mode="normal" in2="BackgroundImageFix" result="effect1_dropShadow_210_1842"/>
<feBlend mode="normal" in="SourceGraphic" in2="effect1_dropShadow_210_1842" result="shape"/>
</filter>
<filter id="filter2_d_210_1842" x="96.596" y="133.025" width="112.515" height="113.149" filterUnits="userSpaceOnUse" color-interpolation-filters="sRGB">
<feFlood flood-opacity="0" result="BackgroundImageFix"/>
<feColorMatrix in="SourceAlpha" type="matrix" values="0 0 0 0 0 0 0 0 0 0 0 0 0 0 0 0 0 0 127 0" result="hardAlpha"/>
<feOffset dy="-3"/>
<feGaussianBlur stdDeviation="2.25"/>
<feComposite in2="hardAlpha" operator="out"/>
<feColorMatrix type="matrix" values="0 0 0 0 0 0 0 0 0 0 0 0 0 0 0 0 0 0 0.25 0"/>
<feBlend mode="normal" in2="BackgroundImageFix" result="effect1_dropShadow_210_1842"/>
<feBlend mode="normal" in="SourceGraphic" in2="effect1_dropShadow_210_1842" result="shape"/>
</filter>
<filter id="filter3_f_210_1842" x="255.68" y="229.829" width="66.3323" height="68.0058" filterUnits="userSpaceOnUse" color-interpolation-filters="sRGB">
<feFlood flood-opacity="0" result="BackgroundImageFix"/>
<feBlend mode="normal" in="SourceGraphic" in2="BackgroundImageFix" result="shape"/>
<feGaussianBlur stdDeviation="5.4" result="effect1_foregroundBlur_210_1842"/>
</filter>
<filter id="filter4_f_210_1842" x="5.3582" y="157.511" width="34.6212" height="34.2993" filterUnits="userSpaceOnUse" color-interpolation-filters="sRGB">
<feFlood flood-opacity="0" result="BackgroundImageFix"/>
<feBlend mode="normal" in="SourceGraphic" in2="BackgroundImageFix" result="shape"/>
<feGaussianBlur stdDeviation="2" result="effect1_foregroundBlur_210_1842"/>
</filter>
<linearGradient id="paint0_linear_210_1842" x1="13.8589" y1="18.0544" x2="21.0991" y2="-0.126863" gradientUnits="userSpaceOnUse">
<stop stop-color="#3DDCFF"/>
<stop offset="1" stop-color="#61FFB0"/>
</linearGradient>
<linearGradient id="paint1_linear_210_1842" x1="11.5972" y1="15.108" x2="17.6558" y2="-0.10616" gradientUnits="userSpaceOnUse">
<stop stop-color="#3DDCFF"/>
<stop offset="1" stop-color="#61FFB0"/>
</linearGradient>
<radialGradient id="paint2_radial_210_1842" cx="0" cy="0" r="1" gradientUnits="userSpaceOnUse" gradientTransform="translate(156.092 218.309) rotate(67.7818) scale(73.897 108.256)">
<stop stop-color="#25FBFF"/>
<stop offset="0.303481" stop-color="#95EEFC"/>
<stop offset="0.591346" stop-color="#FFE2F8"/>
<stop offset="1" stop-color="#84FFC1"/>
</radialGradient>
<linearGradient id="paint3_linear_210_1842" x1="13.3541" y1="17.3967" x2="20.3305" y2="-0.122242" gradientUnits="userSpaceOnUse">
<stop stop-color="#3DDCFF"/>
<stop offset="1" stop-color="#61FFB0"/>
</linearGradient>
<linearGradient id="paint4_linear_210_1842" x1="11.1748" y1="14.5577" x2="17.0127" y2="-0.102293" gradientUnits="userSpaceOnUse">
<stop stop-color="#3DDCFF"/>
<stop offset="1" stop-color="#61FFB0"/>
</linearGradient>
<radialGradient id="paint5_radial_210_1842" cx="0" cy="0" r="1" gradientUnits="userSpaceOnUse" gradientTransform="translate(154.257 221.452) rotate(69.0259) scale(72.9896 102.503)">
<stop stop-color="#25FBFF"/>
<stop offset="0.303481" stop-color="#95EEFC"/>
<stop offset="0.591346" stop-color="#FFE2F8"/>
<stop offset="1" stop-color="#84FFC1"/>
</radialGradient>
<linearGradient id="paint6_linear_210_1842" x1="290.071" y1="286.604" x2="290.095" y2="274.914" gradientUnits="userSpaceOnUse">
<stop stop-color="#36C0DF"/>
<stop offset="0.653846" stop-color="#61FFB0"/>
</linearGradient>
<linearGradient id="paint7_linear_210_1842" x1="297.568" y1="285.737" x2="296.979" y2="273.711" gradientUnits="userSpaceOnUse">
<stop stop-color="#36C0DF"/>
<stop offset="0.653846" stop-color="#61FFB0"/>
</linearGradient>
<linearGradient id="paint8_linear_210_1842" x1="303.59" y1="282.06" x2="303.615" y2="270.369" gradientUnits="userSpaceOnUse">
<stop stop-color="#36C0DF"/>
<stop offset="0.653846" stop-color="#61FFB0"/>
</linearGradient>
<linearGradient id="paint9_linear_210_1842" x1="307.612" y1="275.892" x2="307.862" y2="264.347" gradientUnits="userSpaceOnUse">
<stop stop-color="#36C0DF"/>
<stop offset="0.653846" stop-color="#61FFB0"/>
</linearGradient>
<radialGradient id="paint10_radial_210_1842" cx="0" cy="0" r="1" gradientUnits="userSpaceOnUse" gradientTransform="translate(295.171 258.908) rotate(47.8919) scale(35.1933 54.6021)">
<stop stop-color="#25FBFF"/>
<stop offset="0.303481" stop-color="#95EEFC"/>
<stop offset="0.591346" stop-color="#FFE2F8"/>
<stop offset="1" stop-color="#84FFC1"/>
</radialGradient>
<linearGradient id="paint11_linear_210_1842" x1="290.91" y1="287.388" x2="290.935" y2="275.698" gradientUnits="userSpaceOnUse">
<stop stop-color="#36C0DF"/>
<stop offset="0.653846" stop-color="#61FFB0"/>
</linearGradient>
<linearGradient id="paint12_linear_210_1842" x1="298.408" y1="286.522" x2="297.819" y2="274.495" gradientUnits="userSpaceOnUse">
<stop stop-color="#36C0DF"/>
<stop offset="0.653846" stop-color="#61FFB0"/>
</linearGradient>
<linearGradient id="paint13_linear_210_1842" x1="304.43" y1="282.844" x2="304.455" y2="271.154" gradientUnits="userSpaceOnUse">
<stop stop-color="#36C0DF"/>
<stop offset="0.653846" stop-color="#61FFB0"/>
</linearGradient>
<linearGradient id="paint14_linear_210_1842" x1="308.451" y1="276.676" x2="308.702" y2="265.132" gradientUnits="userSpaceOnUse">
<stop stop-color="#36C0DF"/>
<stop offset="0.653846" stop-color="#61FFB0"/>
</linearGradient>
<radialGradient id="paint15_radial_210_1842" cx="0" cy="0" r="1" gradientUnits="userSpaceOnUse" gradientTransform="translate(296.011 259.692) rotate(47.8919) scale(35.1933 54.6021)">
<stop stop-color="#25FBFF"/>
<stop offset="0.303481" stop-color="#95EEFC"/>
<stop offset="0.591346" stop-color="#FFE2F8"/>
<stop offset="1" stop-color="#84FFC1"/>
</radialGradient>
<radialGradient id="paint16_radial_210_1842" cx="0" cy="0" r="1" gradientUnits="userSpaceOnUse" gradientTransform="translate(27.598 181.226) rotate(37.4318) scale(23.0636 32.7215)">
<stop stop-color="#25FBFF"/>
<stop offset="0.303481" stop-color="#95EEFC"/>
<stop offset="0.591346" stop-color="#FFE2F8"/>
<stop offset="1" stop-color="#84FFC1"/>
</radialGradient>
<radialGradient id="paint17_radial_210_1842" cx="0" cy="0" r="1" gradientUnits="userSpaceOnUse" gradientTransform="translate(27.5343 180.997) rotate(37.4318) scale(20.9783 29.7629)">
<stop stop-color="#25FBFF"/>
<stop offset="0.303481" stop-color="#95EEFC"/>
<stop offset="0.591346" stop-color="#FFE2F8"/>
<stop offset="1" stop-color="#84FFC1"/>
</radialGradient>
</defs>
</svg>
