<svg width="306" height="296" viewBox="0 0 306 296" fill="none" xmlns="http://www.w3.org/2000/svg">
<g filter="url(#filter0_f_210_1842)">
<ellipse cx="18.0207" cy="12.7149" rx="18.0207" ry="12.7149" transform="matrix(-0.910226 0.414113 0.414113 0.910226 290.995 22.2366)" fill="url(#paint0_linear_210_1842)" stroke="#FFFFF6" stroke-width="2"/>
<ellipse cx="196.505" cy="26.4131" rx="15.8247" ry="12.8942" transform="rotate(54.04 196.505 26.4131)" fill="url(#paint1_linear_210_1842)" stroke="#FFFFF6" stroke-width="2"/>
<ellipse cx="192.895" cy="30.8742" rx="13.0269" ry="9.50052" transform="rotate(31.0299 192.895 30.8742)" fill="#17B4C8"/>
<ellipse cx="280.721" cy="48.7783" rx="12.8015" ry="9.33613" transform="rotate(-41.5856 280.721 48.7783)" fill="#0096A9"/>
<g filter="url(#filter1_d_210_1842)">
<path d="M242.014 25.5233C271.971 31.554 289.104 58.7784 283.43 86.9647C281.409 97.0088 275.388 105.542 267.612 112.193C272.973 117.271 275.147 124.049 272.504 129.383C268.988 136.474 258.287 138.326 248.6 133.518C245.428 131.944 242.758 129.85 240.725 127.497C238.045 132.785 231.258 135.703 224.116 134.197C218.161 132.941 213.565 128.948 211.896 124.198C208.406 126.819 203.327 127.934 198.043 126.819C191.343 125.406 186.262 120.82 184.871 115.564C176.601 114.239 170.2 108.959 169.678 102.358C169.176 96.0149 174.254 90.365 181.749 88.0693C179.385 81.0012 178.563 73.5357 180.049 66.1535C185.723 37.9673 212.056 19.4927 242.014 25.5233Z" fill="url(#paint2_radial_210_1842)"/>
<path d="M242.014 25.5233L242.211 24.543L242.014 25.5233ZM283.43 86.9647L284.411 87.162L284.411 87.162L283.43 86.9647ZM267.612 112.193L266.962 111.433C266.747 111.617 266.62 111.884 266.613 112.167C266.606 112.451 266.719 112.724 266.925 112.919L267.612 112.193ZM272.504 129.383L273.4 129.827L273.4 129.827L272.504 129.383ZM248.6 133.518L248.156 134.414L248.6 133.518ZM240.725 127.497L241.482 126.843C241.264 126.591 240.935 126.464 240.604 126.505C240.273 126.545 239.984 126.748 239.833 127.045L240.725 127.497ZM224.116 134.197L223.909 135.175L223.909 135.175L224.116 134.197ZM211.896 124.198L212.839 123.866C212.733 123.566 212.491 123.333 212.186 123.241C211.881 123.148 211.55 123.207 211.295 123.398L211.896 124.198ZM198.043 126.819L197.837 127.798L197.837 127.798L198.043 126.819ZM184.871 115.564L185.837 115.308C185.736 114.926 185.419 114.639 185.029 114.577L184.871 115.564ZM169.678 102.358L168.681 102.437L168.681 102.437L169.678 102.358ZM181.749 88.0693L182.042 89.0255C182.3 88.9465 182.515 88.7667 182.638 88.527C182.761 88.2872 182.783 88.0078 182.697 87.7521L181.749 88.0693ZM180.049 66.1535L179.069 65.9561L179.069 65.9561L180.049 66.1535ZM242.014 25.5233L241.816 26.5036C271.226 32.4241 288.016 59.1167 282.45 86.7673L283.43 86.9647L284.411 87.162C290.192 58.4402 272.716 30.6838 242.211 24.543L242.014 25.5233ZM283.43 86.9647L282.45 86.7673C280.484 96.5362 274.618 104.885 266.962 111.433L267.612 112.193L268.262 112.953C276.159 106.198 282.333 97.4813 284.411 87.162L283.43 86.9647ZM267.612 112.193L266.925 112.919C272.11 117.83 273.981 124.15 271.608 128.939L272.504 129.383L273.4 129.827C276.313 123.948 273.837 116.712 268.3 111.467L267.612 112.193ZM272.504 129.383L271.608 128.939C270.026 132.13 266.792 134.219 262.696 134.927C258.601 135.636 253.718 134.942 249.045 132.623L248.6 133.518L248.156 134.414C253.169 136.902 258.48 137.686 263.037 136.898C267.592 136.11 271.466 133.727 273.4 129.827L272.504 129.383ZM248.6 133.518L249.045 132.623C245.987 131.105 243.425 129.092 241.482 126.843L240.725 127.497L239.969 128.151C242.092 130.608 244.869 132.783 248.156 134.414L248.6 133.518ZM240.725 127.497L239.833 127.045C237.399 131.847 231.119 134.652 224.322 133.218L224.116 134.197L223.909 135.175C231.398 136.755 238.691 133.724 241.617 127.949L240.725 127.497ZM224.116 134.197L224.322 133.218C218.668 132.026 214.379 128.249 212.839 123.866L211.896 124.198L210.952 124.529C212.75 129.646 217.653 133.856 223.909 135.175L224.116 134.197ZM211.896 124.198L211.295 123.398C208.062 125.826 203.285 126.903 198.25 125.841L198.043 126.819L197.837 127.798C203.368 128.965 208.749 127.812 212.496 124.997L211.896 124.198ZM198.043 126.819L198.25 125.841C191.847 124.49 187.115 120.133 185.837 115.308L184.871 115.564L183.904 115.82C185.409 121.507 190.839 126.322 197.837 127.798L198.043 126.819ZM184.871 115.564L185.029 114.577C177.004 113.291 171.146 108.236 170.675 102.279L169.678 102.358L168.681 102.437C169.254 109.681 176.197 115.187 184.712 116.551L184.871 115.564ZM169.678 102.358L170.675 102.279C170.224 96.582 174.798 91.2443 182.042 89.0255L181.749 88.0693L181.456 87.1132C173.71 89.4857 168.128 95.4478 168.681 102.437L169.678 102.358ZM181.749 88.0693L182.697 87.7521C180.378 80.8176 179.584 73.5313 181.03 66.3508L180.049 66.1535L179.069 65.9561C177.542 73.5402 178.392 81.1848 180.801 88.3865L181.749 88.0693ZM180.049 66.1535L181.03 66.3508C186.596 38.7002 212.406 20.5832 241.816 26.5037L242.014 25.5233L242.211 24.543C211.706 18.4022 184.851 37.2343 179.069 65.9561L180.049 66.1535Z" fill="#FFFFF6"/>
</g>
<path d="M238.93 92.101C239.088 91.875 239.399 91.8201 239.626 91.9782C239.852 92.1364 239.907 92.4481 239.749 92.6743C239.103 93.5985 237.838 94.6351 236.136 94.6715C234.489 94.7067 232.587 93.8021 230.584 91.2946C227.766 92.8319 225.663 92.9309 224.157 92.2612C222.601 91.5687 221.837 90.1237 221.599 89.0216C221.541 88.7519 221.712 88.4858 221.981 88.4273C222.251 88.3691 222.517 88.5403 222.576 88.8099C222.768 89.7005 223.382 90.8207 224.563 91.3468C225.73 91.8657 227.603 91.873 230.463 90.2192C230.466 90.2174 230.469 90.216 230.473 90.2143C230.493 90.2027 230.514 90.1926 230.536 90.1843C230.547 90.1804 230.557 90.1768 230.567 90.1736C230.589 90.1671 230.61 90.1623 230.632 90.1587C230.642 90.1572 230.651 90.1556 230.661 90.1546C230.687 90.1519 230.712 90.1518 230.738 90.1531C230.742 90.1534 230.747 90.1526 230.752 90.1529C230.78 90.1551 230.807 90.1607 230.834 90.1674C230.838 90.1685 230.843 90.1689 230.847 90.1701C230.871 90.1766 230.893 90.1859 230.916 90.1959C230.924 90.1995 230.932 90.2027 230.94 90.2068C230.96 90.217 230.979 90.2293 230.998 90.2423C231.006 90.2477 231.014 90.2522 231.022 90.258C231.039 90.2714 231.054 90.2867 231.069 90.3025C231.078 90.3118 231.087 90.3216 231.095 90.3317C231.1 90.3376 231.107 90.3427 231.112 90.3489C233.109 92.9802 234.839 93.6985 236.115 93.6712C237.408 93.6433 238.408 92.8479 238.93 92.101Z" fill="#002427"/>
<path d="M238.93 92.101L238.52 91.8143L238.52 91.8147L238.93 92.101ZM239.626 91.9782L239.913 91.5687L239.912 91.5683L239.626 91.9782ZM239.749 92.6743L240.158 92.9607L240.158 92.9606L239.749 92.6743ZM236.136 94.6715L236.147 95.1714L236.147 95.1714L236.136 94.6715ZM230.584 91.2946L230.974 90.9825L230.713 90.6548L230.344 90.8556L230.584 91.2946ZM224.157 92.2612L223.954 92.718L223.954 92.718L224.157 92.2612ZM221.599 89.0216L221.11 89.127L221.11 89.1271L221.599 89.0216ZM221.981 88.4273L221.876 87.9385L221.875 87.9386L221.981 88.4273ZM222.576 88.8099L223.065 88.7045L223.064 88.704L222.576 88.8099ZM224.563 91.3468L224.36 91.8036L224.36 91.8036L224.563 91.3468ZM230.463 90.2192L230.713 90.6521L230.713 90.6521L230.463 90.2192ZM230.473 90.2143L230.713 90.6524L230.714 90.6519L230.473 90.2143ZM230.536 90.1843L230.359 89.7167L230.359 89.7168L230.536 90.1843ZM230.567 90.1736L230.422 89.6953L230.421 89.6954L230.567 90.1736ZM230.632 90.1587L230.713 90.6522L230.713 90.6521L230.632 90.1587ZM230.661 90.1546L230.609 89.6572L230.609 89.6573L230.661 90.1546ZM230.738 90.1531L230.713 90.6525L230.713 90.6525L230.738 90.1531ZM230.752 90.1529L230.791 89.6545L230.791 89.6545L230.752 90.1529ZM230.834 90.1674L230.713 90.6527L230.713 90.6527L230.834 90.1674ZM230.847 90.1701L230.981 89.6883L230.981 89.6883L230.847 90.1701ZM230.916 90.1959L230.713 90.6529L230.713 90.6532L230.916 90.1959ZM230.94 90.2068L231.167 89.7614L231.167 89.761L230.94 90.2068ZM230.998 90.2423L230.712 90.6526L230.713 90.6533L230.998 90.2423ZM231.022 90.258L231.33 89.8649L231.329 89.864L231.022 90.258ZM231.069 90.3025L230.712 90.6518L230.712 90.6527L231.069 90.3025ZM231.095 90.3317L231.479 90.0114L231.479 90.0108L231.095 90.3317ZM231.112 90.3489L230.714 90.6512L230.714 90.6512L231.112 90.3489ZM236.115 93.6712L236.126 94.1711L236.126 94.1711L236.115 93.6712ZM238.93 92.101L239.339 92.3877L239.339 92.3881L239.626 91.9782L239.912 91.5683C239.46 91.2525 238.837 91.3617 238.52 91.8143L238.93 92.101ZM239.626 91.9782L239.339 92.3876L239.339 92.388L239.749 92.6743L240.158 92.9606C240.474 92.5085 240.365 91.8854 239.913 91.5687L239.626 91.9782ZM239.749 92.6743L239.339 92.3879C238.755 93.2239 237.623 94.1396 236.125 94.1716L236.136 94.6715L236.147 95.1714C238.054 95.1306 239.451 93.973 240.158 92.9607L239.749 92.6743ZM236.136 94.6715L236.125 94.1716C234.691 94.2023 232.923 93.421 230.974 90.9825L230.584 91.2946L230.193 91.6067C232.252 94.1832 234.287 95.2111 236.147 95.1714L236.136 94.6715ZM230.584 91.2946L230.344 90.8556C227.604 92.3508 225.671 92.3876 224.361 91.8043L224.157 92.2612L223.954 92.718C225.654 93.4742 227.928 93.3131 230.823 91.7335L230.584 91.2946ZM224.157 92.2612L224.361 91.8043C222.992 91.1954 222.303 89.9131 222.088 88.9162L221.599 89.0216L221.11 89.1271C221.371 90.3344 222.211 91.9421 223.954 92.718L224.157 92.2612ZM221.599 89.0216L222.088 88.9162L222.087 88.9159L221.981 88.4273L221.875 87.9386C221.336 88.0557 220.994 88.5881 221.11 89.127L221.599 89.0216ZM221.981 88.4273L222.087 88.916L222.087 88.9158L222.576 88.8099L223.064 88.704C222.947 88.1641 222.415 87.8223 221.876 87.9385L221.981 88.4273ZM222.576 88.8099L222.087 88.9153C222.302 89.9123 222.992 91.1944 224.36 91.8036L224.563 91.3468L224.767 90.89C223.772 90.447 223.234 89.4887 223.065 88.7045L222.576 88.8099ZM224.563 91.3468L224.36 91.8036C225.729 92.4127 227.778 92.3492 230.713 90.6521L230.463 90.2192L230.212 89.7864C227.427 91.3967 225.73 91.3188 224.767 90.89L224.563 91.3468ZM230.463 90.2192L230.713 90.6521C230.702 90.6584 230.693 90.663 230.688 90.6656C230.683 90.6681 230.679 90.6699 230.679 90.6696C230.68 90.6695 230.679 90.6697 230.68 90.6694C230.68 90.6692 230.681 90.669 230.681 90.6686C230.683 90.668 230.685 90.6669 230.688 90.6656C230.693 90.663 230.702 90.6585 230.713 90.6524L230.473 90.2143L230.232 89.7761C230.241 89.7709 230.249 89.7672 230.252 89.7655C230.254 89.7645 230.256 89.7639 230.256 89.7636C230.256 89.7635 230.257 89.7632 230.256 89.7638C230.255 89.7643 230.249 89.7669 230.242 89.7702C230.235 89.7737 230.225 89.7791 230.212 89.7864L230.463 90.2192ZM230.473 90.2143L230.714 90.6519L230.714 90.6518L230.536 90.1843L230.359 89.7168C230.31 89.7353 230.267 89.7564 230.231 89.7767L230.473 90.2143ZM230.536 90.1843L230.714 90.6518L230.713 90.6518L230.567 90.1736L230.421 89.6954C230.398 89.7024 230.378 89.7097 230.359 89.7167L230.536 90.1843ZM230.567 90.1736L230.713 90.6518L230.713 90.6522L230.632 90.1587L230.551 89.6653C230.511 89.6718 230.468 89.6813 230.422 89.6953L230.567 90.1736ZM230.632 90.1587L230.713 90.6521L230.713 90.6518L230.661 90.1546L230.609 89.6573C230.582 89.6601 230.556 89.6645 230.551 89.6653L230.632 90.1587ZM230.661 90.1546L230.713 90.6519L230.713 90.6525L230.738 90.1531L230.763 89.6538C230.72 89.6516 230.668 89.6511 230.609 89.6572L230.661 90.1546ZM230.738 90.1531L230.713 90.6525C230.731 90.6534 230.747 90.6532 230.756 90.6529C230.76 90.6528 230.764 90.6526 230.766 90.6525C230.768 90.6525 230.769 90.6524 230.769 90.6524C230.769 90.6524 230.77 90.6524 230.77 90.6524C230.77 90.6524 230.77 90.6523 230.77 90.6523C230.77 90.6523 230.769 90.6524 230.767 90.6525C230.764 90.6526 230.761 90.6527 230.756 90.6528C230.747 90.6529 230.732 90.6529 230.713 90.6514L230.752 90.1529L230.791 89.6545C230.77 89.6528 230.752 89.6527 230.741 89.6529C230.73 89.6531 230.721 89.6536 230.72 89.6536C230.718 89.6537 230.719 89.6536 230.72 89.6536C230.721 89.6536 230.723 89.6534 230.727 89.6533C230.734 89.6532 230.747 89.6529 230.763 89.6538L230.738 90.1531ZM230.752 90.1529L230.713 90.6514C230.706 90.6509 230.702 90.6502 230.702 90.6502C230.703 90.6503 230.706 90.6508 230.713 90.6527L230.834 90.1674L230.954 89.6822C230.916 89.6727 230.858 89.6598 230.791 89.6545L230.752 90.1529ZM230.834 90.1674L230.713 90.6527C230.727 90.6561 230.738 90.6584 230.745 90.6596C230.749 90.6603 230.751 90.6608 230.753 90.6611C230.754 90.6612 230.755 90.6613 230.755 90.6614C230.756 90.6615 230.756 90.6615 230.756 90.6615C230.757 90.6617 230.752 90.6608 230.745 90.6595C230.738 90.6582 230.727 90.6558 230.713 90.6519L230.847 90.1701L230.981 89.6883C230.965 89.6839 230.951 89.6809 230.942 89.6791C230.933 89.6774 230.926 89.6762 230.925 89.6759C230.923 89.6756 230.924 89.6758 230.924 89.6758C230.925 89.6759 230.926 89.6762 230.929 89.6766C230.933 89.6775 230.942 89.6793 230.954 89.6821L230.834 90.1674ZM230.847 90.1701L230.713 90.6519C230.71 90.6509 230.707 90.65 230.705 90.6494C230.703 90.6488 230.702 90.6484 230.702 90.6484C230.702 90.6484 230.702 90.6485 230.703 90.6487C230.703 90.6488 230.704 90.6491 230.705 90.6495C230.707 90.6502 230.709 90.6513 230.713 90.6529L230.916 90.1959L231.118 89.7388C231.09 89.7261 231.04 89.7049 230.981 89.6883L230.847 90.1701ZM230.916 90.1959L230.713 90.6532C230.719 90.6557 230.724 90.6578 230.727 90.6589C230.728 90.6594 230.73 90.6602 230.73 90.6604C230.73 90.6605 230.731 90.6606 230.731 90.6607C230.731 90.6608 230.731 90.6608 230.731 90.6608C230.731 90.6608 230.731 90.6608 230.731 90.6608C230.731 90.6608 230.731 90.6608 230.731 90.6608C230.731 90.6608 230.731 90.6608 230.731 90.6608C230.731 90.6608 230.731 90.6608 230.731 90.6608C230.731 90.6608 230.731 90.6608 230.731 90.6608C230.731 90.6608 230.731 90.6608 230.731 90.6608C230.731 90.6608 230.731 90.6608 230.731 90.6608C230.731 90.6608 230.731 90.6608 230.731 90.6608C230.731 90.6608 230.731 90.6608 230.731 90.6607C230.731 90.6606 230.73 90.6605 230.73 90.6604C230.729 90.66 230.728 90.6595 230.727 90.6589C230.724 90.6576 230.719 90.6554 230.714 90.6526L230.94 90.2068L231.167 89.761C231.148 89.7516 231.132 89.7447 231.125 89.7415C231.121 89.7401 231.117 89.7382 231.117 89.7381C231.115 89.7375 231.116 89.7378 231.118 89.7385L230.916 90.1959ZM230.94 90.2068L230.713 90.6522C230.708 90.6495 230.705 90.6476 230.705 90.6476C230.705 90.6476 230.705 90.6479 230.706 90.6487C230.708 90.6496 230.709 90.6508 230.712 90.6526L230.998 90.2423L231.284 89.832C231.258 89.8139 231.217 89.7868 231.167 89.7614L230.94 90.2068ZM230.998 90.2423L230.713 90.6533C230.723 90.6601 230.731 90.6654 230.736 90.6685C230.739 90.6701 230.741 90.6714 230.742 90.6722C230.743 90.6728 230.743 90.6727 230.743 90.6731C230.743 90.6732 230.744 90.6732 230.744 90.6733C230.744 90.6733 230.744 90.6733 230.744 90.6733C230.744 90.6733 230.744 90.6734 230.744 90.6734C230.744 90.6734 230.744 90.6733 230.744 90.6733C230.744 90.6732 230.743 90.6731 230.743 90.673C230.743 90.6728 230.742 90.6725 230.742 90.6721C230.741 90.6713 230.739 90.67 230.736 90.6683C230.731 90.665 230.723 90.6595 230.714 90.6521L231.022 90.258L231.329 89.864C231.304 89.8444 231.282 89.8306 231.276 89.8267C231.274 89.8256 231.272 89.8244 231.272 89.8241C231.271 89.8236 231.271 89.8236 231.271 89.8239C231.272 89.8245 231.277 89.8272 231.283 89.8313L230.998 90.2423ZM231.022 90.258L230.713 90.6512C230.709 90.6485 230.707 90.6463 230.705 90.6449C230.703 90.6434 230.702 90.6425 230.702 90.6425C230.702 90.6425 230.703 90.6427 230.703 90.6431C230.703 90.6435 230.704 90.644 230.705 90.6448C230.706 90.6464 230.708 90.6486 230.712 90.6518L231.069 90.3025L231.427 89.9533C231.411 89.9367 231.376 89.9004 231.33 89.8649L231.022 90.258ZM231.069 90.3025L230.712 90.6527L230.712 90.6526L231.095 90.3317L231.479 90.0108C231.468 89.9973 231.449 89.9757 231.426 89.9524L231.069 90.3025ZM231.095 90.3317L230.711 90.652C230.726 90.6689 230.738 90.6818 230.745 90.689C230.749 90.6928 230.752 90.6958 230.754 90.6976C230.755 90.6985 230.756 90.6993 230.756 90.6998C230.757 90.7004 230.757 90.7004 230.757 90.7005C230.757 90.7007 230.756 90.6995 230.754 90.6978C230.752 90.696 230.75 90.6931 230.746 90.6892C230.739 90.6818 230.727 90.6688 230.714 90.6512L231.112 90.3489L231.51 90.0467C231.494 90.0259 231.48 90.01 231.47 89.9997C231.461 89.9897 231.452 89.9819 231.45 89.9799C231.45 89.9794 231.449 89.9786 231.449 89.9786C231.449 89.9783 231.449 89.9784 231.449 89.9786C231.449 89.979 231.451 89.9807 231.454 89.983C231.458 89.9874 231.468 89.9974 231.479 90.0114L231.095 90.3317ZM231.112 90.3489L230.714 90.6512C232.763 93.3515 234.628 94.2031 236.126 94.1711L236.115 93.6712L236.104 93.1713C235.05 93.1939 233.455 92.609 231.51 90.0467L231.112 90.3489ZM236.115 93.6712L236.126 94.1711C237.623 94.1388 238.755 93.2234 239.339 92.3874L238.93 92.101L238.52 91.8147C238.06 92.4723 237.193 93.1478 236.104 93.1713L236.115 93.6712Z" fill="#002427"/>
<path d="M216.219 42.0545C217.705 45.0205 214.728 49.0972 211.433 50.7485C208.137 52.3998 204.261 51.334 202.774 48.368C201.288 45.402 202.755 41.6589 206.051 40.0076C209.346 38.3563 214.733 39.0885 216.219 42.0545Z" fill="#FFFFF9" fill-opacity="0.61"/>
<path d="M225.771 37.7926C226.328 38.9034 225.213 40.4301 223.979 41.0485C222.745 41.6669 221.293 41.2678 220.736 40.157C220.18 39.0462 220.729 37.6444 221.963 37.026C223.198 36.4076 225.215 36.6818 225.771 37.7926Z" fill="#FFFFF9" fill-opacity="0.61"/>
<path d="M258.006 111.804C257.746 111.752 257.181 111.863 256.31 112.14C255.871 112.28 255.439 112.418 255.054 112.625C254.67 112.831 254.345 113.103 253.553 113.631" stroke="#00C8A3" stroke-opacity="0.23" stroke-width="2" stroke-linecap="round"/>
<path d="M193.883 98.8955C194.142 98.9477 194.62 99.2687 195.316 99.8615C195.666 100.16 196.012 100.454 196.286 100.794C196.561 101.133 196.755 101.509 197.282 102.303" stroke="#00C8A3" stroke-opacity="0.23" stroke-width="2" stroke-linecap="round"/>
<path d="M220.635 112.941C221.014 113.11 221.785 113.365 222.437 113.67C223.178 114.016 223.878 114.56 224.637 115.166C225.142 115.569 226.063 114.99 226.914 114.825C227.627 114.687 228.34 114.647 229.064 114.589C229.489 114.619 229.892 114.627 230.322 114.617C230.578 114.627 230.914 114.667 231.26 114.708" stroke="#00C6E0" stroke-opacity="0.48" stroke-width="2" stroke-linecap="round"/>
<ellipse cx="207.126" cy="80.4559" rx="5.33947" ry="7.34177" transform="rotate(11.3818 207.126 80.4559)" fill="#002427"/>
<ellipse cx="255.546" cy="90.2025" rx="5.33947" ry="7.34177" transform="rotate(11.3818 255.546 90.2025)" fill="#002427"/>
</g>
<ellipse cx="15.2466" cy="12.4172" rx="15.2466" ry="12.4172" transform="matrix(0.413946 0.910302 -0.910464 0.413588 202.209 8.40918)" fill="url(#paint3_linear_210_1842)" stroke="#FFFFF6" stroke-width="2"/>
<ellipse cx="12.551" cy="9.14909" rx="12.551" ry="9.14909" transform="matrix(0.413946 0.910302 -0.910464 0.413588 199.153 13.0254)" fill="#17B4C8"/>
<g filter="url(#filter2_d_210_1842)">
<path d="M241.736 27.7359C270.6 33.5468 287.112 59.7645 281.648 86.906C279.744 96.3665 274.152 104.433 266.898 110.774C271.513 115.596 273.241 121.874 270.741 126.912C267.274 133.898 256.994 135.857 247.779 131.288C244.503 129.664 241.803 127.433 239.839 124.918C239.626 124.973 239.414 125.026 239.202 125.078C237.006 130.246 230.201 133.161 222.995 131.71C217.359 130.576 212.982 127.075 211.33 122.917C208.081 124.735 203.707 125.417 199.167 124.503C193.121 123.286 188.441 119.574 186.8 115.242C178.524 114.282 172.085 109.09 171.663 102.434C171.264 96.1436 176.363 90.4723 183.752 88.187C181.414 81.3129 180.589 74.0419 182.036 66.8536C187.5 39.712 212.87 21.9252 241.736 27.7359Z" fill="url(#paint4_radial_210_1842)"/>
<path d="M241.736 27.7359L241.933 26.7556L241.933 26.7556L241.736 27.7359ZM281.648 86.906L282.628 87.1034L282.628 87.1034L281.648 86.906ZM266.898 110.774L266.24 110.021C266.034 110.201 265.911 110.457 265.899 110.73C265.887 111.002 265.987 111.268 266.175 111.465L266.898 110.774ZM270.741 126.912L271.636 127.357L271.636 127.357L270.741 126.912ZM247.779 131.288L247.335 132.184L247.335 132.184L247.779 131.288ZM239.839 124.918L240.627 124.303C240.383 123.99 239.976 123.851 239.591 123.95L239.839 124.918ZM239.202 125.078L238.965 124.107C238.658 124.181 238.405 124.397 238.282 124.687L239.202 125.078ZM222.995 131.71L222.797 132.69L222.797 132.69L222.995 131.71ZM211.33 122.917L212.259 122.547C212.152 122.28 211.936 122.071 211.664 121.974C211.392 121.878 211.092 121.903 210.841 122.044L211.33 122.917ZM199.167 124.503L198.97 125.483L198.97 125.483L199.167 124.503ZM186.8 115.242L187.735 114.888C187.603 114.539 187.287 114.292 186.915 114.249L186.8 115.242ZM171.663 102.434L170.665 102.497L170.665 102.497L171.663 102.434ZM183.752 88.187L184.048 89.1424C184.306 89.0626 184.521 88.8819 184.643 88.6413C184.766 88.4007 184.786 88.1207 184.699 87.865L183.752 88.187ZM182.036 66.8536L181.056 66.6562L181.056 66.6562L182.036 66.8536ZM241.736 27.7359L241.538 28.7162C269.856 34.4171 286.023 60.1033 280.668 86.7087L281.648 86.906L282.628 87.1034C288.2 59.4256 271.344 32.6765 241.933 26.7556L241.736 27.7359ZM281.648 86.906L280.668 86.7087C278.818 95.8997 273.375 103.784 266.24 110.021L266.898 110.774L267.556 111.527C274.929 105.082 280.67 96.8333 282.628 87.1034L281.648 86.906ZM266.898 110.774L266.175 111.465C270.609 116.099 272.095 121.932 269.845 126.468L270.741 126.912L271.636 127.357C274.386 121.815 272.416 115.094 267.62 110.083L266.898 110.774ZM270.741 126.912L269.845 126.468C268.281 129.62 265.15 131.704 261.228 132.451C257.306 133.198 252.653 132.589 248.223 130.392L247.779 131.288L247.335 132.184C252.12 134.557 257.214 135.252 261.603 134.416C265.992 133.579 269.734 131.191 271.636 127.357L270.741 126.912ZM247.779 131.288L248.223 130.392C245.076 128.832 242.496 126.695 240.627 124.303L239.839 124.918L239.051 125.534C241.111 128.171 243.93 130.496 247.335 132.184L247.779 131.288ZM239.839 124.918L239.591 123.95C239.381 124.003 239.172 124.056 238.965 124.107L239.202 125.078L239.439 126.049C239.656 125.997 239.872 125.942 240.087 125.887L239.839 124.918ZM239.202 125.078L238.282 124.687C236.329 129.281 230.097 132.12 223.192 130.73L222.995 131.71L222.797 132.69C230.306 134.202 237.682 131.211 240.122 125.469L239.202 125.078ZM222.995 131.71L223.192 130.73C217.824 129.649 213.764 126.334 212.259 122.547L211.33 122.917L210.4 123.286C212.201 127.815 216.894 131.502 222.797 132.69L222.995 131.71ZM211.33 122.917L210.841 122.044C207.825 123.733 203.698 124.395 199.364 123.522L199.167 124.503L198.97 125.483C203.716 126.439 208.338 125.738 211.818 123.789L211.33 122.917ZM199.167 124.503L199.364 123.522C193.573 122.356 189.227 118.826 187.735 114.888L186.8 115.242L185.865 115.597C187.656 120.322 192.67 124.215 198.97 125.483L199.167 124.503ZM186.8 115.242L186.915 114.249C178.906 113.32 173.04 108.357 172.661 102.371L171.663 102.434L170.665 102.497C171.129 109.823 178.142 115.245 186.685 116.236L186.8 115.242ZM171.663 102.434L172.661 102.371C172.302 96.7116 176.912 91.349 184.048 89.1424L183.752 88.187L183.457 87.2317C175.813 89.5956 170.226 95.5755 170.665 102.497L171.663 102.434ZM183.752 88.187L184.699 87.865C182.407 81.1252 181.61 74.0351 183.016 67.0509L182.036 66.8536L181.056 66.6562C179.568 74.0486 180.422 81.5006 182.806 88.509L183.752 88.187ZM182.036 66.8536L183.016 67.0509C188.372 40.4455 213.22 23.0156 241.538 28.7162L241.736 27.7359L241.933 26.7556C212.521 20.8348 186.628 38.9784 181.056 66.6562L182.036 66.8536Z" fill="#FFFFF6"/>
</g>
<path d="M215.877 43.5792C217.074 45.965 214.678 49.2437 212.026 50.5716C209.374 51.8995 206.254 51.0418 205.058 48.656C203.862 46.2702 205.042 43.2597 207.694 41.9319C210.346 40.604 214.681 41.1934 215.877 43.5792Z" fill="#FCFFE8" fill-opacity="0.6"/>
<path d="M223.564 40.1523C224.012 41.0458 223.115 42.2737 222.122 42.771C221.128 43.2683 219.96 42.9471 219.512 42.0536C219.064 41.1601 219.506 40.0327 220.499 39.5354C221.492 39.0381 223.116 39.2588 223.564 40.1523Z" fill="#FCFFE8" fill-opacity="0.6"/>
<path d="M267.089 78.5403C268.268 78.2067 269.542 79.569 269.913 80.879C270.284 82.1889 269.629 83.5213 268.449 83.8549C267.27 84.1885 266.013 83.3971 265.642 82.0871C265.27 80.7772 265.909 78.8739 267.089 78.5403Z" fill="#54F6FD" fill-opacity="0.26"/>
<path d="M251.359 111.771C251.109 111.721 250.564 111.828 249.725 112.095C249.302 112.229 248.886 112.362 248.515 112.561C248.145 112.76 247.832 113.022 247.069 113.53" stroke="#00C8A3" stroke-opacity="0.5" stroke-width="2" stroke-linecap="round"/>
<path d="M193.403 96.8955C193.652 96.9458 194.114 97.255 194.784 97.8259C195.122 98.1135 195.454 98.3968 195.719 98.7238C195.984 99.0508 196.171 99.4129 196.678 100.177" stroke="#00C8A3" stroke-opacity="0.5" stroke-width="2" stroke-linecap="round"/>
<path d="M212.495 106.927C212.846 107.118 213.568 107.421 214.171 107.763C214.856 108.152 215.487 108.728 216.17 109.367C216.625 109.792 217.553 109.306 218.383 109.213C219.079 109.134 219.767 109.15 220.466 109.149C220.872 109.211 221.259 109.249 221.672 109.271C221.918 109.3 222.238 109.365 222.567 109.431" stroke="#00C6E0" stroke-opacity="0.8" stroke-width="2" stroke-linecap="round"/>
<path d="M226.094 86.495C226.253 86.2689 226.564 86.2141 226.791 86.3721C227.017 86.5304 227.071 86.842 226.913 87.0683C226.326 87.9078 225.176 88.8516 223.625 88.8847C222.13 88.9163 220.416 88.0988 218.618 85.8626C216.095 87.2289 214.198 87.3198 212.832 86.712C211.414 86.0811 210.719 84.7659 210.502 83.7646C210.444 83.4949 210.615 83.2287 210.885 83.1702C211.155 83.112 211.421 83.2832 211.479 83.5529C211.65 84.3427 212.195 85.3333 213.239 85.7978C214.267 86.2552 215.934 86.269 218.498 84.7874C218.5 84.7864 218.502 84.7856 218.503 84.7846C218.526 84.7717 218.55 84.7608 218.574 84.7519C218.583 84.7486 218.591 84.7451 218.601 84.7424C218.621 84.736 218.642 84.7316 218.663 84.7281C218.675 84.7261 218.686 84.7243 218.698 84.7231C218.719 84.7211 218.741 84.7204 218.762 84.7211C218.772 84.7214 218.782 84.7212 218.792 84.7221C218.813 84.724 218.834 84.7281 218.854 84.7327C218.867 84.7354 218.879 84.7384 218.89 84.7419C218.905 84.7464 218.92 84.7519 218.934 84.7577C218.951 84.7646 218.968 84.772 218.984 84.7808C218.995 84.7863 219.005 84.7925 219.015 84.7988C219.033 84.8102 219.05 84.8224 219.067 84.8362C219.074 84.8423 219.081 84.8489 219.088 84.8554C219.107 84.8729 219.124 84.892 219.14 84.9127C219.141 84.9145 219.144 84.9158 219.145 84.9177C220.936 87.2757 222.478 87.9079 223.603 87.8842C224.746 87.8599 225.631 87.1572 226.094 86.495Z" fill="#002427"/>
<path d="M226.094 86.495L225.685 86.2082L225.685 86.2085L226.094 86.495ZM226.791 86.3721L227.077 85.9625L227.077 85.9622L226.791 86.3721ZM226.913 87.0683L227.323 87.3548L227.323 87.3547L226.913 87.0683ZM223.625 88.8847L223.636 89.3846L223.636 89.3846L223.625 88.8847ZM218.618 85.8626L219.008 85.5493L218.747 85.2244L218.38 85.4229L218.618 85.8626ZM212.832 86.712L212.629 87.1688L212.629 87.1688L212.832 86.712ZM210.502 83.7646L210.014 83.8702L210.014 83.8702L210.502 83.7646ZM210.885 83.1702L210.779 82.6815L210.779 82.6816L210.885 83.1702ZM211.479 83.5529L211.968 83.4473L211.968 83.447L211.479 83.5529ZM213.239 85.7978L213.036 86.2546L213.036 86.2546L213.239 85.7978ZM218.498 84.7874L218.748 85.2203L218.748 85.2203L218.498 84.7874ZM218.503 84.7846L218.259 84.3486L218.258 84.3487L218.503 84.7846ZM218.574 84.7519L218.747 85.2208L218.749 85.2202L218.574 84.7519ZM218.601 84.7424L218.454 84.2642L218.452 84.2648L218.601 84.7424ZM218.663 84.7281L218.746 85.2211L218.748 85.2208L218.663 84.7281ZM218.698 84.7231L218.65 84.2255L218.648 84.2256L218.698 84.7231ZM218.762 84.7211L218.746 85.2209L218.748 85.2209L218.762 84.7211ZM218.792 84.7221L218.837 84.2242L218.836 84.224L218.792 84.7221ZM218.854 84.7327L218.747 85.221L218.748 85.2213L218.854 84.7327ZM218.89 84.7419L219.034 84.263L219.033 84.2626L218.89 84.7419ZM218.934 84.7577L218.747 85.2213L218.748 85.2219L218.934 84.7577ZM218.984 84.7808L219.222 84.3408L219.22 84.3398L218.984 84.7808ZM219.015 84.7988L218.746 85.2208L218.748 85.2219L219.015 84.7988ZM219.067 84.8362L219.387 84.4524L219.386 84.4511L219.067 84.8362ZM219.088 84.8554L218.746 85.2202L218.747 85.2215L219.088 84.8554ZM219.14 84.9127L219.534 84.6049L219.534 84.6044L219.14 84.9127ZM219.145 84.9177L219.543 84.6153L219.543 84.6153L219.145 84.9177ZM223.603 87.8842L223.614 88.3841L223.614 88.3841L223.603 87.8842ZM226.094 86.495L226.504 86.7817L226.504 86.7821L226.791 86.3721L227.077 85.9622C226.625 85.6466 226.002 85.7556 225.685 86.2082L226.094 86.495ZM226.791 86.3721L226.504 86.7817L226.504 86.7818L226.913 87.0683L227.323 87.3547C227.639 86.9026 227.53 86.2793 227.077 85.9625L226.791 86.3721ZM226.913 87.0683L226.504 86.7817C225.978 87.5332 224.961 88.3561 223.614 88.3848L223.625 88.8847L223.636 89.3846C225.392 89.3471 226.675 88.2823 227.323 87.3548L226.913 87.0683ZM223.625 88.8847L223.614 88.3848C222.331 88.412 220.75 87.7165 219.008 85.5493L218.618 85.8626L218.228 86.1759C220.082 88.4811 221.929 89.4207 223.636 89.3846L223.625 88.8847ZM218.618 85.8626L218.38 85.4229C215.934 86.7471 214.208 86.777 213.035 86.2551L212.832 86.712L212.629 87.1688C214.188 87.8626 216.255 87.7107 218.856 86.3023L218.618 85.8626ZM212.832 86.712L213.035 86.2552C211.805 85.7077 211.185 84.5552 210.991 83.659L210.502 83.7646L210.014 83.8702C210.253 84.9766 211.023 86.4545 212.629 87.1688L212.832 86.712ZM210.502 83.7646L210.991 83.6591L210.991 83.6589L210.885 83.1702L210.779 82.6816C210.239 82.7987 209.897 83.331 210.014 83.8702L210.502 83.7646ZM210.885 83.1702L210.991 83.659L210.991 83.6588L211.479 83.5529L211.968 83.447C211.851 82.9071 211.319 82.5651 210.779 82.6815L210.885 83.1702ZM211.479 83.5529L210.991 83.6584C211.184 84.5548 211.805 85.7072 213.036 86.2546L213.239 85.7978L213.442 85.341C212.584 84.9594 212.116 84.1305 211.968 83.4473L211.479 83.5529ZM213.239 85.7978L213.036 86.2546C214.267 86.8021 216.109 86.7453 218.748 85.2203L218.498 84.7874L218.248 84.3545C215.759 85.7927 214.268 85.7084 213.442 85.3409L213.239 85.7978ZM218.498 84.7874L218.748 85.2203C218.739 85.2255 218.732 85.2294 218.727 85.2316C218.723 85.2336 218.72 85.2352 218.721 85.2349C218.721 85.2349 218.721 85.2349 218.721 85.2349C218.721 85.2349 218.721 85.2348 218.721 85.2347C218.721 85.2346 218.722 85.2344 218.722 85.2341C218.723 85.2336 218.725 85.2326 218.728 85.2315C218.732 85.2293 218.739 85.2255 218.748 85.2204L218.503 84.7846L218.258 84.3487C218.267 84.3441 218.273 84.3407 218.276 84.339C218.278 84.3381 218.28 84.3375 218.28 84.3372C218.281 84.337 218.281 84.3367 218.281 84.337C218.28 84.3372 218.276 84.3392 218.271 84.3418C218.266 84.3445 218.257 84.3488 218.248 84.3545L218.498 84.7874ZM218.503 84.7846L218.748 85.2205L218.747 85.2208L218.574 84.7519L218.4 84.283C218.35 84.3015 218.303 84.3236 218.259 84.3486L218.503 84.7846ZM218.574 84.7519L218.749 85.2202L218.749 85.2199L218.601 84.7424L218.452 84.2648C218.426 84.2729 218.401 84.2827 218.399 84.2835L218.574 84.7519ZM218.601 84.7424L218.747 85.2204L218.746 85.2211L218.663 84.7281L218.58 84.235C218.546 84.2407 218.503 84.2494 218.454 84.2643L218.601 84.7424ZM218.663 84.7281L218.748 85.2208L218.748 85.2206L218.698 84.7231L218.648 84.2256C218.62 84.2284 218.596 84.2323 218.578 84.2354L218.663 84.7281ZM218.698 84.7231L218.746 85.2208L218.746 85.2209L218.762 84.7211L218.778 84.2214C218.736 84.22 218.693 84.2212 218.65 84.2255L218.698 84.7231ZM218.762 84.7211L218.748 85.2209C218.754 85.2211 218.759 85.2212 218.762 85.2212C218.766 85.2213 218.766 85.2213 218.766 85.2213C218.767 85.2213 218.765 85.2212 218.762 85.2211C218.759 85.221 218.754 85.2207 218.748 85.2202L218.792 84.7221L218.836 84.224C218.814 84.2222 218.797 84.2217 218.788 84.2215C218.783 84.2214 218.779 84.2213 218.777 84.2213C218.775 84.2213 218.776 84.2213 218.776 84.2213L218.762 84.7211ZM218.792 84.7221L218.746 85.22C218.74 85.2194 218.736 85.2188 218.736 85.2188C218.737 85.2189 218.739 85.2194 218.747 85.221L218.854 84.7327L218.962 84.2445C218.937 84.2388 218.891 84.2291 218.837 84.2242L218.792 84.7221ZM218.854 84.7327L218.748 85.2213L218.748 85.2213L218.89 84.7419L219.033 84.2626C219.009 84.2555 218.985 84.2494 218.961 84.2441L218.854 84.7327ZM218.89 84.7419L218.747 85.2209L218.747 85.2213L218.934 84.7577L219.122 84.2942C219.102 84.2863 219.071 84.2741 219.034 84.263L218.89 84.7419ZM218.934 84.7577L218.748 85.2219L218.748 85.2217L218.984 84.7808L219.22 84.3398C219.183 84.3202 219.149 84.3051 219.12 84.2935L218.934 84.7577ZM218.984 84.7808L218.747 85.2207L218.746 85.2208L219.015 84.7988L219.283 84.3768C219.27 84.3687 219.248 84.3549 219.222 84.3408L218.984 84.7808ZM219.015 84.7988L218.748 85.2219L218.748 85.2213L219.067 84.8362L219.386 84.4511C219.348 84.4203 219.312 84.3955 219.281 84.3757L219.015 84.7988ZM219.067 84.8362L218.746 85.22C218.743 85.2177 218.741 85.2158 218.74 85.2146C218.739 85.214 218.739 85.2135 218.738 85.2132C218.738 85.213 218.738 85.2129 218.738 85.2128C218.738 85.2127 218.738 85.2127 218.738 85.2127C218.738 85.2127 218.738 85.2127 218.738 85.2128C218.738 85.2129 218.738 85.213 218.738 85.2131C218.739 85.2135 218.739 85.2139 218.74 85.2146C218.741 85.2154 218.744 85.2181 218.746 85.2202L219.088 84.8554L219.43 84.4905C219.428 84.4894 219.428 84.4888 219.425 84.4864C219.423 84.4845 219.42 84.4817 219.417 84.4786C219.41 84.4724 219.4 84.4629 219.387 84.4524L219.067 84.8362ZM219.088 84.8554L218.747 85.2215L218.746 85.221L219.14 84.9127L219.534 84.6044C219.504 84.5663 219.469 84.5273 219.428 84.4893L219.088 84.8554ZM219.14 84.9127L218.746 85.2206C218.765 85.2453 218.783 85.2635 218.794 85.2739C218.8 85.2792 218.804 85.2834 218.807 85.2859C218.808 85.2872 218.81 85.2882 218.81 85.2888C218.811 85.2892 218.811 85.2894 218.811 85.2896C218.811 85.2897 218.811 85.2897 218.811 85.2898C218.811 85.2898 218.811 85.2898 218.811 85.2898C218.812 85.2901 218.81 85.2883 218.807 85.2859C218.804 85.2834 218.8 85.2792 218.794 85.2738C218.783 85.2633 218.766 85.2451 218.747 85.2201L219.145 84.9177L219.543 84.6153C219.523 84.5893 219.505 84.5703 219.493 84.5589C219.487 84.5531 219.482 84.5485 219.479 84.5456C219.476 84.5429 219.474 84.5407 219.474 84.5406C219.473 84.5398 219.475 84.5415 219.477 84.5433C219.479 84.5454 219.483 84.5492 219.488 84.5541C219.498 84.5637 219.515 84.581 219.534 84.6049L219.14 84.9127ZM219.145 84.9177L218.747 85.2201C220.59 87.6472 222.267 88.4124 223.614 88.3841L223.603 87.8842L223.593 87.3843C222.689 87.4033 221.281 86.9042 219.543 84.6153L219.145 84.9177ZM223.603 87.8842L223.614 88.3841C224.96 88.3555 225.979 87.5329 226.504 86.7815L226.094 86.495L225.685 86.2085C225.284 86.7814 224.531 87.3644 223.593 87.3843L223.603 87.8842Z" fill="#002427"/>
<ellipse cx="200.129" cy="76.1445" rx="4.8018" ry="6.59838" transform="rotate(11.3818 200.129 76.1445)" fill="#002427"/>
<ellipse cx="241.679" cy="84.7644" rx="4.8018" ry="6.59838" transform="rotate(11.3818 241.679 84.7644)" fill="#002427"/>
<ellipse cx="17.3552" cy="12.2497" rx="17.3552" ry="12.2497" transform="matrix(-0.789282 0.614032 0.614434 0.788968 286.305 21.2366)" fill="url(#paint5_linear_210_1842)" stroke="#FFFFF6" stroke-width="2"/>
<ellipse cx="12.3298" cy="8.9937" rx="12.3298" ry="8.9937" transform="matrix(0.879299 -0.476271 0.476796 0.879014 262.552 42.9309)" fill="#17B4C8"/>
<g filter="url(#filter3_f_210_1842)">
<path d="M144.573 215.187C146.511 215.184 147.319 217.662 145.753 218.803L140.114 222.912C139.413 223.422 139.121 224.325 139.39 225.149L141.555 231.782C142.156 233.624 140.049 235.159 138.48 234.022L132.83 229.928C132.128 229.42 131.179 229.421 130.478 229.931L124.839 234.04C123.273 235.181 121.162 233.651 121.758 231.808L123.906 225.169C124.172 224.344 123.878 223.442 123.176 222.934L117.526 218.84C115.957 217.703 116.759 215.223 118.697 215.22L125.674 215.211C126.541 215.21 127.308 214.651 127.575 213.827L129.722 207.188C130.319 205.344 132.926 205.341 133.527 207.183L135.691 213.816C135.96 214.64 136.729 215.197 137.595 215.196L144.573 215.187Z" fill="url(#paint6_radial_210_1842)"/>
<path d="M144.572 214.437C147.236 214.433 148.348 217.84 146.195 219.409L140.555 223.518C140.117 223.837 139.935 224.402 140.103 224.916L142.268 231.55C143.094 234.082 140.197 236.192 138.04 234.629L132.39 230.535C131.951 230.217 131.358 230.218 130.92 230.537L125.28 234.646C123.127 236.214 120.225 234.112 121.045 231.577L123.192 224.938C123.359 224.423 123.175 223.859 122.737 223.541L117.086 219.447C114.929 217.884 116.032 214.474 118.696 214.47L125.674 214.461C126.215 214.46 126.695 214.111 126.862 213.596L129.009 206.957C129.829 204.422 133.413 204.417 134.24 206.95L136.405 213.584C136.573 214.098 137.053 214.446 137.594 214.446L144.572 214.437Z" stroke="#FFFFF6" stroke-width="1.5"/>
</g>
<path d="M142.264 215.305C144.928 215.302 146.04 218.709 143.887 220.278L139.313 223.61C138.876 223.929 138.693 224.493 138.861 225.008L140.616 230.388C141.443 232.92 138.546 235.031 136.389 233.468L131.806 230.147C131.368 229.83 130.774 229.831 130.337 230.149L125.763 233.482C123.61 235.05 120.707 232.948 121.527 230.413L123.269 225.029C123.435 224.514 123.251 223.95 122.813 223.632L118.23 220.312C116.073 218.748 117.177 215.337 119.841 215.334L125.499 215.327C126.041 215.326 126.52 214.977 126.687 214.462L128.429 209.077C129.249 206.543 132.833 206.538 133.659 209.071L135.415 214.451C135.583 214.965 136.064 215.313 136.605 215.312L142.264 215.305Z" fill="url(#paint7_radial_210_1842)" stroke="#FFFFF6" stroke-width="1.5"/>
<g filter="url(#filter4_f_210_1842)">
<path d="M33.4494 165.823C32.8226 164.32 32.6186 162.848 32.7616 161.701C32.9076 160.529 33.3811 159.859 33.9401 159.625C34.4993 159.392 35.3097 159.527 36.2451 160.248C37.1611 160.954 38.0637 162.134 38.6904 163.637C39.3172 165.14 39.5211 166.612 39.3782 167.759C39.2321 168.931 38.7579 169.602 38.1987 169.835C37.6396 170.068 36.8298 169.933 35.8946 169.212C34.9786 168.506 34.0761 167.326 33.4494 165.823Z" fill="url(#paint8_linear_210_1842)" stroke="#FFFFF6" stroke-width="1.5"/>
<path d="M41.2369 166.296C40.6162 164.808 40.4567 163.331 40.6647 162.162C40.8745 160.984 41.4286 160.223 42.1423 159.926C42.8561 159.628 43.7863 159.769 44.7711 160.449C45.748 161.124 46.6856 162.277 47.3063 163.765C47.927 165.253 48.0866 166.731 47.8785 167.899C47.6688 169.077 47.1146 169.838 46.4009 170.136C45.6872 170.433 44.757 170.292 43.7722 169.612C42.7953 168.938 41.8577 167.785 41.2369 166.296Z" fill="url(#paint9_linear_210_1842)" stroke="#FFFFF6" stroke-width="1.5"/>
<path d="M48.6906 163.188C48.0638 161.685 47.8599 160.213 48.0028 159.066C48.1488 157.894 48.6223 157.223 49.1813 156.99C49.7405 156.757 50.5509 156.892 51.4863 157.613C52.4023 158.318 53.3049 159.499 53.9316 161.002C54.5584 162.504 54.7623 163.976 54.6194 165.124C54.4734 166.296 53.9991 166.967 53.4399 167.2C52.8808 167.433 52.0711 167.298 51.1359 166.577C50.2199 165.871 49.3173 164.69 48.6906 163.188Z" fill="url(#paint10_linear_210_1842)" stroke="#FFFFF6" stroke-width="1.5"/>
<path d="M54.1533 157.186C53.5245 155.679 53.3048 154.208 53.4255 153.067C53.5497 151.895 53.9987 151.258 54.5035 151.047C55.0083 150.837 55.7761 150.966 56.6964 151.703C57.592 152.42 58.4835 153.61 59.1123 155.118C59.741 156.625 59.9595 158.096 59.8388 159.237C59.7147 160.409 59.2669 161.046 58.7621 161.257C58.2573 161.468 57.4885 161.338 56.568 160.601C55.6725 159.884 54.782 158.694 54.1533 157.186Z" fill="url(#paint11_linear_210_1842)" stroke="#FFFFF6" stroke-width="1.5"/>
<path d="M31.9296 123.672C44.3324 118.137 58.8585 123.958 63.4164 134.171C67.9387 144.305 61.79 157.143 49.2979 162.718C36.8056 168.293 23.1433 164.296 18.6209 154.162C14.0647 143.952 19.5231 129.209 31.9296 123.672Z" fill="url(#paint12_radial_210_1842)" stroke="#FFFFF6" stroke-width="1.5"/>
<ellipse cx="37.8687" cy="137.854" rx="6.36076" ry="4.62601" transform="rotate(-19.4655 37.8687 137.854)" fill="#FCFFE8" fill-opacity="0.6"/>
<ellipse cx="41.0376" cy="127.611" rx="3.93157" ry="2.85932" transform="rotate(11.6072 41.0376 127.611)" fill="#FCFFE8" fill-opacity="0.6"/>
<ellipse cx="3.93157" cy="2.85932" rx="3.93157" ry="2.85932" transform="matrix(-0.599403 0.800448 0.800448 0.599403 28.2294 129.167)" fill="#FCFFE8" fill-opacity="0.6"/>
</g>
<path d="M34.2201 166.803C33.5934 165.3 33.3894 163.828 33.5323 162.681C33.6783 161.509 34.1519 160.838 34.7109 160.605C35.2701 160.372 36.0805 160.507 37.0159 161.228C37.9319 161.933 38.8344 163.114 39.4612 164.617C40.0879 166.119 40.2919 167.591 40.1489 168.739C40.0029 169.911 39.5287 170.582 38.9695 170.815C38.4103 171.048 37.6006 170.913 36.6654 170.192C35.7494 169.486 34.8468 168.305 34.2201 166.803Z" fill="url(#paint13_linear_210_1842)" stroke="#FFFFF6" stroke-width="1.5"/>
<path d="M42.0076 167.276C41.3868 165.788 41.2273 164.311 41.4354 163.142C41.6451 161.964 42.1992 161.203 42.913 160.906C43.6267 160.608 44.557 160.749 45.5417 161.429C46.5186 162.104 47.4562 163.257 48.0769 164.745C48.6977 166.233 48.8572 167.711 48.6492 168.879C48.4394 170.057 47.8853 170.818 47.1716 171.116C46.4578 171.413 45.5276 171.272 44.5428 170.592C43.5659 169.918 42.6283 168.765 42.0076 167.276Z" fill="url(#paint14_linear_210_1842)" stroke="#FFFFF6" stroke-width="1.5"/>
<path d="M49.4612 164.168C48.8345 162.665 48.6305 161.193 48.7734 160.045C48.9194 158.874 49.393 158.203 49.952 157.97C50.5111 157.736 51.3216 157.872 52.257 158.592C53.1729 159.298 54.0755 160.479 54.7023 161.981C55.329 163.484 55.533 164.956 55.39 166.104C55.244 167.276 54.7698 167.946 54.2106 168.18C53.6514 168.413 52.8417 168.277 51.9065 167.557C50.9905 166.851 50.0879 165.67 49.4612 164.168Z" fill="url(#paint15_linear_210_1842)" stroke="#FFFFF6" stroke-width="1.5"/>
<path d="M54.924 158.166C54.2952 156.659 54.0754 155.188 54.1962 154.047C54.3203 152.875 54.7694 152.238 55.2741 152.027C55.7789 151.817 56.5468 151.946 57.467 152.683C58.3627 153.4 59.2541 154.59 59.8829 156.098C60.5117 157.605 60.7301 159.076 60.6094 160.217C60.4854 161.389 60.0375 162.026 59.5327 162.237C59.0279 162.448 58.2591 162.318 57.3386 161.581C56.4431 160.864 55.5526 159.674 54.924 158.166Z" fill="url(#paint16_linear_210_1842)" stroke="#FFFFF6" stroke-width="1.5"/>
<path d="M32.7004 124.652C45.1031 119.117 59.6293 124.938 64.1872 135.151C68.7095 145.285 62.5607 158.123 50.0686 163.698C37.5763 169.273 23.914 165.276 19.3917 155.142C14.8355 144.932 20.2939 130.188 32.7004 124.652Z" fill="url(#paint17_radial_210_1842)" stroke="#FFFFF6" stroke-width="1.5"/>
<ellipse cx="38.6394" cy="138.833" rx="6.36076" ry="4.62601" transform="rotate(-19.4655 38.6394 138.833)" fill="#FCFFE8" fill-opacity="0.6"/>
<ellipse cx="41.8081" cy="128.59" rx="3.93157" ry="2.85932" transform="rotate(11.6072 41.8081 128.59)" fill="#FCFFE8" fill-opacity="0.6"/>
<ellipse cx="3.93157" cy="2.85932" rx="3.93157" ry="2.85932" transform="matrix(-0.599403 0.800448 0.800448 0.599403 29.0001 130.147)" fill="#FCFFE8" fill-opacity="0.6"/>
<g filter="url(#filter5_f_210_1842)">
<circle cx="79.5" cy="41.5" r="16.5" fill="#D9D9D9" fill-opacity="0.14"/>
</g>
<g filter="url(#filter6_f_210_1842)">
<circle cx="210.5" cy="248.5" r="10.5" fill="#D9D9D9" fill-opacity="0.14"/>
</g>
<g filter="url(#filter7_f_210_1842)">
<circle cx="198.5" cy="286.5" r="5.5" fill="#D9D9D9" fill-opacity="0.14"/>
</g>
<defs>
<filter id="filter0_f_210_1842" x="161.643" y="3.5249" width="143.447" height="140.667" filterUnits="userSpaceOnUse" color-interpolation-filters="sRGB">
<feFlood flood-opacity="0" result="BackgroundImageFix"/>
<feBlend mode="normal" in="SourceGraphic" in2="BackgroundImageFix" result="shape"/>
<feGaussianBlur stdDeviation="3.5" result="effect1_foregroundBlur_210_1842"/>
</filter>
<filter id="filter1_d_210_1842" x="164.143" y="15.8809" width="125.866" height="122.812" filterUnits="userSpaceOnUse" color-interpolation-filters="sRGB">
<feFlood flood-opacity="0" result="BackgroundImageFix"/>
<feColorMatrix in="SourceAlpha" type="matrix" values="0 0 0 0 0 0 0 0 0 0 0 0 0 0 0 0 0 0 127 0" result="hardAlpha"/>
<feOffset dy="-3"/>
<feGaussianBlur stdDeviation="2.25"/>
<feComposite in2="hardAlpha" operator="out"/>
<feColorMatrix type="matrix" values="0 0 0 0 0 0 0 0 0 0 0 0 0 0 0 0 0 0 0.25 0"/>
<feBlend mode="normal" in2="BackgroundImageFix" result="effect1_dropShadow_210_1842"/>
<feBlend mode="normal" in="SourceGraphic" in2="effect1_dropShadow_210_1842" result="shape"/>
</filter>
<filter id="filter2_d_210_1842" x="166.141" y="18.1343" width="122.045" height="118.121" filterUnits="userSpaceOnUse" color-interpolation-filters="sRGB">
<feFlood flood-opacity="0" result="BackgroundImageFix"/>
<feColorMatrix in="SourceAlpha" type="matrix" values="0 0 0 0 0 0 0 0 0 0 0 0 0 0 0 0 0 0 127 0" result="hardAlpha"/>
<feOffset dy="-3"/>
<feGaussianBlur stdDeviation="2.25"/>
<feComposite in2="hardAlpha" operator="out"/>
<feColorMatrix type="matrix" values="0 0 0 0 0 0 0 0 0 0 0 0 0 0 0 0 0 0 0.25 0"/>
<feBlend mode="normal" in2="BackgroundImageFix" result="effect1_dropShadow_210_1842"/>
<feBlend mode="normal" in="SourceGraphic" in2="effect1_dropShadow_210_1842" result="shape"/>
</filter>
<filter id="filter3_f_210_1842" x="111.193" y="200.303" width="40.8899" height="39.636" filterUnits="userSpaceOnUse" color-interpolation-filters="sRGB">
<feFlood flood-opacity="0" result="BackgroundImageFix"/>
<feBlend mode="normal" in="SourceGraphic" in2="BackgroundImageFix" result="shape"/>
<feGaussianBlur stdDeviation="2" result="effect1_foregroundBlur_210_1842"/>
</filter>
<filter id="filter4_f_210_1842" x="12.2767" y="116.786" width="57.3762" height="58.2485" filterUnits="userSpaceOnUse" color-interpolation-filters="sRGB">
<feFlood flood-opacity="0" result="BackgroundImageFix"/>
<feBlend mode="normal" in="SourceGraphic" in2="BackgroundImageFix" result="shape"/>
<feGaussianBlur stdDeviation="2" result="effect1_foregroundBlur_210_1842"/>
</filter>
<filter id="filter5_f_210_1842" x="59" y="21" width="41" height="41" filterUnits="userSpaceOnUse" color-interpolation-filters="sRGB">
<feFlood flood-opacity="0" result="BackgroundImageFix"/>
<feBlend mode="normal" in="SourceGraphic" in2="BackgroundImageFix" result="shape"/>
<feGaussianBlur stdDeviation="2" result="effect1_foregroundBlur_210_1842"/>
</filter>
<filter id="filter6_f_210_1842" x="196" y="234" width="29" height="29" filterUnits="userSpaceOnUse" color-interpolation-filters="sRGB">
<feFlood flood-opacity="0" result="BackgroundImageFix"/>
<feBlend mode="normal" in="SourceGraphic" in2="BackgroundImageFix" result="shape"/>
<feGaussianBlur stdDeviation="2" result="effect1_foregroundBlur_210_1842"/>
</filter>
<filter id="filter7_f_210_1842" x="189" y="277" width="19" height="19" filterUnits="userSpaceOnUse" color-interpolation-filters="sRGB">
<feFlood flood-opacity="0" result="BackgroundImageFix"/>
<feBlend mode="normal" in="SourceGraphic" in2="BackgroundImageFix" result="shape"/>
<feGaussianBlur stdDeviation="2" result="effect1_foregroundBlur_210_1842"/>
</filter>
<linearGradient id="paint0_linear_210_1842" x1="0.846166" y1="12.0121" x2="35.0679" y2="29.0173" gradientUnits="userSpaceOnUse">
<stop stop-color="#0DAACD"/>
<stop offset="0.399038" stop-color="#61FFB0"/>
</linearGradient>
<linearGradient id="paint1_linear_210_1842" x1="194.552" y1="32.8376" x2="202.675" y2="13.7566" gradientUnits="userSpaceOnUse">
<stop stop-color="#3DDCFF"/>
<stop offset="1" stop-color="#61FFB0"/>
</linearGradient>
<radialGradient id="paint2_radial_210_1842" cx="0" cy="0" r="1" gradientUnits="userSpaceOnUse" gradientTransform="translate(225.027 106.526) rotate(78.9186) scale(75.1123 106.176)">
<stop stop-color="#25FBFF"/>
<stop offset="0.303481" stop-color="#95EEFC"/>
<stop offset="0.591346" stop-color="#FFE2F8"/>
<stop offset="1" stop-color="#84FFC1"/>
</radialGradient>
<linearGradient id="paint3_linear_210_1842" x1="13.3643" y1="18.6041" x2="21.1847" y2="0.22615" gradientUnits="userSpaceOnUse">
<stop stop-color="#3DDCFF"/>
<stop offset="1" stop-color="#61FFB0"/>
</linearGradient>
<radialGradient id="paint4_radial_210_1842" cx="0" cy="0" r="1" gradientUnits="userSpaceOnUse" gradientTransform="translate(225.377 105.737) rotate(78.9063) scale(72.3356 102.295)">
<stop stop-color="#25FBFF"/>
<stop offset="0.303481" stop-color="#95EEFC"/>
<stop offset="0.591346" stop-color="#FFE2F8"/>
<stop offset="1" stop-color="#84FFC1"/>
</radialGradient>
<linearGradient id="paint5_linear_210_1842" x1="0.814917" y1="11.5725" x2="33.7774" y2="27.9463" gradientUnits="userSpaceOnUse">
<stop stop-color="#36C0DF"/>
<stop offset="0.653846" stop-color="#61FFB0"/>
</linearGradient>
<radialGradient id="paint6_radial_210_1842" cx="0" cy="0" r="1" gradientUnits="userSpaceOnUse" gradientTransform="translate(122.081 224.991) rotate(139.358) scale(27.5004 39.0163)">
<stop stop-color="#25FBFF"/>
<stop offset="0.303481" stop-color="#95EEFC"/>
<stop offset="0.591346" stop-color="#FFE2F8"/>
<stop offset="1" stop-color="#84FFC1"/>
</radialGradient>
<radialGradient id="paint7_radial_210_1842" cx="0" cy="0" r="1" gradientUnits="userSpaceOnUse" gradientTransform="translate(122.363 224.973) rotate(139.358) scale(25.0139 35.4886)">
<stop stop-color="#25FBFF"/>
<stop offset="0.303481" stop-color="#95EEFC"/>
<stop offset="0.591346" stop-color="#FFE2F8"/>
<stop offset="1" stop-color="#84FFC1"/>
</radialGradient>
<linearGradient id="paint8_linear_210_1842" x1="38.1912" y1="170.331" x2="40.1505" y2="157.806" gradientUnits="userSpaceOnUse">
<stop stop-color="#36C0DF"/>
<stop offset="0.653846" stop-color="#61FFB0"/>
</linearGradient>
<linearGradient id="paint9_linear_210_1842" x1="46.37" y1="170.642" x2="47.7273" y2="157.654" gradientUnits="userSpaceOnUse">
<stop stop-color="#36C0DF"/>
<stop offset="0.653846" stop-color="#61FFB0"/>
</linearGradient>
<linearGradient id="paint10_linear_210_1842" x1="53.4324" y1="167.696" x2="55.3917" y2="155.171" gradientUnits="userSpaceOnUse">
<stop stop-color="#36C0DF"/>
<stop offset="0.653846" stop-color="#61FFB0"/>
</linearGradient>
<linearGradient id="paint11_linear_210_1842" x1="58.7619" y1="161.75" x2="60.9393" y2="149.418" gradientUnits="userSpaceOnUse">
<stop stop-color="#36C0DF"/>
<stop offset="0.653846" stop-color="#61FFB0"/>
</linearGradient>
<radialGradient id="paint12_radial_210_1842" cx="0" cy="0" r="1" gradientUnits="userSpaceOnUse" gradientTransform="translate(48.237 141.49) rotate(56.6607) scale(38.1654 59.2133)">
<stop stop-color="#25FBFF"/>
<stop offset="0.303481" stop-color="#95EEFC"/>
<stop offset="0.591346" stop-color="#FFE2F8"/>
<stop offset="1" stop-color="#84FFC1"/>
</radialGradient>
<linearGradient id="paint13_linear_210_1842" x1="38.9619" y1="171.311" x2="40.9213" y2="158.786" gradientUnits="userSpaceOnUse">
<stop stop-color="#36C0DF"/>
<stop offset="0.653846" stop-color="#61FFB0"/>
</linearGradient>
<linearGradient id="paint14_linear_210_1842" x1="47.1406" y1="171.622" x2="48.4979" y2="158.634" gradientUnits="userSpaceOnUse">
<stop stop-color="#36C0DF"/>
<stop offset="0.653846" stop-color="#61FFB0"/>
</linearGradient>
<linearGradient id="paint15_linear_210_1842" x1="54.203" y1="168.676" x2="56.1623" y2="156.151" gradientUnits="userSpaceOnUse">
<stop stop-color="#36C0DF"/>
<stop offset="0.653846" stop-color="#61FFB0"/>
</linearGradient>
<linearGradient id="paint16_linear_210_1842" x1="59.5325" y1="162.73" x2="61.7099" y2="150.398" gradientUnits="userSpaceOnUse">
<stop stop-color="#36C0DF"/>
<stop offset="0.653846" stop-color="#61FFB0"/>
</linearGradient>
<radialGradient id="paint17_radial_210_1842" cx="0" cy="0" r="1" gradientUnits="userSpaceOnUse" gradientTransform="translate(49.0077 142.47) rotate(56.6607) scale(38.1654 59.2133)">
<stop stop-color="#25FBFF"/>
<stop offset="0.303481" stop-color="#95EEFC"/>
<stop offset="0.591346" stop-color="#FFE2F8"/>
<stop offset="1" stop-color="#84FFC1"/>
</radialGradient>
</defs>
</svg>
