<svg width="248" height="33" viewBox="0 0 248 33" fill="none" xmlns="http://www.w3.org/2000/svg">
<path d="M246.939 12.8952V19.262H232.561V24.8144H248V31.1442H224.952V1.64233H247.634V8.00911H232.561V12.8952H246.939Z" fill="#FFFFF6"/>
<path d="M211.79 8.00911V31.1442H204.002V8.00911H194.528V1.64233H221.264V8.00911H211.79Z" fill="#FFFFF6"/>
<path d="M165.947 31.1442L175.879 1.64233H185.516L195.448 31.1442H187.797L185.001 22.8896L175.511 25.5177L173.598 31.1442H165.947ZM177.865 18.5217L183.015 17.0781L180.697 10.156L177.865 18.5217Z" fill="#FFFFF6"/>
<path d="M154.546 1.64258H162.26V31.1444H154.727V16.412L148.824 31.1444H143.428L137.525 16.412V31.1444H129.992V1.64258H137.706L146.108 22.6307L154.546 1.64258Z" fill="#FFFFF6"/>
<path d="M96.802 1.64258H104.29V24.7777H118.006V31.1444H96.802V1.64258Z" fill="#FFFFF6"/>
<path d="M78.3451 32.0664C76.4109 32.0664 74.6315 31.7685 73.0069 31.2099C71.3048 30.6141 69.8349 29.8321 68.5971 28.7894C67.3205 27.7467 66.3148 26.4806 65.6185 24.9911C64.8835 23.5388 64.5354 21.9003 64.5354 20.0384V1.64258H72.5814V19.666C72.5814 20.4852 72.6974 21.23 72.9682 21.9003C73.2003 22.6078 73.5871 23.2036 74.09 23.725C74.5542 24.2463 75.1731 24.6559 75.9081 24.9538C76.6043 25.289 77.4167 25.4379 78.3451 25.4379C79.2348 25.4379 80.0471 25.289 80.7821 24.9538C81.4783 24.6559 82.0973 24.2463 82.6388 23.725C83.103 23.2036 83.4898 22.6078 83.7606 21.9003C83.9927 21.23 84.1474 20.4852 84.1474 19.666V1.64258H92.1934V20.0384C92.1934 21.9003 91.8066 23.5388 91.1103 24.9911C90.3366 26.4806 89.3696 27.7467 88.1317 28.7894C86.8552 29.8321 85.3853 30.6141 83.7219 31.2099C82.0199 31.7685 80.2018 32.0664 78.3451 32.0664Z" fill="#FFFFF6"/>
<path d="M3.27431 21.5816C4.57659 22.7051 6.10212 23.6414 7.88811 24.3155C9.63689 25.027 11.4601 25.3641 13.3205 25.3266C14.5484 25.3266 15.4413 25.1394 16.0367 24.7649C16.5948 24.4278 16.8925 23.9035 16.8925 23.192C16.8925 22.3681 16.5576 21.7314 15.9251 21.2071C15.2553 20.7203 14.1391 20.2709 12.6135 19.8215C11.274 19.447 9.93456 19.035 8.55786 18.5856C7.14395 18.1737 5.87888 17.6119 4.76263 16.8629C3.60918 16.1514 2.67898 15.2151 1.97203 14.0916C1.22787 12.9681 0.855785 11.545 0.855785 9.7474C0.855785 8.17449 1.15345 6.82629 1.78599 5.66533C2.38132 4.54183 3.19989 3.60558 4.27893 2.85658C5.32075 2.14503 6.54862 1.62073 7.96253 1.24623C9.33923 0.909175 10.8275 0.721924 12.3903 0.721924C13.4693 0.721924 14.5111 0.796823 15.5158 0.946624C16.4832 1.09642 17.4506 1.32112 18.418 1.62073C19.3482 1.95778 20.2784 2.36973 21.2458 2.81913C22.1388 3.30598 23.1062 3.86773 24.1108 4.54183L21.0598 10.5338C19.8691 9.63505 18.5296 8.88604 17.1157 8.36174C15.6646 7.83744 14.1391 7.57529 12.5763 7.50039C12.0554 7.50039 11.5717 7.50039 11.1252 7.53784C10.6415 7.61274 10.2322 7.72509 9.89735 7.87489C9.52527 8.06214 9.26481 8.28684 9.07877 8.51154C8.85552 8.77369 8.7439 9.07329 8.7439 9.44779C8.7439 9.8223 8.78111 10.1593 8.92994 10.4215C9.00435 10.7211 9.2276 11.0207 9.56247 11.2454C9.86014 11.5075 10.3438 11.7697 10.9764 11.9944C11.5717 12.2566 12.3531 12.5187 13.3949 12.7809C14.9576 13.2303 16.4832 13.7171 17.8971 14.1665C19.2738 14.6908 20.5016 15.29 21.5435 16.0016C22.5853 16.7506 23.4039 17.6868 23.9992 18.7729C24.5945 19.8964 24.8922 21.282 24.8922 22.9298C24.8922 24.5027 24.5945 25.8509 23.9992 26.9744C23.4039 28.0979 22.5481 29.0716 21.5063 29.8206C20.4272 30.5696 19.1622 31.1314 17.711 31.5059C16.2227 31.8804 14.6228 32.0676 12.9112 32.0676C10.4183 32.0676 8.11136 31.6931 5.9905 30.9441C3.83243 30.1951 1.8232 29.1465 0 27.8358L3.27431 21.5816Z" fill="#FFFFF6"/>
<path d="M43.8578 0C53.2832 0 59.708 7.01662 59.9193 15.5967C60.046 20.119 58.3129 24.5568 54.974 27.5576L56.8334 29.9668C57.3406 30.6008 57.0445 31.1924 56.4105 31.1924H44.9144C35.3624 31.1922 29.1494 23.9227 28.8959 15.0469C28.6845 7.01637 34.8975 0.00015628 43.8578 0Z" fill="#FFFFF6"/>
</svg>