<svg width="168" height="146" viewBox="0 0 168 146" fill="none" xmlns="http://www.w3.org/2000/svg">
<g filter="url(#filter0_f_1114_2042)">
<ellipse cx="53.7762" cy="77.169" rx="9.68638" ry="7.89261" transform="rotate(19.6481 53.7762 77.169)" fill="url(#paint0_linear_1114_2042)" stroke="#FFFFF6" stroke-width="2"/>
<ellipse cx="9.68638" cy="7.89261" rx="9.68638" ry="7.89261" transform="matrix(-0.941776 0.336242 0.336242 0.941776 116.142 66.479)" fill="url(#paint1_linear_1114_2042)" stroke="#FFFFF6" stroke-width="2"/>
<ellipse cx="53.6172" cy="78.0744" rx="7.97382" ry="5.81533" transform="rotate(19.6481 53.6172 78.0744)" fill="#17B4C8"/>
<g filter="url(#filter1_d_1114_2042)">
<path d="M82.4452 68.9302C101.15 68.9302 114.72 83.1973 114.72 100.796C114.72 105.968 112.963 110.851 110.182 115.169C114.002 117.583 116.106 121.478 115.134 125.107C113.849 129.901 107.683 132.416 101.363 130.722C101.151 130.665 100.942 130.603 100.735 130.539C100.095 134.509 96.1764 137.566 91.4335 137.566C87.9125 137.566 84.8455 135.881 83.2363 133.388C81.557 135.88 78.3565 137.566 74.6826 137.566C69.2676 137.566 64.878 133.907 64.8779 129.395C64.8779 129.177 64.891 128.961 64.9111 128.748C63.98 129.223 62.9698 129.617 61.8935 129.906C55.5732 131.599 49.4077 129.085 48.123 124.291C47.0819 120.405 49.5648 116.214 53.9072 113.863C51.5935 109.876 50.1708 105.453 50.1708 100.796C50.1709 83.1972 63.7402 68.9302 82.4452 68.9302Z" fill="url(#paint2_radial_1114_2042)"/>
<path d="M82.4452 68.9302L82.4453 67.9302H82.4452V68.9302ZM114.72 100.796H115.72V100.796L114.72 100.796ZM110.182 115.169L109.341 114.628C109.196 114.852 109.148 115.125 109.205 115.385C109.263 115.646 109.422 115.872 109.647 116.015L110.182 115.169ZM115.134 125.107L116.1 125.366L116.1 125.366L115.134 125.107ZM101.363 130.722L101.104 131.688L101.104 131.688L101.363 130.722ZM100.735 130.539L101.034 129.584C100.757 129.498 100.456 129.536 100.209 129.688C99.9625 129.841 99.7942 130.093 99.748 130.379L100.735 130.539ZM83.2363 133.388L84.0764 132.846C83.8941 132.563 83.5821 132.392 83.2461 132.388C82.91 132.385 82.5948 132.551 82.407 132.829L83.2363 133.388ZM74.6826 137.566L74.6825 138.566H74.6826V137.566ZM64.8779 129.395H63.8779V129.395L64.8779 129.395ZM64.9111 128.748L65.9067 128.841C65.9408 128.478 65.7745 128.125 65.4726 127.92C65.1708 127.715 64.7813 127.691 64.4564 127.857L64.9111 128.748ZM61.8935 129.906L62.1523 130.872L62.1523 130.872L61.8935 129.906ZM48.123 124.291L47.1571 124.549L47.1571 124.549L48.123 124.291ZM53.9072 113.863L54.3833 114.742C54.621 114.613 54.7965 114.394 54.8698 114.134C54.943 113.874 54.9078 113.595 54.7721 113.361L53.9072 113.863ZM50.1708 100.796L49.1708 100.796V100.796H50.1708ZM82.4452 68.9302V69.9302C100.592 69.9302 113.72 83.7436 113.72 100.796L114.72 100.796L115.72 100.796C115.72 82.6509 101.708 67.9302 82.4453 67.9302L82.4452 68.9302ZM114.72 100.796H113.72C113.72 105.737 112.042 110.434 109.341 114.628L110.182 115.169L111.022 115.711C113.884 111.267 115.72 106.199 115.72 100.796H114.72ZM110.182 115.169L109.647 116.015C113.245 118.288 114.987 121.789 114.168 124.848L115.134 125.107L116.1 125.366C117.225 121.166 114.759 116.879 110.716 114.324L110.182 115.169ZM115.134 125.107L114.168 124.848C113.624 126.878 112.03 128.495 109.759 129.422C107.487 130.348 104.591 130.552 101.622 129.756L101.363 130.722L101.104 131.688C104.456 132.586 107.802 132.379 110.514 131.273C113.227 130.167 115.359 128.131 116.1 125.366L115.134 125.107ZM101.363 130.722L101.622 129.756C101.427 129.704 101.232 129.646 101.034 129.584L100.735 130.539L100.437 131.493C100.652 131.56 100.875 131.627 101.104 131.688L101.363 130.722ZM100.735 130.539L99.748 130.379C99.2007 133.776 95.7829 136.566 91.4335 136.566V137.566V138.566C96.5699 138.566 100.99 135.243 101.723 130.698L100.735 130.539ZM91.4335 137.566V136.566C88.223 136.566 85.4862 135.029 84.0764 132.846L83.2363 133.388L82.3962 133.931C84.2049 136.732 87.602 138.566 91.4335 138.566V137.566ZM83.2363 133.388L82.407 132.829C80.9351 135.014 78.0645 136.566 74.6826 136.566V137.566V138.566C78.6486 138.566 82.1788 136.747 84.0656 133.947L83.2363 133.388ZM74.6826 137.566L74.6826 136.566C69.6415 136.566 65.878 133.192 65.8779 129.395L64.8779 129.395L63.8779 129.395C63.878 134.623 68.8938 138.566 74.6825 138.566L74.6826 137.566ZM64.8779 129.395H65.8779C65.8779 129.217 65.8886 129.033 65.9067 128.841L64.9111 128.748L63.9155 128.654C63.8933 128.889 63.8779 129.138 63.8779 129.395H64.8779ZM64.9111 128.748L64.4564 127.857C63.5865 128.301 62.642 128.67 61.6347 128.94L61.8935 129.906L62.1523 130.872C63.2977 130.565 64.3734 130.145 65.3658 129.638L64.9111 128.748ZM61.8935 129.906L61.6347 128.94C58.6659 129.735 55.7695 129.532 53.4975 128.605C51.2262 127.679 49.6328 126.062 49.0889 124.032L48.123 124.291L47.1571 124.549C47.8979 127.314 50.0296 129.351 52.7423 130.457C55.4543 131.563 58.8008 131.77 62.1523 130.872L61.8935 129.906ZM48.123 124.291L49.0889 124.032C48.2119 120.759 50.2754 116.966 54.3833 114.742L53.9072 113.863L53.4311 112.983C48.8542 115.461 45.952 120.052 47.1571 124.549L48.123 124.291ZM53.9072 113.863L54.7721 113.361C52.5296 109.496 51.1708 105.245 51.1708 100.796H50.1708H49.1708C49.1708 105.661 50.6575 110.255 53.0422 114.365L53.9072 113.863ZM50.1708 100.796L51.1708 100.796C51.1709 83.7436 64.2984 69.9302 82.4452 69.9302V68.9302V67.9302C63.182 67.9302 49.1709 82.6509 49.1708 100.796L50.1708 100.796Z" fill="#FFFFF6"/>
</g>
<path d="M88.4592 109.176C88.5697 108.923 88.8646 108.808 89.1174 108.918C89.3701 109.029 89.4853 109.323 89.3752 109.576C89.0826 110.247 88.4082 111.078 87.3137 111.322C86.2783 111.554 85.0097 111.232 83.5314 110.031C82.0532 111.232 80.7846 111.554 79.7492 111.322C78.6547 111.078 77.9803 110.247 77.6877 109.576C77.5777 109.324 77.6928 109.029 77.9455 108.918C78.1983 108.808 78.4931 108.923 78.6037 109.176C78.8098 109.649 79.2728 110.191 79.968 110.347C80.6464 110.499 81.7093 110.317 83.2004 109.001C83.2056 108.997 83.2116 108.993 83.217 108.989C83.2294 108.978 83.2429 108.97 83.256 108.961C83.2706 108.952 83.2848 108.942 83.3 108.934C83.3136 108.927 83.3278 108.921 83.342 108.915C83.3574 108.909 83.373 108.903 83.3889 108.899C83.4063 108.893 83.4238 108.889 83.4416 108.886C83.454 108.884 83.4662 108.881 83.4787 108.88C83.4962 108.878 83.5138 108.878 83.5314 108.878C83.5484 108.878 83.5653 108.878 83.5822 108.88C83.596 108.882 83.6095 108.884 83.6232 108.887C83.64 108.89 83.6567 108.893 83.673 108.898C83.689 108.902 83.7043 108.909 83.7199 108.915C83.7341 108.921 83.7482 108.927 83.7619 108.934C83.7772 108.942 83.7913 108.952 83.8059 108.961C83.8191 108.97 83.8324 108.978 83.8449 108.989C83.8505 108.993 83.857 108.996 83.8625 109.001C85.3535 110.317 86.4165 110.499 87.0949 110.347C87.7902 110.191 88.253 109.649 88.4592 109.176Z" fill="#002427"/>
<path d="M88.4592 109.176L88.0011 108.976L88.0008 108.976L88.4592 109.176ZM89.1174 108.918L89.3176 108.46L89.3168 108.46L89.1174 108.918ZM89.3752 109.576L89.8335 109.776L89.8336 109.776L89.3752 109.576ZM87.3137 111.322L87.4228 111.81L87.4229 111.81L87.3137 111.322ZM83.5314 110.031L83.8466 109.643L83.5314 109.387L83.2163 109.643L83.5314 110.031ZM79.7492 111.322L79.64 111.81L79.6401 111.81L79.7492 111.322ZM77.6877 109.576L77.2292 109.776L77.2294 109.776L77.6877 109.576ZM77.9455 108.918L77.7458 108.46L77.7453 108.46L77.9455 108.918ZM78.6037 109.176L79.062 108.976L79.0617 108.975L78.6037 109.176ZM79.968 110.347L79.8588 110.835L79.8589 110.835L79.968 110.347ZM83.2004 109.001L82.8697 108.626L82.8696 108.626L83.2004 109.001ZM83.217 108.989L83.5319 109.377L83.5323 109.377L83.217 108.989ZM83.256 108.961L83.5326 109.378L83.5327 109.378L83.256 108.961ZM83.3 108.934L83.0685 108.491L83.0682 108.491L83.3 108.934ZM83.342 108.915L83.5316 109.378L83.5318 109.378L83.342 108.915ZM83.3889 108.899L83.5314 109.378L83.5314 109.378L83.3889 108.899ZM83.4416 108.886L83.352 108.394L83.3518 108.394L83.4416 108.886ZM83.4787 108.88L83.5311 109.377L83.5315 109.377L83.4787 108.88ZM83.5314 108.878L83.5315 108.378L83.531 108.378L83.5314 108.878ZM83.5822 108.88L83.5316 109.378L83.5321 109.378L83.5822 108.88ZM83.6232 108.887L83.7148 108.395L83.7145 108.395L83.6232 108.887ZM83.673 108.898L83.532 109.377L83.532 109.377L83.673 108.898ZM83.7199 108.915L83.5312 109.378L83.5314 109.378L83.7199 108.915ZM83.7619 108.934L83.9927 108.49L83.9924 108.49L83.7619 108.934ZM83.8059 108.961L83.5301 109.378L83.5302 109.378L83.8059 108.961ZM83.8449 108.989L83.5304 109.377L83.5307 109.377L83.8449 108.989ZM83.8625 109.001L84.1933 108.626L84.193 108.626L83.8625 109.001ZM87.0949 110.347L87.2039 110.835L87.204 110.835L87.0949 110.347ZM88.4592 109.176L88.9172 109.377L88.9179 109.377L89.1174 108.918L89.3168 108.46C88.8119 108.24 88.2225 108.47 88.0011 108.976L88.4592 109.176ZM89.1174 108.918L88.9171 109.376L88.9167 109.377L89.3752 109.576L89.8336 109.776C90.0534 109.271 89.824 108.681 89.3176 108.46L89.1174 108.918ZM89.3752 109.576L88.9169 109.377C88.6672 109.949 88.0987 110.634 87.2045 110.835L87.3137 111.322L87.4229 111.81C88.7178 111.521 89.4979 110.546 89.8335 109.776L89.3752 109.576ZM87.3137 111.322L87.2046 110.835C86.3703 111.021 85.2547 110.787 83.8466 109.643L83.5314 110.031L83.2163 110.42C84.7647 111.677 86.1862 112.087 87.4228 111.81L87.3137 111.322ZM83.5314 110.031L83.2163 109.643C81.8082 110.786 80.6925 111.021 79.8583 110.835L79.7492 111.322L79.6401 111.81C80.8766 112.087 82.2982 111.677 83.8466 110.42L83.5314 110.031ZM79.7492 111.322L79.8584 110.835C78.9643 110.634 78.3957 109.949 78.146 109.377L77.6877 109.576L77.2294 109.776C77.5649 110.546 78.3452 111.521 79.64 111.81L79.7492 111.322ZM77.6877 109.576L78.1462 109.377L78.1457 109.376L77.9455 108.918L77.7453 108.46C77.2388 108.681 77.0096 109.271 77.2292 109.776L77.6877 109.576ZM77.9455 108.918L78.1452 109.377L78.1457 109.377L78.6037 109.176L79.0617 108.975C78.8404 108.47 78.2513 108.24 77.7458 108.46L77.9455 108.918ZM78.6037 109.176L78.1454 109.376C78.3951 109.949 78.9646 110.635 79.8588 110.835L79.968 110.347L80.0771 109.859C79.581 109.748 79.2245 109.349 79.062 108.976L78.6037 109.176ZM79.968 110.347L79.8589 110.835C80.7535 111.035 81.975 110.749 83.5312 109.376L83.2004 109.001L82.8696 108.626C81.4436 109.884 80.5393 109.962 80.077 109.859L79.968 110.347ZM83.2004 109.001L83.531 109.376C83.522 109.384 83.5145 109.39 83.5098 109.394C83.5054 109.397 83.5021 109.4 83.5025 109.399C83.5025 109.399 83.5026 109.399 83.503 109.399C83.5032 109.399 83.5038 109.398 83.5044 109.398C83.5056 109.397 83.5076 109.396 83.51 109.394C83.5147 109.39 83.5226 109.384 83.5319 109.377L83.217 108.989L82.902 108.6C82.9087 108.595 82.9139 108.591 82.9157 108.59C82.9167 108.589 82.9174 108.588 82.9171 108.589C82.917 108.589 82.9168 108.589 82.9164 108.589C82.916 108.589 82.9154 108.59 82.9147 108.59C82.9123 108.592 82.9063 108.596 82.899 108.602C82.8916 108.608 82.8814 108.616 82.8697 108.626L83.2004 109.001ZM83.217 108.989L83.5323 109.377C83.5278 109.38 83.5242 109.383 83.5218 109.385C83.5206 109.386 83.5197 109.386 83.5191 109.387C83.5184 109.387 83.5181 109.387 83.5181 109.387C83.5181 109.387 83.5183 109.387 83.5189 109.387C83.5195 109.386 83.5204 109.386 83.5216 109.385C83.523 109.384 83.5241 109.383 83.5262 109.382C83.5279 109.381 83.5302 109.379 83.5326 109.378L83.256 108.961L82.9795 108.545C82.9767 108.546 82.976 108.547 82.9707 108.55C82.9666 108.553 82.9608 108.557 82.9544 108.561C82.9416 108.57 82.9228 108.583 82.9017 108.6L83.217 108.989ZM83.256 108.961L83.5327 109.378C83.5349 109.376 83.5371 109.375 83.5388 109.374C83.5406 109.372 83.5419 109.372 83.5431 109.371C83.5443 109.37 83.5451 109.369 83.5457 109.369C83.546 109.369 83.5462 109.369 83.5464 109.369C83.5465 109.368 83.5466 109.368 83.5466 109.368C83.5466 109.368 83.5465 109.369 83.5463 109.369C83.5462 109.369 83.546 109.369 83.5456 109.369C83.545 109.369 83.5441 109.37 83.5429 109.371C83.5405 109.372 83.5367 109.374 83.5318 109.377L83.3 108.934L83.0682 108.491C83.0241 108.514 82.9839 108.542 82.9794 108.545L83.256 108.961ZM83.3 108.934L83.5315 109.377C83.5273 109.379 83.524 109.381 83.5219 109.382C83.5208 109.382 83.5199 109.383 83.5193 109.383C83.5188 109.383 83.5185 109.383 83.5185 109.383C83.5184 109.383 83.5187 109.383 83.5192 109.383C83.5198 109.383 83.5205 109.382 83.5217 109.382C83.5228 109.382 83.5241 109.381 83.5258 109.38C83.5273 109.38 83.5295 109.379 83.5316 109.378L83.342 108.915L83.1524 108.453C83.1473 108.455 83.1075 108.47 83.0685 108.491L83.3 108.934ZM83.342 108.915L83.5318 109.378L83.5314 109.378L83.3889 108.899L83.2463 108.419C83.2134 108.429 83.1821 108.44 83.1522 108.453L83.342 108.915ZM83.3889 108.899L83.5314 109.378L83.5314 109.378L83.4416 108.886L83.3518 108.394C83.3149 108.401 83.2797 108.409 83.2463 108.419L83.3889 108.899ZM83.4416 108.886L83.5311 109.378C83.535 109.377 83.5368 109.377 83.539 109.376C83.5398 109.376 83.5405 109.376 83.5409 109.376C83.5411 109.376 83.5413 109.376 83.5414 109.376C83.5415 109.376 83.5416 109.376 83.5416 109.376C83.5416 109.376 83.5415 109.376 83.5414 109.376C83.5413 109.376 83.5411 109.376 83.5409 109.376C83.5405 109.376 83.5398 109.376 83.5389 109.376C83.5372 109.377 83.5345 109.377 83.5311 109.377L83.4787 108.88L83.4263 108.383C83.3913 108.387 83.359 108.393 83.352 108.394L83.4416 108.886ZM83.4787 108.88L83.5315 109.377C83.5238 109.378 83.5191 109.378 83.5194 109.378C83.5195 109.378 83.5204 109.378 83.5226 109.378C83.5248 109.378 83.5275 109.378 83.5319 109.378L83.5314 108.878L83.531 108.378C83.5161 108.378 83.4733 108.378 83.4259 108.383L83.4787 108.88ZM83.5314 108.878L83.5313 109.378L83.5316 109.378L83.5822 108.88L83.6328 108.383C83.5891 108.378 83.5508 108.378 83.5315 108.378L83.5314 108.878ZM83.5822 108.88L83.5321 109.378C83.5264 109.377 83.522 109.376 83.5192 109.376C83.5178 109.376 83.5167 109.376 83.516 109.376C83.5156 109.375 83.5153 109.375 83.5152 109.375C83.515 109.375 83.5149 109.375 83.5149 109.375C83.5149 109.375 83.515 109.375 83.5151 109.375C83.5153 109.375 83.5156 109.375 83.5159 109.376C83.5167 109.376 83.5177 109.376 83.5191 109.376C83.5214 109.377 83.5268 109.378 83.5319 109.379L83.6232 108.887L83.7145 108.395C83.7128 108.395 83.7114 108.395 83.7068 108.394C83.7031 108.393 83.6972 108.392 83.6907 108.391C83.6776 108.389 83.657 108.385 83.6324 108.383L83.5822 108.88ZM83.6232 108.887L83.5316 109.378C83.5344 109.379 83.537 109.379 83.539 109.38C83.5412 109.38 83.5428 109.381 83.5443 109.381C83.5457 109.381 83.5467 109.381 83.5474 109.381C83.5478 109.381 83.548 109.382 83.5482 109.382C83.5484 109.382 83.5484 109.382 83.5484 109.382C83.5484 109.382 83.5483 109.382 83.5482 109.382C83.548 109.382 83.5477 109.381 83.5474 109.381C83.5467 109.381 83.5456 109.381 83.5442 109.381C83.5415 109.38 83.5373 109.379 83.532 109.377L83.673 108.898L83.8141 108.418C83.7669 108.404 83.7184 108.396 83.7148 108.395L83.6232 108.887ZM83.673 108.898L83.532 109.377C83.5267 109.376 83.5226 109.374 83.52 109.374C83.5186 109.373 83.5176 109.373 83.5169 109.372C83.5163 109.372 83.5159 109.372 83.5159 109.372C83.5159 109.372 83.5162 109.372 83.5168 109.372C83.5175 109.373 83.5184 109.373 83.5197 109.374C83.521 109.374 83.5225 109.375 83.5245 109.376C83.5263 109.376 83.5287 109.377 83.5312 109.378L83.7199 108.915L83.9086 108.452C83.9049 108.451 83.8605 108.432 83.8141 108.418L83.673 108.898ZM83.7199 108.915L83.5314 109.378C83.5357 109.38 83.5378 109.381 83.5401 109.382C83.5411 109.382 83.5418 109.383 83.5423 109.383C83.5427 109.383 83.5429 109.383 83.5429 109.383C83.5429 109.383 83.5418 109.383 83.5399 109.382C83.538 109.381 83.5351 109.379 83.5314 109.378L83.7619 108.934L83.9924 108.49C83.9542 108.47 83.917 108.456 83.9084 108.452L83.7199 108.915ZM83.7619 108.934L83.5311 109.377C83.5257 109.375 83.5216 109.372 83.5189 109.371C83.5176 109.37 83.5165 109.369 83.5159 109.369C83.5152 109.368 83.5148 109.368 83.5148 109.368C83.5148 109.368 83.5149 109.368 83.5151 109.368C83.5152 109.368 83.5155 109.369 83.5158 109.369C83.5164 109.369 83.5173 109.37 83.5186 109.371C83.52 109.372 83.5214 109.372 83.5234 109.374C83.5253 109.375 83.5276 109.377 83.5301 109.378L83.8059 108.961L84.0816 108.544C84.0802 108.543 84.0375 108.514 83.9927 108.49L83.7619 108.934ZM83.8059 108.961L83.5302 109.378C83.5324 109.38 83.5345 109.381 83.5361 109.382C83.5378 109.383 83.5391 109.384 83.5402 109.385C83.5414 109.386 83.5421 109.386 83.5427 109.387C83.5432 109.387 83.5434 109.387 83.5434 109.387C83.5434 109.387 83.5421 109.386 83.5399 109.385C83.5378 109.383 83.5345 109.381 83.5304 109.377L83.8449 108.989L84.1594 108.6C84.1233 108.571 84.0842 108.546 84.0815 108.544L83.8059 108.961ZM83.8449 108.989L83.5307 109.377C83.5451 109.389 83.5574 109.398 83.5648 109.403C83.5685 109.405 83.5716 109.408 83.5735 109.409C83.5744 109.409 83.5752 109.41 83.5757 109.41C83.5763 109.411 83.5763 109.411 83.5764 109.411C83.5766 109.411 83.5753 109.41 83.5735 109.409C83.5717 109.408 83.5687 109.405 83.5649 109.403C83.5576 109.397 83.5458 109.389 83.532 109.376L83.8625 109.001L84.193 108.626C84.1764 108.611 84.1618 108.6 84.1515 108.593C84.1417 108.586 84.1334 108.58 84.1311 108.579C84.1305 108.578 84.1297 108.578 84.1296 108.578C84.1293 108.578 84.1293 108.578 84.1295 108.578C84.1298 108.578 84.1315 108.579 84.1338 108.581C84.1381 108.584 84.1475 108.59 84.1591 108.6L83.8449 108.989ZM83.8625 109.001L83.5317 109.376C85.0878 110.749 86.3093 111.035 87.2039 110.835L87.0949 110.347L86.9859 109.859C86.5236 109.962 85.6192 109.884 84.1933 108.626L83.8625 109.001ZM87.0949 110.347L87.204 110.835C88.0984 110.635 88.6678 109.949 88.9175 109.376L88.4592 109.176L88.0008 108.976C87.8383 109.349 87.482 109.748 86.9858 109.859L87.0949 110.347Z" fill="#002427"/>
<path d="M68.9635 81.9657C70.2136 83.566 68.9197 86.3719 67.1416 87.7609C65.3635 89.1499 62.9087 88.9786 61.6586 87.3783C60.4085 85.778 60.8366 83.3547 62.6147 81.9657C64.3928 80.5767 67.7134 80.3654 68.9635 81.9657Z" fill="#FFFFF9" fill-opacity="0.61"/>
<path d="M74.181 78.2542C74.6492 78.8535 74.1646 79.9043 73.4987 80.4245C72.8328 80.9447 71.9135 80.8805 71.4453 80.2812C70.9772 79.6819 71.1375 78.7744 71.8034 78.2542C72.4693 77.734 73.7129 77.6549 74.181 78.2542Z" fill="#FFFFF9" fill-opacity="0.61"/>
<path d="M102.464 118.772C102.302 118.772 101.976 118.907 101.487 119.179C101.241 119.316 100.998 119.45 100.792 119.621C100.586 119.792 100.425 119.994 100.013 120.406" stroke="#00C8A3" stroke-opacity="0.23" stroke-width="2" stroke-linecap="round"/>
<path d="M62.4266 118.772C62.5884 118.772 62.9144 118.907 63.4034 119.179C63.6498 119.316 63.8925 119.45 64.0984 119.621C64.3043 119.792 64.4661 119.994 64.8779 120.406" stroke="#00C8A3" stroke-opacity="0.23" stroke-width="2" stroke-linecap="round"/>
<path d="M80.1766 123.969C80.4243 124.025 80.9178 124.085 81.3461 124.189C81.8324 124.307 82.318 124.549 82.8467 124.821C83.1987 125.002 83.6809 124.543 84.1719 124.341C84.5832 124.172 85.006 124.062 85.4336 123.94C85.6921 123.907 85.935 123.863 86.1916 123.805C86.3469 123.78 86.5532 123.763 86.7658 123.746" stroke="#00C6E0" stroke-opacity="0.48" stroke-width="2" stroke-linecap="round"/>
<ellipse cx="68.1464" cy="106.107" rx="3.26832" ry="4.49394" fill="#002427"/>
<ellipse cx="98.3787" cy="106.107" rx="3.26832" ry="4.49394" fill="#002427"/>
</g>
<ellipse cx="9.24908" cy="7.0492" rx="9.24908" ry="7.0492" transform="matrix(0.857618 0.514287 -0.560446 0.828191 50.1527 66)" fill="url(#paint3_linear_1114_2042)" stroke="#FFFFF6" stroke-width="2"/>
<ellipse cx="9.24908" cy="7.0492" rx="9.24908" ry="7.0492" transform="matrix(-0.857618 0.514287 0.560446 0.828191 113.762 66)" fill="url(#paint4_linear_1114_2042)" stroke="#FFFFF6" stroke-width="2"/>
<ellipse cx="7.61384" cy="5.1939" rx="7.61384" ry="5.1939" transform="matrix(0.857618 0.514287 -0.560446 0.828191 50.0284 69.8276)" fill="#17B4C8"/>
<ellipse cx="7.61384" cy="5.1939" rx="7.61384" ry="5.1939" transform="matrix(-0.857618 0.514287 0.560446 0.828191 113.886 69.8276)" fill="#17B4C8"/>
<g filter="url(#filter2_d_1114_2042)">
<path d="M82.5456 70.2966C100.568 70.2967 113.643 84.0434 113.643 101.001C113.643 105.984 111.95 110.688 109.27 114.849C112.952 117.175 114.979 120.928 114.042 124.426C112.804 129.045 106.863 131.467 100.773 129.836C100.496 129.761 100.224 129.677 99.9557 129.589C98.9291 132.62 95.4018 134.854 91.2057 134.854C88.0455 134.854 85.2648 133.586 83.6452 131.666C83.4029 131.683 83.1635 131.692 82.9274 131.698C81.2334 133.601 78.3453 134.854 75.0661 134.854C69.927 134.854 65.7493 131.777 65.6247 127.945C64.7346 128.397 63.7701 128.773 62.7428 129.049C56.653 130.68 50.7123 128.258 49.4743 123.638C48.4712 119.895 50.8638 115.857 55.0475 113.592C52.8182 109.75 51.4479 105.487 51.4479 101.001C51.4481 84.0434 64.5226 70.2966 82.5456 70.2966Z" fill="url(#paint5_radial_1114_2042)"/>
<path d="M82.5456 70.2966L82.5456 69.2966H82.5456V70.2966ZM113.643 101.001H114.643V101.001L113.643 101.001ZM109.27 114.849L108.429 114.308C108.285 114.532 108.236 114.805 108.294 115.065C108.351 115.326 108.511 115.552 108.736 115.695L109.27 114.849ZM114.042 124.426L115.008 124.684L115.008 124.684L114.042 124.426ZM100.773 129.836L100.514 130.802L100.514 130.802L100.773 129.836ZM99.9557 129.589L100.268 128.639C99.7468 128.467 99.1846 128.748 99.0086 129.268L99.9557 129.589ZM91.2057 134.854V135.854H91.2057L91.2057 134.854ZM83.6452 131.666L84.4096 131.021C84.2037 130.777 83.8934 130.646 83.5747 130.668L83.6452 131.666ZM82.9274 131.698L82.9017 130.698C82.6254 130.705 82.3643 130.827 82.1805 131.033L82.9274 131.698ZM75.0661 134.854L75.066 135.854H75.0661V134.854ZM65.6247 127.945L66.6241 127.913C66.613 127.571 66.428 127.258 66.1337 127.084C65.8394 126.91 65.4766 126.899 65.1717 127.054L65.6247 127.945ZM62.7428 129.049L63.0016 130.015H63.0016L62.7428 129.049ZM49.4743 123.638L48.5083 123.897L48.5083 123.897L49.4743 123.638ZM55.0475 113.592L55.5237 114.471C55.7614 114.342 55.9369 114.123 56.0101 113.862C56.0833 113.602 56.0481 113.323 55.9124 113.09L55.0475 113.592ZM51.4479 101.001L50.4479 101.001V101.001H51.4479ZM82.5456 70.2966L82.5456 71.2966C100.01 71.2967 112.643 84.5898 112.643 101.001L113.643 101.001L114.643 101.001C114.643 83.4971 101.127 69.2967 82.5456 69.2966L82.5456 70.2966ZM113.643 101.001H112.643C112.643 105.752 111.029 110.271 108.429 114.308L109.27 114.849L110.111 115.391C112.871 111.105 114.643 106.215 114.643 101.001H113.643ZM109.27 114.849L108.736 115.695C112.195 117.88 113.86 121.24 113.076 124.167L114.042 124.426L115.008 124.684C116.097 120.617 113.709 116.47 109.804 114.004L109.27 114.849ZM114.042 124.426L113.076 124.167C112.555 126.109 111.03 127.66 108.849 128.549C106.668 129.438 103.885 129.634 101.032 128.87L100.773 129.836L100.514 130.802C103.751 131.669 106.983 131.47 109.604 130.401C112.226 129.332 114.29 127.362 115.008 124.684L114.042 124.426ZM100.773 129.836L101.032 128.87C100.779 128.802 100.527 128.724 100.268 128.639L99.9557 129.589L99.6432 130.539C99.9211 130.63 100.212 130.721 100.514 130.802L100.773 129.836ZM99.9557 129.589L99.0086 129.268C98.1562 131.784 95.1002 133.854 91.2057 133.854L91.2057 134.854L91.2057 135.854C95.7034 135.854 99.7019 133.455 100.903 129.909L99.9557 129.589ZM91.2057 134.854V133.854C88.2975 133.854 85.8133 132.686 84.4096 131.021L83.6452 131.666L82.8807 132.31C84.7162 134.487 87.7935 135.854 91.2057 135.854V134.854ZM83.6452 131.666L83.5747 130.668C83.3533 130.684 83.1303 130.692 82.9017 130.698L82.9274 131.698L82.9531 132.698C83.1968 132.691 83.4526 132.682 83.7156 132.663L83.6452 131.666ZM82.9274 131.698L82.1805 131.033C80.7066 132.688 78.1089 133.854 75.0661 133.854V134.854V135.854C78.5817 135.854 81.7602 134.513 83.6742 132.363L82.9274 131.698ZM75.0661 134.854L75.0661 133.854C72.6894 133.854 70.5718 133.141 69.0563 132.03C67.5401 130.918 66.6742 129.453 66.6241 127.913L65.6247 127.945L64.6252 127.978C64.6997 130.269 65.985 132.258 67.8736 133.643C69.7629 135.028 72.3037 135.854 75.066 135.854L75.0661 134.854ZM65.6247 127.945L65.1717 127.054C64.342 127.475 63.4425 127.826 62.484 128.083L62.7428 129.049L63.0016 130.015C64.0977 129.721 65.1271 129.319 66.0776 128.837L65.6247 127.945ZM62.7428 129.049L62.484 128.083C59.6305 128.847 56.8479 128.651 54.6667 127.762C52.4863 126.873 50.9607 125.322 50.4402 123.38L49.4743 123.638L48.5083 123.897C49.2258 126.575 51.2897 128.545 53.9116 129.614C56.5327 130.683 59.7654 130.882 63.0016 130.015L62.7428 129.049ZM49.4743 123.638L50.4402 123.38C49.6012 120.248 51.5743 116.609 55.5237 114.471L55.0475 113.592L54.5714 112.712C50.1534 115.104 47.3412 119.542 48.5083 123.897L49.4743 123.638ZM55.0475 113.592L55.9124 113.09C53.7543 109.37 52.4479 105.28 52.4479 101.001H51.4479H50.4479C50.4479 105.695 51.882 110.129 54.1826 114.093L55.0475 113.592ZM51.4479 101.001L52.4479 101.001C52.4481 84.5897 65.0808 71.2966 82.5456 71.2966V70.2966V69.2966C63.9644 69.2966 50.4481 83.4971 50.4479 101.001L51.4479 101.001Z" fill="#FFFFF6"/>
</g>
<path d="M71.9112 82.1824C73.1447 83.7615 71.868 86.5302 70.1134 87.9008C68.3589 89.2714 65.9365 89.1024 64.703 87.5233C63.4695 85.9442 63.8918 83.553 65.6464 82.1824C67.4009 80.8118 70.6776 80.6033 71.9112 82.1824Z" fill="#FFFFF9" fill-opacity="0.67"/>
<path d="M77.0594 78.5208C77.5214 79.1122 77.0433 80.1491 76.3862 80.6624C75.7291 81.1757 74.8219 81.1124 74.36 80.521C73.898 79.9296 74.0562 79.0341 74.7133 78.5208C75.3703 78.0075 76.5975 77.9294 77.0594 78.5208Z" fill="#FFFFF9" fill-opacity="0.67"/>
<path d="M107.055 94.497C107.723 94.1541 108.651 94.8182 109.032 95.5599C109.413 96.3016 109.181 97.1808 108.514 97.5237C107.846 97.8666 106.996 97.5433 106.615 96.8016C106.234 96.06 106.388 94.8399 107.055 94.497Z" fill="#54F6FD" fill-opacity="0.26"/>
<path d="M101.834 118.322C101.678 118.322 101.364 118.451 100.893 118.713C100.655 118.845 100.422 118.975 100.223 119.139C100.025 119.304 99.8689 119.499 99.4721 119.896" stroke="#00C8A3" stroke-opacity="0.5" stroke-width="2" stroke-linecap="round"/>
<path d="M63.2567 118.322C63.4125 118.322 63.7267 118.451 64.1979 118.713C64.4352 118.845 64.6691 118.975 64.8675 119.139C65.0659 119.304 65.2217 119.499 65.6185 119.896" stroke="#00C8A3" stroke-opacity="0.5" stroke-width="2" stroke-linecap="round"/>
<path d="M80.5771 122.76C80.8158 122.814 81.2912 122.872 81.7039 122.972C82.1725 123.086 82.6404 123.319 83.1498 123.581C83.489 123.755 83.9536 123.313 84.4267 123.119C84.823 122.956 85.2303 122.85 85.6424 122.732C85.8914 122.7 86.1255 122.658 86.3727 122.602C86.5223 122.578 86.7212 122.562 86.926 122.546" stroke="#00C6E0" stroke-opacity="0.8" stroke-width="2" stroke-linecap="round"/>
<path d="M87.8377 101.981C87.9482 101.728 88.2429 101.613 88.4959 101.723C88.7484 101.834 88.8639 102.129 88.7537 102.382C88.4861 102.995 87.8684 103.757 86.864 103.981C85.92 104.192 84.7753 103.898 83.4519 102.833C82.1288 103.897 80.9847 104.192 80.0408 103.981C79.0365 103.757 78.4188 102.995 78.1511 102.382C78.0409 102.129 78.1561 101.834 78.409 101.723C78.6619 101.613 78.9567 101.729 79.0672 101.981C79.2483 102.396 79.6538 102.87 80.2586 103.006C80.8469 103.137 81.7876 102.984 83.1218 101.806C83.1248 101.804 83.1276 101.801 83.1306 101.799C83.1477 101.784 83.1659 101.772 83.1843 101.761C83.1954 101.754 83.2061 101.746 83.2175 101.74C83.234 101.731 83.2511 101.724 83.2683 101.718C83.2816 101.712 83.2948 101.707 83.3084 101.703C83.3261 101.698 83.344 101.694 83.3621 101.69C83.3744 101.688 83.3867 101.686 83.3992 101.684C83.4167 101.683 83.4343 101.682 83.4519 101.682C83.4692 101.682 83.4865 101.683 83.5037 101.684C83.5165 101.686 83.5291 101.688 83.5418 101.69C83.5593 101.693 83.5764 101.698 83.5935 101.703C83.6087 101.707 83.6236 101.713 83.6384 101.719C83.6541 101.725 83.6693 101.732 83.6843 101.74C83.6963 101.746 83.708 101.753 83.7195 101.761C83.737 101.772 83.7541 101.783 83.7703 101.797C83.7742 101.8 83.7791 101.803 83.783 101.806C85.1174 102.984 86.058 103.137 86.6463 103.006C87.2511 102.87 87.6566 102.396 87.8377 101.981Z" fill="#002427"/>
<path d="M87.8377 101.981L87.3795 101.781L87.3794 101.781L87.8377 101.981ZM88.4959 101.723L88.6966 101.266L88.6957 101.265L88.4959 101.723ZM88.7537 102.382L89.212 102.582L89.212 102.581L88.7537 102.382ZM86.864 103.981L86.9731 104.469L86.9732 104.469L86.864 103.981ZM83.4519 102.833L83.7654 102.443L83.4519 102.191L83.1385 102.443L83.4519 102.833ZM80.0408 103.981L79.9317 104.469L79.9318 104.469L80.0408 103.981ZM78.1511 102.382L77.6928 102.581L77.6929 102.582L78.1511 102.382ZM78.409 101.723L78.2094 101.265L78.2087 101.265L78.409 101.723ZM79.0672 101.981L79.5254 101.781L79.5253 101.781L79.0672 101.981ZM80.2586 103.006L80.1494 103.494L80.1496 103.494L80.2586 103.006ZM83.1218 101.806L82.7912 101.431L82.791 101.432L83.1218 101.806ZM83.1306 101.799L82.8087 101.416L82.8087 101.416L83.1306 101.799ZM83.1843 101.761L83.4527 102.182L83.4535 102.182L83.1843 101.761ZM83.2175 101.74L82.9834 101.298L82.9823 101.299L83.2175 101.74ZM83.2683 101.718L83.4516 102.183L83.4527 102.182L83.2683 101.718ZM83.3084 101.703L83.1655 101.224L83.1645 101.224L83.3084 101.703ZM83.3621 101.69L83.4513 102.182L83.4521 102.182L83.3621 101.69ZM83.3992 101.684L83.347 101.187L83.3463 101.187L83.3992 101.684ZM83.4519 101.682L83.4517 102.182L83.4523 102.182L83.4519 101.682ZM83.5037 101.684L83.5554 101.187L83.5547 101.187L83.5037 101.684ZM83.5418 101.69L83.4519 102.182L83.4527 102.182L83.5418 101.69ZM83.5935 101.703L83.7354 101.224L83.7344 101.223L83.5935 101.703ZM83.6384 101.719L83.4513 102.182L83.4524 102.183L83.6384 101.719ZM83.6843 101.74L83.9179 101.298L83.9168 101.297L83.6843 101.74ZM83.7195 101.761L83.4505 102.182L83.4513 102.183L83.7195 101.761ZM83.7703 101.797L84.0895 101.412L84.0894 101.412L83.7703 101.797ZM83.783 101.806L84.1138 101.432L84.1137 101.431L83.783 101.806ZM86.6463 103.006L86.7554 103.494L86.7555 103.494L86.6463 103.006ZM87.8377 101.981L88.2958 102.182L88.2961 102.182L88.4959 101.723L88.6957 101.265C88.1903 101.045 87.6008 101.275 87.3795 101.781L87.8377 101.981ZM88.4959 101.723L88.2952 102.181L88.2953 102.182L88.7537 102.382L89.212 102.581C89.4325 102.076 89.2016 101.487 88.6966 101.266L88.4959 101.723ZM88.7537 102.382L88.2954 102.182C88.0707 102.697 87.5588 103.313 86.7549 103.493L86.864 103.981L86.9732 104.469C88.1779 104.2 88.9015 103.293 89.212 102.582L88.7537 102.382ZM86.864 103.981L86.755 103.493C86.011 103.66 85.0187 103.452 83.7654 102.443L83.4519 102.833L83.1385 103.222C84.5319 104.343 85.8289 104.725 86.9731 104.469L86.864 103.981ZM83.4519 102.833L83.1385 102.443C81.8854 103.451 80.8936 103.659 80.1498 103.493L80.0408 103.981L79.9318 104.469C81.0758 104.725 82.3722 104.343 83.7653 103.222L83.4519 102.833ZM80.0408 103.981L80.1499 103.493C79.3461 103.314 78.8342 102.697 78.6094 102.182L78.1511 102.382L77.6929 102.582C78.0034 103.293 78.7269 104.2 79.9317 104.469L80.0408 103.981ZM78.1511 102.382L78.6095 102.182L78.6092 102.182L78.409 101.723L78.2087 101.265C77.7025 101.487 77.4725 102.076 77.6928 102.581L78.1511 102.382ZM78.409 101.723L78.6085 102.182L78.609 102.182L79.0672 101.981L79.5253 101.781C79.304 101.275 78.7144 101.045 78.2094 101.265L78.409 101.723ZM79.0672 101.981L78.6089 102.181C78.8335 102.696 79.3453 103.314 80.1494 103.494L80.2586 103.006L80.3677 102.518C79.9622 102.427 79.6631 102.097 79.5254 101.781L79.0672 101.981ZM80.2586 103.006L80.1496 103.494C80.954 103.673 82.0533 103.416 83.4526 102.181L83.1218 101.806L82.791 101.432C81.522 102.551 80.7398 102.601 80.3675 102.518L80.2586 103.006ZM83.1218 101.806L83.4525 102.181C83.4554 102.179 83.4577 102.177 83.4591 102.176C83.4598 102.175 83.4604 102.174 83.4607 102.174C83.4611 102.174 83.4612 102.174 83.4613 102.174C83.4618 102.173 83.458 102.177 83.4526 102.181L83.1306 101.799L82.8087 101.416C82.8003 101.423 82.7935 101.429 82.7912 101.431C82.7905 101.432 82.7898 101.433 82.7895 101.433C82.7891 101.433 82.789 101.433 82.789 101.433C82.7889 101.433 82.7898 101.433 82.7912 101.431L83.1218 101.806ZM83.1306 101.799L83.4526 102.181C83.4466 102.186 83.4428 102.189 83.4427 102.189C83.4427 102.189 83.4433 102.189 83.445 102.187C83.4468 102.186 83.4491 102.185 83.4527 102.182L83.1843 101.761L82.916 101.339C82.8953 101.352 82.853 101.379 82.8087 101.416L83.1306 101.799ZM83.1843 101.761L83.4535 102.182C83.4582 102.179 83.4627 102.176 83.4649 102.175C83.4662 102.174 83.467 102.173 83.4677 102.173C83.468 102.173 83.4683 102.172 83.4684 102.172C83.4685 102.172 83.4686 102.172 83.4686 102.172C83.4686 102.172 83.4686 102.172 83.4686 102.172C83.4686 102.172 83.4686 102.172 83.4684 102.172C83.4682 102.172 83.468 102.173 83.4677 102.173C83.467 102.173 83.466 102.174 83.4647 102.175C83.4621 102.176 83.4581 102.178 83.4528 102.181L83.2175 101.74L82.9823 101.299C82.9608 101.31 82.9433 101.321 82.933 101.328C82.9277 101.331 82.923 101.334 82.9203 101.336C82.917 101.338 82.9161 101.339 82.9152 101.339L83.1843 101.761ZM83.2175 101.74L83.4517 102.182C83.4485 102.184 83.4459 102.185 83.4442 102.186C83.4425 102.186 83.4415 102.187 83.4414 102.187C83.4414 102.187 83.4421 102.187 83.4439 102.186C83.4457 102.185 83.448 102.184 83.4516 102.183L83.2683 101.718L83.085 101.252C83.0673 101.259 83.027 101.275 82.9834 101.298L83.2175 101.74ZM83.2683 101.718L83.4527 102.182C83.4568 102.181 83.4588 102.18 83.461 102.179C83.462 102.179 83.4626 102.178 83.4631 102.178C83.4636 102.178 83.4638 102.178 83.4637 102.178C83.4637 102.178 83.4635 102.178 83.463 102.178C83.4625 102.178 83.4618 102.179 83.4608 102.179C83.4589 102.18 83.456 102.181 83.4522 102.182L83.3084 101.703L83.1645 101.224C83.1262 101.236 83.0916 101.25 83.0839 101.253L83.2683 101.718ZM83.3084 101.703L83.4512 102.182L83.4513 102.182L83.3621 101.69L83.2729 101.198C83.2392 101.204 83.2032 101.213 83.1655 101.224L83.3084 101.703ZM83.3621 101.69L83.4521 102.182L83.4521 102.182L83.3992 101.684L83.3463 101.187C83.3118 101.191 83.2805 101.197 83.2721 101.198L83.3621 101.69ZM83.3992 101.684L83.4514 102.182C83.4443 102.182 83.44 102.183 83.4403 102.183C83.441 102.182 83.4434 102.182 83.4517 102.182L83.4519 101.682L83.4522 101.182C83.4353 101.182 83.3937 101.182 83.347 101.187L83.3992 101.684ZM83.4519 101.682L83.4523 102.182L83.4526 102.182L83.5037 101.684L83.5547 101.187C83.5099 101.182 83.4705 101.182 83.4515 101.182L83.4519 101.682ZM83.5037 101.684L83.4519 102.182L83.4519 102.182L83.5418 101.69L83.6316 101.198C83.6187 101.196 83.5893 101.191 83.5554 101.187L83.5037 101.684ZM83.5418 101.69L83.4527 102.182L83.4527 102.183L83.5935 101.703L83.7344 101.223C83.709 101.216 83.6729 101.206 83.6308 101.198L83.5418 101.69ZM83.5935 101.703L83.4517 102.182L83.4513 102.182L83.6384 101.719L83.8256 101.255C83.795 101.243 83.765 101.232 83.7354 101.224L83.5935 101.703ZM83.6384 101.719L83.4524 102.183L83.4518 102.183L83.6843 101.74L83.9168 101.297C83.8917 101.284 83.8606 101.269 83.8245 101.254L83.6384 101.719ZM83.6843 101.74L83.4508 102.182L83.4505 102.182L83.7195 101.761L83.9885 101.339C83.9662 101.325 83.9428 101.311 83.9179 101.298L83.6843 101.74ZM83.7195 101.761L83.4513 102.183L83.4512 102.182L83.7703 101.797L84.0894 101.412C84.0497 101.379 84.0124 101.354 83.9877 101.339L83.7195 101.761ZM83.7703 101.797L83.4511 102.182C83.461 102.19 83.4693 102.196 83.4739 102.2C83.4764 102.201 83.4784 102.203 83.4796 102.204C83.4802 102.204 83.4808 102.205 83.4811 102.205C83.4815 102.205 83.4815 102.205 83.4816 102.205C83.4822 102.206 83.479 102.203 83.4746 102.2C83.4701 102.196 83.4621 102.19 83.4523 102.181L83.783 101.806L84.1137 101.431C84.102 101.421 84.0918 101.413 84.0852 101.408C84.0787 101.403 84.0733 101.399 84.0717 101.398C84.0712 101.398 84.0707 101.397 84.0706 101.397C84.0703 101.397 84.0703 101.397 84.0704 101.397C84.0705 101.397 84.0715 101.398 84.0728 101.399C84.0753 101.401 84.0816 101.405 84.0895 101.412L83.7703 101.797ZM83.783 101.806L83.4522 102.181C84.8516 103.416 85.9509 103.674 86.7554 103.494L86.6463 103.006L86.5371 102.518C86.1651 102.601 85.3831 102.551 84.1138 101.432L83.783 101.806ZM86.6463 103.006L86.7555 103.494C87.5594 103.314 88.0714 102.696 88.296 102.181L87.8377 101.981L87.3794 101.781C87.2419 102.097 86.9427 102.427 86.537 102.518L86.6463 103.006Z" fill="#002427"/>
<ellipse cx="69.3452" cy="100.319" rx="2.93921" ry="4.04141" fill="#002427"/>
<ellipse cx="96.7191" cy="100.319" rx="2.93921" ry="4.04141" fill="#002427"/>
<path d="M147.031 0C158.612 0.000115449 168 9.38808 168 20.9688C168 32.5495 158.612 41.9374 147.031 41.9375H88.8057L85.7744 47.7725C85.0278 49.2099 82.9713 49.2099 82.2246 47.7725L79.1943 41.9375H20.9688C9.38801 41.9374 0 32.5495 0 20.9688C0.000117511 9.38808 9.38808 0.00011958 20.9688 0H147.031Z" fill="#FFFFF6"/>
<path d="M36.216 16.9583V27.6023H35.052V21.7343H32.916V20.7743H35.052V16.9583H36.216ZM33.528 18.0263V18.9863H31.212V19.8983C31.212 20.4983 31.324 21.1023 31.548 21.7103C31.78 22.3103 32.1 22.8503 32.508 23.3303C32.924 23.8023 33.396 24.1583 33.924 24.3983L33.228 25.3343C32.636 25.0383 32.116 24.6063 31.668 24.0383C31.22 23.4703 30.872 22.8223 30.624 22.0943C30.384 22.8703 30.036 23.5623 29.58 24.1703C29.124 24.7783 28.596 25.2383 27.996 25.5503L27.312 24.6143C27.84 24.3583 28.308 23.9823 28.716 23.4863C29.132 22.9903 29.452 22.4303 29.676 21.8063C29.908 21.1743 30.024 20.5383 30.024 19.8983V18.9863H27.708V18.0263H33.528ZM41.0763 17.6303C41.6123 17.6303 42.0963 17.7383 42.5283 17.9543C42.9603 18.1703 43.2963 18.4743 43.5363 18.8663C43.7843 19.2503 43.9083 19.6863 43.9083 20.1743C43.9083 20.8223 43.7003 21.3743 43.2843 21.8303C42.8763 22.2783 42.3403 22.5583 41.6763 22.6703V24.3263C42.8043 24.2703 43.6963 24.1943 44.3523 24.0983L44.4483 24.9623C42.9043 25.2263 40.9523 25.3583 38.5923 25.3583H37.9683L37.8003 24.3983C38.9603 24.3983 39.8603 24.3903 40.5003 24.3743V22.6703C39.8203 22.5583 39.2723 22.2783 38.8563 21.8303C38.4403 21.3823 38.2323 20.8303 38.2323 20.1743C38.2323 19.6863 38.3523 19.2503 38.5923 18.8663C38.8403 18.4743 39.1803 18.1703 39.6123 17.9543C40.0443 17.7383 40.5323 17.6303 41.0763 17.6303ZM41.0763 18.6383C40.5803 18.6383 40.1723 18.7783 39.8523 19.0583C39.5403 19.3383 39.3843 19.7103 39.3843 20.1743C39.3843 20.6303 39.5403 21.0023 39.8523 21.2903C40.1723 21.5703 40.5803 21.7103 41.0763 21.7103C41.5643 21.7103 41.9643 21.5703 42.2763 21.2903C42.5963 21.0023 42.7563 20.6303 42.7563 20.1743C42.7563 19.7103 42.6003 19.3383 42.2883 19.0583C41.9763 18.7783 41.5723 18.6383 41.0763 18.6383ZM46.1523 16.9703V21.2663H47.7363V22.2503H46.1523V27.5903H44.9763V16.9703H46.1523ZM59.4542 16.9703V19.7063H60.9662V20.6783H59.4542V23.3543H58.2782V16.9703H59.4542ZM59.4542 23.9063V27.4583H52.6982V23.9063H59.4542ZM53.8502 24.8543V26.5223H58.3022V24.8543H53.8502ZM53.7302 18.0263V16.8863H54.9182V18.0263H57.4502V18.9743H51.1982V18.0263H53.7302ZM54.3182 19.4183C54.8222 19.4183 55.2702 19.4983 55.6622 19.6583C56.0542 19.8103 56.3582 20.0303 56.5742 20.3183C56.7902 20.6063 56.8982 20.9383 56.8982 21.3143C56.8982 21.8903 56.6582 22.3503 56.1782 22.6943C55.7062 23.0383 55.0862 23.2103 54.3182 23.2103C53.5502 23.2103 52.9302 23.0383 52.4582 22.6943C51.9942 22.3503 51.7622 21.8903 51.7622 21.3143C51.7622 20.9383 51.8662 20.6063 52.0742 20.3183C52.2902 20.0303 52.5902 19.8103 52.9742 19.6583C53.3662 19.4983 53.8142 19.4183 54.3182 19.4183ZM54.3182 20.3063C53.8862 20.3063 53.5382 20.3983 53.2742 20.5823C53.0182 20.7583 52.8902 21.0023 52.8902 21.3143C52.8902 21.6263 53.0182 21.8743 53.2742 22.0583C53.5382 22.2423 53.8862 22.3343 54.3182 22.3343C54.7582 22.3343 55.1062 22.2423 55.3622 22.0583C55.6262 21.8743 55.7582 21.6263 55.7582 21.3143C55.7582 21.0023 55.6262 20.7583 55.3622 20.5823C55.1062 20.3983 54.7582 20.3063 54.3182 20.3063ZM64.2425 18.2183C64.2425 19.6263 64.1225 20.9023 63.8825 22.0463C63.6425 23.1823 63.1905 24.2263 62.5265 25.1783L61.6025 24.6623C62.1705 23.8783 62.5745 23.0463 62.8145 22.1663C63.0625 21.2783 63.2065 20.2823 63.2465 19.1783H61.8785V18.2183H64.2425ZM66.6065 18.2183C66.6065 19.3223 66.5625 20.2703 66.4745 21.0623H67.6505V17.2223H68.7545V27.0623H67.6505V22.0223H66.3425C66.0705 23.5023 65.5825 24.7623 64.8785 25.8023L63.9545 25.2743C64.5705 24.4263 64.9905 23.5063 65.2145 22.5143C65.4385 21.5223 65.5625 20.4103 65.5865 19.1783H64.5785V18.2183H66.6065ZM70.7705 16.9703V27.5903H69.6425V16.9703H70.7705ZM78.8044 17.8583V19.6103C78.8044 20.2583 78.9204 20.8943 79.1524 21.5183C79.3844 22.1423 79.7084 22.6983 80.1244 23.1863C80.5404 23.6663 81.0204 24.0263 81.5644 24.2663L80.8684 25.2143C80.2684 24.9263 79.7404 24.5023 79.2844 23.9423C78.8284 23.3823 78.4764 22.7383 78.2284 22.0103C77.9804 22.8023 77.6244 23.4943 77.1604 24.0863C76.6964 24.6783 76.1524 25.1263 75.5284 25.4303L74.8204 24.4583C75.3644 24.2103 75.8484 23.8343 76.2724 23.3303C76.6964 22.8263 77.0244 22.2503 77.2564 21.6023C77.4964 20.9463 77.6164 20.2823 77.6164 19.6103V17.8583H78.8044ZM83.6284 16.9583V27.6023H82.4524V16.9583H83.6284ZM91.3567 17.6663V18.6263H89.1127V18.8423C89.1127 19.5383 89.3367 20.1783 89.7847 20.7623C90.2327 21.3383 90.8527 21.7623 91.6447 22.0343L91.0327 22.9583C90.4567 22.7583 89.9567 22.4663 89.5327 22.0823C89.1087 21.6903 88.7767 21.2303 88.5367 20.7023C88.3047 21.2703 87.9647 21.7663 87.5167 22.1903C87.0767 22.6143 86.5527 22.9343 85.9447 23.1503L85.3087 22.2263C86.1247 21.9543 86.7647 21.5103 87.2287 20.8943C87.7007 20.2703 87.9367 19.5903 87.9367 18.8543V18.6263H85.6567V17.6663H91.3567ZM93.6847 16.9703V19.6823H95.1967V20.6663H93.6847V23.3543H92.5087V16.9703H93.6847ZM93.6847 23.8943V27.5903H92.5087V24.8423H86.7247V23.8943H93.6847ZM97.8969 18.7103V17.2583H99.0609V18.7103H101.065V19.6463H95.8689V18.7103H97.8969ZM98.4729 20.2823C98.9129 20.2823 99.3089 20.3863 99.6609 20.5943C100.013 20.8023 100.285 21.0943 100.477 21.4703C100.677 21.8383 100.777 22.2583 100.777 22.7303C100.777 23.2103 100.677 23.6383 100.477 24.0143C100.285 24.3903 100.013 24.6823 99.6609 24.8903C99.3089 25.0983 98.9129 25.2023 98.4729 25.2023C98.0329 25.2023 97.6369 25.0983 97.2849 24.8903C96.9409 24.6823 96.6689 24.3903 96.4689 24.0143C96.2769 23.6383 96.1809 23.2103 96.1809 22.7303C96.1809 22.2583 96.2769 21.8383 96.4689 21.4703C96.6689 21.0943 96.9409 20.8023 97.2849 20.5943C97.6369 20.3863 98.0329 20.2823 98.4729 20.2823ZM98.4729 21.2543C98.1129 21.2543 97.8129 21.3943 97.5729 21.6743C97.3409 21.9463 97.2249 22.2983 97.2249 22.7303C97.2249 23.1783 97.3409 23.5383 97.5729 23.8103C97.8049 24.0743 98.1049 24.2063 98.4729 24.2063C98.8409 24.2063 99.1409 24.0743 99.3729 23.8103C99.6129 23.5383 99.7329 23.1783 99.7329 22.7303C99.7329 22.2983 99.6129 21.9463 99.3729 21.6743C99.1409 21.3943 98.8409 21.2543 98.4729 21.2543ZM104.917 16.9703V27.5903H103.801V22.3463H102.649V27.0863H101.533V17.1983H102.649V21.3863H103.801V16.9703H104.917ZM108.805 17.1383V18.0143H113.557V17.1383H114.733V20.6543H111.757V21.5543H115.969V22.4903H106.381V21.5543H110.569V20.6543H107.641V17.1383H108.805ZM108.805 19.7663H113.557V18.9023H108.805V19.7663ZM114.769 23.2463V25.7303H108.697V26.5943H115.069V27.4943H107.545V24.9023H113.605V24.1223H107.509V23.2463H114.769ZM125.246 16.9703V21.2543H126.758V22.2383H125.246V27.5903H124.07V16.9703H125.246ZM120.026 18.0863C120.026 19.5903 119.858 20.9223 119.521 22.0823C119.186 23.2343 118.574 24.2943 117.686 25.2623L116.762 24.5903C117.482 23.8223 118.006 22.9903 118.334 22.0943C118.67 21.1903 118.862 20.1743 118.91 19.0463H117.146V18.0863H120.026ZM122.942 18.0863C122.942 19.7103 122.786 21.1663 122.474 22.4543C122.17 23.7343 121.582 24.9023 120.71 25.9583L119.774 25.2983C120.494 24.4343 121.006 23.4943 121.31 22.4783C121.614 21.4543 121.786 20.3103 121.826 19.0463H120.374V18.0863H122.942ZM129.626 25.3103V22.5383C129.194 22.2983 128.858 21.9903 128.618 21.6143C128.378 21.2383 128.258 20.8183 128.258 20.3543C128.258 19.8023 128.426 19.3143 128.762 18.8903C129.098 18.4663 129.558 18.1423 130.142 17.9183C130.734 17.6863 131.406 17.5703 132.158 17.5703C132.91 17.5703 133.582 17.6863 134.174 17.9183C134.766 18.1423 135.226 18.4663 135.554 18.8903C135.89 19.3143 136.058 19.8023 136.058 20.3543C136.058 20.8183 135.938 21.2383 135.698 21.6143C135.466 21.9823 135.134 22.2903 134.702 22.5383V25.3103H136.982V26.2703H127.358V25.3103H129.626ZM132.158 18.5063C131.342 18.5063 130.678 18.6743 130.166 19.0103C129.662 19.3383 129.41 19.7863 129.41 20.3543C129.41 20.9223 129.662 21.3743 130.166 21.7103C130.678 22.0383 131.342 22.2023 132.158 22.2023C132.974 22.2023 133.634 22.0343 134.138 21.6983C134.65 21.3623 134.906 20.9143 134.906 20.3543C134.906 19.7943 134.65 19.3463 134.138 19.0103C133.634 18.6743 132.974 18.5063 132.158 18.5063ZM133.526 25.3103V22.9823C133.11 23.0783 132.654 23.1263 132.158 23.1263C131.678 23.1263 131.226 23.0783 130.802 22.9823V25.3103H133.526ZM140.51 26.8943C140.302 26.8943 140.13 26.8263 139.994 26.6903C139.866 26.5623 139.802 26.3943 139.802 26.1863C139.802 25.9863 139.866 25.8223 139.994 25.6943C140.13 25.5663 140.302 25.5023 140.51 25.5023C140.718 25.5023 140.882 25.5663 141.002 25.6943C141.13 25.8143 141.194 25.9783 141.194 26.1863C141.194 26.3943 141.13 26.5623 141.002 26.6903C140.874 26.8263 140.71 26.8943 140.51 26.8943ZM139.922 24.4103C139.914 23.8023 140.002 23.3023 140.186 22.9103C140.378 22.5103 140.694 22.1463 141.134 21.8183C141.582 21.4903 141.882 21.2023 142.034 20.9543C142.194 20.7063 142.274 20.4303 142.274 20.1263C142.274 19.7103 142.126 19.3743 141.83 19.1183C141.542 18.8543 141.166 18.7223 140.702 18.7223C140.35 18.7223 140.018 18.8383 139.706 19.0703C139.402 19.2943 139.178 19.5863 139.034 19.9463L137.954 19.5503C138.17 18.9663 138.534 18.4903 139.046 18.1223C139.558 17.7543 140.11 17.5703 140.702 17.5703C141.238 17.5703 141.71 17.6783 142.118 17.8943C142.534 18.1023 142.854 18.4023 143.078 18.7943C143.31 19.1783 143.426 19.6223 143.426 20.1263C143.426 20.5823 143.302 21.0263 143.054 21.4583C142.806 21.8903 142.398 22.3223 141.83 22.7543C141.518 22.9783 141.31 23.1983 141.206 23.4143C141.11 23.6223 141.066 23.9503 141.074 24.3983L139.922 24.4103Z" fill="#343434"/>
<defs>
<filter id="filter0_f_1114_2042" x="36.2672" y="60.9302" width="90.9155" height="84.6357" filterUnits="userSpaceOnUse" color-interpolation-filters="sRGB">
<feFlood flood-opacity="0" result="BackgroundImageFix"/>
<feBlend mode="normal" in="SourceGraphic" in2="BackgroundImageFix" result="shape"/>
<feGaussianBlur stdDeviation="3.5" result="effect1_foregroundBlur_1114_2042"/>
</filter>
<filter id="filter1_d_1114_2042" x="42.3837" y="60.4302" width="78.4887" height="79.6357" filterUnits="userSpaceOnUse" color-interpolation-filters="sRGB">
<feFlood flood-opacity="0" result="BackgroundImageFix"/>
<feColorMatrix in="SourceAlpha" type="matrix" values="0 0 0 0 0 0 0 0 0 0 0 0 0 0 0 0 0 0 127 0" result="hardAlpha"/>
<feOffset dy="-3"/>
<feGaussianBlur stdDeviation="2.25"/>
<feComposite in2="hardAlpha" operator="out"/>
<feColorMatrix type="matrix" values="0 0 0 0 0 0 0 0 0 0 0 0 0 0 0 0 0 0 0.25 0"/>
<feBlend mode="normal" in2="BackgroundImageFix" result="effect1_dropShadow_1114_2042"/>
<feBlend mode="normal" in="SourceGraphic" in2="effect1_dropShadow_1114_2042" result="shape"/>
</filter>
<filter id="filter2_d_1114_2042" x="43.7436" y="61.7966" width="76.0281" height="75.5576" filterUnits="userSpaceOnUse" color-interpolation-filters="sRGB">
<feFlood flood-opacity="0" result="BackgroundImageFix"/>
<feColorMatrix in="SourceAlpha" type="matrix" values="0 0 0 0 0 0 0 0 0 0 0 0 0 0 0 0 0 0 127 0" result="hardAlpha"/>
<feOffset dy="-3"/>
<feGaussianBlur stdDeviation="2.25"/>
<feComposite in2="hardAlpha" operator="out"/>
<feColorMatrix type="matrix" values="0 0 0 0 0 0 0 0 0 0 0 0 0 0 0 0 0 0 0.25 0"/>
<feBlend mode="normal" in2="BackgroundImageFix" result="effect1_dropShadow_1114_2042"/>
<feBlend mode="normal" in="SourceGraphic" in2="effect1_dropShadow_1114_2042" result="shape"/>
</filter>
<linearGradient id="paint0_linear_1114_2042" x1="52.5803" y1="81.1015" x2="57.5528" y2="69.4219" gradientUnits="userSpaceOnUse">
<stop stop-color="#3DDCFF"/>
<stop offset="1" stop-color="#61FFB0"/>
</linearGradient>
<linearGradient id="paint1_linear_1114_2042" x1="8.4905" y1="11.8251" x2="13.463" y2="0.145468" gradientUnits="userSpaceOnUse">
<stop stop-color="#3DDCFF"/>
<stop offset="1" stop-color="#61FFB0"/>
</linearGradient>
<radialGradient id="paint2_radial_1114_2042" cx="0" cy="0" r="1" gradientUnits="userSpaceOnUse" gradientTransform="translate(82.0367 119.59) rotate(67.5369) scale(45.9773 64.9917)">
<stop stop-color="#25FBFF"/>
<stop offset="0.303481" stop-color="#95EEFC"/>
<stop offset="0.591346" stop-color="#FFE2F8"/>
<stop offset="1" stop-color="#84FFC1"/>
</radialGradient>
<linearGradient id="paint3_linear_1114_2042" x1="8.10719" y1="10.5615" x2="12.3425" y2="-0.0742126" gradientUnits="userSpaceOnUse">
<stop stop-color="#3DDCFF"/>
<stop offset="1" stop-color="#61FFB0"/>
</linearGradient>
<linearGradient id="paint4_linear_1114_2042" x1="8.10719" y1="10.5615" x2="12.3425" y2="-0.0742126" gradientUnits="userSpaceOnUse">
<stop stop-color="#3DDCFF"/>
<stop offset="1" stop-color="#61FFB0"/>
</linearGradient>
<radialGradient id="paint5_radial_1114_2042" cx="0" cy="0" r="1" gradientUnits="userSpaceOnUse" gradientTransform="translate(82.1515 119.108) rotate(67.5366) scale(44.3003 62.6218)">
<stop stop-color="#25FBFF"/>
<stop offset="0.303481" stop-color="#95EEFC"/>
<stop offset="0.591346" stop-color="#FFE2F8"/>
<stop offset="1" stop-color="#84FFC1"/>
</radialGradient>
</defs>
</svg>
