<svg width="32" height="34" viewBox="0 0 32 34" fill="none" xmlns="http://www.w3.org/2000/svg">
<g filter="url(#filter0_f_722_1287)">
<ellipse cx="2.9345" cy="2.37854" rx="2.9345" ry="2.37854" transform="matrix(0.942495 0.334221 -0.338273 0.941048 5.67322 7.78809)" fill="url(#paint0_linear_722_1287)" stroke="#FFFFF6" stroke-width="2"/>
<ellipse cx="2.9345" cy="2.37854" rx="2.9345" ry="2.37854" transform="matrix(-0.942495 0.334221 0.338273 0.941048 26.5427 7.78809)" fill="url(#paint1_linear_722_1287)" stroke="#FFFFF6" stroke-width="2"/>
<ellipse cx="2.41568" cy="1.75252" rx="2.41568" ry="1.75252" transform="matrix(0.942495 0.334221 -0.338273 0.941048 5.90198 8.82324)" fill="#17B4C8"/>
<g filter="url(#filter1_d_722_1287)">
<path d="M16.3263 8.52612C21.9971 8.52637 26.1105 12.8223 26.1105 18.1218C26.1105 19.6793 25.5761 21.1484 24.7326 22.449C25.8923 23.1757 26.5314 24.3486 26.2365 25.4421C25.847 26.8859 23.9778 27.6434 22.0617 27.1335C21.9961 27.1161 21.9323 27.0939 21.8683 27.074C21.6759 28.2713 20.4902 29.1941 19.0509 29.1941C17.9829 29.194 17.0532 28.6855 16.5656 27.9343C16.0566 28.6853 15.0871 29.1941 13.9728 29.1941C12.3311 29.1941 11.0002 28.092 11.0002 26.7332C11.0002 26.6667 11.0037 26.601 11.0099 26.5359C10.7273 26.6793 10.4216 26.8005 10.0949 26.8875C8.17874 27.3973 6.30958 26.6398 5.92008 25.196C5.60449 24.0255 6.35826 22.7631 7.67594 22.0554C6.97441 20.8547 6.54118 19.5241 6.54117 18.1218C6.54117 12.8222 10.6553 8.52612 16.3263 8.52612Z" fill="url(#paint2_radial_722_1287)"/>
<path d="M16.3263 8.52612L16.3264 7.52612H16.3263V8.52612ZM26.1105 18.1218L27.1105 18.1218V18.1218H26.1105ZM24.7326 22.449L23.8936 21.9048C23.7478 22.1296 23.6983 22.4035 23.7562 22.6651C23.8141 22.9267 23.9746 23.1541 24.2016 23.2964L24.7326 22.449ZM26.2365 25.4421L27.202 25.7026L27.202 25.7025L26.2365 25.4421ZM22.0617 27.1335L21.8045 28.0999L21.8045 28.0999L22.0617 27.1335ZM21.8683 27.074L22.1657 26.1192C21.8888 26.033 21.5881 26.0712 21.3416 26.224C21.0951 26.3767 20.927 26.629 20.881 26.9153L21.8683 27.074ZM19.0509 29.1941L19.0509 30.1941H19.0509V29.1941ZM16.5656 27.9343L17.4043 27.3898C17.2218 27.1087 16.9106 26.9377 16.5755 26.9344C16.2404 26.9311 15.9258 27.0958 15.7378 27.3733L16.5656 27.9343ZM13.9728 29.1941L13.9728 30.1941H13.9728V29.1941ZM11.0002 26.7332L10.0002 26.733V26.7332H11.0002ZM11.0099 26.5359L12.0054 26.6314C12.0402 26.2684 11.8746 25.9151 11.5733 25.7097C11.272 25.5042 10.8827 25.4791 10.5574 25.6441L11.0099 26.5359ZM10.0949 26.8875L10.352 27.8538L10.3521 27.8538L10.0949 26.8875ZM5.92008 25.196L4.95456 25.4564L4.9546 25.4565L5.92008 25.196ZM7.67594 22.0554L8.14909 22.9364C8.38823 22.808 8.56488 22.5878 8.63848 22.3266C8.71208 22.0653 8.67631 21.7853 8.53938 21.551L7.67594 22.0554ZM6.54117 18.1218H5.54117V18.1218L6.54117 18.1218ZM16.3263 8.52612L16.3263 9.52612C21.4453 9.52634 25.1105 13.375 25.1105 18.1218H26.1105H27.1105C27.1105 12.2696 22.549 7.52639 16.3264 7.52612L16.3263 8.52612ZM26.1105 18.1218L25.1105 18.1218C25.1105 19.4454 24.6567 20.7282 23.8936 21.9048L24.7326 22.449L25.5716 22.9931C26.4955 21.5686 27.1105 19.9133 27.1105 18.1218L26.1105 18.1218ZM24.7326 22.449L24.2016 23.2964C25.1406 23.8847 25.4107 24.6637 25.271 25.1818L26.2365 25.4421L27.202 25.7025C27.6521 24.0334 26.6441 22.4667 25.2636 21.6016L24.7326 22.449ZM26.2365 25.4421L25.271 25.1817C25.1759 25.5344 24.8825 25.8763 24.3461 26.0937C23.8094 26.3111 23.0867 26.3715 22.3188 26.1672L22.0617 27.1335L21.8045 28.0999C22.9528 28.4055 24.1228 28.3421 25.0971 27.9473C26.0717 27.5524 26.9076 26.7937 27.202 25.7026L26.2365 25.4421ZM22.0617 27.1335L22.3189 26.1672C22.2792 26.1566 22.2723 26.1524 22.1657 26.1192L21.8683 27.074L21.5709 28.0287C21.5922 28.0354 21.713 28.0756 21.8045 28.0999L22.0617 27.1335ZM21.8683 27.074L20.881 26.9153C20.7815 27.5346 20.1 28.1941 19.0509 28.1941V29.1941V30.1941C20.8804 30.1941 22.5704 29.0081 22.8557 27.2326L21.8683 27.074ZM19.0509 29.1941L19.051 28.1941C18.2912 28.194 17.6916 27.8323 17.4043 27.3898L16.5656 27.9343L15.7268 28.4789C16.4149 29.5387 17.6747 30.194 19.0509 30.1941L19.0509 29.1941ZM16.5656 27.9343L15.7378 27.3733C15.437 27.8171 14.7969 28.1941 13.9728 28.1941V29.1941V30.1941C15.3774 30.1941 16.6763 29.5534 17.3934 28.4954L16.5656 27.9343ZM13.9728 29.1941L13.9728 28.1941C12.6983 28.1941 12.0002 27.3713 12.0002 26.7332H11.0002H10.0002C10.0002 28.8127 11.9638 30.1941 13.9728 30.1941L13.9728 29.1941ZM11.0002 26.7332L12.0002 26.7333C12.0002 26.702 12.0018 26.6683 12.0054 26.6314L11.0099 26.5359L10.0145 26.4404C10.0055 26.5337 10.0002 26.6315 10.0002 26.733L11.0002 26.7332ZM11.0099 26.5359L10.5574 25.6441C10.3315 25.7588 10.091 25.8537 9.8377 25.9211L10.0949 26.8875L10.3521 27.8538C10.7522 27.7473 11.1232 27.5998 11.4624 27.4277L11.0099 26.5359ZM10.0949 26.8875L9.83774 25.9211C9.0699 26.1254 8.34718 26.065 7.81052 25.8476C7.27409 25.6302 6.9807 25.2882 6.88556 24.9356L5.92008 25.196L4.9546 25.4565C5.24896 26.5476 6.0849 27.3063 7.05946 27.7012C8.03379 28.096 9.20372 28.1594 10.352 27.8538L10.0949 26.8875ZM5.92008 25.196L6.8856 24.9357C6.73652 24.3828 7.06343 23.5195 8.14909 22.9364L7.67594 22.0554L7.20279 21.1744C5.65308 22.0068 4.47245 23.6683 4.95456 25.4564L5.92008 25.196ZM7.67594 22.0554L8.53938 21.551C7.90897 20.472 7.54118 19.3137 7.54117 18.1218L6.54117 18.1218L5.54117 18.1218C5.54118 19.7344 6.03985 21.2374 6.81251 22.5599L7.67594 22.0554ZM6.54117 18.1218H7.54117C7.54117 13.375 11.2071 9.52612 16.3263 9.52612V8.52612V7.52612C10.1035 7.52612 5.54117 12.2694 5.54117 18.1218H6.54117Z" fill="#FFFFF6"/>
</g>
<path d="M17.8309 20.5051C17.942 20.2526 18.2374 20.1374 18.4901 20.2483C18.7427 20.3592 18.8576 20.6547 18.7469 20.9074C18.6274 21.1796 18.3478 21.5295 17.8778 21.634C17.4906 21.7199 17.0783 21.6157 16.6551 21.3332C16.2324 21.6151 15.8211 21.7198 15.4344 21.634C14.9642 21.5296 14.6848 21.1796 14.5653 20.9074C14.4545 20.6547 14.5694 20.3592 14.8221 20.2483C15.0748 20.1375 15.3702 20.2526 15.4813 20.5051C15.513 20.5774 15.5787 20.6413 15.6512 20.6574C15.7079 20.6699 15.9208 20.6862 16.327 20.3303C16.3326 20.3254 16.3388 20.3212 16.3446 20.3166C16.3545 20.3087 16.3654 20.3022 16.3758 20.2951C16.3922 20.2839 16.4083 20.2729 16.4256 20.2639C16.4374 20.2577 16.4495 20.2524 16.4617 20.2473C16.4801 20.2395 16.4985 20.2322 16.5174 20.2268C16.5302 20.2231 16.5435 20.2216 16.5565 20.219C16.5734 20.2155 16.5901 20.2118 16.6073 20.2102C16.6235 20.2086 16.6397 20.2092 16.6561 20.2092C16.6721 20.2092 16.688 20.2086 16.7039 20.2102C16.7211 20.2118 16.7378 20.2155 16.7547 20.219C16.7674 20.2215 16.7803 20.2232 16.7928 20.2268C16.8125 20.2324 16.8314 20.2402 16.8504 20.2483C16.862 20.2531 16.8734 20.2581 16.8846 20.2639C16.9014 20.2726 16.9175 20.2824 16.9334 20.2932C16.945 20.301 16.9566 20.3087 16.9676 20.3176C16.9732 20.3221 16.9797 20.3255 16.9852 20.3303C17.3915 20.6864 17.6044 20.6699 17.661 20.6574C17.7334 20.6413 17.7992 20.5773 17.8309 20.5051Z" fill="#002427"/>
<path d="M17.8309 20.5051L17.3732 20.3037L17.373 20.3041L17.8309 20.5051ZM18.4901 20.2483L18.6911 19.7905L18.691 19.7904L18.4901 20.2483ZM18.7469 20.9074L19.2047 21.1084L19.2049 21.1081L18.7469 20.9074ZM17.8778 21.634L17.9861 22.1221L17.9862 22.1221L17.8778 21.634ZM16.6551 21.3332L16.9327 20.9174L16.6553 20.7321L16.3777 20.9172L16.6551 21.3332ZM15.4344 21.634L15.326 22.1221L15.3261 22.1221L15.4344 21.634ZM14.5653 20.9074L14.1073 21.1082L14.1074 21.1084L14.5653 20.9074ZM14.8221 20.2483L14.6214 19.7903L14.621 19.7905L14.8221 20.2483ZM15.4813 20.5051L15.9391 20.3041L15.939 20.3038L15.4813 20.5051ZM15.6512 20.6574L15.5428 21.1455L15.5435 21.1457L15.6512 20.6574ZM16.327 20.3303L15.9979 19.9539L15.9974 19.9542L16.327 20.3303ZM16.3446 20.3166L16.6569 20.7071L16.657 20.707L16.3446 20.3166ZM16.3758 20.2951L16.6575 20.7082L16.6578 20.708L16.3758 20.2951ZM16.4256 20.2639L16.1949 19.8203L16.1944 19.8205L16.4256 20.2639ZM16.4617 20.2473L16.6563 20.7079L16.6566 20.7078L16.4617 20.2473ZM16.5174 20.2268L16.6558 20.7072L16.6558 20.7072L16.5174 20.2268ZM16.5565 20.219L16.457 19.7289L16.4567 19.729L16.5565 20.219ZM16.6073 20.2102L16.6556 20.7078L16.6561 20.7078L16.6073 20.2102ZM16.6561 20.2092L16.6565 19.7092L16.6559 19.7092L16.6561 20.2092ZM16.7039 20.2102L16.6558 20.7078L16.6563 20.7079L16.7039 20.2102ZM16.7547 20.219L16.8538 19.7289L16.8535 19.7288L16.7547 20.219ZM16.7928 20.2268L16.656 20.7077L16.656 20.7077L16.7928 20.2268ZM16.8504 20.2483L16.655 20.7085L16.6553 20.7086L16.8504 20.2483ZM16.8846 20.2639L17.1144 19.8198L17.114 19.8196L16.8846 20.2639ZM16.9334 20.2932L16.6542 20.708L16.6545 20.7082L16.9334 20.2932ZM16.9676 20.3176L16.6546 20.7075L16.6547 20.7076L16.9676 20.3176ZM16.9852 20.3303L17.3147 19.9542L17.3144 19.954L16.9852 20.3303ZM17.661 20.6574L17.7689 21.1457L17.7698 21.1454L17.661 20.6574ZM17.8309 20.5051L18.2885 20.7065L18.2892 20.7061L18.4901 20.2483L18.691 19.7904C18.1854 19.5686 17.5954 19.7988 17.3732 20.3037L17.8309 20.5051ZM18.4901 20.2483L18.289 20.706L18.2889 20.7068L18.7469 20.9074L19.2049 21.1081C19.4261 20.6031 19.197 20.0127 18.6911 19.7905L18.4901 20.2483ZM18.7469 20.9074L18.2891 20.7064C18.2129 20.88 18.0394 21.0859 17.7693 21.1459L17.8778 21.634L17.9862 22.1221C18.6562 21.9732 19.042 21.4791 19.2047 21.1084L18.7469 20.9074ZM17.8778 21.634L17.7695 21.1459C17.5534 21.1938 17.2796 21.1489 16.9327 20.9174L16.6551 21.3332L16.3775 21.7491C16.877 22.0826 17.4278 22.246 17.9861 22.1221L17.8778 21.634ZM16.6551 21.3332L16.3777 20.9172C16.0306 21.1487 15.7578 21.1936 15.5427 21.1459L15.4344 21.634L15.3261 22.1221C15.8845 22.246 16.4341 22.0815 16.9325 21.7492L16.6551 21.3332ZM15.4344 21.634L15.5428 21.1459C15.2727 21.0859 15.0993 20.8801 15.0231 20.7064L14.5653 20.9074L14.1074 21.1084C14.2702 21.4791 14.6558 21.9732 15.326 22.1221L15.4344 21.634ZM14.5653 20.9074L15.0232 20.7067L15.0232 20.706L14.8221 20.2483L14.621 19.7905C14.1152 20.0127 13.8859 20.6031 14.1073 21.1082L14.5653 20.9074ZM14.8221 20.2483L15.0228 20.7062L15.0236 20.7064L15.4813 20.5051L15.939 20.3038C15.7168 19.7985 15.1266 19.5689 14.6214 19.7903L14.8221 20.2483ZM15.4813 20.5051L15.0234 20.706C15.1019 20.8847 15.2768 21.0865 15.5428 21.1455L15.6512 20.6574L15.7596 20.1693C15.8268 20.1843 15.8686 20.2152 15.8891 20.234C15.9104 20.2536 15.927 20.2765 15.9391 20.3041L15.4813 20.5051ZM15.6512 20.6574L15.5435 21.1457C15.8123 21.205 16.1826 21.1216 16.6565 20.7063L16.327 20.3303L15.9974 19.9542C15.8279 20.1029 15.7275 20.148 15.6929 20.1601C15.6651 20.1698 15.6921 20.1544 15.7589 20.1692L15.6512 20.6574ZM16.327 20.3303L16.6561 20.7067C16.6496 20.7124 16.6442 20.7167 16.6408 20.7194C16.6376 20.7219 16.6354 20.7236 16.6356 20.7234C16.6358 20.7233 16.6359 20.7232 16.637 20.7224C16.6378 20.7218 16.6393 20.7207 16.641 20.7194C16.6443 20.7169 16.6501 20.7125 16.6569 20.7071L16.3446 20.3166L16.0322 19.9262C16.0361 19.923 16.039 19.9209 16.0394 19.9206C16.0396 19.9205 16.0396 19.9204 16.0389 19.9209C16.0385 19.9213 16.0371 19.9223 16.0358 19.9233C16.0311 19.9268 16.0156 19.9384 15.9979 19.9539L16.327 20.3303ZM16.3446 20.3166L16.657 20.707C16.6504 20.7123 16.645 20.7162 16.6415 20.7187C16.6398 20.7199 16.6384 20.7209 16.6375 20.7215C16.637 20.7218 16.6367 20.722 16.6365 20.7222C16.6362 20.7223 16.6361 20.7224 16.6361 20.7224C16.6361 20.7224 16.6362 20.7224 16.6364 20.7222C16.6366 20.7221 16.6369 20.7219 16.6374 20.7216C16.6379 20.7213 16.6383 20.7209 16.639 20.7205C16.6397 20.7201 16.6405 20.7195 16.6414 20.719C16.6447 20.7168 16.6507 20.7129 16.6575 20.7082L16.3758 20.2951L16.0941 19.882C16.0957 19.8809 16.0965 19.8805 16.0945 19.8818C16.0937 19.8823 16.0883 19.8858 16.0839 19.8887C16.0743 19.8951 16.0545 19.9083 16.0322 19.9262L16.3446 20.3166ZM16.3758 20.2951L16.6578 20.708C16.6622 20.705 16.6648 20.7032 16.6672 20.7016C16.6683 20.7009 16.669 20.7004 16.6696 20.7C16.6701 20.6997 16.6703 20.6995 16.6703 20.6995C16.6703 20.6995 16.67 20.6997 16.6695 20.7001C16.6689 20.7004 16.6681 20.7009 16.667 20.7016C16.6647 20.7029 16.6613 20.7049 16.6568 20.7072L16.4256 20.2639L16.1944 19.8205C16.1462 19.8457 16.1054 19.8743 16.0939 19.8822L16.3758 20.2951ZM16.4256 20.2639L16.6564 20.7074L16.6563 20.7079L16.4617 20.2473L16.2672 19.7867C16.2524 19.7929 16.2252 19.8045 16.1949 19.8203L16.4256 20.2639ZM16.4617 20.2473L16.6566 20.7078L16.6558 20.7072L16.5174 20.2268L16.379 19.7463C16.3307 19.7602 16.2903 19.7769 16.2669 19.7868L16.4617 20.2473ZM16.5174 20.2268L16.6558 20.7072C16.6456 20.7102 16.6374 20.7121 16.6323 20.7132C16.6296 20.7137 16.6276 20.7142 16.6263 20.7144C16.6256 20.7145 16.6251 20.7146 16.6248 20.7147C16.6246 20.7147 16.6245 20.7147 16.6244 20.7148C16.6244 20.7148 16.6243 20.7148 16.6243 20.7148C16.6243 20.7148 16.6243 20.7148 16.6243 20.7148C16.6243 20.7148 16.6243 20.7148 16.6243 20.7148C16.6243 20.7148 16.6243 20.7148 16.6243 20.7148C16.6243 20.7148 16.6244 20.7148 16.6244 20.7148C16.6245 20.7147 16.6246 20.7147 16.6248 20.7147C16.6251 20.7146 16.6256 20.7145 16.6263 20.7144C16.6273 20.7143 16.6299 20.7138 16.6323 20.7134C16.6372 20.7125 16.646 20.711 16.6562 20.7089L16.5565 20.219L16.4567 19.729C16.4605 19.7282 16.4627 19.7279 16.4611 19.7282C16.4602 19.7283 16.4595 19.7284 16.4573 19.7288C16.4554 19.7291 16.4526 19.7296 16.4494 19.7302C16.438 19.7322 16.411 19.7371 16.379 19.7463L16.5174 20.2268ZM16.5565 20.219L16.6559 20.709C16.6586 20.7084 16.6613 20.7079 16.6633 20.7075C16.6655 20.707 16.667 20.7067 16.6685 20.7064C16.6699 20.7061 16.6709 20.7059 16.6717 20.7058C16.672 20.7057 16.6723 20.7056 16.6724 20.7056C16.6726 20.7056 16.6727 20.7056 16.6727 20.7056C16.6727 20.7056 16.6723 20.7056 16.6716 20.7058C16.6709 20.7059 16.6698 20.7061 16.6683 20.7063C16.6655 20.7067 16.6612 20.7073 16.6556 20.7078L16.6073 20.2102L16.5589 19.7125C16.5094 19.7173 16.461 19.7281 16.457 19.7289L16.5565 20.219ZM16.6073 20.2102L16.6561 20.7078C16.649 20.7085 16.6434 20.7088 16.6398 20.7089C16.638 20.709 16.6366 20.709 16.6357 20.7091C16.6353 20.7091 16.6349 20.7091 16.6347 20.7091C16.6346 20.7091 16.6345 20.7091 16.6344 20.7091C16.6344 20.7091 16.6343 20.7091 16.6343 20.7091C16.6343 20.7091 16.6344 20.7091 16.6344 20.7091C16.6345 20.7091 16.6346 20.7091 16.6347 20.7091C16.6349 20.7091 16.6352 20.7091 16.6357 20.7091C16.6367 20.7091 16.6379 20.7091 16.6398 20.7091C16.6429 20.7091 16.6496 20.7092 16.6563 20.7092L16.6561 20.2092L16.6559 19.7092C16.6544 19.7092 16.6529 19.7092 16.6479 19.7091C16.6438 19.7091 16.6367 19.7091 16.6289 19.7091C16.6135 19.7092 16.5882 19.7096 16.5584 19.7126L16.6073 20.2102ZM16.6561 20.2092L16.6556 20.7092C16.6621 20.7092 16.6686 20.7091 16.6716 20.7091C16.6735 20.7091 16.6746 20.7091 16.6756 20.7091C16.676 20.7091 16.6764 20.7091 16.6766 20.7091C16.6767 20.7091 16.6768 20.7091 16.6768 20.7091C16.6769 20.7091 16.6769 20.7091 16.6769 20.7091C16.6769 20.7091 16.6769 20.7091 16.6768 20.7091C16.6768 20.7091 16.6767 20.7091 16.6766 20.7091C16.6764 20.7091 16.676 20.7091 16.6756 20.7091C16.6747 20.7091 16.6733 20.709 16.6716 20.709C16.6681 20.7088 16.6627 20.7085 16.6558 20.7078L16.7039 20.2102L16.7521 19.7125C16.723 19.7097 16.6983 19.7092 16.6832 19.7091C16.6755 19.7091 16.6686 19.7091 16.6645 19.7091C16.6595 19.7092 16.658 19.7092 16.6565 19.7092L16.6561 20.2092ZM16.7039 20.2102L16.6563 20.7079C16.6504 20.7073 16.6457 20.7067 16.6428 20.7063C16.6412 20.706 16.6401 20.7058 16.6393 20.7057C16.6389 20.7056 16.6386 20.7056 16.6385 20.7056C16.6383 20.7055 16.6382 20.7055 16.6381 20.7055C16.6381 20.7055 16.6382 20.7055 16.6384 20.7056C16.6386 20.7056 16.6389 20.7056 16.6392 20.7057C16.64 20.7059 16.6411 20.7061 16.6426 20.7064C16.6442 20.7067 16.6458 20.707 16.6482 20.7075C16.6503 20.708 16.6531 20.7085 16.656 20.7091L16.7547 20.219L16.8535 19.7288C16.8519 19.7285 16.8015 19.7172 16.7515 19.7124L16.7039 20.2102ZM16.7547 20.219L16.6557 20.709C16.6641 20.7108 16.6715 20.7121 16.6756 20.7128C16.6767 20.713 16.6777 20.7132 16.6785 20.7134C16.6794 20.7135 16.68 20.7136 16.6806 20.7137C16.6811 20.7138 16.6815 20.7139 16.6818 20.714C16.682 20.714 16.6821 20.714 16.6821 20.714C16.6822 20.714 16.6822 20.714 16.6822 20.714C16.6822 20.714 16.6822 20.714 16.6821 20.714C16.682 20.714 16.6819 20.714 16.6818 20.7139C16.6815 20.7139 16.6811 20.7138 16.6805 20.7137C16.6794 20.7135 16.6777 20.7131 16.6756 20.7126C16.6712 20.7117 16.6644 20.7101 16.656 20.7077L16.7928 20.2268L16.9296 19.7459C16.9011 19.7377 16.877 19.7331 16.8654 19.731C16.8603 19.73 16.8536 19.7288 16.853 19.7287C16.8507 19.7283 16.8516 19.7284 16.8538 19.7289L16.7547 20.219ZM16.7928 20.2268L16.656 20.7077C16.6518 20.7065 16.6486 20.7054 16.6464 20.7047C16.6443 20.704 16.6431 20.7035 16.6431 20.7035C16.6431 20.7035 16.6433 20.7036 16.6438 20.7038C16.6443 20.704 16.645 20.7043 16.646 20.7047C16.6482 20.7056 16.6509 20.7067 16.655 20.7085L16.8504 20.2483L17.0458 19.788C17.0272 19.7801 16.9825 19.7609 16.9296 19.7458L16.7928 20.2268ZM16.8504 20.2483L16.6553 20.7086L16.6552 20.7082L16.8846 20.2639L17.114 19.8196C17.0844 19.8043 17.0577 19.793 17.0455 19.7879L16.8504 20.2483ZM16.8846 20.2639L16.6548 20.7079L16.6542 20.708L16.9334 20.2932L17.2126 19.8784C17.1854 19.8601 17.1525 19.8396 17.1144 19.8198L16.8846 20.2639ZM16.9334 20.2932L16.6545 20.7082C16.6576 20.7102 16.6594 20.7114 16.661 20.7125C16.6617 20.713 16.6622 20.7133 16.6625 20.7136C16.6629 20.7138 16.663 20.7139 16.663 20.7139C16.663 20.7139 16.6622 20.7133 16.6608 20.7123C16.6594 20.7112 16.6572 20.7096 16.6546 20.7075L16.9676 20.3176L17.2806 19.9277C17.2504 19.9034 17.2212 19.8841 17.2123 19.8782L16.9334 20.2932ZM16.9676 20.3176L16.6547 20.7076C16.6685 20.7186 16.6803 20.727 16.6873 20.7318C16.6909 20.7343 16.6939 20.7364 16.6956 20.7375C16.6965 20.7381 16.6973 20.7387 16.6977 20.7389C16.6983 20.7393 16.6983 20.7393 16.6984 20.7394C16.6986 20.7395 16.6974 20.7387 16.6957 20.7375C16.6939 20.7363 16.691 20.7343 16.6875 20.7317C16.6805 20.7267 16.6692 20.7182 16.6559 20.7066L16.9852 20.3303L17.3144 19.954C17.2984 19.94 17.2843 19.9293 17.2744 19.9221C17.2649 19.9152 17.2568 19.9098 17.2545 19.9083C17.2538 19.9078 17.2531 19.9073 17.2529 19.9072C17.2526 19.907 17.2526 19.907 17.2528 19.9071C17.253 19.9073 17.2545 19.9083 17.2566 19.9097C17.2607 19.9125 17.2695 19.9188 17.2805 19.9276L16.9676 20.3176ZM16.9852 20.3303L16.6556 20.7063C17.1297 21.1218 17.5 21.2051 17.7689 21.1456L17.661 20.6574L17.553 20.1692C17.6199 20.1544 17.647 20.1698 17.6193 20.1601C17.5847 20.148 17.4844 20.103 17.3147 19.9542L16.9852 20.3303ZM17.661 20.6574L17.7698 21.1454C18.0351 21.0863 18.2102 20.885 18.2887 20.706L17.8309 20.5051L17.373 20.3041C17.3853 20.2763 17.4019 20.2534 17.4231 20.2339C17.4435 20.2152 17.4851 20.1844 17.5521 20.1694L17.661 20.6574Z" fill="#002427"/>
<path d="M12.239 12.4516C12.618 12.9335 12.2257 13.7785 11.6866 14.1967C11.1475 14.615 10.4033 14.5634 10.0243 14.0815C9.64526 13.5996 9.77503 12.8699 10.3141 12.4516C10.8532 12.0334 11.86 11.9698 12.239 12.4516Z" fill="#FFFFF9" fill-opacity="0.61"/>
<path d="M13.8207 11.3341C13.9626 11.5145 13.8157 11.831 13.6138 11.9876C13.4119 12.1442 13.1332 12.1249 12.9913 11.9444C12.8493 11.764 12.8979 11.4907 13.0998 11.3341C13.3017 11.1774 13.6787 11.1536 13.8207 11.3341Z" fill="#FFFFF9" fill-opacity="0.61"/>
<path d="M22.3958 23.5354C22.3467 23.5354 22.2479 23.576 22.0996 23.6578C22.0249 23.699 21.9513 23.7396 21.8889 23.791C21.8265 23.8423 21.7774 23.9032 21.6526 24.0275" stroke="#00C8A3" stroke-opacity="0.23" stroke-width="2" stroke-linecap="round"/>
<path d="M10.2571 23.5354C10.3061 23.5354 10.405 23.576 10.5532 23.6578C10.6279 23.699 10.7015 23.7396 10.7639 23.791C10.8263 23.8423 10.8754 23.9032 11.0002 24.0275" stroke="#00C8A3" stroke-opacity="0.23" stroke-width="2" stroke-linecap="round"/>
<path d="M15.6385 25.1003C15.7137 25.117 15.8633 25.1351 15.9931 25.1665C16.1405 25.2022 16.2878 25.275 16.4481 25.3568C16.5548 25.4113 16.701 25.2732 16.8498 25.2124C16.9746 25.1615 17.1027 25.1283 17.2324 25.0916C17.3107 25.0816 17.3844 25.0683 17.4622 25.0508C17.5093 25.0433 17.5718 25.0383 17.6363 25.0332" stroke="#00C6E0" stroke-opacity="0.48" stroke-width="2" stroke-linecap="round"/>
<ellipse cx="11.991" cy="19.7214" rx="0.990898" ry="1.35326" fill="#002427"/>
<ellipse cx="21.1572" cy="19.7214" rx="0.990898" ry="1.35326" fill="#002427"/>
</g>
<ellipse cx="3.06301" cy="2.33448" rx="3.06301" ry="2.33448" transform="matrix(0.857618 0.514287 -0.560446 0.828191 5.6167 6.64087)" fill="url(#paint3_linear_722_1287)" stroke="#FFFFF6" stroke-width="0.5"/>
<ellipse cx="3.06301" cy="2.33448" rx="3.06301" ry="2.33448" transform="matrix(-0.857618 0.514287 0.560446 0.828191 26.6821 6.64087)" fill="url(#paint4_linear_722_1287)" stroke="#FFFFF6" stroke-width="0.5"/>
<ellipse cx="2.52147" cy="1.72006" rx="2.52147" ry="1.72006" transform="matrix(0.857618 0.514287 -0.560446 0.828191 5.57568 7.90869)" fill="#17B4C8"/>
<ellipse cx="2.52147" cy="1.72006" rx="2.52147" ry="1.72006" transform="matrix(-0.857618 0.514287 0.560446 0.828191 26.7234 7.90869)" fill="#17B4C8"/>
<g filter="url(#filter2_d_722_1287)">
<path d="M16.7088 28.387C16.6288 28.3926 16.5496 28.3937 16.4715 28.3958C15.9107 29.0266 14.9538 29.4426 13.867 29.4426C12.1643 29.4425 10.7799 28.4225 10.7401 27.1526C10.4454 27.3023 10.1271 27.4286 9.78696 27.5198C7.77029 28.0601 5.80252 27.2586 5.39243 25.7288C5.06 24.4881 5.85367 23.1496 7.24106 22.3997C6.50278 21.1273 6.04575 19.7175 6.04575 18.2317C6.04584 12.616 10.376 8.06372 16.3446 8.06372C22.3132 8.06373 26.6433 12.616 26.6434 18.2317C26.6434 19.8823 26.0801 21.4393 25.1922 22.8176C26.4128 23.5878 27.0857 24.8307 26.7752 25.9895C26.3652 27.5194 24.3974 28.3219 22.3807 27.7815C22.2877 27.7566 22.1972 27.7262 22.1073 27.6965C21.7679 28.7009 20.6028 29.4425 19.2127 29.4426C18.1663 29.4426 17.2452 29.0228 16.7088 28.387Z" fill="url(#paint5_radial_722_1287)"/>
<path d="M16.7088 28.387L16.8999 28.2258C16.8484 28.1647 16.7709 28.132 16.6912 28.1376L16.7088 28.387ZM16.4715 28.3958L16.4651 28.1458C16.3959 28.1476 16.3306 28.178 16.2847 28.2296L16.4715 28.3958ZM13.867 29.4426L13.867 29.6926H13.867V29.4426ZM10.7401 27.1526L10.99 27.1448C10.9873 27.0593 10.9411 26.9811 10.8675 26.9375C10.7939 26.8939 10.7031 26.891 10.6268 26.9297L10.7401 27.1526ZM9.78696 27.5198L9.85166 27.7613L9.85169 27.7612L9.78696 27.5198ZM5.39243 25.7288L5.15094 25.7935L5.15095 25.7935L5.39243 25.7288ZM7.24106 22.3997L7.35993 22.6196C7.41941 22.5874 7.46334 22.5326 7.48168 22.4675C7.50003 22.4024 7.49123 22.3327 7.45729 22.2742L7.24106 22.3997ZM6.04575 18.2317L5.79575 18.2317V18.2317H6.04575ZM16.3446 8.06372V7.81372V8.06372ZM26.6434 18.2317H26.8934V18.2317L26.6434 18.2317ZM25.1922 22.8176L24.9821 22.6822C24.9459 22.7383 24.9337 22.8065 24.9481 22.8717C24.9626 22.9368 25.0024 22.9935 25.0588 23.0291L25.1922 22.8176ZM26.7752 25.9895L27.0167 26.0542L27.0167 26.0542L26.7752 25.9895ZM22.3807 27.7815L22.316 28.023L22.316 28.023L22.3807 27.7815ZM22.1073 27.6965L22.1856 27.4591C22.0551 27.4161 21.9144 27.4864 21.8704 27.6165L22.1073 27.6965ZM19.2127 29.4426V29.6926H19.2128L19.2127 29.4426ZM16.7088 28.387L16.6912 28.1376C16.6184 28.1427 16.5471 28.1437 16.4651 28.1458L16.4715 28.3958L16.478 28.6457C16.552 28.6438 16.6392 28.6425 16.7264 28.6363L16.7088 28.387ZM16.4715 28.3958L16.2847 28.2296C15.7788 28.7986 14.8946 29.1926 13.867 29.1926V29.4426V29.6926C15.013 29.6926 16.0425 29.2545 16.6584 28.5619L16.4715 28.3958ZM13.867 29.4426L13.8671 29.1926C13.0639 29.1926 12.3451 28.9517 11.8279 28.5722C11.3105 28.1926 11.0069 27.6856 10.99 27.1448L10.7401 27.1526L10.4902 27.1604C10.5131 27.8894 10.9216 28.5274 11.5321 28.9753C12.1427 29.4234 12.9674 29.6925 13.867 29.6926L13.867 29.4426ZM10.7401 27.1526L10.6268 26.9297C10.3463 27.0722 10.0442 27.192 9.72222 27.2783L9.78696 27.5198L9.85169 27.7612C10.2099 27.6652 10.5444 27.5324 10.8533 27.3755L10.7401 27.1526ZM9.78696 27.5198L9.72225 27.2783C8.76174 27.5357 7.82188 27.4707 7.08157 27.1691C6.34145 26.8675 5.81431 26.337 5.6339 25.664L5.39243 25.7288L5.15095 25.7935C5.38064 26.6503 6.04243 27.2855 6.89289 27.6321C7.74315 27.9786 8.7955 28.0443 9.85166 27.7613L9.78696 27.5198ZM5.39243 25.7288L5.63391 25.6641C5.34252 24.5766 6.03119 23.3378 7.35993 22.6196L7.24106 22.3997L7.12218 22.1797C5.67615 22.9613 4.77748 24.3997 5.15094 25.7935L5.39243 25.7288ZM7.24106 22.3997L7.45729 22.2742C6.73658 21.0321 6.29575 19.6652 6.29575 18.2317H6.04575H5.79575C5.79575 19.7698 6.26898 21.2225 7.02482 22.5251L7.24106 22.3997ZM6.04575 18.2317L6.29575 18.2317C6.29584 12.7526 10.5155 8.31372 16.3446 8.31372V8.06372V7.81372C10.2364 7.81372 5.79584 12.4794 5.79575 18.2317L6.04575 18.2317ZM16.3446 8.06372L16.3446 8.31372C22.1736 8.31373 26.3933 12.7526 26.3934 18.2317L26.6434 18.2317L26.8934 18.2317C26.8933 12.4794 22.4527 7.81373 16.3446 7.81372V8.06372ZM26.6434 18.2317H26.3934C26.3934 19.8241 25.8501 21.3349 24.9821 22.6822L25.1922 22.8176L25.4024 22.953C26.3102 21.5438 26.8934 19.9404 26.8934 18.2317H26.6434ZM25.1922 22.8176L25.0588 23.0291C26.2239 23.7642 26.806 24.9087 26.5338 25.9248L26.7752 25.9895L27.0167 26.0542C27.3655 24.7526 26.6018 23.4114 25.3256 22.6062L25.1922 22.8176ZM26.7752 25.9895L26.5338 25.9248C26.3534 26.5979 25.8262 27.1286 25.0861 27.4304C24.3458 27.7323 23.4059 27.7974 22.4454 27.54L22.3807 27.7815L22.316 28.023C23.3722 28.306 24.4246 28.2401 25.2749 27.8934C26.1254 27.5466 26.7871 26.9111 27.0167 26.0542L26.7752 25.9895ZM22.3807 27.7815L22.4454 27.54C22.3608 27.5173 22.2778 27.4895 22.1856 27.4591L22.1073 27.6965L22.029 27.934C22.1165 27.9628 22.2146 27.9958 22.316 28.023L22.3807 27.7815ZM22.1073 27.6965L21.8704 27.6165C21.5744 28.4925 20.5269 29.1925 19.2127 29.1926L19.2127 29.4426L19.2128 29.6926C20.6787 29.6925 21.9613 28.9094 22.3441 27.7766L22.1073 27.6965ZM19.2127 29.4426V29.1926C18.2293 29.1926 17.3823 28.7976 16.8999 28.2258L16.7088 28.387L16.5177 28.5482C17.1081 29.2481 18.1033 29.6926 19.2127 29.6926V29.4426Z" fill="#FFFFF6"/>
</g>
<path d="M12.8225 11.9999C13.231 12.5229 12.8082 13.4398 12.2271 13.8937C11.6461 14.3476 10.8439 14.2916 10.4354 13.7687C10.0268 13.2457 10.1667 12.4538 10.7478 11.9999C11.3288 11.546 12.414 11.477 12.8225 11.9999Z" fill="#FFFFF9" fill-opacity="0.67"/>
<path d="M14.5273 10.7874C14.6803 10.9833 14.522 11.3267 14.3044 11.4966C14.0867 11.6666 13.7863 11.6457 13.6333 11.4498C13.4803 11.254 13.5327 10.9574 13.7503 10.7874C13.9679 10.6174 14.3743 10.5916 14.5273 10.7874Z" fill="#FFFFF9" fill-opacity="0.67"/>
<path d="M24.4609 16.0782C24.682 15.9646 24.9896 16.1846 25.1158 16.4302C25.2419 16.6758 25.165 16.967 24.944 17.0805C24.7229 17.1941 24.4414 17.087 24.3152 16.8414C24.1891 16.5958 24.2399 16.1918 24.4609 16.0782Z" fill="#54F6FD" fill-opacity="0.26"/>
<path d="M22.732 23.968C22.6804 23.968 22.5764 24.011 22.4203 24.0977C22.3417 24.1414 22.2643 24.1844 22.1986 24.2388C22.1329 24.2933 22.0812 24.3578 21.9498 24.4895" stroke="#00C8A3" stroke-opacity="0.4" stroke-width="0.5" stroke-linecap="round"/>
<path d="M9.95647 23.968C10.0081 23.968 10.1121 24.011 10.2682 24.0977C10.3468 24.1414 10.4242 24.1844 10.4899 24.2388C10.5556 24.2933 10.6072 24.3578 10.7386 24.4895" stroke="#00C8A3" stroke-opacity="0.4" stroke-width="0.5" stroke-linecap="round"/>
<path d="M15.6924 25.438C15.7714 25.4557 15.9289 25.4748 16.0656 25.5081C16.2207 25.5459 16.3757 25.6231 16.5444 25.7098C16.6567 25.7675 16.8106 25.6211 16.9672 25.5568C17.0985 25.5028 17.2334 25.4676 17.3699 25.4287C17.4523 25.4181 17.5299 25.404 17.6117 25.3855C17.6613 25.3775 17.7271 25.3723 17.7949 25.3669" stroke="#00C6E0" stroke-opacity="0.6" stroke-width="0.5" stroke-linecap="round"/>
<path d="M18.0194 18.5238C18.0746 18.3974 18.2221 18.339 18.3485 18.3939C18.4747 18.4492 18.5332 18.5967 18.4784 18.723C18.3826 18.9429 18.1592 19.2201 17.7929 19.3021C17.4602 19.3763 17.0736 19.2758 16.6444 18.9467C16.2155 19.2755 15.8295 19.3763 15.497 19.3021C15.1305 19.2202 14.9073 18.9429 14.8114 18.723C14.7565 18.5965 14.8149 18.4491 14.9413 18.3939C15.0678 18.3391 15.2153 18.3974 15.2704 18.5238C15.3231 18.6444 15.4391 18.7766 15.6054 18.8139C15.7637 18.8492 16.0485 18.8161 16.4794 18.4359C16.4834 18.4324 16.4879 18.4294 16.4921 18.4262C16.495 18.4239 16.4979 18.4215 16.5009 18.4193C16.5101 18.4128 16.5194 18.4068 16.5292 18.4017C16.5362 18.3981 16.5434 18.3949 16.5507 18.392C16.5585 18.3888 16.5661 18.3855 16.5741 18.3832C16.5808 18.3812 16.5878 18.3807 16.5946 18.3793C16.6179 18.3746 16.6415 18.3724 16.6649 18.3744C16.6748 18.3752 16.6845 18.3773 16.6942 18.3793C16.7004 18.3806 16.7067 18.3815 16.7128 18.3832C16.7218 18.3857 16.7304 18.3894 16.7392 18.393C16.746 18.3958 16.753 18.3983 16.7597 18.4017C16.7695 18.4068 16.7788 18.4128 16.788 18.4193C16.791 18.4215 16.7938 18.4239 16.7968 18.4262C16.8011 18.4295 16.8063 18.4323 16.8105 18.4359C17.2414 18.816 17.5263 18.8492 17.6845 18.8139C17.8506 18.7764 17.9668 18.6444 18.0194 18.5238Z" fill="#002427"/>
<ellipse cx="11.9728" cy="18.0064" rx="0.973375" ry="1.33839" fill="#002427"/>
<ellipse cx="21.0382" cy="18.0064" rx="0.973375" ry="1.33839" fill="#002427"/>
<defs>
<filter id="filter0_f_722_1287" x="0.645728" y="4.42612" width="30.9245" height="28.868" filterUnits="userSpaceOnUse" color-interpolation-filters="sRGB">
<feFlood flood-opacity="0" result="BackgroundImageFix"/>
<feBlend mode="normal" in="SourceGraphic" in2="BackgroundImageFix" result="shape"/>
<feGaussianBlur stdDeviation="1.55" result="effect1_foregroundBlur_722_1287"/>
</filter>
<filter id="filter1_d_722_1287" x="0.345459" y="0.026123" width="31.4651" height="31.668" filterUnits="userSpaceOnUse" color-interpolation-filters="sRGB">
<feFlood flood-opacity="0" result="BackgroundImageFix"/>
<feColorMatrix in="SourceAlpha" type="matrix" values="0 0 0 0 0 0 0 0 0 0 0 0 0 0 0 0 0 0 127 0" result="hardAlpha"/>
<feOffset dy="-3"/>
<feGaussianBlur stdDeviation="2.25"/>
<feComposite in2="hardAlpha" operator="out"/>
<feColorMatrix type="matrix" values="0 0 0 0 0 0 0 0 0 0 0 0 0 0 0 0 0 0 0.25 0"/>
<feBlend mode="normal" in2="BackgroundImageFix" result="effect1_dropShadow_722_1287"/>
<feBlend mode="normal" in="SourceGraphic" in2="effect1_dropShadow_722_1287" result="shape"/>
</filter>
<filter id="filter2_d_722_1287" x="0.566284" y="0.313721" width="31.0349" height="30.8789" filterUnits="userSpaceOnUse" color-interpolation-filters="sRGB">
<feFlood flood-opacity="0" result="BackgroundImageFix"/>
<feColorMatrix in="SourceAlpha" type="matrix" values="0 0 0 0 0 0 0 0 0 0 0 0 0 0 0 0 0 0 127 0" result="hardAlpha"/>
<feOffset dy="-3"/>
<feGaussianBlur stdDeviation="2.25"/>
<feComposite in2="hardAlpha" operator="out"/>
<feColorMatrix type="matrix" values="0 0 0 0 0 0 0 0 0 0 0 0 0 0 0 0 0 0 0.25 0"/>
<feBlend mode="normal" in2="BackgroundImageFix" result="effect1_dropShadow_722_1287"/>
<feBlend mode="normal" in="SourceGraphic" in2="effect1_dropShadow_722_1287" result="shape"/>
</filter>
<linearGradient id="paint0_linear_722_1287" x1="2.57221" y1="3.56364" x2="4.06526" y2="0.0381803" gradientUnits="userSpaceOnUse">
<stop stop-color="#3DDCFF"/>
<stop offset="1" stop-color="#61FFB0"/>
</linearGradient>
<linearGradient id="paint1_linear_722_1287" x1="2.57221" y1="3.56364" x2="4.06526" y2="0.0381803" gradientUnits="userSpaceOnUse">
<stop stop-color="#3DDCFF"/>
<stop offset="1" stop-color="#61FFB0"/>
</linearGradient>
<radialGradient id="paint2_radial_722_1287" cx="0" cy="0" r="1" gradientUnits="userSpaceOnUse" gradientTransform="translate(16.2021 23.7811) rotate(67.3991) scale(13.8588 19.6845)">
<stop stop-color="#25FBFF"/>
<stop offset="0.303481" stop-color="#95EEFC"/>
<stop offset="0.591346" stop-color="#FFE2F8"/>
<stop offset="1" stop-color="#84FFC1"/>
</radialGradient>
<linearGradient id="paint3_linear_722_1287" x1="2.68485" y1="3.49763" x2="4.08747" y2="-0.0245768" gradientUnits="userSpaceOnUse">
<stop stop-color="#3DDCFF"/>
<stop offset="1" stop-color="#61FFB0"/>
</linearGradient>
<linearGradient id="paint4_linear_722_1287" x1="2.68485" y1="3.49763" x2="4.08747" y2="-0.0245768" gradientUnits="userSpaceOnUse">
<stop stop-color="#3DDCFF"/>
<stop offset="1" stop-color="#61FFB0"/>
</linearGradient>
<radialGradient id="paint5_radial_722_1287" cx="0" cy="0" r="1" gradientUnits="userSpaceOnUse" gradientTransform="translate(16.2141 24.2282) rotate(67.5359) scale(14.6705 20.7384)">
<stop stop-color="#25FBFF"/>
<stop offset="0.303481" stop-color="#95EEFC"/>
<stop offset="0.591346" stop-color="#FFE2F8"/>
<stop offset="1" stop-color="#84FFC1"/>
</radialGradient>
</defs>
</svg>
