<svg width="338" height="161" viewBox="0 0 338 161" fill="none" xmlns="http://www.w3.org/2000/svg">
<rect width="338" height="161" rx="8" fill="#1D1D1D"/>
<g opacity="0.68" filter="url(#filter0_f_1468_2261)">
<path d="M27.4135 62.84C28.4268 62.84 29.3282 63 30.1175 63.32C30.9175 63.64 31.5415 64.0933 31.9895 64.68C32.4482 65.256 32.6775 65.928 32.6775 66.696C32.6775 67.3893 32.4908 68.008 32.1175 68.552C31.7548 69.0853 31.2375 69.5227 30.5655 69.864C29.9042 70.1947 29.1415 70.4027 28.2775 70.488V73.128H33.8775V74.552H20.9815V73.128H26.5335V70.488C25.6802 70.4027 24.9175 70.1947 24.2455 69.864C23.5842 69.5227 23.0668 69.08 22.6935 68.536C22.3308 67.992 22.1495 67.3787 22.1495 66.696C22.1495 65.928 22.3735 65.256 22.8215 64.68C23.2802 64.0933 23.9095 63.64 24.7095 63.32C25.5095 63 26.4108 62.84 27.4135 62.84ZM27.4135 64.232C26.3575 64.232 25.5042 64.456 24.8535 64.904C24.2028 65.352 23.8775 65.9493 23.8775 66.696C23.8775 67.4427 24.2028 68.04 24.8535 68.488C25.5042 68.9253 26.3575 69.144 27.4135 69.144C28.4588 69.144 29.3068 68.9253 29.9575 68.488C30.6188 68.04 30.9495 67.4427 30.9495 66.696C30.9495 65.9493 30.6188 65.352 29.9575 64.904C29.3068 64.456 28.4588 64.232 27.4135 64.232ZM38.3419 62.232V65.096H46.3739V66.504H36.6139V62.232H38.3419ZM47.8619 67.608V69.016H34.9659V67.608H47.8619ZM46.2939 70.024V73.64H38.2619V74.776H46.7259V76.12H36.5019V72.376H44.5339V71.368H36.4699V70.024H46.2939ZM61.8143 69.4V70.808H48.9503V69.4H61.8143ZM52.2943 71.88V74.6H60.3743V76.024H50.5503V71.88H52.2943ZM55.3823 62.488C56.4063 62.488 57.3023 62.6053 58.0703 62.84C58.8383 63.0747 59.4303 63.4107 59.8463 63.848C60.2729 64.2853 60.4863 64.7973 60.4863 65.384C60.4863 65.9813 60.2729 66.4987 59.8463 66.936C59.4303 67.3733 58.8383 67.7093 58.0703 67.944C57.3023 68.1787 56.4063 68.296 55.3823 68.296C54.3583 68.296 53.4623 68.1787 52.6943 67.944C51.9263 67.7093 51.3289 67.3733 50.9023 66.936C50.4863 66.4987 50.2783 65.9813 50.2783 65.384C50.2783 64.7973 50.4863 64.2853 50.9023 63.848C51.3289 63.4107 51.9263 63.0747 52.6943 62.84C53.4623 62.6053 54.3583 62.488 55.3823 62.488ZM55.3823 63.912C54.3476 63.912 53.5369 64.04 52.9503 64.296C52.3743 64.552 52.0863 64.9147 52.0863 65.384C52.0863 65.864 52.3743 66.2373 52.9503 66.504C53.5369 66.76 54.3476 66.888 55.3823 66.888C56.4169 66.888 57.2223 66.76 57.7983 66.504C58.3743 66.2373 58.6623 65.864 58.6623 65.384C58.6623 64.904 58.3743 64.5413 57.7983 64.296C57.2223 64.04 56.4169 63.912 55.3823 63.912ZM77.8381 62.568V63.96H70.0141V65.528H77.9821V66.92H73.9341V67.976H79.4861V69.368H66.6221V67.976H72.1741V66.92H68.2701V62.568H77.8381ZM77.8861 70.296V73.784H69.8701V74.824H78.2861V76.168H68.1581V72.536H76.1581V71.608H68.1101V70.296H77.8861ZM91.6945 62.024V67.432H93.8545V68.888H91.6945V76.312H89.9185V62.024H91.6945ZM87.8225 63.4V64.808H82.9425V71.368C84.1372 71.3573 85.1825 71.32 86.0785 71.256C86.9852 71.192 87.8972 71.0747 88.8145 70.904L88.9905 72.376C87.9878 72.5573 86.9852 72.68 85.9825 72.744C84.9905 72.808 83.7798 72.84 82.3505 72.84H81.1825V63.4H87.8225ZM106.367 62.024V76.312H104.607V62.024H106.367ZM102.015 63.304V68.648H97.1509V71.496C98.3669 71.4853 99.4655 71.448 100.447 71.384C101.439 71.3093 102.452 71.1867 103.487 71.016L103.663 72.44C102.532 72.632 101.423 72.7653 100.335 72.84C99.2575 72.904 98.0149 72.936 96.6069 72.936H95.3749V67.24H100.239V64.712H95.3429V63.304H102.015ZM119.919 63.08V64.488H111.887V68.504H120.047V69.912H115.871V73.16H121.471V74.6H108.575V73.16H114.127V69.912H110.127V63.08H119.919ZM137.431 62.84V64.248H129.719V67.192H137.607V68.6H127.927V62.84H137.431ZM139.143 70.168V71.608H133.527V76.28H131.767V71.608H126.247V70.168H139.143ZM153.112 67.736V69.144H140.248V67.736H153.112ZM151.448 62.392V63.8H143.624V65.448H151.592V66.824H141.88V62.392H151.448ZM151.496 70.104V73.704H143.48V74.792H151.896V76.152H141.768V72.456H149.768V71.448H141.72V70.104H151.496ZM161.4 63.528C161.4 64.36 161.341 65.112 161.224 65.784H164.264V62.04H166.024V76.28H164.264V71.064H160.696V69.64H164.264V67.192H160.904C160.061 70.0187 158.099 72.2053 155.016 73.752L154.104 72.376C155.832 71.4907 157.144 70.44 158.04 69.224C158.947 68.008 159.475 66.584 159.624 64.952H154.76V63.528H161.4ZM177.44 73.128V70.344H173.312V62.984H175.056V65.304H181.584V62.984H183.328V70.344H179.184V73.128H184.784V74.568H171.888V73.128H177.44ZM175.056 68.936H181.584V66.696H175.056V68.936ZM197.392 63.336V64.712C197.392 65.928 197.36 67.0267 197.296 68.008C197.243 68.9893 197.099 70.136 196.864 71.448L195.088 71.256C195.333 70.04 195.483 68.952 195.536 67.992C195.6 67.0213 195.632 65.944 195.632 64.76H187.2V63.336H197.392ZM190.608 73.016V68.056H192.352V73.016H198.752V74.456H185.872V73.016H190.608ZM215.368 62.04V72.488H213.608V67.72H210.92V66.28H213.608V62.04H215.368ZM211 63.128C211 64.9947 210.424 66.6107 209.272 67.976C208.131 69.3413 206.52 70.36 204.44 71.032L203.704 69.624C205.261 69.1227 206.509 68.4347 207.448 67.56C208.397 66.6747 208.952 65.6667 209.112 64.536H204.456V63.128H211ZM207.944 71.448V74.6H215.72V76.008H206.168V71.448H207.944ZM229.384 62.04V76.328H227.64V67.992H223.592V66.568H227.64V62.04H229.384ZM220.008 63.592V71.464C222.099 71.4427 224.024 71.256 225.784 70.904L225.976 72.36C224.91 72.5733 223.848 72.7227 222.792 72.808C221.747 72.8827 220.627 72.92 219.432 72.92H218.264V63.592H220.008ZM234.905 62.552V66.056H242.953V67.464H233.161V62.552H234.905ZM244.409 69.112V70.52H231.513V69.112H244.409ZM234.793 71.752V74.552H243.033V75.976H233.049V71.752H234.793ZM257.689 62.04V76.28H256.009V62.04H257.689ZM254.665 62.376V75.608H253.017V69.048H250.521C249.668 70.7653 248.286 72.1787 246.377 73.288L245.369 72.04C246.809 71.1867 247.886 70.2 248.601 69.08C249.326 67.96 249.753 66.664 249.881 65.192H246.089V63.768H251.641C251.641 65.2187 251.46 66.5093 251.097 67.64H253.017V62.376H254.665ZM274.961 62.056V69.384H273.185V62.056H274.961ZM274.961 69.992V73.672H267.217V74.792H275.409V76.168H265.489V72.408H273.217V71.352H265.457V69.992H274.961ZM271.441 62.936V64.312H270.209V67.416C270.657 67.384 271.265 67.3253 272.033 67.24L272.129 68.488C270.87 68.6907 269.537 68.8293 268.129 68.904C266.721 68.9787 265.206 69.0213 263.585 69.032L263.409 67.624H265.009V64.312H263.777V62.936H271.441ZM268.513 67.528V64.312H266.705V67.592L268.513 67.528ZM280.113 73.128V69.496C279.537 69.1653 279.095 68.7493 278.785 68.248C278.476 67.7467 278.321 67.1867 278.321 66.568C278.321 65.8213 278.545 65.1653 278.993 64.6C279.452 64.024 280.076 63.5813 280.865 63.272C281.665 62.9627 282.572 62.808 283.585 62.808C284.599 62.808 285.505 62.9627 286.305 63.272C287.105 63.5813 287.729 64.024 288.177 64.6C288.625 65.1653 288.849 65.8213 288.849 66.568C288.849 67.1867 288.695 67.7467 288.385 68.248C288.076 68.7493 287.639 69.1653 287.073 69.496V73.128H290.049V74.552H277.153V73.128H280.113ZM283.585 64.184C282.529 64.184 281.676 64.4027 281.025 64.84C280.375 65.2667 280.049 65.8427 280.049 66.568C280.049 67.304 280.369 67.8853 281.009 68.312C281.66 68.7387 282.519 68.952 283.585 68.952C284.652 68.952 285.505 68.7387 286.145 68.312C286.796 67.8853 287.121 67.304 287.121 66.568C287.121 65.8427 286.796 65.2667 286.145 64.84C285.495 64.4027 284.641 64.184 283.585 64.184ZM285.313 73.128V70.152C284.759 70.2693 284.183 70.328 283.585 70.328C282.999 70.328 282.428 70.2693 281.873 70.152V73.128H285.313ZM293.714 64.312V62.424H295.442V64.312H298.018V65.704H291.106V64.312H293.714ZM294.578 66.472C295.175 66.472 295.708 66.616 296.178 66.904C296.647 67.1813 297.015 67.576 297.282 68.088C297.548 68.5893 297.682 69.16 297.682 69.8C297.682 70.4507 297.548 71.032 297.282 71.544C297.015 72.0453 296.647 72.44 296.178 72.728C295.708 73.0053 295.175 73.144 294.578 73.144C293.991 73.144 293.463 73.0053 292.994 72.728C292.524 72.44 292.156 72.0453 291.89 71.544C291.623 71.032 291.49 70.4507 291.49 69.8C291.49 69.16 291.623 68.5893 291.89 68.088C292.156 67.576 292.524 67.1813 292.994 66.904C293.463 66.616 293.991 66.472 294.578 66.472ZM294.578 67.928C294.13 67.928 293.762 68.0987 293.474 68.44C293.186 68.7813 293.042 69.2347 293.042 69.8C293.042 70.3653 293.18 70.8187 293.458 71.16C293.746 71.5013 294.119 71.672 294.578 71.672C295.036 71.672 295.41 71.5013 295.698 71.16C295.986 70.8187 296.13 70.3653 296.13 69.8C296.13 69.2347 295.986 68.7813 295.698 68.44C295.41 68.0987 295.036 67.928 294.578 67.928ZM303.282 62.04V76.28H301.618V69.336H300.242V75.64H298.594V62.344H300.242V67.912H301.618V62.04H303.282ZM308.082 73.128V69.496C307.506 69.1653 307.063 68.7493 306.754 68.248C306.445 67.7467 306.29 67.1867 306.29 66.568C306.29 65.8213 306.514 65.1653 306.962 64.6C307.421 64.024 308.045 63.5813 308.834 63.272C309.634 62.9627 310.541 62.808 311.554 62.808C312.567 62.808 313.474 62.9627 314.274 63.272C315.074 63.5813 315.698 64.024 316.146 64.6C316.594 65.1653 316.818 65.8213 316.818 66.568C316.818 67.1867 316.663 67.7467 316.354 68.248C316.045 68.7493 315.607 69.1653 315.042 69.496V73.128H318.018V74.552H305.122V73.128H308.082ZM311.554 64.184C310.498 64.184 309.645 64.4027 308.994 64.84C308.343 65.2667 308.018 65.8427 308.018 66.568C308.018 67.304 308.338 67.8853 308.978 68.312C309.629 68.7387 310.487 68.952 311.554 68.952C312.621 68.952 313.474 68.7387 314.114 68.312C314.765 67.8853 315.09 67.304 315.09 66.568C315.09 65.8427 314.765 65.2667 314.114 64.84C313.463 64.4027 312.61 64.184 311.554 64.184ZM313.282 73.128V70.152C312.727 70.2693 312.151 70.328 311.554 70.328C310.967 70.328 310.397 70.2693 309.842 70.152V73.128H313.282ZM73.7724 85.056V95.44H72.0124V85.056H73.7724ZM66.1884 94.464V97.6H74.1724V99.008H64.4284V94.464H66.1884ZM67.2764 85.824V87.248C67.2764 88.2613 67.5697 89.1893 68.1564 90.032C68.7537 90.8747 69.5964 91.4773 70.6844 91.84L69.7724 93.248C68.983 92.96 68.3057 92.5493 67.7404 92.016C67.175 91.472 66.7324 90.8267 66.4124 90.08C66.0924 90.88 65.639 91.5733 65.0524 92.16C64.4657 92.7467 63.7617 93.1893 62.9404 93.488L62.0444 92.096C63.143 91.6907 63.991 91.0453 64.5884 90.16C65.1964 89.264 65.5004 88.2933 65.5004 87.248V85.824H67.2764ZM88.8768 91.6V93.008H83.3088V94.24C84.5888 94.3253 85.5808 94.5867 86.2848 95.024C86.9888 95.4507 87.3408 96.0267 87.3408 96.752C87.3408 97.552 86.9034 98.1707 86.0288 98.608C85.1648 99.056 83.9648 99.28 82.4288 99.28C80.8821 99.28 79.6714 99.056 78.7968 98.608C77.9328 98.1707 77.5008 97.552 77.5008 96.752C77.5008 96.0267 77.8528 95.4507 78.5568 95.024C79.2714 94.5867 80.2688 94.3253 81.5488 94.24V93.008H76.0128V91.6H88.8768ZM82.4288 95.536C80.3274 95.536 79.2768 95.9413 79.2768 96.752C79.2768 97.1467 79.5434 97.4453 80.0768 97.648C80.6101 97.8507 81.3941 97.952 82.4288 97.952C83.4528 97.952 84.2314 97.8507 84.7648 97.648C85.2981 97.4453 85.5648 97.1467 85.5648 96.752C85.5648 96.3467 85.2981 96.0427 84.7648 95.84C84.2314 95.6373 83.4528 95.536 82.4288 95.536ZM87.7248 85.68V87.072H83.6927C83.8421 87.6907 84.3221 88.2293 85.1328 88.688C85.9434 89.1467 86.9888 89.4347 88.2688 89.552L87.6448 90.928C86.3754 90.7893 85.2874 90.48 84.3808 90C83.4741 89.52 82.8288 88.9173 82.4448 88.192C82.0608 88.9173 81.4154 89.52 80.5088 90C79.6021 90.48 78.5088 90.7893 77.2288 90.928L76.6208 89.552C77.4741 89.4773 78.2261 89.3173 78.8768 89.072C79.5381 88.8267 80.0661 88.5333 80.4608 88.192C80.8554 87.84 81.1008 87.4667 81.1968 87.072H77.1808V85.68H87.7248ZM101.085 85.056V90.72H103.245V92.176H101.085V99.296H99.3251V85.056H101.085ZM93.2291 87.216V85.264H95.0051V87.216H98.2691V88.624H89.9171V87.216H93.2291ZM94.1251 89.584C94.8078 89.584 95.4211 89.728 95.9651 90.016C96.5091 90.2933 96.9305 90.688 97.2291 91.2C97.5385 91.7013 97.6931 92.2773 97.6931 92.928C97.6931 93.5787 97.5385 94.16 97.2291 94.672C96.9198 95.1733 96.4931 95.568 95.9491 95.856C95.4158 96.1333 94.8078 96.272 94.1251 96.272C93.4531 96.272 92.8451 96.1333 92.3011 95.856C91.7678 95.568 91.3465 95.168 91.0371 94.656C90.7278 94.144 90.5731 93.568 90.5731 92.928C90.5731 92.288 90.7278 91.712 91.0371 91.2C91.3465 90.688 91.7678 90.2933 92.3011 90.016C92.8451 89.728 93.4531 89.584 94.1251 89.584ZM94.1251 91.008C93.5811 91.008 93.1331 91.184 92.7811 91.536C92.4398 91.888 92.2691 92.352 92.2691 92.928C92.2691 93.504 92.4398 93.968 92.7811 94.32C93.1225 94.6613 93.5705 94.832 94.1251 94.832C94.6798 94.832 95.1278 94.6613 95.4691 94.32C95.8211 93.968 95.9971 93.504 95.9971 92.928C95.9971 92.352 95.8211 91.888 95.4691 91.536C95.1278 91.184 94.6798 91.008 94.1251 91.008ZM115.07 85.024V90.432H117.23V91.888H115.07V99.312H113.294V85.024H115.07ZM111.198 86.4V87.808H106.318V94.368C107.512 94.3573 108.558 94.32 109.454 94.256C110.36 94.192 111.272 94.0747 112.19 93.904L112.366 95.376C111.363 95.5573 110.36 95.68 109.358 95.744C108.366 95.808 107.155 95.84 105.726 95.84H104.558V86.4H111.198ZM129.486 86.336V87.712C129.486 88.928 129.454 90.0267 129.39 91.008C129.337 91.9893 129.193 93.136 128.958 94.448L127.182 94.256C127.427 93.04 127.577 91.952 127.63 90.992C127.694 90.0213 127.726 88.944 127.726 87.76H119.294V86.336H129.486ZM122.702 96.016V91.056H124.446V96.016H130.846V97.456H117.966V96.016H122.702ZM146.726 85.024V90.544H148.806V92H146.726V99.28H144.95V85.024H146.726ZM137.878 86.416V94.304C139.958 94.272 141.958 94.064 143.878 93.68L144.07 95.12C142.075 95.536 139.824 95.744 137.318 95.744H136.134V86.416H137.878ZM162.502 92.448V93.84H149.606V92.448H162.502ZM152.918 94.864V97.6H161.126V99.024H151.142V94.864H152.918ZM152.326 85.568V87.088H153.958V85.568H155.606V91.36H150.678V85.568H152.326ZM152.326 89.968H153.958V88.464H152.326V89.968ZM158.182 85.568V87.088H159.766V85.568H161.43V91.36H156.502V85.568H158.182ZM158.182 89.968H159.766V88.464H158.182V89.968ZM179.102 85.056V99.296H177.342V92.048H174.382V90.608H177.342V85.056H179.102ZM174.446 86.528C174.446 88.8 173.966 90.784 173.006 92.48C172.046 94.176 170.414 95.5947 168.11 96.736L167.166 95.376C168.947 94.4907 170.275 93.4453 171.15 92.24C172.025 91.024 172.531 89.5947 172.67 87.952H167.822V86.528H174.446ZM188.198 93.392V94.928H190.022V93.392H191.654V97.92C192.443 97.5787 193.041 97.088 193.446 96.448C193.862 95.808 194.07 95.1253 194.07 94.4V93.296H195.798V94.4C195.798 95.1893 196.006 95.904 196.422 96.544C196.849 97.184 197.473 97.648 198.294 97.936L197.414 99.248C196.23 98.7893 195.398 97.9893 194.918 96.848C194.673 97.392 194.342 97.8667 193.926 98.272C193.521 98.688 193.03 99.0133 192.454 99.248L191.654 98.016V99.12H186.55V93.392H188.198ZM188.198 97.792H190.022V96.224H188.198V97.792ZM188.886 85.616C189.814 85.616 190.609 85.8507 191.27 86.32C191.931 86.7893 192.353 87.4187 192.534 88.208H195.046V85.056H196.806V92.576H195.046V89.632H192.55C192.379 90.4213 191.958 91.0613 191.286 91.552C190.625 92.032 189.825 92.272 188.886 92.272C188.182 92.272 187.542 92.1333 186.966 91.856C186.401 91.568 185.958 91.1733 185.638 90.672C185.318 90.16 185.158 89.584 185.158 88.944C185.158 88.2933 185.318 87.7173 185.638 87.216C185.958 86.7147 186.401 86.3253 186.966 86.048C187.542 85.76 188.182 85.616 188.886 85.616ZM188.886 87.072C188.289 87.072 187.798 87.2427 187.414 87.584C187.041 87.9253 186.854 88.3787 186.854 88.944C186.854 89.5093 187.041 89.968 187.414 90.32C187.798 90.6613 188.289 90.832 188.886 90.832C189.483 90.832 189.974 90.6613 190.358 90.32C190.742 89.968 190.934 89.5093 190.934 88.944C190.934 88.3787 190.742 87.9253 190.358 87.584C189.974 87.2427 189.483 87.072 188.886 87.072ZM202.342 85.552V89.056H210.39V90.464H200.598V85.552H202.342ZM211.846 92.112V93.52H198.95V92.112H211.846ZM202.23 94.752V97.552H210.47V98.976H200.486V94.752H202.23ZM227.71 85.056V90.72H229.87V92.176H227.71V99.296H225.95V85.056H227.71ZM219.854 87.216V85.264H221.63V87.216H224.894V88.624H216.542V87.216H219.854ZM220.75 89.584C221.433 89.584 222.046 89.728 222.59 90.016C223.134 90.2933 223.555 90.688 223.854 91.2C224.163 91.7013 224.318 92.2773 224.318 92.928C224.318 93.5787 224.163 94.16 223.854 94.672C223.545 95.1733 223.118 95.568 222.574 95.856C222.041 96.1333 221.433 96.272 220.75 96.272C220.078 96.272 219.47 96.1333 218.926 95.856C218.393 95.568 217.971 95.168 217.662 94.656C217.353 94.144 217.198 93.568 217.198 92.928C217.198 92.288 217.353 91.712 217.662 91.2C217.971 90.688 218.393 90.2933 218.926 90.016C219.47 89.728 220.078 89.584 220.75 89.584ZM220.75 91.008C220.206 91.008 219.758 91.184 219.406 91.536C219.065 91.888 218.894 92.352 218.894 92.928C218.894 93.504 219.065 93.968 219.406 94.32C219.747 94.6613 220.195 94.832 220.75 94.832C221.305 94.832 221.753 94.6613 222.094 94.32C222.446 93.968 222.622 93.504 222.622 92.928C222.622 92.352 222.446 91.888 222.094 91.536C221.753 91.184 221.305 91.008 220.75 91.008ZM241.983 85.568V89.6H233.919V91.008H242.319V92.416H232.127V88.272H240.207V86.96H232.111V85.568H241.983ZM243.503 93.632V95.04H237.903V99.312H236.143V95.04H230.607V93.632H243.503ZM256.751 85.04V99.28H255.087V85.04H256.751ZM253.855 85.312V98.608H252.207V91.824H250.847C250.772 93.2213 250.458 94.32 249.903 95.12C249.359 95.9093 248.65 96.304 247.775 96.304C247.156 96.304 246.618 96.1013 246.159 95.696C245.7 95.28 245.343 94.688 245.087 93.92C244.842 93.152 244.719 92.2453 244.719 91.2C244.719 90.1653 244.842 89.264 245.087 88.496C245.343 87.728 245.7 87.1413 246.159 86.736C246.618 86.32 247.156 86.112 247.775 86.112C248.628 86.112 249.327 86.496 249.871 87.264C250.415 88.0213 250.735 89.0667 250.831 90.4H252.207V85.312H253.855ZM247.775 87.776C247.316 87.776 246.959 88.0747 246.703 88.672C246.447 89.2587 246.319 90.1013 246.319 91.2C246.319 92.3093 246.447 93.1627 246.703 93.76C246.959 94.3573 247.316 94.656 247.775 94.656C248.244 94.656 248.607 94.3573 248.863 93.76C249.119 93.1627 249.247 92.3093 249.247 91.2C249.247 90.0907 249.119 89.2427 248.863 88.656C248.607 88.0693 248.244 87.776 247.775 87.776ZM261.535 96.128V92.496C260.959 92.1653 260.517 91.7493 260.207 91.248C259.898 90.7467 259.743 90.1867 259.743 89.568C259.743 88.8213 259.967 88.1653 260.415 87.6C260.874 87.024 261.498 86.5813 262.287 86.272C263.087 85.9627 263.994 85.808 265.007 85.808C266.021 85.808 266.927 85.9627 267.727 86.272C268.527 86.5813 269.151 87.024 269.599 87.6C270.047 88.1653 270.271 88.8213 270.271 89.568C270.271 90.1867 270.117 90.7467 269.807 91.248C269.498 91.7493 269.061 92.1653 268.495 92.496V96.128H271.471V97.552H258.575V96.128H261.535ZM265.007 87.184C263.951 87.184 263.098 87.4027 262.447 87.84C261.797 88.2667 261.471 88.8427 261.471 89.568C261.471 90.304 261.791 90.8853 262.431 91.312C263.082 91.7387 263.941 91.952 265.007 91.952C266.074 91.952 266.927 91.7387 267.567 91.312C268.218 90.8853 268.543 90.304 268.543 89.568C268.543 88.8427 268.218 88.2667 267.567 87.84C266.917 87.4027 266.063 87.184 265.007 87.184ZM266.735 96.128V93.152C266.181 93.2693 265.605 93.328 265.007 93.328C264.421 93.328 263.85 93.2693 263.295 93.152V96.128H266.735ZM275.6 94.88H273.968L273.664 85.92H275.856L275.6 94.88ZM274.8 96.384C275.088 96.384 275.322 96.4747 275.504 96.656C275.685 96.8373 275.776 97.0773 275.776 97.376C275.776 97.6747 275.685 97.9147 275.504 98.096C275.322 98.288 275.088 98.384 274.8 98.384C274.501 98.384 274.256 98.288 274.064 98.096C273.882 97.9147 273.792 97.6747 273.792 97.376C273.792 97.0773 273.882 96.8373 274.064 96.656C274.256 96.4747 274.501 96.384 274.8 96.384Z" fill="#27272A"/>
</g>
<defs>
<filter id="filter0_f_1468_2261" x="14.8814" y="55.9239" width="309.237" height="49.4881" filterUnits="userSpaceOnUse" color-interpolation-filters="sRGB">
<feFlood flood-opacity="0" result="BackgroundImageFix"/>
<feBlend mode="normal" in="SourceGraphic" in2="BackgroundImageFix" result="shape"/>
<feGaussianBlur stdDeviation="3.05" result="effect1_foregroundBlur_1468_2261"/>
</filter>
</defs>
</svg>
