<svg width="160" height="148" viewBox="0 0 160 148" fill="none" xmlns="http://www.w3.org/2000/svg">
<g filter="url(#filter0_f_693_2088)">
<ellipse cx="15.8481" cy="12.9132" rx="15.8481" ry="12.9132" transform="matrix(-0.996711 0.0810357 0.0810357 0.996711 149.863 32.9382)" fill="url(#paint0_linear_693_2088)" stroke="#FFFFF6" stroke-width="2"/>
<ellipse cx="46.7743" cy="23.4241" rx="15.8481" ry="12.9132" transform="rotate(34.6481 46.7743 23.4241)" fill="url(#paint1_linear_693_2088)" stroke="#FFFFF6" stroke-width="2"/>
<ellipse cx="13.0461" cy="9.51456" rx="13.0461" ry="9.51456" transform="matrix(-0.996711 0.0810357 0.0810357 0.996711 147.213 38.0508)" fill="#17B4C8"/>
<g filter="url(#filter1_d_693_2088)">
<path d="M94.1019 21.9321C64.5412 14.0113 37.0542 30.8122 29.6016 58.6252C28.0311 64.4861 27.9497 70.4956 28.9758 76.3777C21.4335 77.3396 15.3648 81.9538 14.1155 88.4609C12.4654 97.0558 19.8479 105.698 30.6044 107.763C32.5017 108.127 34.3777 108.261 36.1891 108.19C34.3525 115.292 39.4405 122.794 47.6033 124.981C52.8588 126.389 58.1128 125.253 61.7119 122.378C63.4491 126.802 67.6834 130.576 73.2685 132.072C80.964 134.134 88.6011 131.17 91.4518 125.366C92.9519 126.885 94.72 128.262 96.7249 129.42C105.996 134.773 116.804 133.41 120.864 126.377C124.026 120.9 122.165 113.599 116.808 108.109C123.775 102.236 129.245 94.7984 131.613 85.9592C139.066 58.1462 123.662 29.853 94.1019 21.9321Z" fill="url(#paint2_radial_693_2088)"/>
<path d="M94.1019 21.9321L94.3607 20.9662L94.3607 20.9662L94.1019 21.9321ZM29.6016 58.6252L28.6356 58.3664L28.6357 58.3664L29.6016 58.6252ZM28.9758 76.3777L29.9609 76.2059C30.0079 76.475 29.9427 76.7516 29.7805 76.9714C29.6183 77.1912 29.3733 77.3351 29.1023 77.3697L28.9758 76.3777ZM14.1155 88.4609L13.1335 88.2724L13.1335 88.2723L14.1155 88.4609ZM30.6044 107.763L30.4159 108.745L30.4159 108.745L30.6044 107.763ZM36.1891 108.19L36.1498 107.191C36.4658 107.178 36.7691 107.316 36.9676 107.562C37.1661 107.809 37.2365 108.134 37.1573 108.44L36.1891 108.19ZM47.6033 124.981L47.3445 125.947L47.3445 125.947L47.6033 124.981ZM61.7119 122.378L61.0878 121.596C61.336 121.398 61.6635 121.33 61.9703 121.412C62.2771 121.494 62.5266 121.717 62.6427 122.012L61.7119 122.378ZM73.2685 132.072L73.0096 133.038L73.0096 133.038L73.2685 132.072ZM91.4518 125.366L90.5542 124.925C90.6969 124.635 90.9715 124.431 91.2911 124.379C91.6106 124.327 91.9356 124.433 92.1631 124.663L91.4518 125.366ZM96.7249 129.42L96.2249 130.286L96.2249 130.286L96.7249 129.42ZM120.864 126.377L121.73 126.877L121.73 126.877L120.864 126.377ZM116.808 108.109L116.092 108.807C115.898 108.608 115.795 108.337 115.809 108.06C115.823 107.782 115.951 107.523 116.163 107.344L116.808 108.109ZM131.613 85.9592L132.579 86.218L132.579 86.218L131.613 85.9592ZM94.1019 21.9321L93.8431 22.898C64.8215 15.1217 37.8788 31.5988 30.5675 58.884L29.6016 58.6252L28.6357 58.3664C36.2297 30.0257 64.2608 12.9009 94.3607 20.9662L94.1019 21.9321ZM29.6016 58.6252L30.5675 58.884C29.0398 64.5856 28.9562 70.4465 29.9609 76.2059L28.9758 76.3777L27.9907 76.5496C26.9432 70.5448 27.0225 64.3866 28.6356 58.3664L29.6016 58.6252ZM28.9758 76.3777L29.1023 77.3697C21.8501 78.2946 16.2418 82.6899 15.0976 88.6494L14.1155 88.4609L13.1335 88.2723C14.4879 81.2177 21.0169 76.3846 28.8493 75.3857L28.9758 76.3777ZM14.1155 88.4609L15.0976 88.6494C13.5889 96.5078 20.3618 104.778 30.793 106.781L30.6044 107.763L30.4159 108.745C19.3339 106.617 11.342 97.6037 13.1335 88.2724L14.1155 88.4609ZM30.6044 107.763L30.793 106.781C32.615 107.131 34.4145 107.259 36.1498 107.191L36.1891 108.19L36.2285 109.189C34.3409 109.264 32.3884 109.124 30.4159 108.745L30.6044 107.763ZM36.1891 108.19L37.1573 108.44C35.4892 114.89 40.1006 121.935 47.8622 124.015L47.6033 124.981L47.3445 125.947C38.7804 123.652 33.2157 115.694 35.221 107.94L36.1891 108.19ZM47.6033 124.981L47.8622 124.015C52.8331 125.347 57.7546 124.259 61.0878 121.596L61.7119 122.378L62.336 123.159C58.471 126.246 52.8845 127.431 47.3445 125.947L47.6033 124.981ZM61.7119 122.378L62.6427 122.012C64.2516 126.109 68.2148 129.683 73.5273 131.106L73.2685 132.072L73.0096 133.038C67.1519 131.468 62.6465 127.494 60.7811 122.743L61.7119 122.378ZM73.2685 132.072L73.5273 131.106C80.8792 133.076 87.9636 130.2 90.5542 124.925L91.4518 125.366L92.3494 125.807C89.2387 132.141 81.0488 135.192 73.0096 133.038L73.2685 132.072ZM91.4518 125.366L92.1631 124.663C93.6 126.118 95.2969 127.441 97.2249 128.554L96.7249 129.42L96.2249 130.286C94.143 129.084 92.3038 127.651 90.7405 126.069L91.4518 125.366ZM96.7249 129.42L97.2249 128.554C101.689 131.131 106.491 132.072 110.624 131.551C114.755 131.03 118.158 129.064 119.998 125.877L120.864 126.377L121.73 126.877C119.51 130.723 115.479 132.955 110.874 133.535C106.27 134.116 101.032 133.061 96.2249 130.286L96.7249 129.42ZM120.864 126.377L119.998 125.877C122.856 120.926 121.264 114.108 116.092 108.807L116.808 108.109L117.524 107.41C123.065 113.09 125.196 120.873 121.73 126.877L120.864 126.377ZM116.808 108.109L116.163 107.344C123.013 101.57 128.344 94.2978 130.647 85.7004L131.613 85.9592L132.579 86.218C130.146 95.2989 124.536 102.902 117.452 108.873L116.808 108.109ZM131.613 85.9592L130.647 85.7004C137.958 58.4152 122.864 30.6745 93.8431 22.898L94.1019 21.9321L94.3607 20.9662C124.46 29.0316 140.173 57.8773 132.579 86.218L131.613 85.9592Z" fill="#FFFFF6"/>
</g>
<path d="M74.5234 84.8979C74.5159 84.8967 74.5083 84.8966 74.5007 84.8958C74.4787 84.8936 74.4568 84.8926 74.4346 84.8933C74.42 84.8937 74.4056 84.896 74.391 84.8978C74.3747 84.8997 74.3586 84.9014 74.3425 84.905C74.3248 84.9089 74.3074 84.9143 74.2899 84.9202C74.2771 84.9246 74.2643 84.9288 74.2518 84.9343C74.2437 84.9378 74.235 84.9398 74.227 84.9438C71.2644 86.4158 69.3931 86.291 68.26 85.6986C67.1116 85.098 66.5684 83.9388 66.4326 83.0363C66.3912 82.7637 66.1363 82.5759 65.8636 82.6169C65.5909 82.6582 65.4033 82.9132 65.4442 83.1859C65.6122 84.3023 66.2852 85.794 67.7962 86.5843C69.2585 87.349 71.3671 87.3846 74.282 86.0252C76.1261 88.6585 77.9691 89.6829 79.6174 89.7518C81.3209 89.8228 82.6497 88.8674 83.3535 87.9847C83.5253 87.769 83.49 87.4545 83.2748 87.2822C83.059 87.1102 82.7444 87.1453 82.5723 87.3609C82.0034 88.0745 80.9531 88.8068 79.6586 88.7528C78.3812 88.6993 76.698 87.8714 74.8684 85.1157C74.8626 85.1069 74.8552 85.0985 74.8489 85.0902C74.8446 85.0844 74.8398 85.079 74.8353 85.0734C74.8183 85.0529 74.8 85.0344 74.7805 85.0173C74.7763 85.0135 74.7716 85.0103 74.7672 85.0067C74.7468 84.9899 74.726 84.9744 74.7035 84.9613C74.6969 84.9574 74.6899 84.9543 74.6831 84.9508C74.6628 84.9401 74.6422 84.9307 74.6208 84.9229C74.6113 84.9195 74.6018 84.9161 74.5921 84.9132C74.5695 84.9066 74.5467 84.9013 74.5234 84.8979Z" fill="#002427"/>
<path d="M74.5234 84.8979L74.4509 85.3926L74.449 85.3923L74.5234 84.8979ZM74.5007 84.8958L74.5506 84.3983L74.5525 84.3985L74.5007 84.8958ZM74.4346 84.8933L74.4507 85.393L74.4491 85.3931L74.4346 84.8933ZM74.391 84.8978L74.331 84.4014L74.3323 84.4012L74.391 84.8978ZM74.3425 84.905L74.4512 85.393L74.45 85.3933L74.3425 84.905ZM74.2899 84.9202L74.1279 84.4472L74.1292 84.4467L74.2899 84.9202ZM74.2518 84.9343L74.452 85.3924L74.4504 85.3931L74.2518 84.9343ZM74.227 84.9438L74.0045 84.496L74.0047 84.4959L74.227 84.9438ZM68.26 85.6986L68.0283 86.1417L68.0282 86.1416L68.26 85.6986ZM66.4326 83.0363L66.927 82.9611L66.9271 82.9619L66.4326 83.0363ZM65.8636 82.6169L65.7887 82.1225L65.7893 82.1224L65.8636 82.6169ZM65.4442 83.1859L64.9498 83.2604L64.9497 83.26L65.4442 83.1859ZM67.7962 86.5843L67.5645 87.0274L67.5644 87.0274L67.7962 86.5843ZM74.282 86.0252L74.0706 85.572L74.4509 85.3947L74.6915 85.7383L74.282 86.0252ZM79.6174 89.7518L79.5966 90.2514L79.5965 90.2514L79.6174 89.7518ZM83.3535 87.9847L83.7445 88.2963L83.7444 88.2964L83.3535 87.9847ZM83.2748 87.2822L83.5864 86.8912L83.5872 86.8918L83.2748 87.2822ZM82.5723 87.3609L82.1813 87.0492L82.1816 87.0489L82.5723 87.3609ZM79.6586 88.7528L79.6378 89.2524L79.6377 89.2524L79.6586 88.7528ZM74.8684 85.1157L74.4519 85.3922L74.4518 85.3922L74.8684 85.1157ZM74.8489 85.0902L74.4503 85.392L74.4499 85.3915L74.8489 85.0902ZM74.8353 85.0734L75.2205 84.7546L75.2208 84.7551L74.8353 85.0734ZM74.7805 85.0173L74.4503 85.3927L74.4499 85.3924L74.7805 85.0173ZM74.7672 85.0067L75.0843 84.6201L75.0848 84.6204L74.7672 85.0067ZM74.7035 84.9613L74.4512 85.393L74.4502 85.3924L74.7035 84.9613ZM74.6831 84.9508L74.9152 84.5079L74.9164 84.5085L74.6831 84.9508ZM74.6208 84.9229L74.4512 85.3933L74.4495 85.3927L74.6208 84.9229ZM74.5921 84.9132L74.7329 84.4335L74.7347 84.434L74.5921 84.9132ZM74.5234 84.8979L74.449 85.3923C74.458 85.3936 74.4652 85.3944 74.4696 85.3948C74.4739 85.3953 74.4769 85.3955 74.4765 85.3954C74.4763 85.3954 74.4762 85.3954 74.4748 85.3953C74.4737 85.3952 74.4718 85.3951 74.4696 85.3949C74.4652 85.3946 74.4578 85.394 74.4489 85.3931L74.5007 84.8958L74.5525 84.3985C74.5474 84.398 74.5437 84.3977 74.5432 84.3977C74.5428 84.3976 74.5428 84.3976 74.5436 84.3977C74.5442 84.3977 74.5459 84.3978 74.5476 84.398C74.5535 84.3984 74.5736 84.3998 74.5978 84.4034L74.5234 84.8979ZM74.5007 84.8958L74.4507 85.3933L74.4507 85.393L74.4346 84.8933L74.4186 84.3935C74.4669 84.392 74.5113 84.3944 74.5506 84.3983L74.5007 84.8958ZM74.4346 84.8933L74.4491 85.3931C74.4562 85.3929 74.4618 85.3925 74.4654 85.3922C74.4673 85.392 74.4687 85.3919 74.4696 85.3918C74.47 85.3917 74.4704 85.3917 74.4706 85.3917C74.4709 85.3916 74.471 85.3916 74.471 85.3916C74.471 85.3916 74.4709 85.3916 74.4707 85.3917C74.4705 85.3917 74.4701 85.3917 74.4697 85.3918C74.4687 85.3919 74.4676 85.3921 74.4657 85.3923C74.4626 85.3927 74.4563 85.3935 74.4496 85.3943L74.391 84.8978L74.3323 84.4012C74.333 84.4011 74.334 84.401 74.3381 84.4005C74.3414 84.4 74.3478 84.3992 74.3546 84.3984C74.3684 84.3968 74.3919 84.3943 74.4202 84.3935L74.4346 84.8933ZM74.391 84.8978L74.4509 85.3941C74.4484 85.3945 74.4459 85.3948 74.444 85.395C74.4419 85.3952 74.4404 85.3954 74.439 85.3956C74.4377 85.3957 74.4368 85.3958 74.4361 85.3959C74.4355 85.396 74.4352 85.3961 74.4352 85.396C74.4352 85.396 74.4368 85.3958 74.4394 85.3954C74.4421 85.3949 74.4461 85.3942 74.4512 85.393L74.3425 84.905L74.2338 84.4169C74.2801 84.4066 74.3266 84.4019 74.331 84.4014L74.391 84.8978ZM74.3425 84.905L74.45 85.3933L74.4506 85.3937L74.2899 84.9202L74.1292 84.4467C74.1539 84.4384 74.1911 84.4264 74.235 84.4167L74.3425 84.905ZM74.2899 84.9202L74.4519 85.3933C74.4498 85.394 74.4478 85.3946 74.4463 85.3952C74.4446 85.3957 74.4434 85.3961 74.4423 85.3965C74.4412 85.3969 74.4405 85.3972 74.4399 85.3973C74.4394 85.3975 74.4392 85.3976 74.4392 85.3976C74.4392 85.3976 74.4396 85.3975 74.4401 85.3973C74.4407 85.3971 74.4415 85.3967 74.4426 85.3963C74.4447 85.3955 74.4479 85.3942 74.452 85.3924L74.2518 84.9343L74.0516 84.4761C74.0878 84.4603 74.1251 84.4481 74.1279 84.4472L74.2899 84.9202ZM74.2518 84.9343L74.4504 85.3931C74.4351 85.3997 74.4224 85.4045 74.4149 85.4072C74.411 85.4085 74.4078 85.4097 74.4059 85.4103C74.405 85.4106 74.4041 85.4109 74.4037 85.4111C74.4031 85.4113 74.403 85.4113 74.4029 85.4113C74.4022 85.4116 74.4075 85.4098 74.4147 85.407C74.4223 85.404 74.4345 85.399 74.4493 85.3917L74.227 84.9438L74.0047 84.4959C74.0234 84.4866 74.0397 84.4798 74.0515 84.4753C74.0628 84.4709 74.0723 84.4676 74.0758 84.4664C74.0768 84.466 74.0777 84.4657 74.0782 84.4655C74.0788 84.4653 74.079 84.4653 74.0791 84.4652C74.0793 84.4651 74.0782 84.4655 74.0764 84.4662C74.073 84.4674 74.0644 84.4706 74.0532 84.4754L74.2518 84.9343ZM74.227 84.9438L74.4495 85.3916C71.4094 86.9021 69.3579 86.8368 68.0283 86.1417L68.26 85.6986L68.4916 85.2555C69.4282 85.7451 71.1194 85.9295 74.0045 84.496L74.227 84.9438ZM68.26 85.6986L68.0282 86.1416C66.6989 85.4464 66.0901 84.1208 65.9382 83.1106L66.4326 83.0363L66.9271 82.9619C67.0466 83.7569 67.5244 84.7496 68.4917 85.2555L68.26 85.6986ZM66.4326 83.0363L65.9383 83.1114L65.9378 83.1113L65.8636 82.6169L65.7893 82.1224C66.3345 82.0406 66.844 82.4155 66.927 82.9611L66.4326 83.0363ZM65.8636 82.6169L65.9384 83.1113L65.9387 83.1119L65.4442 83.1859L64.9497 83.26C64.8682 82.7155 65.2423 82.2053 65.7887 82.1225L65.8636 82.6169ZM65.4442 83.1859L65.9386 83.1115C66.0906 84.1214 66.6987 85.446 68.0279 86.1412L67.7962 86.5843L67.5644 87.0274C65.8717 86.142 65.1338 84.4832 64.9498 83.2604L65.4442 83.1859ZM67.7962 86.5843L68.0279 86.1412C69.3018 86.8074 71.236 86.8941 74.0706 85.572L74.282 86.0252L74.4933 86.4783C71.4983 87.8752 69.2151 87.8906 67.5645 87.0274L67.7962 86.5843ZM74.282 86.0252L74.6915 85.7383C76.4851 88.2995 78.2025 89.1922 79.6383 89.2522L79.6174 89.7518L79.5965 90.2514C77.7356 90.1736 75.7672 89.0176 73.8724 86.312L74.282 86.0252ZM79.6174 89.7518L79.6382 89.2522C81.1368 89.3147 82.3259 88.4715 82.9625 87.673L83.3535 87.9847L83.7444 88.2964C82.9736 89.2633 81.5049 90.3309 79.5966 90.2514L79.6174 89.7518ZM83.3535 87.9847L82.9624 87.6731L82.9623 87.6726L83.2748 87.2822L83.5872 86.8918C84.0176 87.2363 84.0883 87.8649 83.7445 88.2963L83.3535 87.9847ZM83.2748 87.2822L82.9632 87.6732L82.963 87.6729L82.5723 87.3609L82.1816 87.0489C82.5263 86.6172 83.1553 86.5476 83.5864 86.8912L83.2748 87.2822ZM82.5723 87.3609L82.9633 87.6725C82.3266 88.4713 81.1364 89.3149 79.6378 89.2524L79.6586 88.7528L79.6795 88.2533C80.7699 88.2987 81.6803 87.6778 82.1813 87.0492L82.5723 87.3609ZM79.6586 88.7528L79.6377 89.2524C78.1387 89.1896 76.3292 88.2199 74.4519 85.3922L74.8684 85.1157L75.285 84.8391C77.0667 87.5228 78.6237 88.209 79.6796 88.2533L79.6586 88.7528ZM74.8684 85.1157L74.4518 85.3922C74.4569 85.3998 74.461 85.4055 74.4635 85.4088C74.4659 85.412 74.4675 85.414 74.4673 85.4137C74.4671 85.4135 74.4669 85.4132 74.4661 85.4122C74.4655 85.4114 74.4642 85.4098 74.4629 85.4082C74.4603 85.4049 74.4556 85.3991 74.4503 85.392L74.8489 85.0902L75.2476 84.7884C75.2454 84.7855 75.244 84.7838 75.2448 84.7848C75.2451 84.7852 75.2455 84.7857 75.2466 84.787C75.2475 84.7881 75.2489 84.7899 75.2504 84.7919C75.2559 84.7987 75.2699 84.8164 75.285 84.8391L74.8684 85.1157ZM74.8489 85.0902L74.4499 85.3915C74.4521 85.3944 74.4539 85.3967 74.4551 85.3982C74.4557 85.3989 74.4561 85.3995 74.4564 85.3999C74.4566 85.4 74.4567 85.4002 74.4568 85.4003C74.4569 85.4004 74.4569 85.4004 74.4569 85.4004C74.4569 85.4004 74.4569 85.4004 74.4568 85.4003C74.4567 85.4002 74.4566 85.4001 74.4565 85.3999C74.4561 85.3995 74.4558 85.3991 74.4551 85.3983C74.4541 85.397 74.452 85.3945 74.4497 85.3918L74.8353 85.0734L75.2208 84.7551C75.2208 84.755 75.2208 84.7551 75.2211 84.7554C75.2214 84.7558 75.2217 84.7562 75.2223 84.7569C75.2233 84.758 75.2253 84.7604 75.2275 84.763C75.2318 84.7683 75.2394 84.7776 75.248 84.789L74.8489 85.0902ZM74.8353 85.0734L74.45 85.3922L74.4503 85.3927L74.7805 85.0173L75.1108 84.6419C75.1478 84.6745 75.1849 84.7117 75.2205 84.7546L74.8353 85.0734ZM74.7805 85.0173L74.4499 85.3924C74.4556 85.3974 74.4603 85.4013 74.4633 85.4037C74.4648 85.4049 74.466 85.4058 74.4667 85.4064C74.4671 85.4067 74.4674 85.407 74.4676 85.4071C74.4677 85.4072 74.4678 85.4072 74.4678 85.4073C74.4679 85.4073 74.4679 85.4073 74.4679 85.4073C74.4679 85.4073 74.4679 85.4073 74.4678 85.4073C74.4678 85.4072 74.4677 85.4072 74.4676 85.4071C74.4675 85.407 74.4674 85.407 74.4672 85.4068C74.4671 85.4067 74.4669 85.4066 74.4667 85.4065C74.466 85.4059 74.4648 85.4049 74.4633 85.4038C74.4604 85.4015 74.4555 85.3977 74.4497 85.3929L74.7672 85.0067L75.0848 84.6204C75.0811 84.6174 75.0784 84.6153 75.0778 84.6148C75.0774 84.6146 75.0773 84.6145 75.0777 84.6148C75.0779 84.6149 75.079 84.6158 75.0799 84.6165C75.082 84.6181 75.0862 84.6214 75.0912 84.6254C75.0964 84.6296 75.1033 84.6353 75.1111 84.6422L74.7805 85.0173ZM74.7672 85.0067L74.4501 85.3933C74.4457 85.3896 74.4438 85.3883 74.4438 85.3883C74.4439 85.3883 74.4465 85.3902 74.4512 85.393L74.7035 84.9613L74.9558 84.5296C75.0096 84.561 75.053 84.5944 75.0843 84.6201L74.7672 85.0067ZM74.7035 84.9613L74.4502 85.3924C74.4571 85.3964 74.4627 85.3994 74.4662 85.4012C74.4695 85.403 74.4718 85.4041 74.4716 85.404C74.4715 85.404 74.4713 85.4039 74.4702 85.4033C74.4694 85.4029 74.4678 85.4022 74.4661 85.4013C74.4627 85.3996 74.4568 85.3967 74.4498 85.393L74.6831 84.9508L74.9164 84.5085C74.9145 84.5075 74.913 84.5068 74.912 84.5063C74.9111 84.5058 74.9104 84.5054 74.9103 84.5054C74.9103 84.5054 74.9105 84.5055 74.9114 84.5059C74.9121 84.5063 74.9136 84.507 74.9152 84.5078C74.9208 84.5106 74.9374 84.5188 74.9569 84.5302L74.7035 84.9613ZM74.6831 84.9508L74.451 85.3936L74.4512 85.3933L74.6208 84.9229L74.7904 84.4526C74.8381 84.4698 74.8799 84.4894 74.9152 84.5079L74.6831 84.9508ZM74.6208 84.9229L74.4495 85.3927L74.4494 85.3924L74.5921 84.9132L74.7347 84.434C74.7594 84.4414 74.7805 84.449 74.7921 84.4532L74.6208 84.9229ZM74.5921 84.9132L74.4512 85.393L74.4509 85.3926L74.5234 84.8979L74.5958 84.4031C74.6467 84.4106 74.6926 84.4216 74.7329 84.4335L74.5921 84.9132Z" fill="#002427"/>
<path d="M109.081 48.2412C106.428 50.2408 107.284 55.2231 109.506 58.1711C111.728 61.1192 115.68 61.888 118.333 59.8883C120.986 57.8886 121.336 53.8777 119.114 50.9296C116.892 47.9816 111.734 46.2415 109.081 48.2412Z" fill="#FFFFF9" fill-opacity="0.61"/>
<path d="M102.407 40.1674C101.413 40.9163 101.734 42.7822 102.566 43.8862C103.398 44.9903 104.878 45.2782 105.872 44.5293C106.866 43.7804 106.996 42.2783 106.164 41.1743C105.332 40.0702 103.4 39.4185 102.407 40.1674Z" fill="#FFFFF9" fill-opacity="0.61"/>
<path d="M40.5503 92.2245C40.806 92.293 41.2641 92.6441 41.9219 93.2805C42.2533 93.6011 42.5797 93.9169 42.8329 94.2737C43.0861 94.6304 43.2561 95.0185 43.7322 95.845" stroke="#00C8A3" stroke-opacity="0.23" stroke-width="2" stroke-linecap="round"/>
<path d="M103.825 109.179C103.569 109.11 102.997 109.185 102.109 109.408C101.662 109.52 101.221 109.63 100.824 109.812C100.426 109.995 100.085 110.246 99.2592 110.723" stroke="#00C8A3" stroke-opacity="0.23" stroke-width="2" stroke-linecap="round"/>
<path d="M73.5731 109.874C73.1582 109.857 72.3529 109.743 71.6319 109.726C70.8132 109.707 69.9433 109.884 68.9928 110.089C68.3598 110.226 67.7921 109.297 67.1015 108.77C66.523 108.329 65.9017 107.976 65.2775 107.602C64.8831 107.44 64.5178 107.267 64.1369 107.067C63.9021 106.962 63.583 106.848 63.2542 106.732" stroke="#00C6E0" stroke-opacity="0.48" stroke-width="2" stroke-linecap="round"/>
<ellipse cx="5.34736" cy="7.35262" rx="5.34736" ry="7.35262" transform="matrix(-0.965926 -0.258819 -0.258819 0.965926 107.217 81.0225)" fill="#002427"/>
<ellipse cx="5.34736" cy="7.35262" rx="5.34736" ry="7.35262" transform="matrix(-0.965926 -0.258819 -0.258819 0.965926 59.4384 68.2197)" fill="#002427"/>
</g>
<ellipse cx="15.1326" cy="11.5333" rx="15.1326" ry="11.5333" transform="matrix(0.695288 0.718731 -0.755701 0.654917 46.1881 4.88672)" fill="url(#paint3_linear_693_2088)" stroke="#FFFFF6" stroke-width="2"/>
<ellipse cx="12.4571" cy="8.49784" rx="12.4571" ry="8.49784" transform="matrix(0.695288 0.718731 -0.755701 0.654917 44.3704 10.8838)" fill="#17B4C8"/>
<g filter="url(#filter2_d_693_2088)">
<path d="M93.7022 24.8953C65.2191 17.2633 38.7347 33.4521 31.5539 60.2512C27.9909 73.5489 32.3841 87.6367 39.9361 99.0544C36.6694 99.7302 35.0289 102.094 37.5998 107.853C36.0361 113.69 41.5189 120.211 48.9768 122.21C53.8464 123.514 58.6536 122.64 61.8399 120.251C63.3843 124.325 67.5773 127.937 73.1155 129.421C80.7996 131.48 88.2892 128.699 90.3444 123.183C91.7574 124.587 93.41 125.862 95.2757 126.939C104.209 132.096 114.623 130.783 118.535 124.006C121.334 119.158 120.048 112.827 115.819 107.728C122.418 102.102 127.591 95.0044 129.846 86.5885C137.027 59.7895 122.185 32.5274 93.7022 24.8953Z" fill="url(#paint4_radial_693_2088)"/>
<path d="M93.7022 24.8953L93.961 23.9294L93.961 23.9294L93.7022 24.8953ZM31.5539 60.2512L30.588 59.9924L30.588 59.9923L31.5539 60.2512ZM39.9361 99.0544L40.7702 98.5027C40.9532 98.7794 40.9871 99.1289 40.8606 99.4357C40.7341 99.7424 40.4637 99.9664 40.1387 100.034L39.9361 99.0544ZM37.5998 107.853L38.5129 107.445C38.6065 107.655 38.6251 107.89 38.5657 108.112L37.5998 107.853ZM48.9768 122.21L48.7179 123.176L48.9768 122.21ZM61.8399 120.251L61.2401 119.451C61.4915 119.263 61.8169 119.203 62.1187 119.291C62.4205 119.379 62.6635 119.603 62.7749 119.897L61.8399 120.251ZM73.1155 129.421L72.8567 130.387L72.8567 130.387L73.1155 129.421ZM90.3444 123.183L89.4073 122.834C89.526 122.515 89.7981 122.279 90.13 122.206C90.4619 122.133 90.8081 122.234 91.0491 122.473L90.3444 123.183ZM95.2757 126.939L94.7757 127.805L94.7757 127.805L95.2757 126.939ZM118.535 124.006L119.401 124.506L119.401 124.506L118.535 124.006ZM115.819 107.728L115.049 108.366C114.7 107.945 114.754 107.322 115.17 106.967L115.819 107.728ZM129.846 86.5885L130.812 86.8473L130.812 86.8474L129.846 86.5885ZM93.7022 24.8953L93.4434 25.8612C65.4995 18.3737 39.5592 34.2386 32.5198 60.51L31.5539 60.2512L30.588 59.9923C37.9102 32.6655 64.9388 16.1529 93.961 23.9294L93.7022 24.8953ZM31.5539 60.2512L32.5198 60.51C29.0571 73.4333 33.31 87.2239 40.7702 98.5027L39.9361 99.0544L39.1021 99.606C31.4582 88.0496 26.9246 73.6645 30.588 59.9924L31.5539 60.2512ZM39.9361 99.0544L40.1387 100.034C38.686 100.334 37.8545 100.947 37.5209 101.883C37.1558 102.908 37.2589 104.636 38.5129 107.445L37.5998 107.853L36.6867 108.261C35.3698 105.311 35.0076 102.978 35.6369 101.212C36.2975 99.3577 37.9195 98.4504 39.7335 98.0751L39.9361 99.0544ZM37.5998 107.853L38.5657 108.112C37.8901 110.634 38.7118 113.401 40.6832 115.842C42.6509 118.279 45.7004 120.296 49.2356 121.244L48.9768 122.21L48.7179 123.176C44.7952 122.124 41.3744 119.882 39.1272 117.099C36.8836 114.321 35.7458 110.909 36.6339 107.594L37.5998 107.853ZM48.9768 122.21L49.2356 121.244C53.8557 122.482 58.3359 121.628 61.2401 119.451L61.8399 120.251L62.4396 121.052C58.9714 123.651 53.8371 124.547 48.7179 123.176L48.9768 122.21ZM61.8399 120.251L62.7749 119.897C64.1827 123.611 68.0794 127.036 73.3743 128.455L73.1155 129.421L72.8567 130.387C67.0752 128.837 62.5858 125.04 60.9048 120.606L61.8399 120.251ZM73.1155 129.421L73.3743 128.455C80.795 130.443 87.6059 127.669 89.4073 122.834L90.3444 123.183L91.2815 123.532C88.9725 129.729 80.8043 132.516 72.8567 130.387L73.1155 129.421ZM90.3444 123.183L91.0491 122.473C92.4006 123.816 93.9843 125.038 95.7757 126.073L95.2757 126.939L94.7757 127.805C92.8357 126.685 91.1142 125.357 89.6396 123.892L90.3444 123.183ZM95.2757 126.939L95.7757 126.073C100.071 128.552 104.69 129.457 108.663 128.956C112.636 128.455 115.903 126.565 117.669 123.506L118.535 124.006L119.401 124.506C117.255 128.224 113.359 130.38 108.913 130.94C104.468 131.501 99.4139 130.483 94.7757 127.805L95.2757 126.939ZM118.535 124.006L117.669 123.506C120.19 119.14 119.112 113.265 115.049 108.366L115.819 107.728L116.589 107.09C120.985 112.39 122.478 119.177 119.401 124.506L118.535 124.006ZM115.819 107.728L115.17 106.967C121.653 101.44 126.689 94.5067 128.88 86.3297L129.846 86.5885L130.812 86.8474C128.493 95.502 123.183 102.763 116.468 108.489L115.819 107.728ZM129.846 86.5885L128.88 86.3297C135.92 60.0584 121.387 33.3488 93.4434 25.8612L93.7022 24.8953L93.961 23.9294C122.983 31.7059 138.134 59.5206 130.812 86.8473L129.846 86.5885Z" fill="#FFFFF6"/>
</g>
<path d="M105.475 48.1836C102.856 50.1568 103.702 55.0731 105.894 57.9821C108.087 60.8911 111.986 61.6498 114.605 59.6766C117.223 57.7034 117.568 53.7455 115.375 50.8365C113.183 47.9275 108.093 46.2104 105.475 48.1836Z" fill="#FFFFF9" fill-opacity="0.67"/>
<path d="M98.8891 40.2165C97.9086 40.9555 98.2252 42.7966 99.0462 43.8861C99.8673 44.9755 101.328 45.2596 102.308 44.5206C103.289 43.7817 103.418 42.2995 102.597 41.21C101.776 40.1206 99.8696 39.4775 98.8891 40.2165Z" fill="#FFFFF9" fill-opacity="0.67"/>
<path d="M44.7194 52.7631C43.8097 51.9385 42.0606 52.5947 41.1444 53.6055C40.2282 54.6162 40.2229 56.1041 41.1326 56.9286C42.0423 57.7532 43.5225 57.6022 44.4387 56.5915C45.3549 55.5807 45.6291 53.5877 44.7194 52.7631Z" fill="#54F6FD" fill-opacity="0.26"/>
<path d="M97.3903 108.961C97.144 108.895 96.5925 108.968 95.737 109.182C95.3061 109.29 94.8815 109.396 94.4984 109.572C94.1153 109.747 93.7864 109.989 92.9909 110.45" stroke="#00C8A3" stroke-opacity="0.5" stroke-width="2" stroke-linecap="round"/>
<path d="M69.7532 108.641C69.3533 108.624 68.5774 108.514 67.8827 108.498C67.0939 108.48 66.2557 108.65 65.3398 108.848C64.73 108.98 64.1829 108.085 63.5175 107.577C62.9601 107.152 62.3614 106.812 61.76 106.452C61.38 106.296 61.028 106.129 60.661 105.936C60.4348 105.835 60.1273 105.726 59.8104 105.613" stroke="#00C6E0" stroke-opacity="0.8" stroke-width="2" stroke-linecap="round"/>
<path d="M66.1663 70.0545C66.1484 70.0515 66.1304 70.0502 66.1121 70.0491C66.1012 70.0485 66.0903 70.0473 66.0792 70.0474C66.0571 70.0476 66.0352 70.0497 66.013 70.0529C66.0025 70.0544 65.9919 70.0554 65.9815 70.0576C65.961 70.0619 65.9412 70.0688 65.921 70.0758C65.9093 70.0798 65.8976 70.0837 65.8862 70.0887C65.8777 70.0924 65.8686 70.0947 65.8602 70.0989C65.849 70.1045 65.8392 70.1124 65.8286 70.1187C65.8225 70.1224 65.8157 70.1249 65.8097 70.1288C63.6086 71.5785 62.3634 71.495 61.6923 71.0931C60.978 70.6651 60.636 69.724 60.5805 68.9036C60.5614 68.6286 60.3229 68.4208 60.0477 68.4393C59.7726 68.4582 59.565 68.6969 59.5835 68.9721C59.6482 69.9262 60.0505 71.2755 61.1783 71.9512C62.27 72.605 63.8171 72.505 65.8938 71.2564C67.0679 73.3757 68.3579 74.2363 69.6301 74.2159C70.9446 74.1945 71.9678 73.2272 72.5008 72.4333C72.6546 72.2042 72.594 71.8938 72.3652 71.7398C72.136 71.586 71.8257 71.6465 71.6716 71.8755C71.2134 72.5581 70.4466 73.2021 69.614 73.2157C68.8319 73.2283 67.7117 72.6779 66.5304 70.3219C66.5269 70.315 66.5224 70.3084 66.5186 70.3016C66.5129 70.2915 66.5081 70.2806 66.5016 70.2708C66.4971 70.2639 66.4913 70.2581 66.4866 70.2516C66.4775 70.2392 66.4675 70.2278 66.4575 70.2165C66.4463 70.2037 66.4351 70.1913 66.4229 70.1799C66.4107 70.1686 66.3979 70.1584 66.3848 70.1485C66.3719 70.1388 66.3593 70.1291 66.3457 70.1208C66.3308 70.1117 66.3153 70.1039 66.2997 70.0963C66.2871 70.0904 66.2745 70.085 66.2616 70.0801C66.2457 70.074 66.2294 70.0695 66.213 70.065C66.1975 70.0609 66.1821 70.0572 66.1663 70.0545Z" fill="#002427"/>
<path d="M66.1663 70.0545L66.0842 70.5478L66.0828 70.5475L66.1663 70.0545ZM66.1121 70.0491L66.1402 69.5499L66.1414 69.55L66.1121 70.0491ZM66.0792 70.0474L66.0841 70.5474L66.0832 70.5474L66.0792 70.0474ZM66.013 70.0529L65.9417 69.558L65.9422 69.558L66.013 70.0529ZM65.9815 70.0576L66.0845 70.5469L66.0842 70.5469L65.9815 70.0576ZM65.921 70.0758L65.7566 69.6035L65.7569 69.6034L65.921 70.0758ZM65.8862 70.0887L66.0854 70.5473L66.0848 70.5475L65.8862 70.0887ZM65.8602 70.0989L65.6361 69.6519L65.6366 69.6517L65.8602 70.0989ZM65.8286 70.1187L65.5717 69.6898L65.5723 69.6894L65.8286 70.1187ZM65.8097 70.1288L65.5347 69.7113L65.5351 69.711L65.8097 70.1288ZM61.6923 71.0931L61.4354 71.5221L61.4353 71.522L61.6923 71.0931ZM60.5805 68.9036L61.0793 68.869L61.0793 68.8698L60.5805 68.9036ZM60.0477 68.4393L60.0135 67.9405L60.0142 67.9405L60.0477 68.4393ZM59.5835 68.9721L59.0846 69.0059L59.0846 69.0056L59.5835 68.9721ZM61.1783 71.9512L60.9214 72.3802L60.9213 72.3801L61.1783 71.9512ZM65.8938 71.2564L65.6362 70.8279L66.0801 70.561L66.3312 71.0141L65.8938 71.2564ZM69.6301 74.2159L69.6382 74.7158L69.6381 74.7158L69.6301 74.2159ZM72.5008 72.4333L72.916 72.712L72.9159 72.712L72.5008 72.4333ZM72.3652 71.7398L72.6438 71.3246L72.6444 71.325L72.3652 71.7398ZM71.6716 71.8755L71.2565 71.5968L71.2568 71.5964L71.6716 71.8755ZM69.614 73.2157L69.6222 73.7157L69.622 73.7157L69.614 73.2157ZM66.5304 70.3219L66.9773 70.0977L66.9773 70.0978L66.5304 70.3219ZM66.5186 70.3016L66.9542 70.0561L66.9548 70.0572L66.5186 70.3016ZM66.5016 70.2708L66.9188 69.9952L66.9192 69.9958L66.5016 70.2708ZM66.4866 70.2516L66.0831 70.5469L66.0824 70.5459L66.4866 70.2516ZM66.4575 70.2165L66.8326 69.8858L66.8331 69.8864L66.4575 70.2165ZM66.4229 70.1799L66.0833 70.5469L66.0828 70.5465L66.4229 70.1799ZM66.3848 70.1485L66.686 69.7494L66.6867 69.7499L66.3848 70.1485ZM66.3457 70.1208L66.0844 70.5471L66.0834 70.5465L66.3457 70.1208ZM66.2997 70.0963L66.5149 69.6451L66.5162 69.6457L66.2997 70.0963ZM66.2616 70.0801L66.0845 70.5477L66.083 70.5471L66.2616 70.0801ZM66.213 70.065L66.3418 69.5819L66.3433 69.5823L66.213 70.065ZM66.1663 70.0545L66.0828 70.5475C66.086 70.5481 66.0886 70.5484 66.0903 70.5486C66.092 70.5488 66.0929 70.5489 66.093 70.5489C66.093 70.5489 66.0923 70.5489 66.0905 70.5488C66.0888 70.5486 66.0864 70.5485 66.0829 70.5483L66.1121 70.0491L66.1414 69.55C66.1617 69.5512 66.203 69.5536 66.2498 69.5616L66.1663 70.0545ZM66.1121 70.0491L66.0841 70.5483C66.077 70.5479 66.0708 70.5475 66.0674 70.5472C66.0665 70.5472 66.0657 70.5471 66.065 70.5471C66.0643 70.547 66.0638 70.547 66.0633 70.5469C66.0628 70.5469 66.0625 70.5469 66.0623 70.5469C66.0621 70.5469 66.0621 70.5469 66.062 70.5468C66.0619 70.5468 66.0619 70.5468 66.0619 70.5468C66.0619 70.5468 66.062 70.5468 66.062 70.5468C66.0621 70.5469 66.0622 70.5469 66.0623 70.5469C66.0625 70.5469 66.0629 70.5469 66.0633 70.5469C66.0642 70.547 66.0657 70.5471 66.0675 70.5471C66.0711 70.5473 66.0769 70.5474 66.0841 70.5474L66.0792 70.0474L66.0744 69.5474C66.0991 69.5472 66.1195 69.5485 66.1295 69.5491C66.134 69.5494 66.1395 69.5498 66.1404 69.5499C66.1425 69.5501 66.1418 69.55 66.1402 69.5499L66.1121 70.0491ZM66.0792 70.0474L66.0832 70.5474L66.0839 70.5479L66.013 70.0529L65.9422 69.558C65.9778 69.5528 66.0235 69.5478 66.0753 69.5474L66.0792 70.0474ZM66.013 70.0529L66.0844 70.5478C66.0777 70.5488 66.0719 70.5495 66.0687 70.5499C66.0678 70.55 66.067 70.5501 66.0664 70.5502C66.0657 70.5503 66.0652 70.5504 66.0648 70.5504C66.0643 70.5505 66.064 70.5505 66.0638 70.5505C66.0636 70.5506 66.0635 70.5506 66.0635 70.5506C66.0635 70.5506 66.0636 70.5506 66.0639 70.5505C66.0641 70.5505 66.0644 70.5505 66.0649 70.5504C66.0657 70.5503 66.0671 70.5501 66.0688 70.5498C66.0723 70.5492 66.0777 70.5483 66.0845 70.5469L65.9815 70.0576L65.8785 69.5683C65.9018 69.5634 65.9213 69.5607 65.931 69.5594C65.9354 69.5588 65.9407 69.5581 65.9416 69.558C65.9437 69.5578 65.9431 69.5578 65.9417 69.558L66.013 70.0529ZM65.9815 70.0576L66.0842 70.5469C66.0893 70.5458 66.0933 70.5448 66.0959 70.5441C66.0972 70.5438 66.0982 70.5435 66.0989 70.5433C66.0996 70.5431 66.0999 70.543 66.0999 70.543C66.1 70.543 66.0997 70.5431 66.0991 70.5433C66.0984 70.5435 66.0975 70.5438 66.0963 70.5442C66.0935 70.5452 66.0903 70.5462 66.0851 70.5481L65.921 70.0758L65.7569 69.6034C65.7722 69.5981 65.8219 69.5802 65.8788 69.5682L65.9815 70.0576ZM65.921 70.0758L66.0854 70.548C66.0834 70.5486 66.0815 70.5493 66.0801 70.5498C66.0785 70.5503 66.0774 70.5507 66.0763 70.5511C66.0753 70.5514 66.0746 70.5517 66.0741 70.5519C66.0736 70.552 66.0734 70.5521 66.0734 70.5521C66.0735 70.5521 66.0737 70.552 66.0743 70.5518C66.0748 70.5516 66.0756 70.5513 66.0766 70.5509C66.0785 70.5502 66.0816 70.5489 66.0854 70.5473L65.8862 70.0887L65.687 69.6301C65.7202 69.6157 65.7548 69.6042 65.7566 69.6035L65.921 70.0758ZM65.8862 70.0887L66.0848 70.5475C66.071 70.5535 66.0594 70.5579 66.0526 70.5604C66.0491 70.5617 66.0462 70.5627 66.0445 70.5633C66.0437 70.5636 66.0428 70.5639 66.0425 70.5641C66.042 70.5642 66.0418 70.5643 66.0418 70.5643C66.0412 70.5645 66.0459 70.5628 66.0525 70.5602C66.0594 70.5575 66.0704 70.5528 66.0837 70.5461L65.8602 70.0989L65.6366 69.6517C65.6542 69.6429 65.6695 69.6364 65.6807 69.6319C65.6916 69.6275 65.7007 69.6243 65.7045 69.6229C65.7056 69.6225 65.7065 69.6222 65.7071 69.622C65.7079 69.6217 65.7081 69.6216 65.7084 69.6215C65.7089 69.6213 65.7081 69.6216 65.7068 69.6221C65.7044 69.623 65.6971 69.6257 65.6876 69.6298L65.8862 70.0887ZM65.8602 70.0989L66.0843 70.5459C66.0972 70.5394 66.1071 70.5336 66.1132 70.5299C66.119 70.5263 66.1229 70.5237 66.1224 70.524C66.1221 70.5242 66.1219 70.5243 66.1201 70.5255C66.1187 70.5265 66.1161 70.5282 66.1132 70.5302C66.1074 70.534 66.0973 70.5406 66.0849 70.5481L65.8286 70.1187L65.5723 69.6894C65.5651 69.6937 65.5603 69.6969 65.5597 69.6973C65.5593 69.6976 65.5593 69.6976 65.5605 69.6968C65.5612 69.6963 65.5636 69.6947 65.5659 69.6931C65.5741 69.6877 65.6009 69.6696 65.6361 69.6519L65.8602 70.0989ZM65.8286 70.1187L66.0854 70.5477C66.0709 70.5564 66.0586 70.5629 66.0513 70.5666C66.0475 70.5685 66.0444 70.5701 66.0426 70.571C66.0417 70.5714 66.0409 70.5718 66.0404 70.572C66.0398 70.5723 66.0398 70.5723 66.0397 70.5724C66.039 70.5727 66.0442 70.5702 66.0511 70.5665C66.0584 70.5626 66.0702 70.5559 66.0843 70.5467L65.8097 70.1288L65.5351 69.711C65.5522 69.6998 65.5671 69.6914 65.5775 69.6857C65.5876 69.6803 65.596 69.6762 65.5985 69.675C65.5992 69.6746 65.6 69.6743 65.6002 69.6741C65.6006 69.674 65.6006 69.674 65.6004 69.674C65.6002 69.6741 65.5987 69.6749 65.5965 69.676C65.5924 69.6781 65.5833 69.6829 65.5717 69.6898L65.8286 70.1187ZM65.8097 70.1288L66.0847 70.5464C63.8263 72.0338 62.3558 72.0733 61.4354 71.5221L61.6923 71.0931L61.9492 70.6642C62.3711 70.9168 63.3909 71.1232 65.5347 69.7113L65.8097 70.1288ZM61.6923 71.0931L61.4353 71.522C60.5149 70.9705 60.1418 69.8259 60.0816 68.9374L60.5805 68.9036L61.0793 68.8698C61.1303 69.622 61.4411 70.3597 61.9493 70.6642L61.6923 71.0931ZM60.5805 68.9036L60.0817 68.9382L60.0813 68.9382L60.0477 68.4393L60.0142 67.9405C60.5639 67.9035 61.0411 68.3184 61.0793 68.869L60.5805 68.9036ZM60.0477 68.4393L60.082 68.9382L60.0823 68.9386L59.5835 68.9721L59.0846 69.0056C59.0477 68.4562 59.4621 67.9784 60.0135 67.9405L60.0477 68.4393ZM59.5835 68.9721L60.0823 68.9383C60.1426 69.8265 60.5148 70.9708 61.4353 71.5223L61.1783 71.9512L60.9213 72.3801C59.5861 71.5802 59.1538 70.0259 59.0846 69.0059L59.5835 68.9721ZM61.1783 71.9512L61.4352 71.5223C62.2937 72.0365 63.6257 72.0367 65.6362 70.8279L65.8938 71.2564L66.1514 71.6849C64.0085 72.9733 62.2462 73.1736 60.9214 72.3802L61.1783 71.9512ZM65.8938 71.2564L66.3312 71.0141C67.4679 73.0659 68.6216 73.732 69.6221 73.716L69.6301 74.2159L69.6381 74.7158C68.0942 74.7406 66.668 73.6856 65.4564 71.4987L65.8938 71.2564ZM69.6301 74.2159L69.622 73.716C70.6948 73.6985 71.5895 72.8937 72.0857 72.1546L72.5008 72.4333L72.9159 72.712C72.346 73.5608 71.1944 74.6906 69.6382 74.7158L69.6301 74.2159ZM72.5008 72.4333L72.0857 72.1546L72.0859 72.1545L72.3652 71.7398L72.6444 71.325C73.1024 71.6334 73.2233 72.2542 72.916 72.712L72.5008 72.4333ZM72.3652 71.7398L72.0865 72.1549L72.0865 72.1546L71.6716 71.8755L71.2568 71.5964C71.5652 71.138 72.1861 71.0174 72.6438 71.3246L72.3652 71.7398ZM71.6716 71.8755L72.0868 72.1541C71.5904 72.8936 70.6949 73.6981 69.6222 73.7157L69.614 73.2157L69.6059 72.7158C70.1982 72.7061 70.8364 72.2227 71.2565 71.5968L71.6716 71.8755ZM69.614 73.2157L69.622 73.7157C68.5494 73.7328 67.2955 72.9633 66.0834 70.5461L66.5304 70.3219L66.9773 70.0978C68.128 72.3924 69.1144 72.7237 69.606 72.7158L69.614 73.2157ZM66.5304 70.3219L66.0835 70.5462C66.0874 70.554 66.0908 70.5601 66.0928 70.5637C66.0949 70.5673 66.0963 70.5696 66.0961 70.5693C66.096 70.5691 66.0959 70.569 66.0952 70.5678C66.0947 70.567 66.0937 70.5653 66.0926 70.5635C66.0905 70.5599 66.0867 70.5537 66.0825 70.5461L66.5186 70.3016L66.9548 70.0572C66.9524 70.0529 66.9507 70.05 66.9506 70.0498C66.9505 70.0496 66.9505 70.0497 66.951 70.0505C66.9513 70.0511 66.9522 70.0526 66.9531 70.0541C66.9563 70.0593 66.9665 70.0763 66.9773 70.0977L66.5304 70.3219ZM66.5186 70.3016L66.0831 70.5472C66.0778 70.5378 66.0736 70.5298 66.0713 70.5253C66.0701 70.523 66.0689 70.5209 66.0684 70.5198C66.0677 70.5184 66.0675 70.5181 66.0674 70.5179C66.0672 70.5176 66.0688 70.5205 66.0713 70.5249C66.0738 70.5295 66.0782 70.5368 66.0841 70.5458L66.5016 70.2708L66.9192 69.9958C66.9367 70.0223 66.9489 70.0456 66.9534 70.0543C66.9547 70.0567 66.9559 70.059 66.9565 70.0602C66.9573 70.0618 66.9576 70.0622 66.9577 70.0625C66.9581 70.0632 66.9566 70.0604 66.9542 70.0561L66.5186 70.3016ZM66.5016 70.2708L66.0844 70.5464C66.0922 70.5581 66.099 70.5671 66.1032 70.5726C66.1073 70.5778 66.1103 70.5814 66.11 70.581C66.1099 70.581 66.1098 70.5808 66.1095 70.5805C66.1093 70.5802 66.1087 70.5795 66.1082 70.5789C66.1071 70.5776 66.1052 70.5753 66.103 70.5726C66.0987 70.5674 66.0914 70.5583 66.0831 70.5469L66.4866 70.2516L66.89 69.9563C66.8841 69.9481 66.8793 69.9422 66.8775 69.9401C66.8766 69.9389 66.876 69.9382 66.8763 69.9385C66.8764 69.9387 66.8765 69.9388 66.8769 69.9393C66.8773 69.9397 66.8778 69.9404 66.8784 69.9411C66.8807 69.9438 66.8863 69.9506 66.8929 69.959C66.8996 69.9677 66.9088 69.98 66.9188 69.9952L66.5016 70.2708ZM66.4866 70.2516L66.0824 70.5459C66.0847 70.5491 66.0866 70.5515 66.0878 70.5531C66.089 70.5546 66.0898 70.5555 66.0898 70.5555C66.0898 70.5555 66.0897 70.5554 66.0894 70.555C66.089 70.5546 66.0886 70.5541 66.0879 70.5534C66.0864 70.5516 66.0849 70.5499 66.082 70.5466L66.4575 70.2165L66.8331 69.8864C66.8397 69.8939 66.8657 69.9229 66.8907 69.9572L66.4866 70.2516ZM66.4575 70.2165L66.0825 70.5472C66.08 70.5443 66.0783 70.5425 66.077 70.541C66.0764 70.5403 66.0759 70.5398 66.0756 70.5395C66.0753 70.5391 66.0752 70.539 66.0752 70.539C66.0752 70.539 66.0754 70.5392 66.0757 70.5395C66.0761 70.5399 66.0766 70.5404 66.0772 70.5411C66.0786 70.5424 66.0806 70.5444 66.0833 70.5469L66.4229 70.1799L66.7624 69.8129C66.7956 69.8436 66.822 69.8738 66.8326 69.8858L66.4575 70.2165ZM66.4229 70.1799L66.0828 70.5465L66.0829 70.547L66.3848 70.1485L66.6867 69.7499C66.7058 69.7644 66.7334 69.7859 66.7629 69.8133L66.4229 70.1799ZM66.3848 70.1485L66.0835 70.5475C66.0798 70.5447 66.0778 70.5432 66.0757 70.5417C66.0749 70.541 66.0742 70.5405 66.0738 70.5402C66.0734 70.5399 66.0732 70.5398 66.0732 70.5398C66.0732 70.5398 66.0734 70.54 66.0739 70.5403C66.0744 70.5406 66.0751 70.5411 66.076 70.5417C66.0778 70.5429 66.0807 70.5448 66.0844 70.5471L66.3457 70.1208L66.607 69.6945C66.6452 69.7179 66.6781 69.7434 66.686 69.7494L66.3848 70.1485ZM66.3457 70.1208L66.0834 70.5465L66.0831 70.547L66.2997 70.0963L66.5162 69.6457C66.5355 69.6549 66.5701 69.6718 66.6079 69.6951L66.3457 70.1208ZM66.2997 70.0963L66.0844 70.5476L66.0845 70.5476L66.2616 70.0801L66.4387 69.6125C66.4646 69.6223 66.49 69.6332 66.5149 69.6451L66.2997 70.0963ZM66.2616 70.0801L66.083 70.5471C66.0862 70.5483 66.0888 70.5492 66.0904 70.5498C66.0913 70.5501 66.0919 70.5503 66.0923 70.5504C66.0928 70.5505 66.093 70.5506 66.093 70.5506C66.093 70.5506 66.0928 70.5505 66.0924 70.5504C66.092 70.5503 66.0913 70.5501 66.0905 70.5499C66.0886 70.5494 66.0863 70.5487 66.0827 70.5478L66.213 70.065L66.3433 69.5823C66.3595 69.5867 66.3979 69.5969 66.4401 69.613L66.2616 70.0801ZM66.213 70.065L66.0842 70.5482L66.0842 70.5478L66.1663 70.0545L66.2484 69.5613C66.287 69.5678 66.32 69.5761 66.3418 69.5819L66.213 70.065Z" fill="#002427"/>
<ellipse cx="4.8089" cy="6.61223" rx="4.8089" ry="6.61223" transform="matrix(-0.965926 -0.258819 -0.258819 0.965926 94.4102 68.9001)" fill="#002427"/>
<ellipse cx="4.8089" cy="6.61223" rx="4.8089" ry="6.61223" transform="matrix(-0.965926 -0.258819 -0.258819 0.965926 58.0847 57.3064)" fill="#002427"/>
<ellipse cx="15.1326" cy="11.5333" rx="15.1326" ry="11.5333" transform="matrix(-0.961503 0.274795 0.326998 0.945025 146.714 31.8225)" fill="url(#paint5_linear_693_2088)" stroke="#FFFFF6" stroke-width="2"/>
<ellipse cx="12.4571" cy="8.49784" rx="12.4571" ry="8.49784" transform="matrix(-0.961503 0.274795 0.326998 0.945025 145.289 37.9253)" fill="#17B4C8"/>
<path d="M39.3252 88.2456C40.7537 93.5966 41.5589 103.048 38.1882 106.109C36.444 107.693 27.5387 106.179 21.9905 102.956C14.814 98.7863 10.8441 90.8038 14.4288 83.0988C17.5074 76.4818 24.2715 74.6662 29.7533 76.055C32.3809 76.7207 37.434 81.1619 39.3252 88.2456Z" fill="#00AFC8" stroke="#FFFFF6" stroke-width="2"/>
<circle cx="3.79409" cy="3.79409" r="3.79409" transform="matrix(-0.965926 -0.258819 -0.258819 0.965926 28.569 85.7317)" fill="#86DAE6"/>
<circle cx="2.5294" cy="2.5294" r="2.5294" transform="matrix(-0.965926 -0.258819 -0.258819 0.965926 32.3857 95.9207)" fill="#86DAE6"/>
<defs>
<filter id="filter0_f_693_2088" x="5.88208" y="1.49634" width="153.063" height="139.229" filterUnits="userSpaceOnUse" color-interpolation-filters="sRGB">
<feFlood flood-opacity="0" result="BackgroundImageFix"/>
<feBlend mode="normal" in="SourceGraphic" in2="BackgroundImageFix" result="shape"/>
<feGaussianBlur stdDeviation="3.5" result="effect1_foregroundBlur_693_2088"/>
</filter>
<filter id="filter1_d_693_2088" x="8.38208" y="11.468" width="130.593" height="123.757" filterUnits="userSpaceOnUse" color-interpolation-filters="sRGB">
<feFlood flood-opacity="0" result="BackgroundImageFix"/>
<feColorMatrix in="SourceAlpha" type="matrix" values="0 0 0 0 0 0 0 0 0 0 0 0 0 0 0 0 0 0 127 0" result="hardAlpha"/>
<feOffset dy="-3"/>
<feGaussianBlur stdDeviation="2.25"/>
<feComposite in2="hardAlpha" operator="out"/>
<feColorMatrix type="matrix" values="0 0 0 0 0 0 0 0 0 0 0 0 0 0 0 0 0 0 0.25 0"/>
<feBlend mode="normal" in2="BackgroundImageFix" result="effect1_dropShadow_693_2088"/>
<feBlend mode="normal" in="SourceGraphic" in2="effect1_dropShadow_693_2088" result="shape"/>
</filter>
<filter id="filter2_d_693_2088" x="24.7964" y="14.5027" width="112.344" height="118.092" filterUnits="userSpaceOnUse" color-interpolation-filters="sRGB">
<feFlood flood-opacity="0" result="BackgroundImageFix"/>
<feColorMatrix in="SourceAlpha" type="matrix" values="0 0 0 0 0 0 0 0 0 0 0 0 0 0 0 0 0 0 127 0" result="hardAlpha"/>
<feOffset dy="-3"/>
<feGaussianBlur stdDeviation="2.25"/>
<feComposite in2="hardAlpha" operator="out"/>
<feColorMatrix type="matrix" values="0 0 0 0 0 0 0 0 0 0 0 0 0 0 0 0 0 0 0.25 0"/>
<feBlend mode="normal" in2="BackgroundImageFix" result="effect1_dropShadow_693_2088"/>
<feBlend mode="normal" in="SourceGraphic" in2="effect1_dropShadow_693_2088" result="shape"/>
</filter>
<linearGradient id="paint0_linear_693_2088" x1="13.8915" y1="19.3472" x2="22.027" y2="0.238001" gradientUnits="userSpaceOnUse">
<stop stop-color="#3DDCFF"/>
<stop offset="1" stop-color="#61FFB0"/>
</linearGradient>
<linearGradient id="paint1_linear_693_2088" x1="44.8177" y1="29.8581" x2="52.9532" y2="10.7489" gradientUnits="userSpaceOnUse">
<stop stop-color="#3DDCFF"/>
<stop offset="1" stop-color="#61FFB0"/>
</linearGradient>
<radialGradient id="paint2_radial_693_2088" cx="0" cy="0" r="1" gradientUnits="userSpaceOnUse" gradientTransform="translate(73.2953 102.165) rotate(127.463) scale(75.2229 106.333)">
<stop stop-color="#25FBFF"/>
<stop offset="0.303481" stop-color="#95EEFC"/>
<stop offset="0.591346" stop-color="#FFE2F8"/>
<stop offset="1" stop-color="#84FFC1"/>
</radialGradient>
<linearGradient id="paint3_linear_693_2088" x1="13.2643" y1="17.2798" x2="20.1939" y2="-0.121422" gradientUnits="userSpaceOnUse">
<stop stop-color="#3DDCFF"/>
<stop offset="1" stop-color="#61FFB0"/>
</linearGradient>
<radialGradient id="paint4_radial_693_2088" cx="0" cy="0" r="1" gradientUnits="userSpaceOnUse" gradientTransform="translate(74.155 102.337) rotate(127.268) scale(72.3792 101.612)">
<stop stop-color="#25FBFF"/>
<stop offset="0.303481" stop-color="#95EEFC"/>
<stop offset="0.591346" stop-color="#FFE2F8"/>
<stop offset="1" stop-color="#84FFC1"/>
</radialGradient>
<linearGradient id="paint5_linear_693_2088" x1="13.2643" y1="17.2798" x2="20.1939" y2="-0.121419" gradientUnits="userSpaceOnUse">
<stop stop-color="#3DDCFF"/>
<stop offset="1" stop-color="#61FFB0"/>
</linearGradient>
</defs>
</svg>
