<svg width="134" height="129" viewBox="0 0 134 129" fill="none" xmlns="http://www.w3.org/2000/svg">
<g filter="url(#filter0_f_1436_2326)">
<ellipse cx="10.5905" cy="8.62926" rx="10.5905" ry="8.62926" transform="matrix(-0.907333 0.420412 0.420412 0.907333 100.891 22.3315)" fill="url(#paint0_linear_1436_2326)" stroke="#FFFFF6" stroke-width="2"/>
<ellipse cx="34.0475" cy="40.1668" rx="10.5904" ry="8.62925" transform="rotate(14.4356 34.0475 40.1668)" fill="url(#paint1_linear_1436_2326)" stroke="#FFFFF6" stroke-width="2"/>
<ellipse cx="8.71806" cy="6.35809" rx="8.71806" ry="6.35809" transform="matrix(-0.907333 0.420412 0.420412 0.907333 100.409 26.1494)" fill="#17B4C8"/>
<g filter="url(#filter1_d_1436_2326)">
<path d="M63.3818 28.3036C43.0156 30.1616 29.6578 47.044 31.4059 66.2062C31.7744 70.2446 33.1147 74.0301 35.1166 77.4821C30.6065 79.8263 27.8638 84.121 28.5829 88.4914C29.5326 94.2621 36.1573 97.9771 43.3794 96.7888C44.6542 96.5791 45.8617 96.2274 46.9819 95.764C47.4684 100.643 52.3905 104.174 58.0154 103.66C61.6371 103.33 64.6673 101.402 66.2602 98.7671C68.3707 101.142 71.8978 102.533 75.7474 102.182C81.0493 101.698 85.1534 98.0763 85.6008 93.7785C86.8921 94.3842 88.3187 94.8406 89.8433 95.1036C96.8931 96.3197 103.356 92.9697 104.279 87.6215C104.997 83.4565 102.143 79.3088 97.516 77.1026C100.529 71.8113 102.244 65.8847 101.688 59.7945C99.9402 40.6323 83.7481 26.4457 63.3818 28.3036Z" fill="url(#paint2_radial_1436_2326)"/>
<path d="M63.3818 28.3036L63.291 27.3078L63.3818 28.3036ZM31.4059 66.2062L30.4101 66.2971L30.4101 66.2971L31.4059 66.2062ZM35.1166 77.4821L35.9817 76.9805C36.1187 77.2168 36.1531 77.499 36.0768 77.7613C36.0006 78.0237 35.8202 78.2434 35.5778 78.3694L35.1166 77.4821ZM28.5829 88.4914L27.5962 88.6538L27.5962 88.6537L28.5829 88.4914ZM43.3794 96.7888L43.5418 97.7756L43.5418 97.7756L43.3794 96.7888ZM46.9819 95.764L46.5995 94.8399C46.8919 94.719 47.2242 94.7435 47.4956 94.906C47.767 95.0686 47.9455 95.3499 47.9769 95.6647L46.9819 95.764ZM58.0154 103.66L58.1063 104.656L58.1062 104.656L58.0154 103.66ZM66.2602 98.7671L65.4044 98.2498C65.5688 97.9779 65.8526 97.8003 66.1689 97.7713C66.4853 97.7423 66.7967 97.8654 67.0077 98.1029L66.2602 98.7671ZM75.7474 102.182L75.8383 103.178L75.8382 103.178L75.7474 102.182ZM85.6008 93.7785L84.6062 93.6749C84.6397 93.3529 84.8271 93.067 85.109 92.9078C85.3909 92.7485 85.7324 92.7356 86.0255 92.8731L85.6008 93.7785ZM89.8433 95.1036L89.6733 96.089L89.6732 96.089L89.8433 95.1036ZM104.279 87.6215L105.264 87.7915L105.264 87.7915L104.279 87.6215ZM97.516 77.1026L97.0856 78.0053C96.8348 77.8857 96.6451 77.6671 96.5618 77.402C96.4786 77.1369 96.5095 76.8492 96.647 76.6077L97.516 77.1026ZM101.688 59.7945L102.684 59.7037L102.684 59.7037L101.688 59.7945ZM63.3818 28.3036L63.4727 29.2995C43.6623 31.1068 30.7033 47.4973 32.4018 66.1154L31.4059 66.2062L30.4101 66.2971C28.6123 46.5908 42.3688 29.2165 63.291 27.3078L63.3818 28.3036ZM31.4059 66.2062L32.4018 66.1154C32.7552 69.9888 34.0418 73.6355 35.9817 76.9805L35.1166 77.4821L34.2516 77.9838C32.1875 74.4247 30.7936 70.5004 30.4101 66.2971L31.4059 66.2062ZM35.1166 77.4821L35.5778 78.3694C31.327 80.5788 28.9411 84.5091 29.5697 88.329L28.5829 88.4914L27.5962 88.6537C26.7864 83.7329 29.8861 79.0737 34.6554 76.5948L35.1166 77.4821ZM28.5829 88.4914L29.5697 88.329C30.3976 93.3597 36.3218 96.9366 43.2171 95.8021L43.3794 96.7888L43.5418 97.7756C35.9927 99.0176 28.6677 95.1644 27.5962 88.6538L28.5829 88.4914ZM43.3794 96.7888L43.217 95.8021C44.415 95.605 45.5488 95.2747 46.5995 94.8399L46.9819 95.764L47.3642 96.688C46.1746 97.1802 44.8934 97.5532 43.5418 97.7756L43.3794 96.7888ZM46.9819 95.764L47.9769 95.6647C48.3967 99.8736 52.7136 103.14 57.9245 102.665L58.0154 103.66L58.1062 104.656C52.0675 105.207 46.5402 101.412 45.9868 95.8632L46.9819 95.764ZM58.0154 103.66L57.9245 102.665C61.2523 102.361 63.9874 100.594 65.4044 98.2498L66.2602 98.7671L67.116 99.2845C65.3473 102.21 62.022 104.299 58.1063 104.656L58.0154 103.66ZM66.2602 98.7671L67.0077 98.1029C68.885 100.215 72.0884 101.512 75.6565 101.186L75.7474 102.182L75.8382 103.178C71.7072 103.555 67.8563 102.069 65.5127 99.4314L66.2602 98.7671ZM75.7474 102.182L75.6565 101.186C80.6041 100.735 84.2199 97.3861 84.6062 93.6749L85.6008 93.7785L86.5955 93.882C86.087 98.7666 81.4945 102.662 75.8383 103.178L75.7474 102.182ZM85.6008 93.7785L86.0255 92.8731C87.2355 93.4408 88.5765 93.8703 90.0133 94.1182L89.8433 95.1036L89.6732 96.089C88.0609 95.8109 86.5486 95.3277 85.1761 94.6838L85.6008 93.7785ZM89.8433 95.1036L90.0132 94.1181C93.3429 94.6925 96.4972 94.181 98.8986 92.9363C101.299 91.692 102.897 89.7507 103.293 87.4515L104.279 87.6215L105.264 87.7915C104.738 90.8405 102.643 93.2483 99.819 94.712C96.9957 96.1753 93.3935 96.7308 89.6733 96.089L89.8433 95.1036ZM104.279 87.6215L103.293 87.4515C103.909 83.8858 101.474 80.0975 97.0856 78.0053L97.516 77.1026L97.9463 76.1999C102.813 78.52 106.086 83.0273 105.264 87.7915L104.279 87.6215ZM97.516 77.1026L96.647 76.6077C99.5845 71.4495 101.225 65.7262 100.692 59.8854L101.688 59.7945L102.684 59.7037C103.262 66.0432 101.474 72.1731 98.3849 77.5975L97.516 77.1026ZM101.688 59.7945L100.692 59.8854C98.994 41.2673 83.2831 27.4922 63.4727 29.2995L63.3818 28.3036L63.291 27.3078C84.2132 25.3991 100.886 39.9974 102.684 59.7037L101.688 59.7945Z" fill="#FFFFF6"/>
</g>
<path d="M71.7321 71.6267C71.4703 71.5401 71.1871 71.6816 71.1 71.9432C70.9194 72.4881 70.4603 73.1388 69.7006 73.3829C68.9572 73.6216 67.766 73.5212 66.0056 72.2324C65.9998 72.2282 65.993 72.2254 65.987 72.2214C65.9739 72.2126 65.9603 72.205 65.9466 72.1976C65.9308 72.1891 65.9156 72.1802 65.8993 72.1735C65.8877 72.1688 65.8757 72.1658 65.8639 72.162C65.8429 72.1552 65.822 72.1492 65.8006 72.1452C65.7916 72.1436 65.7827 72.142 65.7737 72.1408C65.7527 72.1382 65.7317 72.1368 65.7106 72.1368C65.6969 72.1368 65.6833 72.1384 65.6696 72.1395C65.6507 72.1411 65.632 72.1429 65.6134 72.1466C65.6031 72.1487 65.593 72.1516 65.5827 72.1543C65.5617 72.1599 65.5411 72.1664 65.5209 72.1747C65.5097 72.1792 65.4987 72.1841 65.4879 72.1895C65.4712 72.1977 65.4552 72.2072 65.4394 72.2174C65.4254 72.2265 65.4123 72.2369 65.399 72.2476C65.3863 72.2578 65.3736 72.2678 65.3617 72.2794C65.3569 72.2842 65.3511 72.2886 65.3464 72.2936C63.8482 73.8796 62.6948 74.194 61.9205 74.0937C61.1293 73.991 60.56 73.4341 60.2837 72.9309C60.1507 72.6892 59.8467 72.6012 59.6048 72.734C59.3633 72.8671 59.2751 73.1711 59.4079 73.4129C59.7884 74.1055 60.5942 74.9307 61.7914 75.0861C62.9298 75.2338 64.2751 74.7578 65.7705 73.2884C67.5064 74.4622 68.9146 74.6866 70.0072 74.3356C71.1567 73.9661 71.7998 73.0088 72.0486 72.2587C72.1355 71.9968 71.9939 71.7137 71.7321 71.6267Z" fill="#002427"/>
<path d="M71.7321 71.6267L71.889 71.1519L71.8899 71.1522L71.7321 71.6267ZM71.1 71.9432L70.6255 71.7859L70.6256 71.7854L71.1 71.9432ZM69.7006 73.3829L69.8537 73.859L69.8535 73.859L69.7006 73.3829ZM66.0056 72.2324L66.3007 71.8287L66.301 71.829L66.0056 72.2324ZM65.987 72.2214L65.7094 72.6373L65.7092 72.6371L65.987 72.2214ZM65.9466 72.1976L65.7094 72.6378L65.7092 72.6377L65.9466 72.1976ZM65.8993 72.1735L66.088 71.7105L66.0884 71.7106L65.8993 72.1735ZM65.8639 72.162L65.7104 72.6379L65.71 72.6378L65.8639 72.162ZM65.8006 72.1452L65.8903 71.6534L65.8904 71.6534L65.8006 72.1452ZM65.7737 72.1408L65.8365 71.6448L65.8366 71.6448L65.7737 72.1408ZM65.7106 72.1368L65.7109 72.6368L65.7105 72.6368L65.7106 72.1368ZM65.6696 72.1395L65.6285 71.6412L65.629 71.6412L65.6696 72.1395ZM65.6134 72.1466L65.7105 72.6371L65.71 72.6372L65.6134 72.1466ZM65.5827 72.1543L65.455 71.6709L65.4554 71.6708L65.5827 72.1543ZM65.5209 72.1747L65.7104 72.6374L65.7102 72.6374L65.5209 72.1747ZM65.4879 72.1895L65.2653 71.7417L65.2654 71.7417L65.4879 72.1895ZM65.4394 72.2174L65.711 72.6372L65.711 72.6372L65.4394 72.2174ZM65.399 72.2476L65.0861 71.8576L65.0863 71.8574L65.399 72.2476ZM65.3617 72.2794L65.7118 72.6365L65.7111 72.6371L65.3617 72.2794ZM65.3464 72.2936L64.9829 71.9502L64.9829 71.9502L65.3464 72.2936ZM61.9205 74.0937L61.8563 74.5895L61.8562 74.5895L61.9205 74.0937ZM60.2837 72.9309L60.7218 72.6899L60.722 72.6903L60.2837 72.9309ZM59.6048 72.734L59.3635 72.2961L59.3642 72.2957L59.6048 72.734ZM59.4079 73.4129L58.9696 73.6536L58.9696 73.6535L59.4079 73.4129ZM61.7914 75.0861L61.7271 75.5819L61.7271 75.5819L61.7914 75.0861ZM65.7705 73.2884L65.4201 72.9318L65.7118 72.6452L66.0506 72.8742L65.7705 73.2884ZM70.0072 74.3356L70.1602 74.8116L70.1601 74.8116L70.0072 74.3356ZM72.0486 72.2587L72.5233 72.4161L72.5232 72.4162L72.0486 72.2587ZM71.7321 71.6267L71.5752 72.1014L71.5745 72.101L71.1 71.9432L70.6256 71.7854C70.8001 71.2609 71.3665 70.9792 71.889 71.1519L71.7321 71.6267ZM71.1 71.9432L71.5746 72.1006C71.3596 72.7492 70.8074 73.5524 69.8537 73.859L69.7006 73.3829L69.5476 72.9069C70.1133 72.7251 70.4792 72.2269 70.6255 71.7859L71.1 71.9432ZM69.7006 73.3829L69.8535 73.859C68.8993 74.1653 67.5407 73.976 65.7103 72.6359L66.0056 72.2324L66.301 71.829C67.9912 73.0664 69.0151 73.0779 69.5478 72.9069L69.7006 73.3829ZM66.0056 72.2324L65.7106 72.6361C65.7255 72.647 65.738 72.6548 65.7458 72.6594C65.7498 72.6617 65.7529 72.6635 65.7549 72.6646C65.7568 72.6657 65.7581 72.6664 65.758 72.6663C65.7579 72.6663 65.7578 72.6662 65.7572 72.6659C65.7567 72.6656 65.7559 72.6652 65.7549 72.6646C65.7529 72.6636 65.7496 72.6618 65.7456 72.6595C65.7379 72.6551 65.7248 72.6475 65.7094 72.6373L65.987 72.2214L66.2645 71.8055C66.2521 71.7972 66.2422 71.7915 66.2376 71.7889C66.2352 71.7875 66.2334 71.7866 66.2331 71.7864C66.2329 71.7863 66.2328 71.7862 66.2331 71.7864C66.2333 71.7865 66.2341 71.7869 66.2347 71.7873C66.2372 71.7886 66.246 71.7934 66.2564 71.7996C66.2673 71.806 66.2829 71.8158 66.3007 71.8287L66.0056 72.2324ZM65.987 72.2214L65.7092 72.6371L65.7094 72.6378L65.9466 72.1976L66.1838 71.7575C66.2011 71.7668 66.2314 71.7834 66.2648 71.8057L65.987 72.2214ZM65.9466 72.1976L65.7092 72.6377C65.7032 72.6344 65.697 72.631 65.6943 72.6296C65.6926 72.6286 65.6915 72.628 65.6906 72.6275C65.6902 72.6273 65.6899 72.6271 65.6897 72.627C65.6895 72.6269 65.6894 72.6269 65.6894 72.6269C65.6894 72.6269 65.6895 72.6269 65.6897 72.627C65.6899 72.6271 65.6902 72.6273 65.6907 72.6275C65.6915 72.628 65.6928 72.6286 65.6945 72.6294C65.6979 72.6311 65.7032 72.6335 65.7102 72.6364L65.8993 72.1735L66.0884 71.7106C66.1179 71.7227 66.142 71.735 66.1569 71.7429C66.1644 71.7468 66.1711 71.7505 66.1753 71.7528C66.1805 71.7557 66.1821 71.7565 66.184 71.7576L65.9466 72.1976ZM65.8993 72.1735L65.7106 72.6365C65.7187 72.6398 65.7252 72.6422 65.7293 72.6436C65.7314 72.6443 65.7331 72.6448 65.7341 72.6451C65.7347 72.6453 65.7351 72.6455 65.7354 72.6455C65.7356 72.6456 65.7358 72.6457 65.7358 72.6457C65.7358 72.6457 65.7357 72.6456 65.7354 72.6456C65.7352 72.6455 65.7348 72.6454 65.7342 72.6452C65.7339 72.6451 65.7309 72.6442 65.7295 72.6438C65.7256 72.6426 65.7185 72.6405 65.7104 72.6379L65.8639 72.162L66.0174 71.6862C66.0151 71.6854 66.014 71.6851 66.016 71.6857C66.0164 71.6858 66.0229 71.6878 66.0275 71.6892C66.0383 71.6924 66.0612 71.6995 66.088 71.7105L65.8993 72.1735ZM65.8639 72.162L65.71 72.6378L65.7108 72.6371L65.8006 72.1452L65.8904 71.6534C65.9439 71.6631 65.9891 71.677 66.0177 71.6863L65.8639 72.162ZM65.8006 72.1452L65.7108 72.6371L65.7108 72.6369L65.7737 72.1408L65.8366 71.6448C65.8615 71.648 65.8841 71.6522 65.8903 71.6534L65.8006 72.1452ZM65.7737 72.1408L65.7109 72.6369L65.7109 72.6368L65.7106 72.1368L65.7103 71.6368C65.7538 71.6367 65.7959 71.6396 65.8365 71.6448L65.7737 72.1408ZM65.7106 72.1368L65.7105 72.6368C65.7229 72.6368 65.7311 72.6361 65.7303 72.6361C65.7299 72.6362 65.729 72.6362 65.7253 72.6366C65.7224 72.6368 65.7165 72.6374 65.7103 72.6379L65.6696 72.1395L65.629 71.6412C65.6296 71.6411 65.6306 71.6411 65.6345 71.6407C65.6376 71.6404 65.6435 71.6399 65.6499 71.6394C65.6627 71.6383 65.6846 71.6368 65.7106 71.6368L65.7106 72.1368ZM65.6696 72.1395L65.7108 72.6378C65.7073 72.6381 65.7049 72.6383 65.7032 72.6385C65.7023 72.6386 65.7017 72.6386 65.7013 72.6387C65.701 72.6387 65.7009 72.6387 65.7008 72.6387C65.7007 72.6388 65.7006 72.6388 65.7006 72.6388C65.7006 72.6388 65.7007 72.6388 65.7008 72.6387C65.7009 72.6387 65.7011 72.6387 65.7013 72.6387C65.7017 72.6386 65.7023 72.6385 65.7031 72.6384C65.7048 72.6382 65.7073 72.6377 65.7105 72.6371L65.6134 72.1466L65.5164 71.6561C65.5643 71.6467 65.6066 71.643 65.6285 71.6412L65.6696 72.1395ZM65.6134 72.1466L65.71 72.6372C65.7148 72.6363 65.7186 72.6354 65.721 72.6348C65.7222 72.6346 65.7231 72.6343 65.7237 72.6342C65.724 72.6341 65.7242 72.634 65.7244 72.634C65.7245 72.634 65.7245 72.634 65.7246 72.634C65.7246 72.6339 65.7246 72.6339 65.7246 72.6339C65.7246 72.6339 65.7246 72.6339 65.7246 72.6339C65.7246 72.6339 65.7246 72.6339 65.7246 72.6339C65.7246 72.6339 65.7246 72.6339 65.7246 72.634C65.7245 72.634 65.7245 72.634 65.7244 72.634C65.7242 72.634 65.724 72.6341 65.7237 72.6342C65.723 72.6344 65.7223 72.6346 65.721 72.6349C65.7189 72.6355 65.7146 72.6366 65.7101 72.6378L65.5827 72.1543L65.4554 71.6708C65.456 71.6707 65.4568 71.6704 65.4598 71.6696C65.4622 71.669 65.4666 71.6678 65.4714 71.6665C65.4811 71.664 65.4973 71.6599 65.5168 71.656L65.6134 72.1466ZM65.5827 72.1543L65.7105 72.6377L65.7104 72.6374L65.5209 72.1747L65.3314 71.712C65.3767 71.6934 65.4189 71.6804 65.455 71.6709L65.5827 72.1543ZM65.5209 72.1747L65.7102 72.6374L65.7104 72.6372L65.4879 72.1895L65.2654 71.7417C65.29 71.7294 65.3127 71.7196 65.3315 71.7119L65.5209 72.1747ZM65.4879 72.1895L65.7104 72.6372L65.711 72.6372L65.4394 72.2174L65.1679 71.7976C65.1944 71.7804 65.2272 71.7607 65.2653 71.7417L65.4879 72.1895ZM65.4394 72.2174L65.711 72.6372C65.7144 72.635 65.717 72.6332 65.7187 72.632C65.7196 72.6314 65.7202 72.6309 65.7206 72.6306C65.7211 72.6303 65.7213 72.6301 65.7213 72.6301C65.7213 72.6301 65.7211 72.6303 65.7207 72.6306C65.7203 72.6309 65.7198 72.6313 65.7189 72.632C65.7172 72.6334 65.7151 72.635 65.7118 72.6377L65.399 72.2476L65.0863 71.8574C65.097 71.8489 65.1292 71.8226 65.1679 71.7976L65.4394 72.2174ZM65.399 72.2476L65.712 72.6375C65.7103 72.6388 65.7082 72.6406 65.707 72.6415C65.7056 72.6426 65.7045 72.6435 65.7036 72.6443C65.7026 72.6451 65.702 72.6456 65.7015 72.646C65.7011 72.6463 65.7009 72.6465 65.7009 72.6464C65.7009 72.6464 65.702 72.6455 65.7038 72.6439C65.7057 72.6423 65.7084 72.6398 65.7118 72.6365L65.3617 72.2794L65.0117 71.9224C65.0451 71.8896 65.0801 71.8624 65.0861 71.8576L65.399 72.2476ZM65.3617 72.2794L65.7111 72.6371C65.7023 72.6457 65.6948 72.6524 65.6906 72.6563C65.6883 72.6582 65.6864 72.6599 65.6854 72.6608C65.6848 72.6613 65.6843 72.6618 65.684 72.662C65.6837 72.6623 65.6836 72.6624 65.6835 72.6624C65.6831 72.6628 65.686 72.6603 65.69 72.6566C65.6942 72.6527 65.7013 72.6459 65.7098 72.6369L65.3464 72.2936L64.9829 71.9502C64.9938 71.9387 65.0034 71.9295 65.0101 71.9233C65.0167 71.9172 65.0223 71.9123 65.0244 71.9104C65.0251 71.9098 65.0256 71.9093 65.0259 71.9091C65.0263 71.9087 65.0265 71.9086 65.0266 71.9085C65.0268 71.9083 65.0263 71.9088 65.0253 71.9096C65.0237 71.9111 65.0187 71.9155 65.0124 71.9217L65.3617 72.2794ZM65.3464 72.2936L65.7098 72.6369C64.152 74.2861 62.8502 74.7183 61.8563 74.5895L61.9205 74.0937L61.9848 73.5978C62.5395 73.6697 63.5443 73.4732 64.9829 71.9502L65.3464 72.2936ZM61.9205 74.0937L61.8562 74.5895C60.8628 74.4606 60.1744 73.7706 59.8455 73.1716L60.2837 72.9309L60.722 72.6903C60.9457 73.0976 61.3959 73.5214 61.9849 73.5978L61.9205 74.0937ZM60.2837 72.9309L59.8457 73.172L59.8454 73.1723L59.6048 72.734L59.3642 72.2957C59.8475 72.0304 60.4554 72.2059 60.7218 72.6899L60.2837 72.9309ZM59.6048 72.734L59.8462 73.1719L59.8462 73.1723L59.4079 73.4129L58.9696 73.6535C58.7042 73.17 58.8803 72.5624 59.3635 72.2961L59.6048 72.734ZM59.4079 73.4129L59.8461 73.1722C60.175 73.7708 60.8623 74.4613 61.8558 74.5902L61.7914 75.0861L61.7271 75.5819C60.3262 75.4001 59.4018 74.4403 58.9696 73.6536L59.4079 73.4129ZM61.7914 75.0861L61.8558 74.5902C62.7881 74.7112 63.9886 74.3384 65.4201 72.9318L65.7705 73.2884L66.121 73.6451C64.5616 75.1773 63.0716 75.7564 61.7271 75.5819L61.7914 75.0861ZM65.7705 73.2884L66.0506 72.8742C67.7122 73.9978 68.9595 74.147 69.8543 73.8596L70.0072 74.3356L70.1601 74.8116C68.8698 75.2262 67.3006 74.9266 65.4905 73.7026L65.7705 73.2884ZM70.0072 74.3356L69.8542 73.8596C70.8081 73.553 71.359 72.7496 71.5741 72.1013L72.0486 72.2587L72.5232 72.4162C72.2406 73.2681 71.5052 74.3793 70.1602 74.8116L70.0072 74.3356ZM72.0486 72.2587L71.574 72.1014L71.5743 72.1011L71.7321 71.6267L71.8899 71.1522C72.4142 71.3266 72.6967 71.8928 72.5233 72.4161L72.0486 72.2587Z" fill="#002427"/>
<path d="M78.8498 41.3439C77.6477 43.2105 79.3352 46.137 81.4092 47.4728C83.4831 48.8085 86.139 48.3782 87.3411 46.5116C88.5433 44.645 87.8365 42.049 85.7626 40.7133C83.6886 39.3776 80.052 39.4773 78.8498 41.3439Z" fill="#FFFFF9" fill-opacity="0.61"/>
<path d="M72.8002 37.8219C72.35 38.5209 72.982 39.6169 73.7587 40.1171C74.5354 40.6174 75.53 40.4562 75.9802 39.7572C76.4304 39.0581 76.1658 38.0859 75.3891 37.5857C74.6123 37.0855 73.2504 37.1228 72.8002 37.8219Z" fill="#FFFFF9" fill-opacity="0.61"/>
<path d="M46.0295 84.7479C46.2057 84.7318 46.5741 84.8462 47.1335 85.0934C47.4153 85.218 47.6929 85.3407 47.9341 85.5059C48.1752 85.6712 48.3714 85.8753 48.8608 86.2837" stroke="#00C8A3" stroke-opacity="0.23" stroke-width="2" stroke-linecap="round"/>
<path d="M89.623 80.7712C89.4469 80.7872 89.1053 80.9664 88.5998 81.3108C88.3452 81.4843 88.0944 81.6552 87.8871 81.8613C87.6799 82.0675 87.5238 82.3038 87.1164 82.7939" stroke="#00C8A3" stroke-opacity="0.23" stroke-width="2" stroke-linecap="round"/>
<path d="M70.8132 88.1919C70.549 88.2769 70.0177 88.3913 69.5617 88.5473C69.044 88.7245 68.5393 89.0361 67.9907 89.3845C67.6254 89.6166 67.0548 89.1649 66.5001 88.994C66.0354 88.8509 65.5642 88.7727 65.0865 88.6825C64.8017 88.6719 64.5328 88.648 64.2478 88.6103C64.0762 88.5984 63.8499 88.6011 63.6167 88.6038" stroke="#00C6E0" stroke-opacity="0.48" stroke-width="2" stroke-linecap="round"/>
<ellipse cx="3.57336" cy="4.91338" rx="3.57336" ry="4.91338" transform="matrix(-0.995865 0.0908502 0.0908502 0.995865 85.249 62.3313)" fill="#002427"/>
<ellipse cx="3.57336" cy="4.91338" rx="3.57336" ry="4.91338" transform="matrix(-0.995865 0.0908502 0.0908502 0.995865 52.3323 65.3337)" fill="#002427"/>
</g>
<ellipse cx="10.1123" cy="7.70713" rx="10.1123" ry="7.70713" transform="matrix(0.900795 0.434245 -0.482887 0.875683 29.3997 28.677)" fill="url(#paint3_linear_1436_2326)" stroke="#FFFFF6" stroke-width="2"/>
<ellipse cx="8.32447" cy="5.67867" rx="8.32447" ry="5.67867" transform="matrix(0.900795 0.434245 -0.482887 0.875683 29.6445 32.8574)" fill="#17B4C8"/>
<g filter="url(#filter2_d_1436_2326)">
<path d="M63.8154 30.2544C44.1917 32.0447 31.3205 48.3114 33.0049 66.7749C33.8407 75.9364 39.8487 83.7564 47.2206 89.1727C45.328 90.3507 44.8452 92.2116 47.7869 95.2293C48.1537 99.2505 53.0975 102.075 58.2356 101.606C61.5908 101.3 64.404 99.6414 65.8505 97.4078C67.7596 99.6061 71.223 100.903 75.0387 100.555C80.3341 100.072 84.3874 96.5967 84.4003 92.6619C85.6112 93.2165 86.9419 93.6374 88.3616 93.8823C95.1542 95.054 101.382 91.8267 102.271 86.6737C102.907 82.9873 100.638 79.3136 96.8086 77.0923C99.6479 72.0402 101.254 66.3953 100.725 60.597C99.0403 42.1336 83.439 28.4644 63.8154 30.2544Z" fill="url(#paint4_radial_1436_2326)"/>
<path d="M63.8154 30.2544L63.7246 29.2586L63.7246 29.2586L63.8154 30.2544ZM33.0049 66.7749L32.009 66.8658L32.009 66.8658L33.0049 66.7749ZM47.2206 89.1727L47.8127 88.3669C48.0801 88.5633 48.2326 88.8796 48.2199 89.2112C48.2071 89.5427 48.0307 89.8464 47.7491 90.0217L47.2206 89.1727ZM47.7869 95.2293L48.5029 94.5313C48.6631 94.6956 48.7619 94.91 48.7827 95.1385L47.7869 95.2293ZM58.2356 101.606L58.3265 102.602L58.3264 102.602L58.2356 101.606ZM65.8505 97.4078L65.0111 96.8642C65.182 96.6004 65.4669 96.4323 65.7804 96.4103C66.0939 96.3882 66.3995 96.5148 66.6055 96.7521L65.8505 97.4078ZM75.0387 100.555L75.1296 101.551L75.1295 101.551L75.0387 100.555ZM84.4003 92.6619L83.4004 92.6586C83.4015 92.3187 83.5752 92.0026 83.8616 91.8195C84.1479 91.6363 84.5077 91.6112 84.8168 91.7527L84.4003 92.6619ZM88.3616 93.8823L88.1916 94.8677L88.1916 94.8677L88.3616 93.8823ZM102.271 86.6737L103.256 86.8437L103.256 86.8438L102.271 86.6737ZM96.8086 77.0923L96.3069 77.9573C95.8338 77.6829 95.6689 77.0792 95.9369 76.6024L96.8086 77.0923ZM100.725 60.597L101.721 60.5062L101.721 60.5062L100.725 60.597ZM63.8154 30.2544L63.9063 31.2503C44.8384 32.9898 32.366 48.7646 34.0008 66.6841L33.0049 66.7749L32.009 66.8658C30.275 47.8581 43.545 31.0995 63.7246 29.2586L63.8154 30.2544ZM33.0049 66.7749L34.0008 66.6841C34.8014 75.4595 40.5749 83.0491 47.8127 88.3669L47.2206 89.1727L46.6285 89.9786C39.1225 84.4638 32.8801 76.4134 32.009 66.8658L33.0049 66.7749ZM47.2206 89.1727L47.7491 90.0217C46.9594 90.5132 46.6855 90.9981 46.6908 91.5006C46.6971 92.0967 47.0858 93.0776 48.5029 94.5313L47.7869 95.2293L47.0708 95.9274C45.5462 94.3634 44.7055 92.905 44.691 91.5217C44.6754 90.0448 45.5893 89.0102 46.6922 88.3237L47.2206 89.1727ZM47.7869 95.2293L48.7827 95.1385C48.9289 96.7405 49.9969 98.2041 51.7351 99.2431C53.4683 100.279 55.7756 100.826 58.1448 100.61L58.2356 101.606L58.3264 102.602C55.5575 102.855 52.8239 102.224 50.7089 100.96C48.599 99.6985 47.0117 97.7393 46.791 95.3202L47.7869 95.2293ZM58.2356 101.606L58.1448 100.61C61.2427 100.328 63.7562 98.802 65.0111 96.8642L65.8505 97.4078L66.6899 97.9514C65.0517 100.481 61.9389 102.273 58.3265 102.602L58.2356 101.606ZM65.8505 97.4078L66.6055 96.7521C68.2619 98.6594 71.383 99.8842 74.9478 99.559L75.0387 100.555L75.1295 101.551C71.0629 101.922 67.2573 100.553 65.0955 98.0635L65.8505 97.4078ZM75.0387 100.555L74.9478 99.559C79.9713 99.1005 83.3898 95.8664 83.4004 92.6586L84.4003 92.6619L85.4003 92.6652C85.385 97.3271 80.6968 101.043 75.1296 101.551L75.0387 100.555ZM84.4003 92.6619L84.8168 91.7527C85.9499 92.2717 87.1977 92.6667 88.5316 92.8968L88.3616 93.8823L88.1916 94.8677C86.686 94.608 85.2726 94.1613 83.9839 93.5711L84.4003 92.6619ZM88.3616 93.8823L88.5316 92.8968C91.7327 93.449 94.7638 92.9571 97.07 91.7619C99.3755 90.5671 100.906 88.7053 101.286 86.5037L102.271 86.6737L103.256 86.8438C102.747 89.7952 100.719 92.1235 97.9902 93.5376C95.2622 94.9514 91.7832 95.4873 88.1916 94.8677L88.3616 93.8823ZM102.271 86.6737L101.286 86.5037C101.827 83.3652 99.9105 80.0475 96.3069 77.9573L96.8086 77.0923L97.3104 76.2273C101.366 78.5797 103.987 82.6093 103.256 86.8437L102.271 86.6737ZM96.8086 77.0923L95.9369 76.6024C98.7014 71.6834 100.235 66.2399 99.7288 60.6879L100.725 60.597L101.721 60.5062C102.272 66.5507 100.594 72.3971 97.6804 77.5822L96.8086 77.0923ZM100.725 60.597L99.7288 60.6879C98.0941 42.7685 82.9739 29.5109 63.9063 31.2503L63.8154 30.2544L63.7246 29.2586C83.904 27.4178 99.9865 41.4986 101.721 60.5062L100.725 60.597Z" fill="#FFFFF6"/>
</g>
<path d="M76.5741 42.1403C75.3879 43.9822 77.053 46.87 79.0995 48.188C81.146 49.5061 83.7667 49.0814 84.953 47.2395C86.1392 45.3977 85.4418 42.8361 83.3953 41.518C81.3488 40.2 77.7603 40.2984 76.5741 42.1403Z" fill="#FFFFF9" fill-opacity="0.67"/>
<path d="M70.6053 38.6645C70.1611 39.3543 70.7847 40.4358 71.5511 40.9294C72.3175 41.423 73.299 41.2639 73.7432 40.5742C74.1875 39.8844 73.9263 38.925 73.1599 38.4314C72.3934 37.9378 71.0496 37.9747 70.6053 38.6645Z" fill="#FFFFF9" fill-opacity="0.67"/>
<path d="M39.5322 59.0394C38.7713 58.7323 37.8259 59.5476 37.4848 60.393C37.1436 61.2384 37.4838 62.1726 38.2447 62.4797C39.0055 62.7867 39.8989 62.3503 40.24 61.5049C40.5812 60.6596 40.293 59.3464 39.5322 59.0394Z" fill="#54F6FD" fill-opacity="0.26"/>
<path d="M85.5372 82.1204C85.3675 82.1359 85.0384 82.3085 84.5513 82.6403C84.306 82.8075 84.0643 82.9722 83.8646 83.1708C83.6649 83.3695 83.5145 83.5971 83.122 84.0694" stroke="#00C8A3" stroke-opacity="0.5" stroke-width="2" stroke-linecap="round"/>
<path d="M68.1318 88.3C67.8773 88.382 67.3653 88.4921 66.926 88.6425C66.4271 88.8133 65.9408 89.1135 65.4122 89.4492C65.0602 89.6728 64.5104 89.2376 63.976 89.0729C63.5283 88.935 63.0742 88.8597 62.6139 88.7727C62.3395 88.7625 62.0804 88.7395 61.8058 88.7032C61.6404 88.6918 61.4224 88.6943 61.1977 88.6969" stroke="#00C6E0" stroke-opacity="0.8" stroke-width="2" stroke-linecap="round"/>
<path d="M53.3552 65.4318C53.2423 65.1801 52.9468 65.0676 52.6948 65.1802C52.4432 65.2932 52.3307 65.5887 52.4432 65.8406C52.7132 66.4443 53.3101 67.2576 54.2519 67.4358C55.1439 67.6044 56.1076 67.1669 57.1013 65.9815C58.2928 66.9671 59.3192 67.2235 60.1658 66.8963C61.0598 66.5506 61.4997 65.6427 61.656 65.0001C61.7211 64.7321 61.5568 64.4618 61.289 64.3962C61.0209 64.331 60.7505 64.4951 60.6851 64.7631C60.5606 65.2754 60.2495 65.7914 59.8051 65.9633C59.4078 66.1168 58.6452 66.0836 57.3767 64.8943C57.3702 64.8882 57.3623 64.8833 57.3556 64.8776C57.3474 64.8707 57.3398 64.8628 57.3311 64.8563C57.3241 64.8512 57.3164 64.8474 57.3092 64.8426C57.2984 64.8355 57.2873 64.8293 57.2761 64.8231C57.2652 64.8171 57.2551 64.8096 57.244 64.8045L57.2074 64.7902C57.2008 64.7877 57.1939 64.7863 57.1872 64.7841C57.1689 64.7783 57.1506 64.7733 57.1319 64.7696C57.1151 64.7662 57.0983 64.764 57.0813 64.7624C57.0675 64.7612 57.0537 64.7604 57.0399 64.7603C57.0216 64.7601 57.0035 64.7615 56.9853 64.7633C56.9723 64.7647 56.9593 64.7655 56.9464 64.7679C56.9279 64.7712 56.9099 64.7763 56.8918 64.7817C56.8783 64.7857 56.865 64.7899 56.8518 64.7951C56.8345 64.8019 56.8176 64.8096 56.801 64.8184C56.7906 64.8239 56.7803 64.8296 56.7703 64.8359C56.7525 64.847 56.7363 64.8603 56.7198 64.8739C56.7099 64.882 56.7001 64.8901 56.6907 64.8991C56.6843 64.9052 56.6768 64.9101 56.6707 64.9166C56.663 64.9248 56.6567 64.9344 56.6496 64.943C56.6443 64.9495 56.6378 64.9554 56.6327 64.9622C55.6004 66.3615 54.8563 66.532 54.4378 66.4529C53.9697 66.3643 53.5703 65.9132 53.3552 65.4318Z" fill="#002427"/>
<path d="M53.3552 65.4318L53.8115 65.2273L53.8117 65.2278L53.3552 65.4318ZM52.6948 65.1802L52.4901 64.7241L52.4908 64.7238L52.6948 65.1802ZM52.4432 65.8406L51.9868 66.0447L51.9868 66.0446L52.4432 65.8406ZM54.2519 67.4358L54.159 67.9271L54.159 67.9271L54.2519 67.4358ZM57.1013 65.9815L56.7181 65.6603L57.0372 65.2796L57.42 65.5962L57.1013 65.9815ZM60.1658 66.8963L60.3461 67.3626L60.3461 67.3627L60.1658 66.8963ZM61.656 65.0001L62.1418 65.1182L62.1418 65.1183L61.656 65.0001ZM61.289 64.3962L61.4071 63.9104L61.408 63.9106L61.289 64.3962ZM60.6851 64.7631L60.1992 64.6451L60.1994 64.6446L60.6851 64.7631ZM59.8051 65.9633L59.9856 66.4296L59.9854 66.4297L59.8051 65.9633ZM57.3767 64.8943L57.7186 64.5295L57.7187 64.5296L57.3767 64.8943ZM57.3556 64.8776L57.6774 64.495L57.6779 64.4954L57.3556 64.8776ZM57.3311 64.8563L57.6274 64.4536L57.6279 64.454L57.3311 64.8563ZM57.3092 64.8426L57.0337 65.2599L57.0333 65.2596L57.3092 64.8426ZM57.2761 64.8231L57.5187 64.3859L57.5189 64.386L57.2761 64.8231ZM57.244 64.8045L57.426 64.3388L57.4399 64.3442L57.4534 64.3504L57.244 64.8045ZM57.2074 64.7902L57.3803 64.3209L57.3894 64.3245L57.2074 64.7902ZM57.1872 64.7841L57.3399 64.308L57.3401 64.3081L57.1872 64.7841ZM57.1319 64.7696L57.0352 65.2601L57.0346 65.26L57.1319 64.7696ZM57.0813 64.7624L57.1271 64.2645L57.128 64.2646L57.0813 64.7624ZM57.0399 64.7603L57.0356 65.2603L57.0345 65.2603L57.0399 64.7603ZM56.9853 64.7633L56.9349 64.2659L56.9361 64.2658L56.9853 64.7633ZM56.9464 64.7679L57.0354 65.2599L57.0343 65.2601L56.9464 64.7679ZM56.8918 64.7817L56.7482 64.3028L56.749 64.3025L56.8918 64.7817ZM56.8518 64.7951L57.0354 65.2602L57.0348 65.2604L56.8518 64.7951ZM56.801 64.8184L56.5665 64.3768L56.5667 64.3767L56.801 64.8184ZM56.7703 64.8359L57.0357 65.2597L57.0356 65.2597L56.7703 64.8359ZM56.7198 64.8739L56.4026 64.4873L56.4027 64.4872L56.7198 64.8739ZM56.6907 64.8991L57.0369 65.2598L57.0366 65.2602L56.6907 64.8991ZM56.6707 64.9166L56.306 64.5746L56.3065 64.5741L56.6707 64.9166ZM56.6496 64.943L56.2626 64.6264L56.263 64.6259L56.6496 64.943ZM56.6327 64.9622L56.2304 64.6654L56.2305 64.6652L56.6327 64.9622ZM54.4378 66.4529L54.3449 66.9442L54.3448 66.9442L54.4378 66.4529ZM53.3552 65.4318L52.8989 65.6364L52.8989 65.6367L52.6948 65.1802L52.4908 64.7238C52.9941 64.4988 53.5855 64.7232 53.8115 65.2273L53.3552 65.4318ZM52.6948 65.1802L52.8996 65.6364L52.8997 65.6366L52.4432 65.8406L51.9868 66.0446C51.7618 65.5412 51.9866 64.9501 52.4901 64.7241L52.6948 65.1802ZM52.4432 65.8406L52.8997 65.6365C53.1428 66.1802 53.6407 66.8113 54.3448 66.9445L54.2519 67.4358L54.159 67.9271C52.9794 67.704 52.2836 66.7084 51.9868 66.0447L52.4432 65.8406ZM54.2519 67.4358L54.3448 66.9445C54.979 67.0644 55.7767 66.7834 56.7181 65.6603L57.1013 65.9815L57.4845 66.3027C56.4385 67.5505 55.3088 68.1445 54.159 67.9271L54.2519 67.4358ZM57.1013 65.9815L57.42 65.5962C58.549 66.5302 59.3838 66.6625 59.9856 66.4299L60.1658 66.8963L60.3461 67.3627C59.2547 67.7845 58.0366 67.4041 56.7826 66.3667L57.1013 65.9815ZM60.1658 66.8963L59.9855 66.4299C60.6538 66.1715 61.0294 65.4607 61.1701 64.882L61.656 65.0001L62.1418 65.1183C61.97 65.8248 61.4657 66.9297 60.3461 67.3626L60.1658 66.8963ZM61.656 65.0001L61.1701 64.8821L61.1701 64.8819L61.289 64.3962L61.408 63.9106C61.9438 64.0418 62.272 64.5823 62.1418 65.1182L61.656 65.0001ZM61.289 64.3962L61.171 64.8821L61.1708 64.8817L60.6851 64.7631L60.1994 64.6446C60.3304 64.1079 60.8714 63.7802 61.4071 63.9104L61.289 64.3962ZM60.6851 64.7631L61.171 64.8812C61.0301 65.461 60.6533 66.1713 59.9856 66.4296L59.8051 65.9633L59.6247 65.497C59.8457 65.4115 60.0911 65.0899 60.1992 64.6451L60.6851 64.7631ZM59.8051 65.9633L59.9854 66.4297C59.3177 66.6877 58.354 66.496 57.0347 65.2591L57.3767 64.8943L57.7187 64.5296C58.9364 65.6713 59.498 65.546 59.6249 65.4969L59.8051 65.9633ZM57.3767 64.8943L57.0348 65.2592C57.0453 65.269 57.054 65.2762 57.0593 65.2804C57.0644 65.2845 57.068 65.2872 57.0675 65.2868C57.0675 65.2868 57.0673 65.2867 57.0669 65.2864C57.0666 65.2861 57.0659 65.2856 57.0653 65.2851C57.0639 65.2841 57.0615 65.2824 57.0588 65.2803C57.0534 65.2762 57.0441 65.269 57.0332 65.2599L57.3556 64.8776L57.6779 64.4954C57.6704 64.4891 57.6646 64.4847 57.6628 64.4833C57.6618 64.4826 57.6613 64.4821 57.6617 64.4825C57.662 64.4827 57.6622 64.4828 57.6628 64.4833C57.6633 64.4837 57.6641 64.4842 57.6649 64.4849C57.668 64.4872 57.6753 64.4926 57.6839 64.4995C57.6927 64.5065 57.7049 64.5167 57.7186 64.5295L57.3767 64.8943ZM57.3556 64.8776L57.0337 65.2603C57.0247 65.2527 57.0174 65.2461 57.0132 65.2423C57.0111 65.2404 57.0092 65.2386 57.0082 65.2377C57.0069 65.2365 57.0067 65.2363 57.0065 65.2361C57.0061 65.2358 57.0089 65.2384 57.0131 65.242C57.0175 65.2457 57.0247 65.2517 57.0342 65.2587L57.3311 64.8563L57.6279 64.454C57.6543 64.4734 57.6742 64.4917 57.6806 64.4975C57.6824 64.4992 57.6842 64.5008 57.6849 64.5014C57.6859 64.5024 57.686 64.5024 57.6858 64.5023C57.6856 64.5022 57.6824 64.4991 57.6774 64.495L57.3556 64.8776ZM57.3311 64.8563L57.0347 65.2591C57.0443 65.2661 57.0523 65.2713 57.0573 65.2745C57.062 65.2775 57.0654 65.2795 57.065 65.2793C57.0646 65.2791 57.0648 65.2792 57.063 65.2781C57.0618 65.2774 57.0596 65.2761 57.0571 65.2746C57.0522 65.2716 57.0437 65.2665 57.0337 65.2599L57.3092 64.8426L57.5847 64.4254C57.5783 64.4211 57.5735 64.4183 57.5722 64.4175C57.5715 64.4171 57.5712 64.4169 57.5718 64.4172C57.572 64.4173 57.574 64.4185 57.5754 64.4194C57.5787 64.4213 57.5858 64.4255 57.5942 64.4309C57.6028 64.4364 57.6143 64.444 57.6274 64.4536L57.3311 64.8563ZM57.3092 64.8426L57.0333 65.2596C57.0361 65.2614 57.0383 65.2628 57.0398 65.2637C57.0412 65.2646 57.0421 65.2651 57.0421 65.2651C57.0421 65.2651 57.0419 65.265 57.0416 65.2648C57.0412 65.2646 57.0407 65.2643 57.0399 65.2639C57.0382 65.263 57.0365 65.262 57.0332 65.2602L57.2761 64.8231L57.5189 64.386C57.5262 64.3901 57.5552 64.4058 57.5852 64.4257L57.3092 64.8426ZM57.2761 64.8231L57.0334 65.2603C57.0214 65.2536 57.0117 65.2477 57.006 65.2442C57.0031 65.2424 57.0006 65.2408 56.9992 65.24C56.9974 65.2389 56.9972 65.2387 56.9969 65.2386C56.9964 65.2383 57.0002 65.2406 57.006 65.2439C57.012 65.2473 57.0218 65.2526 57.0345 65.2585L57.244 64.8045L57.4534 64.3504C57.4882 64.3665 57.5151 64.3832 57.5234 64.3884C57.5257 64.3898 57.5281 64.3913 57.5289 64.3918C57.5302 64.3926 57.5303 64.3927 57.5301 64.3925C57.5297 64.3923 57.5252 64.3896 57.5187 64.3859L57.2761 64.8231ZM57.244 64.8045L57.0619 65.2701L57.0253 65.2558L57.2074 64.7902L57.3894 64.3245L57.426 64.3388L57.244 64.8045ZM57.2074 64.7902L57.0344 65.2593C57.0442 65.2629 57.0521 65.2654 57.0571 65.2669C57.0596 65.2677 57.0616 65.2683 57.0628 65.2686C57.0635 65.2688 57.064 65.2689 57.0643 65.269C57.0644 65.2691 57.0646 65.2691 57.0647 65.2691C57.0647 65.2691 57.0648 65.2692 57.0648 65.2692C57.0648 65.2692 57.0648 65.2692 57.0648 65.2692C57.0647 65.2691 57.0647 65.2691 57.0647 65.2691C57.0646 65.2691 57.0645 65.2691 57.0643 65.269C57.0641 65.269 57.0634 65.2688 57.0629 65.2686C57.0617 65.2683 57.0596 65.2677 57.0571 65.2671C57.0523 65.2657 57.0441 65.2633 57.0342 65.2602L57.1872 64.7841L57.3401 64.3081C57.3336 64.306 57.3288 64.3047 57.3273 64.3042C57.3266 64.304 57.3261 64.3039 57.3267 64.3041C57.327 64.3041 57.3271 64.3042 57.3278 64.3044C57.3283 64.3045 57.329 64.3047 57.3298 64.3049C57.3328 64.3058 57.3396 64.3076 57.3476 64.3101C57.3559 64.3126 57.3672 64.3162 57.3803 64.321L57.2074 64.7902ZM57.1872 64.7841L57.0345 65.2603L57.0352 65.2601L57.1319 64.7696L57.2287 64.279C57.271 64.2874 57.3085 64.2979 57.3399 64.308L57.1872 64.7841ZM57.1319 64.7696L57.0346 65.26L57.0345 65.2602L57.0813 64.7624L57.128 64.2646C57.157 64.2673 57.1914 64.2716 57.2293 64.2791L57.1319 64.7696ZM57.0813 64.7624L57.0355 65.2603L57.0356 65.2603L57.0399 64.7603L57.0442 64.2603C57.0726 64.2606 57.1002 64.2621 57.1271 64.2645L57.0813 64.7624ZM57.0399 64.7603L57.0345 65.2603L57.0344 65.2609L56.9853 64.7633L56.9361 64.2658C56.9592 64.2635 56.9991 64.2598 57.0453 64.2604L57.0399 64.7603ZM56.9853 64.7633L57.0356 65.2608C57.0301 65.2614 57.0247 65.2619 57.0222 65.2621C57.0206 65.2622 57.0196 65.2623 57.0188 65.2624C57.0184 65.2625 57.0182 65.2625 57.018 65.2625C57.0179 65.2625 57.0178 65.2625 57.0178 65.2625C57.0177 65.2625 57.0177 65.2625 57.0177 65.2625C57.0177 65.2625 57.0177 65.2625 57.0178 65.2625C57.0178 65.2625 57.0179 65.2625 57.018 65.2625C57.0182 65.2625 57.0185 65.2624 57.0188 65.2624C57.0196 65.2623 57.0207 65.2622 57.0222 65.262C57.0251 65.2616 57.0296 65.2609 57.0354 65.2599L56.9464 64.7679L56.8575 64.2758C56.8813 64.2715 56.9016 64.2692 56.9139 64.2679C56.92 64.2673 56.9257 64.2668 56.9289 64.2665C56.9328 64.2661 56.9339 64.266 56.9349 64.2659L56.9853 64.7633ZM56.9464 64.7679L57.0343 65.2601C57.0378 65.2595 57.0405 65.2589 57.0422 65.2585C57.044 65.2581 57.045 65.2578 57.045 65.2578C57.045 65.2578 57.0448 65.2579 57.0444 65.258C57.0439 65.2581 57.0433 65.2583 57.0424 65.2586C57.0406 65.2591 57.0382 65.2598 57.0346 65.2608L56.8918 64.7817L56.749 64.3025C56.7687 64.2966 56.81 64.2843 56.8586 64.2756L56.9464 64.7679ZM56.8918 64.7817L57.0354 65.2606L57.0354 65.2602L56.8518 64.7951L56.6683 64.33C56.7015 64.3169 56.7311 64.3079 56.7482 64.3028L56.8918 64.7817ZM56.8518 64.7951L57.0348 65.2604L57.0353 65.2601L56.801 64.8184L56.5667 64.3767C56.6017 64.3581 56.6359 64.3428 56.6689 64.3298L56.8518 64.7951ZM56.801 64.8184L57.0355 65.26L57.0357 65.2597L56.7703 64.8359L56.5049 64.4122C56.5296 64.3966 56.5519 64.3846 56.5665 64.3768L56.801 64.8184ZM56.7703 64.8359L57.0356 65.2597C57.0401 65.2569 57.0435 65.2545 57.0458 65.253C57.0469 65.2522 57.0477 65.2515 57.0483 65.2511C57.0489 65.2507 57.0492 65.2505 57.0492 65.2505C57.0492 65.2504 57.049 65.2506 57.0485 65.251C57.0479 65.2514 57.0472 65.252 57.0461 65.2529C57.0438 65.2548 57.0412 65.2569 57.0368 65.2605L56.7198 64.8739L56.4027 64.4872C56.415 64.4772 56.4556 64.443 56.5049 64.4121L56.7703 64.8359ZM56.7198 64.8739L57.037 65.2604L57.0369 65.2598L56.6907 64.8991L56.3445 64.5383C56.3698 64.514 56.394 64.4944 56.4026 64.4873L56.7198 64.8739ZM56.6907 64.8991L57.0366 65.2602C57.0241 65.2721 57.0134 65.2813 57.007 65.2866C57.0037 65.2894 57.001 65.2916 56.9994 65.2929C56.9986 65.2936 56.9978 65.2942 56.9975 65.2945C56.997 65.2949 56.9969 65.2949 56.9968 65.295C56.9963 65.2954 57.0008 65.2918 57.0068 65.2865C57.0131 65.2809 57.0233 65.2716 57.035 65.2591L56.6707 64.9166L56.3065 64.5741C56.3212 64.5583 56.3346 64.546 56.3443 64.5375C56.3536 64.5292 56.3615 64.5227 56.3644 64.5204C56.3652 64.5197 56.366 64.5191 56.3663 64.5188C56.3668 64.5184 56.367 64.5183 56.367 64.5182C56.3671 64.5181 56.3661 64.519 56.3645 64.5203C56.3615 64.5228 56.3541 64.5291 56.3448 64.538L56.6907 64.8991ZM56.6707 64.9166L57.0355 65.2586C57.0432 65.2503 57.0489 65.2435 57.0524 65.2393C57.0558 65.2352 57.0579 65.2323 57.0576 65.2327C57.0575 65.2329 57.0573 65.2331 57.0563 65.2345C57.0555 65.2355 57.054 65.2375 57.0524 65.2396C57.0491 65.2439 57.0433 65.2514 57.0362 65.2601L56.6496 64.943L56.263 64.6259C56.2611 64.6283 56.2596 64.6301 56.2587 64.6313C56.2578 64.6325 56.2572 64.6332 56.2572 64.6332C56.2572 64.6332 56.2573 64.6331 56.2575 64.6328C56.2577 64.6325 56.258 64.6322 56.2584 64.6316C56.2591 64.6307 56.2606 64.6287 56.2622 64.6266C56.2678 64.6193 56.2839 64.5981 56.306 64.5746L56.6707 64.9166ZM56.6496 64.943L57.0366 65.2596C57.0272 65.2712 57.019 65.2803 57.0142 65.2855C57.0117 65.2882 57.0096 65.2904 57.0084 65.2917C57.0078 65.2923 57.0072 65.293 57.0069 65.2933C57.0066 65.2936 57.0065 65.2938 57.0064 65.2938C57.006 65.2943 57.0093 65.2908 57.0138 65.2856C57.0185 65.2802 57.0261 65.2712 57.035 65.2592L56.6327 64.9622L56.2305 64.6652C56.2418 64.6498 56.2522 64.6375 56.2597 64.6289C56.267 64.6205 56.2732 64.6138 56.2757 64.6112C56.2764 64.6104 56.277 64.6098 56.2774 64.6094C56.2778 64.6089 56.278 64.6087 56.2781 64.6086C56.2784 64.6083 56.2777 64.609 56.2767 64.6101C56.2748 64.6122 56.2694 64.6181 56.2626 64.6264L56.6496 64.943ZM56.6327 64.9622L57.0351 65.2591C55.9614 66.7144 55.0483 67.0772 54.3449 66.9442L54.4378 66.4529L54.5306 65.9616C54.6644 65.9869 55.2394 66.0086 56.2304 64.6654L56.6327 64.9622ZM54.4378 66.4529L54.3448 66.9442C53.6412 66.811 53.1422 66.1806 52.8987 65.6359L53.3552 65.4318L53.8117 65.2278C53.9985 65.6458 54.2981 65.9176 54.5308 65.9617L54.4378 66.4529Z" fill="#002427"/>
<ellipse cx="3.21354" cy="4.41861" rx="3.21354" ry="4.41861" transform="matrix(-0.995865 0.0908502 0.0908502 0.995865 74.418 57.6863)" fill="#002427"/>
<ellipse cx="3.21354" cy="4.41861" rx="3.21354" ry="4.41861" transform="matrix(-0.995865 0.0908502 0.0908502 0.995865 48.9622 58.8025)" fill="#002427"/>
<ellipse cx="10.1123" cy="7.70713" rx="10.1123" ry="7.70713" transform="matrix(-0.807349 0.590075 0.63337 0.773849 98.6575 22.3589)" fill="url(#paint5_linear_1436_2326)" stroke="#FFFFF6" stroke-width="2"/>
<ellipse cx="8.32447" cy="5.67867" rx="8.32447" ry="5.67867" transform="matrix(-0.807349 0.590075 0.63337 0.773849 99.1738 26.5149)" fill="#17B4C8"/>
<path d="M44.3424 82.5356C46.4737 85.5613 49.1609 91.3025 47.7538 94C47.0256 95.3958 41.0917 96.5027 36.8682 95.7624C31.4053 94.8048 27.0727 90.7155 27.5417 85.0561C27.9445 80.1958 31.7671 77.4955 35.5253 77.1008C37.3268 76.9116 41.521 78.53 44.3424 82.5356Z" fill="#00AFC8" stroke="#FFFFF6" stroke-width="2"/>
<circle cx="2.5354" cy="2.5354" r="2.5354" transform="matrix(-0.995865 0.0908502 0.0908502 0.995865 37.0171 83.4429)" fill="#86DAE6"/>
<circle cx="1.69026" cy="1.69026" r="1.69026" transform="matrix(-0.995865 0.0908502 0.0908502 0.995865 41.7622 88.9509)" fill="#86DAE6"/>
<defs>
<filter id="filter0_f_1436_2326" x="15.562" y="17.6104" width="97.6284" height="94.0989" filterUnits="userSpaceOnUse" color-interpolation-filters="sRGB">
<feFlood flood-opacity="0" result="BackgroundImageFix"/>
<feBlend mode="normal" in="SourceGraphic" in2="BackgroundImageFix" result="shape"/>
<feGaussianBlur stdDeviation="3.5" result="effect1_foregroundBlur_1436_2326"/>
</filter>
<filter id="filter1_d_1436_2326" x="22.9678" y="19.6399" width="86.9229" height="86.5693" filterUnits="userSpaceOnUse" color-interpolation-filters="sRGB">
<feFlood flood-opacity="0" result="BackgroundImageFix"/>
<feColorMatrix in="SourceAlpha" type="matrix" values="0 0 0 0 0 0 0 0 0 0 0 0 0 0 0 0 0 0 127 0" result="hardAlpha"/>
<feOffset dy="-3"/>
<feGaussianBlur stdDeviation="2.25"/>
<feComposite in2="hardAlpha" operator="out"/>
<feColorMatrix type="matrix" values="0 0 0 0 0 0 0 0 0 0 0 0 0 0 0 0 0 0 0.25 0"/>
<feBlend mode="normal" in2="BackgroundImageFix" result="effect1_dropShadow_1436_2326"/>
<feBlend mode="normal" in="SourceGraphic" in2="effect1_dropShadow_1436_2326" result="shape"/>
</filter>
<filter id="filter2_d_1436_2326" x="27.3572" y="21.5967" width="80.5212" height="82.5603" filterUnits="userSpaceOnUse" color-interpolation-filters="sRGB">
<feFlood flood-opacity="0" result="BackgroundImageFix"/>
<feColorMatrix in="SourceAlpha" type="matrix" values="0 0 0 0 0 0 0 0 0 0 0 0 0 0 0 0 0 0 127 0" result="hardAlpha"/>
<feOffset dy="-3"/>
<feGaussianBlur stdDeviation="2.25"/>
<feComposite in2="hardAlpha" operator="out"/>
<feColorMatrix type="matrix" values="0 0 0 0 0 0 0 0 0 0 0 0 0 0 0 0 0 0 0.25 0"/>
<feBlend mode="normal" in2="BackgroundImageFix" result="effect1_dropShadow_1436_2326"/>
<feBlend mode="normal" in="SourceGraphic" in2="effect1_dropShadow_1436_2326" result="shape"/>
</filter>
<linearGradient id="paint0_linear_1436_2326" x1="9.28295" y1="12.9288" x2="14.7195" y2="0.159044" gradientUnits="userSpaceOnUse">
<stop stop-color="#3DDCFF"/>
<stop offset="1" stop-color="#61FFB0"/>
</linearGradient>
<linearGradient id="paint1_linear_1436_2326" x1="32.74" y1="44.4664" x2="38.1766" y2="31.6966" gradientUnits="userSpaceOnUse">
<stop stop-color="#3DDCFF"/>
<stop offset="1" stop-color="#61FFB0"/>
</linearGradient>
<radialGradient id="paint2_radial_1436_2326" cx="0" cy="0" r="1" gradientUnits="userSpaceOnUse" gradientTransform="translate(68.8588 83.4209) rotate(107.251) scale(50.2676 71.0569)">
<stop stop-color="#25FBFF"/>
<stop offset="0.303481" stop-color="#95EEFC"/>
<stop offset="0.591346" stop-color="#FFE2F8"/>
<stop offset="1" stop-color="#84FFC1"/>
</radialGradient>
<linearGradient id="paint3_linear_1436_2326" x1="8.86387" y1="11.5472" x2="13.4945" y2="-0.0811402" gradientUnits="userSpaceOnUse">
<stop stop-color="#3DDCFF"/>
<stop offset="1" stop-color="#61FFB0"/>
</linearGradient>
<radialGradient id="paint4_radial_1436_2326" cx="0" cy="0" r="1" gradientUnits="userSpaceOnUse" gradientTransform="translate(69.4369 83.331) rotate(107.056) scale(48.3672 67.9021)">
<stop stop-color="#25FBFF"/>
<stop offset="0.303481" stop-color="#95EEFC"/>
<stop offset="0.591346" stop-color="#FFE2F8"/>
<stop offset="1" stop-color="#84FFC1"/>
</radialGradient>
<linearGradient id="paint5_linear_1436_2326" x1="8.86386" y1="11.5472" x2="13.4945" y2="-0.0811373" gradientUnits="userSpaceOnUse">
<stop stop-color="#3DDCFF"/>
<stop offset="1" stop-color="#61FFB0"/>
</linearGradient>
</defs>
</svg>
