<svg width="80" height="11" viewBox="0 0 80 11" fill="none" xmlns="http://www.w3.org/2000/svg">
<path d="M79.6578 4.16025V6.21405H75.0198V8.00516H80.0001V10.047H72.5651V0.530273H79.8821V2.58408H75.0198V4.16025H79.6578Z" fill="#FFFFF6"/>
<path d="M68.3194 2.58408V10.047H65.8069V2.58408H62.7509V0.530273H71.3754V2.58408H68.3194Z" fill="#FFFFF6"/>
<path d="M53.5314 10.047L56.7353 0.530273H59.8443L63.0482 10.047H60.58L59.6782 7.38424L56.6167 8.23204L55.9996 10.047H53.5314ZM57.3761 5.97524L59.0374 5.50955L58.2898 3.27664L57.3761 5.97524Z" fill="#FFFFF6"/>
<path d="M49.8537 0.530029H52.342V10.0468H49.9121V5.29437L48.0078 10.0468H46.2672L44.363 5.29437V10.0468H41.933V0.530029H44.4214L47.1317 7.30042L49.8537 0.530029Z" fill="#FFFFF6"/>
<path d="M31.2267 0.530029H33.6422V7.99298H38.0668V10.0468H31.2267V0.530029Z" fill="#FFFFF6"/>
<path d="M25.2727 10.3442C24.6488 10.3442 24.0748 10.2481 23.5507 10.0679C23.0017 9.87569 22.5275 9.62343 22.1282 9.28709C21.7164 8.95074 21.392 8.54232 21.1674 8.06182C20.9303 7.59333 20.818 7.06479 20.818 6.46417V0.530029H23.4135V6.34404C23.4135 6.60831 23.4509 6.84856 23.5383 7.06479C23.6131 7.29302 23.7379 7.48522 23.9001 7.6534C24.0499 7.82157 24.2495 7.95371 24.4866 8.04981C24.7112 8.15792 24.9733 8.20597 25.2727 8.20597C25.5597 8.20597 25.8218 8.15792 26.0589 8.04981C26.2835 7.95371 26.4831 7.82157 26.6578 7.6534C26.8076 7.48522 26.9323 7.29302 27.0197 7.06479C27.0946 6.84856 27.1445 6.60831 27.1445 6.34404V0.530029H29.7399V6.46417C29.7399 7.06479 29.6152 7.59333 29.3906 8.06182C29.141 8.54232 28.829 8.95074 28.4297 9.28709C28.0179 9.62343 27.5438 9.87569 27.0072 10.0679C26.4582 10.2481 25.8717 10.3442 25.2727 10.3442Z" fill="#FFFFF6"/>
<path d="M1.05623 6.96162C1.47632 7.32404 1.96843 7.62605 2.54456 7.84351C3.10868 8.07304 3.69681 8.18177 4.29694 8.16969C4.69303 8.16969 4.98109 8.10928 5.17313 7.98847C5.35317 7.87975 5.44919 7.71062 5.44919 7.48109C5.44919 7.21531 5.34117 7.00994 5.13712 6.84081C4.92108 6.68376 4.561 6.53879 4.06889 6.39382C3.6368 6.27302 3.2047 6.14013 2.7606 5.99516C2.3045 5.86227 1.89641 5.68106 1.53634 5.43945C1.16425 5.20991 0.864189 4.9079 0.636139 4.54548C0.396087 4.18305 0.27606 3.72399 0.27606 3.14411C0.27606 2.63673 0.372081 2.20182 0.576126 1.82732C0.768168 1.4649 1.03223 1.16288 1.3803 0.921266C1.71638 0.691733 2.11246 0.522603 2.56856 0.401796C3.01266 0.29307 3.49276 0.232666 3.99687 0.232666C4.34495 0.232666 4.68102 0.256827 5.0051 0.30515C5.31716 0.353473 5.62923 0.425957 5.9413 0.522603C6.24137 0.631329 6.54143 0.764217 6.8535 0.909185C7.14156 1.06623 7.45363 1.24744 7.7777 1.4649L6.79349 3.39781C6.4094 3.10787 5.97731 2.86626 5.52121 2.69713C5.05311 2.528 4.561 2.44343 4.05689 2.41927C3.88885 2.41927 3.73282 2.41927 3.58879 2.43135C3.43275 2.45551 3.30072 2.49176 3.1927 2.54008C3.07267 2.60048 2.98865 2.67297 2.92864 2.74545C2.85663 2.83002 2.82062 2.92666 2.82062 3.04747C2.82062 3.16828 2.83262 3.277 2.88063 3.36157C2.90464 3.45821 2.97665 3.55486 3.08468 3.62734C3.1807 3.71191 3.33673 3.79647 3.54078 3.86896C3.73282 3.95352 3.98487 4.03809 4.32095 4.12265C4.82506 4.26762 5.31716 4.42467 5.77326 4.56964C6.21736 4.73877 6.61345 4.93206 6.94952 5.16159C7.28559 5.40321 7.54965 5.70522 7.74169 6.05556C7.93374 6.41798 8.02976 6.86497 8.02976 7.39652C8.02976 7.90391 7.93374 8.33882 7.74169 8.70124C7.54965 9.06366 7.27359 9.37776 6.93752 9.61937C6.58944 9.86098 6.18135 10.0422 5.71325 10.163C5.23315 10.2838 4.71703 10.3442 4.16491 10.3442C3.36074 10.3442 2.61657 10.2234 1.93242 9.98179C1.23627 9.74018 0.588129 9.40192 0 8.97909L1.05623 6.96162Z" fill="#FFFFF6"/>
<path d="M14.1487 0C17.1887 0.00032861 19.2611 2.26377 19.3293 5.03125C19.3701 6.49 18.8106 7.92169 17.7336 8.88965L18.3342 9.66699C18.4974 9.8713 18.4017 10.0624 18.1975 10.0625H14.4895C11.4084 10.0625 9.4036 7.71741 9.32151 4.85449C9.25334 2.26397 11.2582 0 14.1487 0Z" fill="#FFFFF6"/>
</svg>
