<svg width="179" height="166" viewBox="0 0 179 166" fill="none" xmlns="http://www.w3.org/2000/svg">
<g filter="url(#filter0_f_521_1364)">
<ellipse cx="17.9116" cy="14.5946" rx="17.9116" ry="14.5946" transform="matrix(-0.996711 0.0810357 0.0810357 0.996711 168.446 36.4084)" fill="url(#paint0_linear_521_1364)" stroke="#FFFFF6" stroke-width="2"/>
<ellipse cx="51.9349" cy="25.6542" rx="17.9116" ry="14.5946" transform="rotate(34.6481 51.9349 25.6542)" fill="url(#paint1_linear_521_1364)" stroke="#FFFFF6" stroke-width="2"/>
<ellipse cx="14.7448" cy="10.7534" rx="14.7448" ry="10.7534" transform="matrix(-0.996711 0.0810357 0.0810357 0.996711 165.451 42.186)" fill="#17B4C8"/>
<g filter="url(#filter1_d_521_1364)">
<path d="M105.424 23.9694C72.0143 15.0174 40.9487 34.0063 32.5258 65.4408C30.7509 72.0649 30.66 78.8563 31.8197 85.5042C23.2952 86.5913 16.4363 91.8062 15.0244 99.1607C13.1596 108.875 21.5035 118.642 33.6608 120.976C35.8046 121.387 37.9237 121.539 39.9706 121.458C37.8949 129.485 43.6459 137.964 52.8714 140.436C58.8111 142.027 64.75 140.743 68.8178 137.494C70.7811 142.494 75.5662 146.761 81.8788 148.452C90.5765 150.783 99.208 147.432 102.43 140.872C104.125 142.588 106.123 144.144 108.389 145.452C118.867 151.502 131.082 149.963 135.671 142.014C139.245 135.824 137.141 127.572 131.087 121.367C138.961 114.73 145.143 106.324 147.82 96.3338C156.243 64.8993 138.834 32.9215 105.424 23.9694Z" fill="url(#paint2_radial_521_1364)"/>
<path d="M105.424 23.9694L105.683 23.0035L105.683 23.0035L105.424 23.9694ZM32.5258 65.4408L31.5599 65.182L31.5599 65.182L32.5258 65.4408ZM31.8197 85.5042L32.8048 85.3324C32.8518 85.6015 32.7866 85.8781 32.6244 86.0979C32.4622 86.3177 32.2172 86.4617 31.9462 86.4962L31.8197 85.5042ZM15.0244 99.1607L14.0423 98.9722L14.0423 98.9722L15.0244 99.1607ZM33.6608 120.976L33.4722 121.958L33.4722 121.958L33.6608 120.976ZM39.9706 121.458L39.9313 120.459C40.2473 120.446 40.5506 120.584 40.7491 120.83C40.9476 121.077 41.0179 121.402 40.9388 121.708L39.9706 121.458ZM52.8714 140.436L52.6126 141.402L52.6126 141.402L52.8714 140.436ZM68.8178 137.494L68.1937 136.713C68.4418 136.515 68.7693 136.446 69.0761 136.528C69.3829 136.61 69.6325 136.833 69.7486 137.129L68.8178 137.494ZM81.8788 148.452L81.62 149.418L81.62 149.418L81.8788 148.452ZM102.43 140.872L101.532 140.431C101.675 140.141 101.949 139.937 102.269 139.885C102.588 139.833 102.913 139.939 103.141 140.169L102.43 140.872ZM108.389 145.452L107.889 146.318L107.889 146.318L108.389 145.452ZM135.671 142.014L136.537 142.514L136.537 142.514L135.671 142.014ZM131.087 121.367L130.371 122.065C130.177 121.866 130.075 121.596 130.088 121.318C130.102 121.041 130.23 120.781 130.443 120.602L131.087 121.367ZM147.82 96.3338L148.786 96.5927L148.786 96.5927L147.82 96.3338ZM105.424 23.9694L105.165 24.9353C72.2946 16.1278 41.7732 34.7929 33.4917 65.6997L32.5258 65.4408L31.5599 65.182C40.1241 33.2198 71.7339 13.907 105.683 23.0035L105.424 23.9694ZM32.5258 65.4408L33.4917 65.6997C31.7596 72.1643 31.6665 78.807 32.8048 85.3324L31.8197 85.5042L30.8346 85.6761C29.6535 78.9056 29.7423 71.9655 31.5599 65.182L32.5258 65.4408ZM31.8197 85.5042L31.9462 86.4962C23.7118 87.5463 17.3133 92.5423 16.0065 99.3493L15.0244 99.1607L14.0423 98.9722C15.5594 91.0702 22.8786 85.6363 31.6932 84.5123L31.8197 85.5042ZM15.0244 99.1607L16.0065 99.3492C14.2831 108.327 22.0174 117.722 33.8493 119.993L33.6608 120.976L33.4722 121.958C20.9896 119.561 12.0362 109.423 14.0423 98.9722L15.0244 99.1607ZM33.6608 120.976L33.8493 119.993C35.9179 120.391 37.9606 120.536 39.9313 120.459L39.9706 121.458L40.0099 122.457C37.8868 122.541 35.6912 122.384 33.4722 121.958L33.6608 120.976ZM39.9706 121.458L40.9388 121.708C39.0316 129.083 44.306 137.105 53.1303 139.47L52.8714 140.436L52.6126 141.402C42.9858 138.822 36.7581 129.886 39.0025 121.208L39.9706 121.458ZM52.8714 140.436L53.1302 139.47C58.7855 140.985 64.3918 139.749 68.1937 136.713L68.8178 137.494L69.4419 138.275C65.1082 141.737 58.8367 143.07 52.6126 141.402L52.8714 140.436ZM68.8178 137.494L69.7486 137.129C71.5836 141.802 76.0978 145.868 82.1377 147.486L81.8788 148.452L81.62 149.418C75.0346 147.653 69.9785 143.186 67.887 137.86L68.8178 137.494ZM81.8788 148.452L82.1376 147.486C90.4916 149.725 98.5704 146.462 101.532 140.431L102.43 140.872L103.327 141.313C99.8456 148.402 90.6614 151.841 81.62 149.418L81.8788 148.452ZM102.43 140.872L103.141 140.169C104.773 141.821 106.7 143.323 108.889 144.586L108.389 145.452L107.889 146.318C105.546 144.966 103.477 143.355 101.718 141.575L102.43 140.872ZM108.389 145.452L108.889 144.586C113.956 147.512 119.412 148.583 124.113 147.99C128.814 147.398 132.701 145.159 134.805 141.514L135.671 142.014L136.537 142.514C134.052 146.818 129.537 149.323 124.363 149.975C119.19 150.627 113.299 149.442 107.889 146.318L108.389 145.452ZM135.671 142.014L134.805 141.514C138.075 135.85 136.24 128.081 130.371 122.065L131.087 121.367L131.803 120.668C138.042 127.064 140.415 135.797 136.537 142.514L135.671 142.014ZM131.087 121.367L130.443 120.602C138.199 114.064 144.242 105.823 146.854 96.075L147.82 96.3338L148.786 96.5927C146.044 106.824 139.723 115.396 131.732 122.131L131.087 121.367ZM147.82 96.3338L146.854 96.075C155.136 65.1682 138.036 33.743 105.165 24.9353L105.424 23.9694L105.683 23.0035C139.632 32.1001 157.35 64.6303 148.786 96.5927L147.82 96.3338Z" fill="#FFFFF6"/>
</g>
<path d="M74.0888 93.0392C74.0475 92.7664 73.7927 92.5788 73.5198 92.6198C73.247 92.6611 73.0593 92.916 73.1004 93.1889C73.2882 94.4367 74.0405 96.101 75.7247 96.9817C77.3607 97.8371 79.7361 97.8797 83.0444 96.3255C85.1323 99.3255 87.2108 100.476 89.0553 100.554C90.9541 100.633 92.4378 99.5678 93.2245 98.5811C93.3965 98.3653 93.3614 98.0508 93.1458 97.8786C92.93 97.7067 92.6154 97.7417 92.4433 97.9573C91.7916 98.7749 90.5871 99.6171 89.0974 99.5549C87.6247 99.4933 85.7053 98.5395 83.6311 95.4151C83.6279 95.4102 83.624 95.4059 83.6206 95.4012C83.61 95.3862 83.5986 95.3721 83.5865 95.3587C83.5755 95.3463 83.5645 95.3343 83.5525 95.3233C83.5412 95.3129 83.5289 95.3037 83.5168 95.2945C83.508 95.2878 83.4999 95.2804 83.4908 95.2744L83.4613 95.2564C83.4529 95.2516 83.4438 95.2485 83.4352 95.2443C83.4197 95.2367 83.4042 95.2296 83.3882 95.2236C83.3832 95.2218 83.3786 95.2194 83.3736 95.2177L83.3132 95.2015C83.3084 95.2005 83.3034 95.2004 83.2986 95.1996C83.2817 95.1967 83.2647 95.1952 83.2475 95.194C83.2322 95.193 83.2169 95.1914 83.2016 95.1918C83.1849 95.1922 83.1684 95.1946 83.1517 95.1967C83.1366 95.1986 83.1214 95.2004 83.1064 95.2037C83.0905 95.2072 83.0749 95.2122 83.0592 95.2174C83.042 95.223 83.0252 95.2295 83.0084 95.2371C83.003 95.2396 82.997 95.241 82.9915 95.2437C79.6328 96.9125 77.4939 96.7788 76.1876 96.0957C74.8663 95.4047 74.2444 94.0731 74.0888 93.0392Z" fill="#002427"/>
<path d="M74.0888 93.0392L74.5832 92.9644L74.5832 92.9648L74.0888 93.0392ZM73.5198 92.6198L73.4449 92.1255L73.4454 92.1254L73.5198 92.6198ZM73.1004 93.1889L72.606 93.2633L72.6059 93.2632L73.1004 93.1889ZM75.7247 96.9817L75.4931 97.4248L75.493 97.4248L75.7247 96.9817ZM83.0444 96.3255L82.8318 95.873L83.2137 95.6935L83.4548 96.0399L83.0444 96.3255ZM89.0553 100.554L89.0344 101.053L89.0344 101.053L89.0553 100.554ZM93.2245 98.5811L93.6155 98.8927L93.6154 98.8928L93.2245 98.5811ZM93.1458 97.8786L93.4574 97.4876L93.4578 97.4879L93.1458 97.8786ZM92.4433 97.9573L92.0523 97.6456L92.0526 97.6453L92.4433 97.9573ZM89.0974 99.5549L89.0766 100.054L89.0765 100.054L89.0974 99.5549ZM83.6311 95.4151L83.2145 95.6916L83.2145 95.6916L83.6311 95.4151ZM83.6206 95.4012L83.2137 95.6917L83.2135 95.6914L83.6206 95.4012ZM83.5865 95.3587L83.2137 95.6918L83.2136 95.6917L83.5865 95.3587ZM83.5525 95.3233L83.8906 94.9549L83.8908 94.9551L83.5525 95.3233ZM83.5168 95.2945L83.2141 95.6925L83.214 95.6924L83.5168 95.2945ZM83.4908 95.2744L83.7513 94.8476L83.759 94.8523L83.7666 94.8573L83.4908 95.2744ZM83.4613 95.2564L83.7077 94.8213L83.7148 94.8253L83.7217 94.8295L83.4613 95.2564ZM83.4352 95.2443L83.6559 94.7957L83.6563 94.7959L83.4352 95.2443ZM83.3882 95.2236L83.2146 95.6925L83.214 95.6923L83.3882 95.2236ZM83.3736 95.2177L83.503 94.7347L83.5181 94.7388L83.533 94.7438L83.3736 95.2177ZM83.3132 95.2015L83.412 94.7114L83.4274 94.7145L83.4426 94.7186L83.3132 95.2015ZM83.2986 95.1996L83.2142 95.6924L83.2135 95.6923L83.2986 95.1996ZM83.2475 95.194L83.281 94.6951L83.2815 94.6952L83.2475 95.194ZM83.2016 95.1918L83.2139 95.6917L83.2136 95.6917L83.2016 95.1918ZM83.1517 95.1967L83.2141 95.6928L83.2141 95.6928L83.1517 95.1967ZM83.1064 95.2037L82.9983 94.7155L82.9984 94.7155L83.1064 95.2037ZM83.0592 95.2174L82.9035 94.7422L82.9035 94.7422L83.0592 95.2174ZM83.0084 95.2371L83.2154 95.6923L83.2148 95.6925L83.0084 95.2371ZM82.9915 95.2437L83.214 95.6915L83.214 95.6915L82.9915 95.2437ZM76.1876 96.0957L75.9559 96.5388L75.9559 96.5388L76.1876 96.0957ZM74.0888 93.0392L73.5944 93.1141L73.5941 93.1143L73.5198 92.6198L73.4454 92.1254C73.9905 92.0434 74.5005 92.4181 74.5832 92.9644L74.0888 93.0392ZM73.5198 92.6198L73.5946 93.1142L73.5948 93.1145L73.1004 93.1889L72.6059 93.2632C72.5239 92.7181 72.8987 92.2082 73.4449 92.1255L73.5198 92.6198ZM73.1004 93.1889L73.5948 93.1144C73.7666 94.2557 74.4539 95.7529 75.9564 96.5387L75.7247 96.9817L75.493 97.4248C73.6271 96.449 72.8099 94.6177 72.606 93.2633L73.1004 93.1889ZM75.7247 96.9817L75.9564 96.5386C77.403 97.295 79.6032 97.3897 82.8318 95.873L83.0444 96.3255L83.257 96.7781C79.869 98.3697 77.3185 98.3793 75.4931 97.4248L75.7247 96.9817ZM83.0444 96.3255L83.4548 96.0399C85.4924 98.9676 87.4452 99.9858 89.0762 100.054L89.0553 100.554L89.0344 101.053C86.9764 100.967 84.7723 99.6834 82.634 96.6111L83.0444 96.3255ZM89.0553 100.554L89.0762 100.054C90.7701 100.125 92.114 99.1718 92.8335 98.2694L93.2245 98.5811L93.6154 98.8928C92.7616 99.9637 91.1381 101.141 89.0344 101.053L89.0553 100.554ZM93.2245 98.5811L92.8335 98.2695L92.8338 98.2693L93.1458 97.8786L93.4578 97.4879C93.8895 97.8326 93.9591 98.4616 93.6155 98.8927L93.2245 98.5811ZM93.1458 97.8786L92.8342 98.2697L92.834 98.2693L92.4433 97.9573L92.0526 97.6453C92.3974 97.2135 93.0263 97.1441 93.4574 97.4876L93.1458 97.8786ZM92.4433 97.9573L92.8343 98.2689C92.1149 99.1715 90.7705 100.125 89.0766 100.054L89.0974 99.5549L89.1183 99.0554C90.4037 99.109 91.4683 98.3783 92.0523 97.6456L92.4433 97.9573ZM89.0974 99.5549L89.0765 100.054C87.3822 99.9835 85.3366 98.8882 83.2145 95.6916L83.6311 95.4151L84.0476 95.1385C86.074 98.1909 87.8671 99.003 89.1183 99.0554L89.0974 99.5549ZM83.6311 95.4151L83.2145 95.6916C83.2199 95.6998 83.2245 95.7061 83.2273 95.7099C83.2301 95.7136 83.2321 95.7161 83.2318 95.7158C83.2318 95.7158 83.2317 95.7157 83.2315 95.7154C83.2314 95.7152 83.231 95.7147 83.2306 95.7143C83.2299 95.7134 83.2287 95.7118 83.2272 95.7099C83.2243 95.7061 83.2194 95.6997 83.2137 95.6917L83.6206 95.4012L84.0275 95.1106C84.0235 95.105 84.0204 95.1009 84.0193 95.0994C84.0187 95.0987 84.0183 95.0982 84.0185 95.0984C84.0186 95.0985 84.0187 95.0986 84.019 95.099C84.0192 95.0993 84.0196 95.0998 84.02 95.1004C84.0215 95.1023 84.0253 95.1072 84.0298 95.1132C84.0344 95.1193 84.0406 95.128 84.0476 95.1385L83.6311 95.4151ZM83.6206 95.4012L83.2135 95.6914L83.2137 95.6918L83.5865 95.3587L83.9594 95.0255C83.9821 95.051 84.0053 95.0794 84.0278 95.111L83.6206 95.4012ZM83.5865 95.3587L83.2136 95.6917L83.2142 95.6915L83.5525 95.3233L83.8908 94.9551C83.9226 94.9843 83.9479 95.0127 83.9595 95.0257L83.5865 95.3587ZM83.5525 95.3233L83.2145 95.6916C83.2178 95.6947 83.2205 95.697 83.2223 95.6985C83.2232 95.6993 83.2239 95.6999 83.2243 95.7002C83.2248 95.7006 83.2251 95.7008 83.2251 95.7008C83.2251 95.7008 83.2249 95.7007 83.2244 95.7003C83.224 95.7 83.2233 95.6995 83.2224 95.6988C83.2214 95.698 83.2204 95.6972 83.219 95.6961C83.2177 95.6952 83.2158 95.6938 83.2141 95.6925L83.5168 95.2945L83.8194 94.8965C83.8246 94.9004 83.8584 94.9253 83.8906 94.9549L83.5525 95.3233ZM83.5168 95.2945L83.214 95.6924C83.2061 95.6863 83.1995 95.6811 83.1957 95.678C83.1939 95.6765 83.1921 95.6751 83.1912 95.6743C83.1901 95.6734 83.1898 95.6732 83.1897 95.6731C83.1895 95.6729 83.192 95.675 83.1959 95.6779C83.1999 95.681 83.2065 95.6858 83.215 95.6914L83.4908 95.2744L83.7666 94.8573C83.7917 94.8739 83.811 94.8895 83.8182 94.8953C83.8202 94.8969 83.822 94.8984 83.823 94.8992C83.8243 94.9003 83.8246 94.9005 83.8249 94.9007C83.8254 94.9011 83.8231 94.8993 83.8196 94.8966L83.5168 95.2945ZM83.4908 95.2744L83.2304 95.7012L83.2009 95.6832L83.4613 95.2564L83.7217 94.8295L83.7513 94.8476L83.4908 95.2744ZM83.4613 95.2564L83.2149 95.6914C83.2265 95.698 83.236 95.7027 83.2419 95.7054C83.2476 95.7081 83.2516 95.7098 83.2511 95.7096C83.2506 95.7094 83.2508 95.7095 83.2487 95.7086C83.2473 95.708 83.2447 95.7069 83.2417 95.7056C83.2359 95.703 83.2259 95.6986 83.2141 95.6928L83.4352 95.2443L83.6563 94.7959C83.6488 94.7921 83.6432 94.7897 83.6417 94.789C83.6409 94.7887 83.6405 94.7885 83.6413 94.7889C83.6415 94.789 83.6439 94.79 83.6456 94.7907C83.6495 94.7924 83.6579 94.796 83.6679 94.8007C83.6781 94.8055 83.6919 94.8124 83.7077 94.8213L83.4613 95.2564ZM83.4352 95.2443L83.2144 95.6929L83.2146 95.6925L83.3882 95.2236L83.5617 94.7547C83.6009 94.7692 83.6338 94.7848 83.6559 94.7957L83.4352 95.2443ZM83.3882 95.2236L83.214 95.6923C83.2035 95.6884 83.195 95.6849 83.1899 95.6827C83.1874 95.6817 83.1852 95.6807 83.184 95.6802C83.1833 95.6799 83.1828 95.6797 83.1825 95.6795C83.1821 95.6794 83.182 95.6794 83.182 95.6793C83.1815 95.6791 83.185 95.6807 83.1899 95.6826C83.195 95.6847 83.2035 95.688 83.2142 95.6916L83.3736 95.2177L83.533 94.7438C83.5462 94.7482 83.5571 94.7524 83.5646 94.7555C83.5719 94.7584 83.5779 94.761 83.5798 94.7619C83.5804 94.7621 83.5809 94.7623 83.5811 94.7624C83.5814 94.7626 83.5814 94.7626 83.5814 94.7626C83.5814 94.7626 83.5804 94.7621 83.5791 94.7616C83.5765 94.7605 83.5704 94.7579 83.5623 94.7549L83.3882 95.2236ZM83.3736 95.2177L83.2442 95.7007L83.1838 95.6845L83.3132 95.2015L83.4426 94.7186L83.503 94.7347L83.3736 95.2177ZM83.3132 95.2015L83.2144 95.6917C83.2276 95.6943 83.2383 95.6959 83.2449 95.6967C83.2511 95.6975 83.2557 95.698 83.2551 95.6979C83.2549 95.6979 83.255 95.6979 83.2544 95.6979C83.254 95.6978 83.2533 95.6977 83.2525 95.6977C83.2509 95.6975 83.2481 95.6972 83.2448 95.6968C83.2383 95.6961 83.2274 95.6947 83.2142 95.6924L83.2986 95.1996L83.3829 94.7068C83.3721 94.7049 83.3637 94.7039 83.3596 94.7034C83.3575 94.7032 83.356 94.703 83.3556 94.703C83.3554 94.703 83.3553 94.703 83.3555 94.703C83.3556 94.703 83.3562 94.703 83.3567 94.7031C83.3585 94.7033 83.3656 94.704 83.3742 94.7051C83.3832 94.7063 83.3964 94.7082 83.412 94.7114L83.3132 95.2015ZM83.2986 95.1996L83.2135 95.6923L83.2135 95.6929L83.2475 95.194L83.2815 94.6952C83.3039 94.6967 83.3411 94.6996 83.3836 94.7069L83.2986 95.1996ZM83.2475 95.194L83.2139 95.6929C83.2079 95.6925 83.2017 95.692 83.199 95.6918C83.1973 95.6917 83.1962 95.6916 83.1953 95.6915C83.1949 95.6915 83.1946 95.6915 83.1944 95.6915C83.1943 95.6915 83.1942 95.6915 83.1941 95.6915C83.1941 95.6915 83.1941 95.6915 83.1941 95.6915C83.1941 95.6915 83.1941 95.6915 83.1941 95.6915C83.1942 95.6915 83.1943 95.6915 83.1944 95.6915C83.1946 95.6915 83.1949 95.6915 83.1953 95.6915C83.1961 95.6916 83.1974 95.6916 83.199 95.6917C83.2023 95.6918 83.2074 95.6918 83.2139 95.6917L83.2016 95.1918L83.1892 94.692C83.217 94.6913 83.2405 94.6924 83.255 94.6933C83.2624 94.6938 83.269 94.6943 83.273 94.6946C83.2779 94.6949 83.2794 94.695 83.281 94.6951L83.2475 95.194ZM83.2016 95.1918L83.2136 95.6917C83.2192 95.6915 83.2235 95.6913 83.2263 95.6911C83.2277 95.691 83.2288 95.6909 83.2295 95.6908C83.2302 95.6907 83.2306 95.6907 83.2306 95.6907C83.2306 95.6907 83.2305 95.6907 83.2303 95.6907C83.2302 95.6907 83.2299 95.6908 83.2296 95.6908C83.2289 95.6909 83.2279 95.691 83.2265 95.6912C83.225 95.6914 83.2235 95.6916 83.2213 95.6918C83.2194 95.6921 83.2168 95.6924 83.2141 95.6928L83.1517 95.1967L83.0894 94.7006C83.0933 94.7001 83.1411 94.6931 83.1895 94.692L83.2016 95.1918ZM83.1517 95.1967L83.2141 95.6928C83.2094 95.6934 83.2072 95.6936 83.2046 95.694C83.2036 95.6941 83.2028 95.6942 83.2023 95.6943C83.2018 95.6943 83.2016 95.6944 83.2016 95.6944C83.2016 95.6944 83.2019 95.6943 83.2024 95.6942C83.203 95.6941 83.2038 95.694 83.2049 95.6938C83.207 95.6934 83.2102 95.6928 83.2143 95.6919L83.1064 95.2037L82.9984 94.7155C83.0406 94.7062 83.0806 94.7017 83.0894 94.7006L83.1517 95.1967ZM83.1064 95.2037L83.2144 95.6919C83.218 95.6911 83.2208 95.6904 83.2226 95.6899C83.2235 95.6897 83.2242 95.6895 83.2246 95.6894C83.2251 95.6892 83.2253 95.6892 83.2254 95.6892C83.2254 95.6892 83.2252 95.6892 83.2247 95.6894C83.2243 95.6895 83.2237 95.6897 83.2228 95.69C83.2209 95.6906 83.2186 95.6913 83.2149 95.6925L83.0592 95.2174L82.9035 94.7422C82.9178 94.7376 82.9552 94.7251 82.9983 94.7155L83.1064 95.2037ZM83.0592 95.2174L83.215 95.6925L83.2154 95.6923L83.0084 95.2371L82.8015 94.782C82.8358 94.7664 82.8698 94.7533 82.9035 94.7422L83.0592 95.2174ZM83.0084 95.2371L83.2148 95.6925C83.1986 95.6999 83.1851 95.7051 83.1771 95.708C83.1729 95.7095 83.1695 95.7107 83.1675 95.7114C83.1665 95.7118 83.1656 95.7121 83.1651 95.7123C83.1644 95.7125 83.1645 95.7125 83.1643 95.7126C83.1642 95.7126 83.1655 95.7121 83.1675 95.7114C83.1695 95.7107 83.1728 95.7095 83.1769 95.7079C83.185 95.7048 83.1982 95.6994 83.214 95.6915L82.9915 95.2437L82.769 94.7959C82.7876 94.7867 82.8035 94.7801 82.8144 94.7759C82.8249 94.7719 82.8336 94.7688 82.8356 94.7681C82.836 94.768 82.8363 94.7679 82.8365 94.7678C82.8368 94.7677 82.8368 94.7677 82.837 94.7677C82.8372 94.7676 82.837 94.7676 82.8367 94.7677C82.8361 94.7679 82.8341 94.7686 82.8314 94.7696C82.8262 94.7716 82.8155 94.7756 82.8021 94.7817L83.0084 95.2371ZM82.9915 95.2437L83.214 95.6915C79.7778 97.3988 77.4587 97.3246 75.9559 96.5388L76.1876 96.0957L76.4193 95.6527C77.529 96.2329 79.4878 96.4263 82.769 94.7959L82.9915 95.2437ZM76.1876 96.0957L75.9559 96.5388C74.4535 95.753 73.7661 94.255 73.5944 93.1136L74.0888 93.0392L74.5832 92.9648C74.7226 93.8913 75.2792 95.0564 76.4193 95.6527L76.1876 96.0957Z" fill="#002427"/>
<path d="M122.353 53.7051C119.355 55.9652 120.323 61.5961 122.834 64.928C125.345 68.2599 129.812 69.1288 132.811 66.8688C135.809 64.6087 136.205 60.0756 133.693 56.7436C131.182 53.4117 125.352 51.4451 122.353 53.7051Z" fill="#FFFFF9" fill-opacity="0.61"/>
<path d="M114.81 44.579C113.687 45.4254 114.05 47.5342 114.99 48.782C115.931 50.0298 117.604 50.3552 118.727 49.5089C119.85 48.6625 119.998 46.9648 119.057 45.717C118.117 44.4691 115.933 43.7326 114.81 44.579Z" fill="#FFFFF9" fill-opacity="0.61"/>
<path d="M44.9012 103.414C45.1901 103.491 45.7079 103.888 46.4513 104.608C46.8259 104.97 47.1948 105.327 47.4809 105.73C47.7671 106.133 47.9593 106.572 48.4973 107.506" stroke="#00C8A3" stroke-opacity="0.23" stroke-width="2" stroke-linecap="round"/>
<path d="M116.414 122.576C116.125 122.498 115.478 122.583 114.475 122.834C113.969 122.961 113.471 123.086 113.022 123.292C112.572 123.498 112.187 123.782 111.254 124.321" stroke="#00C8A3" stroke-opacity="0.23" stroke-width="2" stroke-linecap="round"/>
<path d="M82.2227 123.363C81.7537 123.343 80.8435 123.214 80.0287 123.195C79.1034 123.174 78.1203 123.374 77.0459 123.606C76.3306 123.761 75.6889 122.711 74.9084 122.115C74.2546 121.617 73.5523 121.217 72.8469 120.795C72.4011 120.612 71.9883 120.416 71.5579 120.19C71.2925 120.071 70.9318 119.943 70.5601 119.811" stroke="#00C6E0" stroke-opacity="0.48" stroke-width="2" stroke-linecap="round"/>
<ellipse cx="6.04361" cy="8.30996" rx="6.04361" ry="8.30996" transform="matrix(-0.965926 -0.258819 -0.258819 0.965926 120.247 90.7544)" fill="#002427"/>
<ellipse cx="6.04361" cy="8.30996" rx="6.04361" ry="8.30996" transform="matrix(-0.965926 -0.258819 -0.258819 0.965926 66.248 76.2849)" fill="#002427"/>
</g>
<ellipse cx="17.1029" cy="13.035" rx="17.1029" ry="13.035" transform="matrix(0.695288 0.718731 -0.755701 0.654917 51.272 4.70581)" fill="url(#paint3_linear_521_1364)" stroke="#FFFFF6" stroke-width="2"/>
<ellipse cx="14.0791" cy="9.60429" rx="14.0791" ry="9.60429" transform="matrix(0.695288 0.718731 -0.755701 0.654917 49.2181 11.4827)" fill="#17B4C8"/>
<g filter="url(#filter2_d_521_1364)">
<path d="M104.973 27.3203C72.781 18.6945 42.8482 36.9902 34.7324 67.2787C30.7054 82.3073 35.6698 98.2297 44.2046 111.134C40.5137 111.898 38.6603 114.57 41.5654 121.078C39.7979 127.674 45.9949 135.046 54.4239 137.304C59.9271 138.779 65.3605 137.791 68.9615 135.092C70.7071 139.696 75.4467 143.777 81.706 145.455C90.3912 147.782 98.8567 144.639 101.179 138.404C102.776 139.99 104.642 141.431 106.75 142.649C116.847 148.478 128.617 146.994 133.039 139.335C136.202 133.856 134.749 126.701 129.969 120.938C137.428 114.579 143.275 106.557 145.823 97.0454C153.939 66.7569 137.164 35.946 104.973 27.3203Z" fill="url(#paint4_radial_521_1364)"/>
<path d="M104.973 27.3203L105.231 26.3543L104.973 27.3203ZM34.7324 67.2787L33.7664 67.0198L34.7324 67.2787ZM44.2046 111.134L45.0387 110.582C45.2217 110.859 45.2555 111.208 45.1291 111.515C45.0026 111.822 44.7322 112.046 44.4074 112.113L44.2046 111.134ZM41.5654 121.078L42.4786 120.67C42.5721 120.879 42.5907 121.115 42.5313 121.336L41.5654 121.078ZM54.4239 137.304L54.1651 138.27L54.4239 137.304ZM68.9615 135.092L68.3618 134.292C68.6133 134.103 68.9387 134.044 69.2404 134.132C69.5422 134.219 69.7852 134.444 69.8966 134.738L68.9615 135.092ZM81.706 145.455L81.4472 146.421L81.4471 146.421L81.706 145.455ZM101.179 138.404L100.242 138.055C100.36 137.736 100.632 137.5 100.964 137.427C101.296 137.354 101.642 137.455 101.883 137.694L101.179 138.404ZM106.75 142.649L106.25 143.515L106.25 143.515L106.75 142.649ZM133.039 139.335L133.905 139.835L133.905 139.835L133.039 139.335ZM129.969 120.938L129.2 121.576C128.85 121.155 128.904 120.532 129.321 120.177L129.969 120.938ZM145.823 97.0454L146.789 97.3042L145.823 97.0454ZM104.973 27.3203L104.714 28.2862C73.0613 19.8049 43.6727 37.7768 35.6983 67.5375L34.7324 67.2787L33.7664 67.0198C42.0236 36.2037 72.5006 17.5841 105.231 26.3543L104.973 27.3203ZM34.7324 67.2787L35.6983 67.5375C31.7717 82.1917 36.5957 97.8169 45.0387 110.582L44.2046 111.134L43.3705 111.685C34.7439 98.6425 29.6392 82.4229 33.7664 67.0198L34.7324 67.2787ZM44.2046 111.134L44.4074 112.113C42.7427 112.458 41.7517 113.169 41.3535 114.287C40.924 115.494 41.0574 117.487 42.4786 120.67L41.5654 121.078L40.6523 121.485C39.1683 118.161 38.7758 115.564 39.4694 113.617C40.1944 111.581 41.9756 110.574 44.0018 110.155L44.2046 111.134ZM41.5654 121.078L42.5313 121.336C41.7538 124.238 42.7031 127.408 44.949 130.189C47.1912 132.966 50.662 135.261 54.6827 136.338L54.4239 137.304L54.1651 138.27C49.7567 137.089 45.9146 134.569 43.3929 131.446C40.875 128.328 39.6095 124.513 40.5995 120.819L41.5654 121.078ZM54.4239 137.304L54.6827 136.338C59.9365 137.746 65.0428 136.779 68.3618 134.292L68.9615 135.092L69.5613 135.892C65.6781 138.802 59.9177 139.812 54.1651 138.27L54.4239 137.304ZM68.9615 135.092L69.8966 134.738C71.5055 138.981 75.9487 142.877 81.9648 144.489L81.706 145.455L81.4471 146.421C74.9447 144.678 69.9087 140.411 68.0265 135.447L68.9615 135.092ZM81.706 145.455L81.9648 144.489C90.3866 146.745 98.1733 143.608 100.242 138.055L101.179 138.404L102.116 138.753C99.54 145.669 90.3958 148.818 81.4472 146.421L81.706 145.455ZM101.179 138.404L101.883 137.694C103.419 139.219 105.217 140.608 107.25 141.783L106.75 142.649L106.25 143.515C104.068 142.254 102.132 140.76 100.474 139.113L101.179 138.404ZM106.75 142.649L107.25 141.783C112.127 144.598 117.376 145.628 121.898 145.058C126.418 144.488 130.152 142.335 132.173 138.835L133.039 139.335L133.905 139.835C131.504 143.994 127.142 146.413 122.148 147.042C117.155 147.671 111.47 146.528 106.25 143.515L106.75 142.649ZM133.039 139.335L132.173 138.835C135.058 133.837 133.812 127.138 129.2 121.576L129.969 120.938L130.739 120.299C135.685 126.264 137.346 133.874 133.905 139.835L133.039 139.335ZM129.969 120.938L129.321 120.177C136.663 113.917 142.373 106.059 144.857 96.7866L145.823 97.0454L146.789 97.3042C144.177 107.055 138.193 115.241 130.618 121.699L129.969 120.938ZM145.823 97.0454L144.857 96.7866C152.832 67.0259 136.366 36.7674 104.714 28.2862L104.973 27.3203L105.231 26.3543C137.962 35.1245 155.046 66.488 146.789 97.3042L145.823 97.0454Z" fill="#FFFFF6"/>
</g>
<path d="M118.278 53.6394C115.319 55.8696 116.275 61.4259 118.753 64.7137C121.231 68.0015 125.638 68.8589 128.597 66.6288C131.556 64.3987 131.946 59.9255 129.468 56.6377C126.99 53.3499 121.237 51.4093 118.278 53.6394Z" fill="#FFFFF9" fill-opacity="0.67"/>
<path d="M110.835 44.6347C109.727 45.4699 110.085 47.5508 111.013 48.7821C111.941 50.0134 113.592 50.3345 114.7 49.4993C115.808 48.6641 115.954 46.9889 115.026 45.7576C114.098 44.5263 111.944 43.7996 110.835 44.6347Z" fill="#FFFFF9" fill-opacity="0.67"/>
<path d="M49.6127 58.8152C48.5846 57.8832 46.6077 58.6248 45.5722 59.7672C44.5367 60.9096 44.5308 62.5911 45.5589 63.5231C46.5871 64.455 48.2599 64.2844 49.2954 63.142C50.3309 61.9996 50.6408 59.7471 49.6127 58.8152Z" fill="#54F6FD" fill-opacity="0.26"/>
<path d="M109.142 122.331C108.864 122.256 108.24 122.338 107.273 122.58C106.786 122.702 106.306 122.822 105.873 123.02C105.44 123.219 105.069 123.492 104.17 124.013" stroke="#00C8A3" stroke-opacity="0.5" stroke-width="2" stroke-linecap="round"/>
<path d="M77.9053 121.969C77.4534 121.95 76.5764 121.826 75.7913 121.808C74.8998 121.788 73.9524 121.98 72.9173 122.204C72.228 122.353 71.6098 121.341 70.8577 120.767C70.2277 120.287 69.5511 119.902 68.8713 119.495C68.4418 119.319 68.0441 119.131 67.6293 118.913C67.3736 118.798 67.026 118.674 66.6679 118.547" stroke="#00C6E0" stroke-opacity="0.8" stroke-width="2" stroke-linecap="round"/>
<path d="M73.8383 78.4221C73.8259 78.4201 73.8134 78.4192 73.8009 78.4181C73.7805 78.4164 73.7601 78.4161 73.7396 78.4169C73.7286 78.4173 73.7176 78.418 73.7066 78.4192C73.6871 78.4212 73.6678 78.4244 73.6484 78.4288C73.6336 78.4322 73.6192 78.4366 73.6046 78.4414C73.5872 78.4471 73.5699 78.4531 73.5529 78.4609C73.547 78.4635 73.5405 78.4652 73.5348 78.4681C73.5279 78.4716 73.522 78.4764 73.5154 78.4801C73.505 78.4859 73.4937 78.4903 73.4836 78.4969C70.9888 80.14 69.5529 80.0621 68.7619 79.5884C67.9277 79.0885 67.5367 77.9982 67.4733 77.0624C67.4541 76.7873 67.2157 76.5795 66.9405 76.5981C66.6655 76.6171 66.4579 76.8558 66.4763 77.1309C66.5488 78.2005 67.0001 79.6989 68.2478 80.4465C69.4611 81.1731 71.201 81.066 73.5678 79.6275C74.8984 82.0569 76.3512 83.0204 77.7654 82.9977C79.2198 82.9744 80.3596 81.9022 80.9574 81.0121C81.1112 80.783 81.0505 80.4726 80.8217 80.3186C80.5926 80.1647 80.2822 80.2253 80.1282 80.4542C79.6053 81.2331 78.7217 81.982 77.7493 81.9976C76.8273 82.0123 75.5449 81.3616 74.2059 78.6914C74.2024 78.6845 74.1979 78.6778 74.1941 78.6711C74.1883 78.6607 74.1831 78.6492 74.1764 78.6391C74.1726 78.6332 74.1677 78.6281 74.1637 78.6225C74.1531 78.6078 74.1413 78.5942 74.1293 78.5809C74.1191 78.5695 74.1088 78.5585 74.0977 78.5482C74.0871 78.5385 74.0758 78.5298 74.0645 78.5211C74.0479 78.5082 74.0313 78.4957 74.0134 78.4852C74.0049 78.4801 73.9955 78.4765 73.9867 78.472C73.9674 78.4621 73.9484 78.4524 73.9281 78.4451C73.918 78.4415 73.9076 78.4389 73.8973 78.4359C73.8778 78.4303 73.8583 78.4253 73.8383 78.4221Z" fill="#002427"/>
<path d="M73.8383 78.4221L73.759 78.9157L73.758 78.9156L73.8383 78.4221ZM73.8009 78.4181L73.8431 77.9199L73.8439 77.92L73.8009 78.4181ZM73.7396 78.4169L73.7587 78.9165L73.7582 78.9165L73.7396 78.4169ZM73.7066 78.4192L73.6545 77.9219L73.6547 77.9219L73.7066 78.4192ZM73.6484 78.4288L73.5375 77.9413L73.5376 77.9413L73.6484 78.4288ZM73.6046 78.4414L73.7598 78.9167L73.7597 78.9167L73.6046 78.4414ZM73.5529 78.4609L73.76 78.916L73.7596 78.9161L73.5529 78.4609ZM73.5348 78.4681L73.3105 78.0213L73.3108 78.0211L73.5348 78.4681ZM73.5154 78.4801L73.2707 78.0441L73.2713 78.0437L73.5154 78.4801ZM73.4836 78.4969L73.2086 78.0793L73.2086 78.0793L73.4836 78.4969ZM68.7619 79.5884L68.505 80.0173L68.5049 80.0173L68.7619 79.5884ZM67.4733 77.0624L67.9721 77.0276L67.9722 77.0286L67.4733 77.0624ZM66.9405 76.5981L66.9061 76.0993L66.9068 76.0992L66.9405 76.5981ZM66.4763 77.1309L65.9774 77.1647L65.9774 77.1641L66.4763 77.1309ZM68.2478 80.4465L67.9909 80.8754L67.9909 80.8754L68.2478 80.4465ZM73.5678 79.6275L73.3082 79.2003L73.7551 78.9286L74.0064 79.3874L73.5678 79.6275ZM77.7654 82.9977L77.7734 83.4976L77.7734 83.4976L77.7654 82.9977ZM80.9574 81.0121L81.3725 81.2907L81.3725 81.2908L80.9574 81.0121ZM80.8217 80.3186L81.1004 79.9034L81.1009 79.9038L80.8217 80.3186ZM80.1282 80.4542L79.7131 80.1755L79.7133 80.1751L80.1282 80.4542ZM77.7493 81.9976L77.7573 82.4975L77.7572 82.4975L77.7493 81.9976ZM74.2059 78.6914L73.7589 78.9156L73.7589 78.9156L74.2059 78.6914ZM74.1941 78.6711L74.6302 78.4265L74.6304 78.4268L74.1941 78.6711ZM74.1764 78.6391L74.5936 78.3635L74.594 78.364L74.1764 78.6391ZM74.1637 78.6225L73.7582 78.9151L73.7582 78.915L74.1637 78.6225ZM74.1293 78.5809L73.7579 78.9157L73.7577 78.9154L74.1293 78.5809ZM74.0977 78.5482L74.4368 78.1808L74.437 78.181L74.0977 78.5482ZM74.0645 78.5211L73.7583 78.9164L73.7582 78.9163L74.0645 78.5211ZM74.0134 78.4852L73.7593 78.9158L73.759 78.9156L74.0134 78.4852ZM73.9867 78.472L74.2145 78.0269L74.2151 78.0272L73.9867 78.472ZM73.9281 78.4451L73.7594 78.9158L73.7585 78.9155L73.9281 78.4451ZM73.8973 78.4359L74.0354 77.9553L74.0364 77.9556L73.8973 78.4359ZM73.8383 78.4221L73.758 78.9156C73.7625 78.9163 73.766 78.9168 73.7683 78.9171C73.7694 78.9172 73.7703 78.9173 73.7709 78.9174C73.7712 78.9174 73.7714 78.9174 73.7715 78.9174C73.7716 78.9174 73.7716 78.9174 73.7717 78.9174C73.7717 78.9175 73.7717 78.9175 73.7717 78.9175C73.7717 78.9175 73.7717 78.9175 73.7717 78.9175C73.7717 78.9174 73.7716 78.9174 73.7715 78.9174C73.7714 78.9174 73.7712 78.9174 73.7709 78.9174C73.7703 78.9173 73.7695 78.9173 73.7683 78.9172C73.767 78.917 73.7659 78.917 73.764 78.9168C73.7623 78.9167 73.7602 78.9165 73.7579 78.9163L73.8009 78.4181L73.8439 77.92C73.8439 77.92 73.8583 77.9212 73.8675 77.9221C73.8795 77.9232 73.8976 77.9251 73.9185 77.9286L73.8383 78.4221ZM73.8009 78.4181L73.7587 78.9163L73.7587 78.9165L73.7396 78.4169L73.7205 77.9172C73.759 77.9158 73.7999 77.9163 73.8431 77.9199L73.8009 78.4181ZM73.7396 78.4169L73.7582 78.9165L73.7586 78.9164L73.7066 78.4192L73.6547 77.9219C73.6781 77.9194 73.7003 77.918 73.7209 77.9172L73.7396 78.4169ZM73.7066 78.4192L73.7588 78.9164L73.7592 78.9164L73.6484 78.4288L73.5376 77.9413C73.5755 77.9326 73.6144 77.9261 73.6545 77.9219L73.7066 78.4192ZM73.6484 78.4288L73.7593 78.9164L73.7598 78.9167L73.6046 78.4414L73.4494 77.9661C73.4689 77.9597 73.5004 77.9497 73.5375 77.9413L73.6484 78.4288ZM73.6046 78.4414L73.7597 78.9167L73.76 78.916L73.5529 78.4609L73.3458 78.0058C73.3882 77.9865 73.4263 77.9736 73.4495 77.966L73.6046 78.4414ZM73.5529 78.4609L73.7596 78.9161C73.7454 78.9226 73.7335 78.9273 73.7265 78.9299C73.7229 78.9313 73.7199 78.9324 73.7182 78.933C73.7173 78.9333 73.7165 78.9336 73.7161 78.9338C73.7156 78.934 73.7155 78.934 73.7154 78.934C73.7147 78.9343 73.7196 78.9325 73.7262 78.9299C73.7332 78.927 73.7447 78.9222 73.7587 78.9152L73.5348 78.4681L73.3108 78.0211C73.3277 78.0126 73.3422 78.0065 73.3522 78.0024C73.3618 77.9986 73.3698 77.9956 73.3722 77.9948C73.3729 77.9945 73.3736 77.9943 73.3738 77.9942C73.3741 77.9941 73.3741 77.9941 73.374 77.9941C73.3738 77.9942 73.3723 77.9947 73.3703 77.9955C73.3664 77.997 73.3575 78.0005 73.3461 78.0056L73.5529 78.4609ZM73.5348 78.4681L73.759 78.915C73.7735 78.9078 73.7847 78.9012 73.7915 78.897C73.7979 78.893 73.8025 78.8899 73.8019 78.8903C73.8019 78.8904 73.8018 78.8904 73.8013 78.8908C73.8009 78.891 73.8001 78.8915 73.7993 78.8921C73.7977 78.8931 73.7949 78.895 73.7915 78.8972C73.7849 78.9014 73.7736 78.9086 73.7594 78.9165L73.5154 78.4801L73.2713 78.0437C73.2604 78.0499 73.2523 78.055 73.2489 78.0572C73.2471 78.0584 73.2459 78.0592 73.2459 78.0592C73.2458 78.0592 73.2459 78.0592 73.2463 78.0589C73.2466 78.0587 73.2473 78.0582 73.248 78.0577C73.2506 78.056 73.2584 78.0508 73.2681 78.0449C73.2781 78.0387 73.2926 78.0302 73.3105 78.0213L73.5348 78.4681ZM73.5154 78.4801L73.7601 78.9162C73.7469 78.9236 73.7357 78.9292 73.7292 78.9324C73.7259 78.934 73.723 78.9355 73.7214 78.9362C73.7193 78.9373 73.7192 78.9373 73.7188 78.9375C73.7183 78.9377 73.7227 78.9356 73.729 78.9322C73.7355 78.9287 73.746 78.9228 73.7585 78.9145L73.4836 78.4969L73.2086 78.0793C73.242 78.0573 73.2717 78.043 73.2799 78.0389C73.2822 78.0378 73.2849 78.0365 73.2854 78.0363C73.2865 78.0357 73.2863 78.0358 73.2857 78.0361C73.2845 78.0367 73.2787 78.0396 73.2707 78.0441L73.5154 78.4801ZM73.4836 78.4969L73.7586 78.9145C71.2068 80.5951 69.5455 80.6405 68.505 80.0173L68.7619 79.5884L69.0188 79.1594C69.5604 79.4838 70.7708 79.6848 73.2086 78.0793L73.4836 78.4969ZM68.7619 79.5884L68.5049 80.0173C67.4646 79.3939 67.0424 78.1003 66.9744 77.0961L67.4733 77.0624L67.9722 77.0286C68.0309 77.8962 68.3907 78.7831 69.0189 79.1595L68.7619 79.5884ZM67.4733 77.0624L66.9745 77.0971L66.9743 77.097L66.9405 76.5981L66.9068 76.0992C67.4571 76.062 67.9338 76.4775 67.9721 77.0276L67.4733 77.0624ZM66.9405 76.5981L66.975 77.0969L66.9752 77.0976L66.4763 77.1309L65.9774 77.1641C65.9408 76.6151 66.355 76.1373 66.9061 76.0993L66.9405 76.5981ZM66.4763 77.1309L66.9751 77.097C67.0432 78.1006 67.4643 79.3942 68.5048 80.0176L68.2478 80.4465L67.9909 80.8754C66.5358 80.0037 66.0544 78.3005 65.9774 77.1647L66.4763 77.1309ZM68.2478 80.4465L68.5047 80.0175C69.4831 80.6035 71.0066 80.5991 73.3082 79.2003L73.5678 79.6275L73.8275 80.0548C71.3954 81.5329 69.4392 81.7428 67.9909 80.8754L68.2478 80.4465ZM73.5678 79.6275L74.0064 79.3874C75.3004 81.75 76.6172 82.516 77.7573 82.4978L77.7654 82.9977L77.7734 83.4976C76.0853 83.5247 74.4964 82.3639 73.1293 79.8677L73.5678 79.6275ZM77.7654 82.9977L77.7573 82.4978C78.9702 82.4783 79.9814 81.5686 80.5423 80.7333L80.9574 81.0121L81.3725 81.2908C80.7379 82.2359 79.4695 83.4705 77.7734 83.4976L77.7654 82.9977ZM80.9574 81.0121L80.5422 80.7334L80.5425 80.7333L80.8217 80.3186L81.1009 79.9038C81.559 80.2121 81.6798 80.833 81.3725 81.2907L80.9574 81.0121ZM80.8217 80.3186L80.543 80.7337L80.5431 80.7333L80.1282 80.4542L79.7133 80.1751C80.0217 79.7167 80.6427 79.5962 81.1004 79.9034L80.8217 80.3186ZM80.1282 80.4542L80.5433 80.7329C79.9824 81.5685 78.9701 82.4781 77.7573 82.4975L77.7493 81.9976L77.7412 81.4976C78.4733 81.4859 79.2282 80.8977 79.7131 80.1755L80.1282 80.4542ZM77.7493 81.9976L77.7572 82.4975C76.5446 82.5169 75.1285 81.6467 73.7589 78.9156L74.2059 78.6914L74.6528 78.4673C75.9612 81.0764 77.11 81.5077 77.7413 81.4976L77.7493 81.9976ZM74.2059 78.6914L73.7589 78.9156C73.7629 78.9235 73.7663 78.9296 73.7684 78.9333C73.7704 78.9368 73.7718 78.9392 73.7716 78.9388C73.7715 78.9386 73.7714 78.9385 73.7707 78.9373C73.7702 78.9365 73.7692 78.9348 73.7681 78.933C73.7659 78.9294 73.7622 78.9231 73.7579 78.9154L74.1941 78.6711L74.6304 78.4268C74.628 78.4225 74.6262 78.4195 74.6261 78.4193C74.626 78.4191 74.626 78.4192 74.6265 78.42C74.6268 78.4205 74.6277 78.422 74.6286 78.4235C74.6317 78.4287 74.642 78.4458 74.6528 78.4673L74.2059 78.6914ZM74.1941 78.6711L73.7581 78.9157C73.753 78.9068 73.749 78.8991 73.7468 78.8948C73.7457 78.8927 73.7445 78.8905 73.744 78.8895C73.7433 78.8882 73.7431 78.8878 73.743 78.8877C73.7428 78.8872 73.7442 78.89 73.7466 78.8941C73.749 78.8983 73.7531 78.9054 73.7589 78.9141L74.1764 78.6391L74.594 78.364C74.6113 78.3903 74.6235 78.4134 74.6282 78.4223C74.6295 78.4249 74.6307 78.4272 74.6314 78.4286C74.6323 78.4303 74.6326 78.4309 74.6329 78.4314C74.6335 78.4326 74.6323 78.4302 74.6302 78.4265L74.1941 78.6711ZM74.1764 78.6391L73.7593 78.9147C73.7662 78.9252 73.7722 78.9333 73.776 78.9383C73.7796 78.943 73.7823 78.9463 73.782 78.9459C73.782 78.9458 73.7819 78.9458 73.7816 78.9454C73.7814 78.9451 73.7809 78.9446 73.7805 78.944C73.7795 78.9428 73.7778 78.9408 73.7759 78.9383C73.7721 78.9335 73.7656 78.9253 73.7582 78.9151L74.1637 78.6225L74.5692 78.33C74.5638 78.3225 74.5595 78.317 74.5578 78.315C74.5569 78.3139 74.5564 78.3132 74.5565 78.3134C74.5566 78.3135 74.5567 78.3136 74.557 78.314C74.5573 78.3143 74.5578 78.3149 74.5583 78.3155C74.5602 78.3178 74.565 78.3238 74.5708 78.3313C74.5766 78.339 74.5847 78.35 74.5936 78.3635L74.1764 78.6391ZM74.1637 78.6225L73.7582 78.915L73.7579 78.9157L74.1293 78.5809L74.5007 78.2462C74.5157 78.2628 74.5422 78.2926 74.5692 78.33L74.1637 78.6225ZM74.1293 78.5809L73.7577 78.9154L73.7583 78.9154L74.0977 78.5482L74.437 78.181C74.4656 78.2074 74.4884 78.2325 74.501 78.2465L74.1293 78.5809ZM74.0977 78.5482L73.7586 78.9156C73.7617 78.9186 73.7643 78.9208 73.766 78.9222C73.7668 78.9229 73.7675 78.9235 73.7679 78.9238C73.7683 78.9242 73.7686 78.9244 73.7686 78.9244C73.7686 78.9244 73.7684 78.9242 73.768 78.9239C73.7676 78.9236 73.767 78.9231 73.7661 78.9224C73.7652 78.9217 73.7642 78.9209 73.7628 78.9199C73.7617 78.919 73.7599 78.9176 73.7583 78.9164L74.0645 78.5211L74.3707 78.1258C74.3751 78.1293 74.4067 78.153 74.4368 78.1808L74.0977 78.5482ZM74.0645 78.5211L73.7582 78.9163C73.7548 78.9137 73.7525 78.9119 73.7507 78.9106C73.7499 78.9099 73.7493 78.9095 73.7489 78.9092C73.7484 78.9089 73.7483 78.9087 73.7483 78.9088C73.7483 78.9088 73.7493 78.9095 73.7511 78.9107C73.7529 78.9119 73.7557 78.9136 73.7593 78.9158L74.0134 78.4852L74.2676 78.0546C74.3152 78.0827 74.3536 78.1126 74.3708 78.1259L74.0645 78.5211ZM74.0134 78.4852L73.759 78.9156C73.7685 78.9212 73.7762 78.9253 73.7811 78.9277C73.7858 78.9301 73.789 78.9316 73.7887 78.9315C73.7885 78.9314 73.7882 78.9312 73.7868 78.9306C73.7856 78.93 73.7834 78.929 73.781 78.9279C73.7762 78.9256 73.768 78.9217 73.7583 78.9167L73.9867 78.472L74.2151 78.0272C74.2098 78.0244 74.206 78.0227 74.2057 78.0226C74.2056 78.0225 74.2057 78.0225 74.2068 78.023C74.2075 78.0234 74.2096 78.0243 74.2116 78.0253C74.2189 78.0287 74.2417 78.0393 74.2679 78.0548L74.0134 78.4852ZM73.9867 78.472L73.7588 78.917C73.7539 78.9145 73.7509 78.913 73.7484 78.9117C73.7472 78.9111 73.7464 78.9107 73.7458 78.9104C73.7452 78.9101 73.7449 78.91 73.7449 78.91C73.7449 78.91 73.7452 78.9102 73.7458 78.9104C73.7464 78.9107 73.7474 78.9111 73.7486 78.9116C73.7509 78.9126 73.7546 78.9141 73.7594 78.9158L73.9281 78.4451L74.0968 77.9745C74.1522 77.9943 74.1991 78.019 74.2145 78.0269L73.9867 78.472ZM73.9281 78.4451L73.7585 78.9155C73.7681 78.919 73.7747 78.9208 73.7741 78.9206C73.7737 78.9205 73.7731 78.9203 73.7701 78.9195C73.7677 78.9188 73.7631 78.9176 73.7581 78.9161L73.8973 78.4359L74.0364 77.9556C74.0364 77.9556 74.0366 77.9557 74.0372 77.9558C74.0379 77.956 74.0386 77.9562 74.04 77.9566C74.0421 77.9572 74.0467 77.9585 74.0515 77.9599C74.0611 77.9627 74.078 77.9677 74.0978 77.9748L73.9281 78.4451ZM73.8973 78.4359L73.7591 78.9164L73.759 78.9157L73.8383 78.4221L73.9176 77.9284C73.9661 77.9362 74.0074 77.9473 74.0354 77.9553L73.8973 78.4359Z" fill="#002427"/>
<ellipse cx="5.43504" cy="7.47318" rx="5.43504" ry="7.47318" transform="matrix(-0.965926 -0.258819 -0.258819 0.965926 105.773 77.0532)" fill="#002427"/>
<ellipse cx="5.43504" cy="7.47318" rx="5.43504" ry="7.47318" transform="matrix(-0.965926 -0.258819 -0.258819 0.965926 64.7178 63.9521)" fill="#002427"/>
<ellipse cx="17.1029" cy="13.035" rx="17.1029" ry="13.035" transform="matrix(-0.961503 0.274795 0.326998 0.945025 164.887 35.1487)" fill="url(#paint5_linear_521_1364)" stroke="#FFFFF6" stroke-width="2"/>
<ellipse cx="14.0791" cy="9.60429" rx="14.0791" ry="9.60429" transform="matrix(-0.961503 0.274795 0.326998 0.945025 163.277 42.0447)" fill="#17B4C8"/>
<path d="M43.5161 98.9163C45.1306 104.964 46.0407 115.646 42.2311 119.105C40.2598 120.895 30.195 119.185 23.9244 115.542C15.8135 110.829 11.3267 101.807 15.3782 93.0993C18.8575 85.6207 26.5024 83.5687 32.6979 85.1383C35.6677 85.8907 41.3788 90.9102 43.5161 98.9163Z" fill="#00AFC8" stroke="#FFFFF6" stroke-width="2"/>
<circle cx="4.2881" cy="4.2881" r="4.2881" transform="matrix(-0.965926 -0.258819 -0.258819 0.965926 31.3596 96.0769)" fill="#86DAE6"/>
<circle cx="2.85873" cy="2.85873" r="2.85873" transform="matrix(-0.965926 -0.258819 -0.258819 0.965926 35.6733 107.591)" fill="#86DAE6"/>
<defs>
<filter id="filter0_f_521_1364" x="6.76086" y="1.91272" width="170.908" height="155.277" filterUnits="userSpaceOnUse" color-interpolation-filters="sRGB">
<feFlood flood-opacity="0" result="BackgroundImageFix"/>
<feBlend mode="normal" in="SourceGraphic" in2="BackgroundImageFix" result="shape"/>
<feGaussianBlur stdDeviation="3.5" result="effect1_foregroundBlur_521_1364"/>
</filter>
<filter id="filter1_d_521_1364" x="9.26086" y="13.2496" width="146.164" height="138.44" filterUnits="userSpaceOnUse" color-interpolation-filters="sRGB">
<feFlood flood-opacity="0" result="BackgroundImageFix"/>
<feColorMatrix in="SourceAlpha" type="matrix" values="0 0 0 0 0 0 0 0 0 0 0 0 0 0 0 0 0 0 127 0" result="hardAlpha"/>
<feOffset dy="-3"/>
<feGaussianBlur stdDeviation="2.25"/>
<feComposite in2="hardAlpha" operator="out"/>
<feColorMatrix type="matrix" values="0 0 0 0 0 0 0 0 0 0 0 0 0 0 0 0 0 0 0.25 0"/>
<feBlend mode="normal" in2="BackgroundImageFix" result="effect1_dropShadow_521_1364"/>
<feBlend mode="normal" in="SourceGraphic" in2="effect1_dropShadow_521_1364" result="shape"/>
</filter>
<filter id="filter2_d_521_1364" x="27.8112" y="16.6813" width="125.54" height="132.036" filterUnits="userSpaceOnUse" color-interpolation-filters="sRGB">
<feFlood flood-opacity="0" result="BackgroundImageFix"/>
<feColorMatrix in="SourceAlpha" type="matrix" values="0 0 0 0 0 0 0 0 0 0 0 0 0 0 0 0 0 0 127 0" result="hardAlpha"/>
<feOffset dy="-3"/>
<feGaussianBlur stdDeviation="2.25"/>
<feComposite in2="hardAlpha" operator="out"/>
<feColorMatrix type="matrix" values="0 0 0 0 0 0 0 0 0 0 0 0 0 0 0 0 0 0 0.25 0"/>
<feBlend mode="normal" in2="BackgroundImageFix" result="effect1_dropShadow_521_1364"/>
<feBlend mode="normal" in="SourceGraphic" in2="effect1_dropShadow_521_1364" result="shape"/>
</filter>
<linearGradient id="paint0_linear_521_1364" x1="15.7002" y1="21.8663" x2="24.895" y2="0.268991" gradientUnits="userSpaceOnUse">
<stop stop-color="#3DDCFF"/>
<stop offset="1" stop-color="#61FFB0"/>
</linearGradient>
<linearGradient id="paint1_linear_521_1364" x1="49.7235" y1="32.9259" x2="58.9183" y2="11.3286" gradientUnits="userSpaceOnUse">
<stop stop-color="#3DDCFF"/>
<stop offset="1" stop-color="#61FFB0"/>
</linearGradient>
<radialGradient id="paint2_radial_521_1364" cx="0" cy="0" r="1" gradientUnits="userSpaceOnUse" gradientTransform="translate(81.9088 114.65) rotate(127.463) scale(85.0181 120.177)">
<stop stop-color="#25FBFF"/>
<stop offset="0.303481" stop-color="#95EEFC"/>
<stop offset="0.591346" stop-color="#FFE2F8"/>
<stop offset="1" stop-color="#84FFC1"/>
</radialGradient>
<linearGradient id="paint3_linear_521_1364" x1="14.9914" y1="19.5297" x2="22.8232" y2="-0.13723" gradientUnits="userSpaceOnUse">
<stop stop-color="#3DDCFF"/>
<stop offset="1" stop-color="#61FFB0"/>
</linearGradient>
<radialGradient id="paint4_radial_521_1364" cx="0" cy="0" r="1" gradientUnits="userSpaceOnUse" gradientTransform="translate(82.8805 114.845) rotate(127.268) scale(81.8029 114.842)">
<stop stop-color="#25FBFF"/>
<stop offset="0.303481" stop-color="#95EEFC"/>
<stop offset="0.591346" stop-color="#FFE2F8"/>
<stop offset="1" stop-color="#84FFC1"/>
</radialGradient>
<linearGradient id="paint5_linear_521_1364" x1="14.9914" y1="19.5297" x2="22.8232" y2="-0.13723" gradientUnits="userSpaceOnUse">
<stop stop-color="#3DDCFF"/>
<stop offset="1" stop-color="#61FFB0"/>
</linearGradient>
</defs>
</svg>
