<svg width="158" height="166" viewBox="0 0 158 166" fill="none" xmlns="http://www.w3.org/2000/svg">
<g filter="url(#filter0_f_620_987)">
<ellipse cx="17.9116" cy="14.5946" rx="17.9116" ry="14.5946" transform="matrix(-0.996711 0.0810357 0.0810357 0.996711 168.446 36.4084)" fill="url(#paint0_linear_620_987)" stroke="#FFFFF6" stroke-width="2"/>
<ellipse cx="51.9349" cy="25.6543" rx="17.9116" ry="14.5946" transform="rotate(34.6481 51.9349 25.6543)" fill="url(#paint1_linear_620_987)" stroke="#FFFFF6" stroke-width="2"/>
<ellipse cx="14.7448" cy="10.7534" rx="14.7448" ry="10.7534" transform="matrix(-0.996711 0.0810357 0.0810357 0.996711 165.451 42.186)" fill="#17B4C8"/>
<g filter="url(#filter1_d_620_987)">
<path d="M105.424 23.9697C72.0146 15.0175 40.9491 34.0065 32.5262 65.4411C30.7514 72.065 30.6595 78.8564 31.8192 85.5042C23.2949 86.5914 16.4368 91.8066 15.0248 99.161C13.1601 108.875 21.5032 118.641 33.6603 120.976C35.8043 121.387 37.924 121.539 39.971 121.458C37.8953 129.485 43.6461 137.964 52.8719 140.436C58.8114 142.028 64.7495 140.743 68.8173 137.494C70.7804 142.494 75.5657 146.761 81.8783 148.452C90.576 150.783 99.2074 147.432 102.429 140.872C104.124 142.588 106.122 144.144 108.388 145.452C118.866 151.502 131.081 149.963 135.671 142.014C139.244 135.823 137.141 127.572 131.087 121.367C138.961 114.73 145.144 106.324 147.82 96.3341C156.243 64.8996 138.834 32.9219 105.424 23.9697Z" fill="url(#paint2_radial_620_987)"/>
<path d="M105.424 23.9697L105.683 23.0037L105.683 23.0037L105.424 23.9697ZM32.5262 65.4411L31.5603 65.1823L31.5603 65.1823L32.5262 65.4411ZM31.8192 85.5042L32.8043 85.3324C32.8513 85.6015 32.7861 85.8781 32.6239 86.0979C32.4617 86.3177 32.2167 86.4616 31.9457 86.4962L31.8192 85.5042ZM15.0248 99.161L14.0427 98.9724L14.0427 98.9724L15.0248 99.161ZM33.6603 120.976L33.4717 121.958L33.4717 121.958L33.6603 120.976ZM39.971 121.458L39.9317 120.459C40.2477 120.447 40.551 120.584 40.7495 120.831C40.948 121.077 41.0184 121.403 40.9392 121.709L39.971 121.458ZM52.8719 140.436L52.613 141.402L52.8719 140.436ZM68.8173 137.494L68.1932 136.713C68.4413 136.515 68.7689 136.446 69.0756 136.528C69.3824 136.61 69.632 136.833 69.7481 137.129L68.8173 137.494ZM81.8783 148.452L81.6195 149.418L81.6195 149.418L81.8783 148.452ZM102.429 140.872L101.531 140.431C101.674 140.141 101.949 139.937 102.268 139.885C102.588 139.833 102.913 139.939 103.14 140.169L102.429 140.872ZM108.388 145.452L107.888 146.318L107.888 146.318L108.388 145.452ZM135.671 142.014L136.537 142.514L136.537 142.514L135.671 142.014ZM131.087 121.367L130.371 122.065C130.177 121.866 130.074 121.596 130.088 121.318C130.101 121.041 130.23 120.781 130.442 120.602L131.087 121.367ZM147.82 96.3341L148.786 96.5929L148.786 96.5929L147.82 96.3341ZM105.424 23.9697L105.166 24.9356C72.295 16.1279 41.7736 34.7931 33.4922 65.6999L32.5262 65.4411L31.5603 65.1823C40.1246 33.22 71.7343 13.9071 105.683 23.0037L105.424 23.9697ZM32.5262 65.4411L33.4922 65.6999C31.76 72.1645 31.6661 78.8072 32.8043 85.3324L31.8192 85.5042L30.8341 85.6761C29.653 78.9056 29.7428 71.9656 31.5603 65.1823L32.5262 65.4411ZM31.8192 85.5042L31.9457 86.4962C23.7116 87.5464 17.3137 92.5426 16.0069 99.3495L15.0248 99.161L14.0427 98.9724C15.5598 91.0706 22.8782 85.6365 31.6927 84.5123L31.8192 85.5042ZM15.0248 99.161L16.0069 99.3495C14.2836 108.327 22.0171 117.722 33.8488 119.993L33.6603 120.976L33.4717 121.958C20.9893 119.561 12.0367 109.423 14.0427 98.9724L15.0248 99.161ZM33.6603 120.976L33.8488 119.993C35.9177 120.391 37.9609 120.537 39.9317 120.459L39.971 121.458L40.0104 122.458C37.887 122.541 35.6908 122.384 33.4717 121.958L33.6603 120.976ZM39.971 121.458L40.9392 121.709C39.032 129.084 44.3063 137.106 53.1307 139.47L52.8719 140.436L52.613 141.402C42.986 138.823 36.7586 129.887 39.0029 121.208L39.971 121.458ZM52.8719 140.436L53.1307 139.47C58.7857 140.985 64.3913 139.749 68.1932 136.713L68.8173 137.494L69.4413 138.275C65.1078 141.737 58.8371 143.07 52.613 141.402L52.8719 140.436ZM68.8173 137.494L69.7481 137.129C71.583 141.802 76.0973 145.868 82.1372 147.486L81.8783 148.452L81.6195 149.418C75.0342 147.653 69.9779 143.186 67.8864 137.86L68.8173 137.494ZM81.8783 148.452L82.1371 147.486C90.4911 149.725 98.5699 146.462 101.531 140.431L102.429 140.872L103.327 141.313C99.845 148.402 90.6609 151.841 81.6195 149.418L81.8783 148.452ZM102.429 140.872L103.14 140.169C104.772 141.821 106.699 143.323 108.888 144.586L108.388 145.452L107.888 146.318C105.546 144.966 103.476 143.355 101.718 141.575L102.429 140.872ZM108.388 145.452L108.888 144.586C113.956 147.512 119.411 148.583 124.113 147.99C128.813 147.398 132.7 145.159 134.805 141.514L135.671 142.014L136.537 142.514C134.052 146.818 129.536 149.322 124.363 149.975C119.19 150.627 113.299 149.442 107.888 146.318L108.388 145.452ZM135.671 142.014L134.805 141.514C138.075 135.85 136.24 128.081 130.371 122.065L131.087 121.367L131.803 120.668C138.042 127.064 140.414 135.797 136.537 142.514L135.671 142.014ZM131.087 121.367L130.442 120.602C138.199 114.064 144.242 105.824 146.855 96.0753L147.82 96.3341L148.786 96.5929C146.045 106.825 139.722 115.396 131.731 122.131L131.087 121.367ZM147.82 96.3341L146.855 96.0753C155.136 65.1685 138.036 33.7433 105.166 24.9356L105.424 23.9697L105.683 23.0037C139.632 32.1004 157.351 64.6307 148.786 96.5929L147.82 96.3341Z" fill="#FFFFF6"/>
</g>
<path d="M74.0888 93.0392C74.0475 92.7664 73.7927 92.5788 73.5198 92.6198C73.247 92.6611 73.0593 92.916 73.1004 93.1889C73.2882 94.4367 74.0405 96.101 75.7247 96.9817C77.3607 97.8371 79.7361 97.8797 83.0444 96.3255C85.1323 99.3255 87.2108 100.476 89.0553 100.554C90.9541 100.633 92.4378 99.5678 93.2245 98.5811C93.3965 98.3653 93.3614 98.0508 93.1458 97.8786C92.93 97.7067 92.6154 97.7417 92.4433 97.9573C91.7916 98.7749 90.5871 99.6171 89.0974 99.5549C87.6247 99.4933 85.7053 98.5395 83.6311 95.4151C83.6279 95.4102 83.624 95.4059 83.6206 95.4012C83.61 95.3862 83.5986 95.3721 83.5865 95.3587C83.5755 95.3463 83.5645 95.3343 83.5525 95.3233C83.5412 95.3129 83.5289 95.3037 83.5168 95.2945C83.508 95.2878 83.4999 95.2804 83.4908 95.2744L83.4613 95.2564C83.4529 95.2516 83.4438 95.2485 83.4352 95.2443C83.4197 95.2367 83.4042 95.2296 83.3882 95.2236C83.3832 95.2218 83.3786 95.2194 83.3736 95.2177L83.3132 95.2015C83.3084 95.2005 83.3034 95.2004 83.2986 95.1996C83.2817 95.1967 83.2647 95.1952 83.2475 95.194C83.2322 95.193 83.2169 95.1914 83.2016 95.1918C83.1849 95.1922 83.1684 95.1946 83.1517 95.1967C83.1366 95.1986 83.1214 95.2004 83.1064 95.2037C83.0905 95.2072 83.0749 95.2122 83.0592 95.2174C83.042 95.223 83.0252 95.2295 83.0084 95.2371C83.003 95.2396 82.997 95.241 82.9915 95.2437C79.6328 96.9125 77.4939 96.7788 76.1876 96.0957C74.8663 95.4047 74.2444 94.0731 74.0888 93.0392Z" fill="#002427"/>
<path d="M74.0888 93.0392L74.5832 92.9644L74.5832 92.9648L74.0888 93.0392ZM73.5198 92.6198L73.4449 92.1255L73.4454 92.1254L73.5198 92.6198ZM73.1004 93.1889L72.606 93.2633L72.6059 93.2632L73.1004 93.1889ZM75.7247 96.9817L75.4931 97.4248L75.493 97.4248L75.7247 96.9817ZM83.0444 96.3255L82.8318 95.873L83.2137 95.6935L83.4548 96.0399L83.0444 96.3255ZM89.0553 100.554L89.0344 101.053L89.0344 101.053L89.0553 100.554ZM93.2245 98.5811L93.6155 98.8927L93.6154 98.8928L93.2245 98.5811ZM93.1458 97.8786L93.4574 97.4876L93.4578 97.4879L93.1458 97.8786ZM92.4433 97.9573L92.0523 97.6456L92.0526 97.6453L92.4433 97.9573ZM89.0974 99.5549L89.0766 100.054L89.0765 100.054L89.0974 99.5549ZM83.6311 95.4151L83.2145 95.6916L83.2145 95.6916L83.6311 95.4151ZM83.6206 95.4012L83.2137 95.6917L83.2135 95.6914L83.6206 95.4012ZM83.5865 95.3587L83.2137 95.6918L83.2136 95.6917L83.5865 95.3587ZM83.5525 95.3233L83.8906 94.9549L83.8908 94.9551L83.5525 95.3233ZM83.5168 95.2945L83.2141 95.6925L83.214 95.6924L83.5168 95.2945ZM83.4908 95.2744L83.7513 94.8476L83.759 94.8523L83.7666 94.8573L83.4908 95.2744ZM83.4613 95.2564L83.7077 94.8213L83.7148 94.8253L83.7217 94.8295L83.4613 95.2564ZM83.4352 95.2443L83.6559 94.7957L83.6563 94.7959L83.4352 95.2443ZM83.3882 95.2236L83.2146 95.6925L83.214 95.6923L83.3882 95.2236ZM83.3736 95.2177L83.503 94.7347L83.5181 94.7388L83.533 94.7438L83.3736 95.2177ZM83.3132 95.2015L83.412 94.7114L83.4274 94.7145L83.4426 94.7186L83.3132 95.2015ZM83.2986 95.1996L83.2142 95.6924L83.2135 95.6923L83.2986 95.1996ZM83.2475 95.194L83.281 94.6951L83.2815 94.6952L83.2475 95.194ZM83.2016 95.1918L83.2139 95.6917L83.2136 95.6917L83.2016 95.1918ZM83.1517 95.1967L83.2141 95.6928L83.2141 95.6928L83.1517 95.1967ZM83.1064 95.2037L82.9983 94.7155L82.9984 94.7155L83.1064 95.2037ZM83.0592 95.2174L82.9035 94.7422L82.9035 94.7422L83.0592 95.2174ZM83.0084 95.2371L83.2154 95.6923L83.2148 95.6925L83.0084 95.2371ZM82.9915 95.2437L83.214 95.6915L83.214 95.6915L82.9915 95.2437ZM76.1876 96.0957L75.9559 96.5388L75.9559 96.5388L76.1876 96.0957ZM74.0888 93.0392L73.5944 93.1141L73.5941 93.1143L73.5198 92.6198L73.4454 92.1254C73.9905 92.0434 74.5005 92.4181 74.5832 92.9644L74.0888 93.0392ZM73.5198 92.6198L73.5946 93.1142L73.5948 93.1145L73.1004 93.1889L72.6059 93.2632C72.5239 92.7181 72.8987 92.2082 73.4449 92.1255L73.5198 92.6198ZM73.1004 93.1889L73.5948 93.1144C73.7666 94.2557 74.4539 95.7529 75.9564 96.5387L75.7247 96.9817L75.493 97.4248C73.6271 96.449 72.8099 94.6177 72.606 93.2633L73.1004 93.1889ZM75.7247 96.9817L75.9564 96.5386C77.403 97.295 79.6032 97.3897 82.8318 95.873L83.0444 96.3255L83.257 96.7781C79.869 98.3697 77.3185 98.3793 75.4931 97.4248L75.7247 96.9817ZM83.0444 96.3255L83.4548 96.0399C85.4924 98.9676 87.4452 99.9858 89.0762 100.054L89.0553 100.554L89.0344 101.053C86.9764 100.967 84.7723 99.6834 82.634 96.6111L83.0444 96.3255ZM89.0553 100.554L89.0762 100.054C90.7701 100.125 92.114 99.1718 92.8335 98.2694L93.2245 98.5811L93.6154 98.8928C92.7616 99.9637 91.1381 101.141 89.0344 101.053L89.0553 100.554ZM93.2245 98.5811L92.8335 98.2695L92.8338 98.2693L93.1458 97.8786L93.4578 97.4879C93.8895 97.8326 93.9591 98.4616 93.6155 98.8927L93.2245 98.5811ZM93.1458 97.8786L92.8342 98.2697L92.834 98.2693L92.4433 97.9573L92.0526 97.6453C92.3974 97.2135 93.0263 97.1441 93.4574 97.4876L93.1458 97.8786ZM92.4433 97.9573L92.8343 98.2689C92.1149 99.1715 90.7705 100.125 89.0766 100.054L89.0974 99.5549L89.1183 99.0554C90.4037 99.109 91.4683 98.3783 92.0523 97.6456L92.4433 97.9573ZM89.0974 99.5549L89.0765 100.054C87.3822 99.9835 85.3366 98.8882 83.2145 95.6916L83.6311 95.4151L84.0476 95.1385C86.074 98.1909 87.8671 99.003 89.1183 99.0554L89.0974 99.5549ZM83.6311 95.4151L83.2145 95.6916C83.2199 95.6998 83.2245 95.7061 83.2273 95.7099C83.2301 95.7136 83.2321 95.7161 83.2318 95.7158C83.2318 95.7158 83.2317 95.7157 83.2315 95.7154C83.2314 95.7152 83.231 95.7147 83.2306 95.7143C83.2299 95.7134 83.2287 95.7118 83.2272 95.7099C83.2243 95.7061 83.2194 95.6997 83.2137 95.6917L83.6206 95.4012L84.0275 95.1106C84.0235 95.105 84.0204 95.1009 84.0193 95.0994C84.0187 95.0987 84.0183 95.0982 84.0185 95.0984C84.0186 95.0985 84.0187 95.0986 84.019 95.099C84.0192 95.0993 84.0196 95.0998 84.02 95.1004C84.0215 95.1023 84.0253 95.1072 84.0298 95.1132C84.0344 95.1193 84.0406 95.128 84.0476 95.1385L83.6311 95.4151ZM83.6206 95.4012L83.2135 95.6914L83.2137 95.6918L83.5865 95.3587L83.9594 95.0255C83.9821 95.051 84.0053 95.0794 84.0278 95.111L83.6206 95.4012ZM83.5865 95.3587L83.2136 95.6917L83.2142 95.6915L83.5525 95.3233L83.8908 94.9551C83.9226 94.9843 83.9479 95.0127 83.9595 95.0257L83.5865 95.3587ZM83.5525 95.3233L83.2145 95.6916C83.2178 95.6947 83.2205 95.697 83.2223 95.6985C83.2232 95.6993 83.2239 95.6999 83.2243 95.7002C83.2248 95.7006 83.2251 95.7008 83.2251 95.7008C83.2251 95.7008 83.2249 95.7007 83.2244 95.7003C83.224 95.7 83.2233 95.6995 83.2224 95.6988C83.2214 95.698 83.2204 95.6972 83.219 95.6961C83.2177 95.6952 83.2158 95.6938 83.2141 95.6925L83.5168 95.2945L83.8194 94.8965C83.8246 94.9004 83.8584 94.9253 83.8906 94.9549L83.5525 95.3233ZM83.5168 95.2945L83.214 95.6924C83.2061 95.6863 83.1995 95.6811 83.1957 95.678C83.1939 95.6765 83.1921 95.6751 83.1912 95.6743C83.1901 95.6734 83.1898 95.6732 83.1897 95.6731C83.1895 95.6729 83.192 95.675 83.1959 95.6779C83.1999 95.681 83.2065 95.6858 83.215 95.6914L83.4908 95.2744L83.7666 94.8573C83.7917 94.8739 83.811 94.8895 83.8182 94.8953C83.8202 94.8969 83.822 94.8984 83.823 94.8992C83.8243 94.9003 83.8246 94.9005 83.8249 94.9007C83.8254 94.9011 83.8231 94.8993 83.8196 94.8966L83.5168 95.2945ZM83.4908 95.2744L83.2304 95.7012L83.2009 95.6832L83.4613 95.2564L83.7217 94.8295L83.7513 94.8476L83.4908 95.2744ZM83.4613 95.2564L83.2149 95.6914C83.2265 95.698 83.236 95.7027 83.2419 95.7054C83.2476 95.7081 83.2516 95.7098 83.2511 95.7096C83.2506 95.7094 83.2508 95.7095 83.2487 95.7086C83.2473 95.708 83.2447 95.7069 83.2417 95.7056C83.2359 95.703 83.2259 95.6986 83.2141 95.6928L83.4352 95.2443L83.6563 94.7959C83.6488 94.7921 83.6432 94.7897 83.6417 94.789C83.6409 94.7887 83.6405 94.7885 83.6413 94.7889C83.6415 94.789 83.6439 94.79 83.6456 94.7907C83.6495 94.7924 83.6579 94.796 83.6679 94.8007C83.6781 94.8055 83.6919 94.8124 83.7077 94.8213L83.4613 95.2564ZM83.4352 95.2443L83.2144 95.6929L83.2146 95.6925L83.3882 95.2236L83.5617 94.7547C83.6009 94.7692 83.6338 94.7848 83.6559 94.7957L83.4352 95.2443ZM83.3882 95.2236L83.214 95.6923C83.2035 95.6884 83.195 95.6849 83.1899 95.6827C83.1874 95.6817 83.1852 95.6807 83.184 95.6802C83.1833 95.6799 83.1828 95.6797 83.1825 95.6795C83.1821 95.6794 83.182 95.6794 83.182 95.6793C83.1815 95.6791 83.185 95.6807 83.1899 95.6826C83.195 95.6847 83.2035 95.688 83.2142 95.6916L83.3736 95.2177L83.533 94.7438C83.5462 94.7482 83.5571 94.7524 83.5646 94.7555C83.5719 94.7584 83.5779 94.761 83.5798 94.7619C83.5804 94.7621 83.5809 94.7623 83.5811 94.7624C83.5814 94.7626 83.5814 94.7626 83.5814 94.7626C83.5814 94.7626 83.5804 94.7621 83.5791 94.7616C83.5765 94.7605 83.5704 94.7579 83.5623 94.7549L83.3882 95.2236ZM83.3736 95.2177L83.2442 95.7007L83.1838 95.6845L83.3132 95.2015L83.4426 94.7186L83.503 94.7347L83.3736 95.2177ZM83.3132 95.2015L83.2144 95.6917C83.2276 95.6943 83.2383 95.6959 83.2449 95.6967C83.2511 95.6975 83.2557 95.698 83.2551 95.6979C83.2549 95.6979 83.255 95.6979 83.2544 95.6979C83.254 95.6978 83.2533 95.6977 83.2525 95.6977C83.2509 95.6975 83.2481 95.6972 83.2448 95.6968C83.2383 95.6961 83.2274 95.6947 83.2142 95.6924L83.2986 95.1996L83.3829 94.7068C83.3721 94.7049 83.3637 94.7039 83.3596 94.7034C83.3575 94.7032 83.356 94.703 83.3556 94.703C83.3554 94.703 83.3553 94.703 83.3555 94.703C83.3556 94.703 83.3562 94.703 83.3567 94.7031C83.3585 94.7033 83.3656 94.704 83.3742 94.7051C83.3832 94.7063 83.3964 94.7082 83.412 94.7114L83.3132 95.2015ZM83.2986 95.1996L83.2135 95.6923L83.2135 95.6929L83.2475 95.194L83.2815 94.6952C83.3039 94.6967 83.3411 94.6996 83.3836 94.7069L83.2986 95.1996ZM83.2475 95.194L83.2139 95.6929C83.2079 95.6925 83.2017 95.692 83.199 95.6918C83.1973 95.6917 83.1962 95.6916 83.1953 95.6915C83.1949 95.6915 83.1946 95.6915 83.1944 95.6915C83.1943 95.6915 83.1942 95.6915 83.1941 95.6915C83.1941 95.6915 83.1941 95.6915 83.1941 95.6915C83.1941 95.6915 83.1941 95.6915 83.1941 95.6915C83.1942 95.6915 83.1943 95.6915 83.1944 95.6915C83.1946 95.6915 83.1949 95.6915 83.1953 95.6915C83.1961 95.6916 83.1974 95.6916 83.199 95.6917C83.2023 95.6918 83.2074 95.6918 83.2139 95.6917L83.2016 95.1918L83.1892 94.692C83.217 94.6913 83.2405 94.6924 83.255 94.6933C83.2624 94.6938 83.269 94.6943 83.273 94.6946C83.2779 94.6949 83.2794 94.695 83.281 94.6951L83.2475 95.194ZM83.2016 95.1918L83.2136 95.6917C83.2192 95.6915 83.2235 95.6913 83.2263 95.6911C83.2277 95.691 83.2288 95.6909 83.2295 95.6908C83.2302 95.6907 83.2306 95.6907 83.2306 95.6907C83.2306 95.6907 83.2305 95.6907 83.2303 95.6907C83.2302 95.6907 83.2299 95.6908 83.2296 95.6908C83.2289 95.6909 83.2279 95.691 83.2265 95.6912C83.225 95.6914 83.2235 95.6916 83.2213 95.6918C83.2194 95.6921 83.2168 95.6924 83.2141 95.6928L83.1517 95.1967L83.0894 94.7006C83.0933 94.7001 83.1411 94.6931 83.1895 94.692L83.2016 95.1918ZM83.1517 95.1967L83.2141 95.6928C83.2094 95.6934 83.2072 95.6936 83.2046 95.694C83.2036 95.6941 83.2028 95.6942 83.2023 95.6943C83.2018 95.6943 83.2016 95.6944 83.2016 95.6944C83.2016 95.6944 83.2019 95.6943 83.2024 95.6942C83.203 95.6941 83.2038 95.694 83.2049 95.6938C83.207 95.6934 83.2102 95.6928 83.2143 95.6919L83.1064 95.2037L82.9984 94.7155C83.0406 94.7062 83.0806 94.7017 83.0894 94.7006L83.1517 95.1967ZM83.1064 95.2037L83.2144 95.6919C83.218 95.6911 83.2208 95.6904 83.2226 95.6899C83.2235 95.6897 83.2242 95.6895 83.2246 95.6894C83.2251 95.6892 83.2253 95.6892 83.2254 95.6892C83.2254 95.6892 83.2252 95.6892 83.2247 95.6894C83.2243 95.6895 83.2237 95.6897 83.2228 95.69C83.2209 95.6906 83.2186 95.6913 83.2149 95.6925L83.0592 95.2174L82.9035 94.7422C82.9178 94.7376 82.9552 94.7251 82.9983 94.7155L83.1064 95.2037ZM83.0592 95.2174L83.215 95.6925L83.2154 95.6923L83.0084 95.2371L82.8015 94.782C82.8358 94.7664 82.8698 94.7533 82.9035 94.7422L83.0592 95.2174ZM83.0084 95.2371L83.2148 95.6925C83.1986 95.6999 83.1851 95.7051 83.1771 95.708C83.1729 95.7095 83.1695 95.7107 83.1675 95.7114C83.1665 95.7118 83.1656 95.7121 83.1651 95.7123C83.1644 95.7125 83.1645 95.7125 83.1643 95.7126C83.1642 95.7126 83.1655 95.7121 83.1675 95.7114C83.1695 95.7107 83.1728 95.7095 83.1769 95.7079C83.185 95.7048 83.1982 95.6994 83.214 95.6915L82.9915 95.2437L82.769 94.7959C82.7876 94.7867 82.8035 94.7801 82.8144 94.7759C82.8249 94.7719 82.8336 94.7688 82.8356 94.7681C82.836 94.768 82.8363 94.7679 82.8365 94.7678C82.8368 94.7677 82.8368 94.7677 82.837 94.7677C82.8372 94.7676 82.837 94.7676 82.8367 94.7677C82.8361 94.7679 82.8341 94.7686 82.8314 94.7696C82.8262 94.7716 82.8155 94.7756 82.8021 94.7817L83.0084 95.2371ZM82.9915 95.2437L83.214 95.6915C79.7778 97.3988 77.4587 97.3246 75.9559 96.5388L76.1876 96.0957L76.4193 95.6527C77.529 96.2329 79.4878 96.4263 82.769 94.7959L82.9915 95.2437ZM76.1876 96.0957L75.9559 96.5388C74.4535 95.753 73.7661 94.255 73.5944 93.1136L74.0888 93.0392L74.5832 92.9648C74.7226 93.8913 75.2792 95.0564 76.4193 95.6527L76.1876 96.0957Z" fill="#002427"/>
<path d="M122.353 53.7051C119.355 55.9652 120.323 61.5961 122.834 64.928C125.345 68.2599 129.812 69.1288 132.811 66.8688C135.809 64.6087 136.205 60.0756 133.693 56.7436C131.182 53.4117 125.352 51.4451 122.353 53.7051Z" fill="#FFFFF9" fill-opacity="0.61"/>
<path d="M114.81 44.579C113.687 45.4254 114.05 47.5342 114.99 48.782C115.931 50.0298 117.604 50.3552 118.727 49.5089C119.85 48.6625 119.998 46.9648 119.057 45.717C118.117 44.4691 115.933 43.7326 114.81 44.579Z" fill="#FFFFF9" fill-opacity="0.61"/>
<path d="M44.901 103.414C45.19 103.491 45.7078 103.888 46.4512 104.608C46.8257 104.97 47.1947 105.327 47.4808 105.73C47.7669 106.133 47.9591 106.572 48.4972 107.506" stroke="#00C8A3" stroke-opacity="0.23" stroke-width="2" stroke-linecap="round"/>
<path d="M116.414 122.576C116.125 122.498 115.478 122.583 114.475 122.834C113.969 122.961 113.471 123.086 113.022 123.292C112.572 123.498 112.187 123.782 111.254 124.321" stroke="#00C8A3" stroke-opacity="0.23" stroke-width="2" stroke-linecap="round"/>
<path d="M82.2227 123.363C81.7537 123.343 80.8435 123.214 80.0287 123.195C79.1034 123.174 78.1203 123.374 77.0459 123.606C76.3306 123.761 75.6889 122.711 74.9084 122.115C74.2546 121.617 73.5523 121.217 72.8469 120.795C72.4011 120.612 71.9883 120.416 71.5579 120.19C71.2925 120.071 70.9318 119.943 70.5601 119.811" stroke="#00C6E0" stroke-opacity="0.48" stroke-width="2" stroke-linecap="round"/>
<ellipse cx="6.04361" cy="8.30996" rx="6.04361" ry="8.30996" transform="matrix(-0.965926 -0.258819 -0.258819 0.965926 120.247 90.7544)" fill="#002427"/>
<ellipse cx="6.04361" cy="8.30996" rx="6.04361" ry="8.30996" transform="matrix(-0.965926 -0.258819 -0.258819 0.965926 66.248 76.2849)" fill="#002427"/>
</g>
<ellipse cx="17.1029" cy="13.035" rx="17.1029" ry="13.035" transform="matrix(0.695288 0.718731 -0.755701 0.654917 51.272 4.70581)" fill="url(#paint3_linear_620_987)" stroke="#FFFFF6" stroke-width="2"/>
<ellipse cx="14.0791" cy="9.60429" rx="14.0791" ry="9.60429" transform="matrix(0.695288 0.718731 -0.755701 0.654917 49.2183 11.4827)" fill="#17B4C8"/>
<g filter="url(#filter2_d_620_987)">
<path d="M104.973 27.3203C72.781 18.6945 42.8482 36.9902 34.7324 67.2787C30.7054 82.3073 35.6698 98.2297 44.2046 111.134C40.5137 111.898 38.6603 114.57 41.5654 121.078C39.7979 127.674 45.9949 135.046 54.4239 137.304C59.9271 138.779 65.3605 137.791 68.9615 135.092C70.7071 139.696 75.4467 143.777 81.706 145.455C90.3912 147.782 98.8567 144.639 101.179 138.404C102.776 139.99 104.642 141.431 106.75 142.649C116.847 148.478 128.617 146.994 133.039 139.335C136.202 133.856 134.749 126.701 129.969 120.938C137.428 114.579 143.275 106.557 145.823 97.0454C153.939 66.7569 137.164 35.946 104.973 27.3203Z" fill="url(#paint4_radial_620_987)"/>
<path d="M104.973 27.3203L105.231 26.3543L104.973 27.3203ZM34.7324 67.2787L33.7664 67.0198L34.7324 67.2787ZM44.2046 111.134L45.0387 110.582C45.2217 110.859 45.2555 111.208 45.1291 111.515C45.0026 111.822 44.7322 112.046 44.4074 112.113L44.2046 111.134ZM41.5654 121.078L42.4786 120.67C42.5721 120.879 42.5907 121.115 42.5313 121.336L41.5654 121.078ZM54.4239 137.304L54.1651 138.27L54.4239 137.304ZM68.9615 135.092L68.3618 134.292C68.6133 134.103 68.9387 134.044 69.2404 134.132C69.5422 134.219 69.7852 134.444 69.8966 134.738L68.9615 135.092ZM81.706 145.455L81.4472 146.421L81.4471 146.421L81.706 145.455ZM101.179 138.404L100.242 138.055C100.36 137.736 100.632 137.5 100.964 137.427C101.296 137.354 101.642 137.455 101.883 137.694L101.179 138.404ZM106.75 142.649L106.25 143.515L106.25 143.515L106.75 142.649ZM133.039 139.335L133.905 139.835L133.905 139.835L133.039 139.335ZM129.969 120.938L129.2 121.576C128.85 121.155 128.904 120.532 129.321 120.177L129.969 120.938ZM145.823 97.0454L146.789 97.3042L145.823 97.0454ZM104.973 27.3203L104.714 28.2862C73.0613 19.8049 43.6727 37.7768 35.6983 67.5375L34.7324 67.2787L33.7664 67.0198C42.0236 36.2037 72.5006 17.5841 105.231 26.3543L104.973 27.3203ZM34.7324 67.2787L35.6983 67.5375C31.7717 82.1917 36.5957 97.8169 45.0387 110.582L44.2046 111.134L43.3705 111.685C34.7439 98.6425 29.6392 82.4229 33.7664 67.0198L34.7324 67.2787ZM44.2046 111.134L44.4074 112.113C42.7427 112.458 41.7517 113.169 41.3535 114.287C40.924 115.494 41.0574 117.487 42.4786 120.67L41.5654 121.078L40.6523 121.485C39.1683 118.161 38.7758 115.564 39.4694 113.617C40.1944 111.581 41.9756 110.574 44.0018 110.155L44.2046 111.134ZM41.5654 121.078L42.5313 121.336C41.7538 124.238 42.7031 127.408 44.949 130.189C47.1912 132.966 50.662 135.261 54.6827 136.338L54.4239 137.304L54.1651 138.27C49.7567 137.089 45.9146 134.569 43.3929 131.446C40.875 128.328 39.6095 124.513 40.5995 120.819L41.5654 121.078ZM54.4239 137.304L54.6827 136.338C59.9365 137.746 65.0428 136.779 68.3618 134.292L68.9615 135.092L69.5613 135.892C65.6781 138.802 59.9177 139.812 54.1651 138.27L54.4239 137.304ZM68.9615 135.092L69.8966 134.738C71.5055 138.981 75.9487 142.877 81.9648 144.489L81.706 145.455L81.4471 146.421C74.9447 144.678 69.9087 140.411 68.0265 135.447L68.9615 135.092ZM81.706 145.455L81.9648 144.489C90.3866 146.745 98.1733 143.608 100.242 138.055L101.179 138.404L102.116 138.753C99.54 145.669 90.3958 148.818 81.4472 146.421L81.706 145.455ZM101.179 138.404L101.883 137.694C103.419 139.219 105.217 140.608 107.25 141.783L106.75 142.649L106.25 143.515C104.068 142.254 102.132 140.76 100.474 139.113L101.179 138.404ZM106.75 142.649L107.25 141.783C112.127 144.598 117.376 145.628 121.898 145.058C126.418 144.488 130.152 142.335 132.173 138.835L133.039 139.335L133.905 139.835C131.504 143.994 127.142 146.413 122.148 147.042C117.155 147.671 111.47 146.528 106.25 143.515L106.75 142.649ZM133.039 139.335L132.173 138.835C135.058 133.837 133.812 127.138 129.2 121.576L129.969 120.938L130.739 120.299C135.685 126.264 137.346 133.874 133.905 139.835L133.039 139.335ZM129.969 120.938L129.321 120.177C136.663 113.917 142.373 106.059 144.857 96.7866L145.823 97.0454L146.789 97.3042C144.177 107.055 138.193 115.241 130.618 121.699L129.969 120.938ZM145.823 97.0454L144.857 96.7866C152.832 67.0259 136.366 36.7674 104.714 28.2862L104.973 27.3203L105.231 26.3543C137.962 35.1245 155.046 66.488 146.789 97.3042L145.823 97.0454Z" fill="#FFFFF6"/>
</g>
<path d="M118.278 53.6394C115.319 55.8696 116.275 61.4259 118.753 64.7137C121.231 68.0015 125.638 68.8589 128.597 66.6288C131.556 64.3987 131.946 59.9255 129.468 56.6377C126.99 53.3499 121.237 51.4093 118.278 53.6394Z" fill="#FFFFF9" fill-opacity="0.67"/>
<path d="M110.835 44.6347C109.727 45.4699 110.085 47.5508 111.013 48.7821C111.941 50.0134 113.592 50.3345 114.7 49.4993C115.808 48.6641 115.954 46.9889 115.026 45.7576C114.098 44.5263 111.944 43.7996 110.835 44.6347Z" fill="#FFFFF9" fill-opacity="0.67"/>
<path d="M49.6126 58.8152C48.5844 57.8832 46.6075 58.6248 45.5721 59.7672C44.5366 60.9096 44.5306 62.5911 45.5588 63.5231C46.5869 64.455 48.2598 64.2844 49.2953 63.142C50.3308 61.9996 50.6407 59.7471 49.6126 58.8152Z" fill="#54F6FD" fill-opacity="0.26"/>
<path d="M109.142 122.331C108.864 122.256 108.24 122.338 107.273 122.58C106.786 122.702 106.306 122.822 105.873 123.02C105.44 123.219 105.069 123.492 104.17 124.013" stroke="#00C8A3" stroke-opacity="0.5" stroke-width="2" stroke-linecap="round"/>
<path d="M77.9053 121.969C77.4534 121.95 76.5764 121.826 75.7913 121.808C74.8998 121.788 73.9524 121.98 72.9173 122.204C72.228 122.353 71.6098 121.341 70.8577 120.767C70.2277 120.287 69.5511 119.902 68.8713 119.495C68.4418 119.319 68.0441 119.131 67.6293 118.913C67.3736 118.798 67.026 118.674 66.6679 118.547" stroke="#00C6E0" stroke-opacity="0.8" stroke-width="2" stroke-linecap="round"/>
<path d="M73.8388 78.4225C73.8251 78.4203 73.8115 78.4187 73.7977 78.4176C73.7803 78.4162 73.763 78.4153 73.7456 78.4158C73.7296 78.4162 73.7138 78.4182 73.6979 78.4202C73.6815 78.4222 73.6654 78.4247 73.6492 78.4284C73.6328 78.432 73.617 78.4373 73.6009 78.4427C73.5865 78.4475 73.5722 78.4524 73.5582 78.4586C73.5506 78.4619 73.5421 78.4636 73.5346 78.4674C73.5242 78.4726 73.5152 78.4801 73.5054 78.4859C73.4985 78.4899 73.4909 78.4929 73.4841 78.4974C70.9896 80.1402 69.5535 80.0624 68.7624 79.5888C67.9279 79.0891 67.5372 77.9988 67.4738 77.0628C67.4549 76.7877 67.2163 76.5801 66.9411 76.5986C66.6658 76.6175 66.4582 76.856 66.4768 77.1313C66.5493 78.2011 67.0003 79.6995 68.2484 80.447C69.4618 81.1735 71.2015 81.0658 73.5686 79.6271C74.8991 82.0564 76.3511 83.0196 77.7652 82.997C79.2198 82.9737 80.3595 81.9015 80.9572 81.0113C81.1109 80.7822 81.0504 80.4718 80.8215 80.3178C80.5925 80.1643 80.282 80.2248 80.128 80.4535C79.6051 81.2324 78.7216 81.9812 77.7491 81.9968C76.8271 82.0115 75.5447 81.3609 74.2057 78.6907C74.2026 78.6845 74.1987 78.6788 74.1954 78.6728C74.1893 78.6618 74.184 78.6502 74.177 78.6395C74.172 78.632 74.1658 78.6251 74.1605 78.6179C74.1531 78.6079 74.1449 78.5987 74.1368 78.5893C74.1232 78.5735 74.1094 78.5583 74.0942 78.5446C74.0844 78.5357 74.0738 78.5281 74.0634 78.5201C74.049 78.509 74.0345 78.4984 74.0191 78.4891C74.0071 78.4817 73.9946 78.4753 73.982 78.469C73.9651 78.4606 73.9482 78.4526 73.9305 78.4461C73.918 78.4415 73.905 78.4384 73.8921 78.4348C73.8745 78.4299 73.8569 78.4255 73.8388 78.4225Z" fill="#002427"/>
<path d="M73.8388 78.4225L73.7589 78.9161L73.7579 78.916L73.8388 78.4225ZM73.7977 78.4176L73.8366 77.9191L73.8374 77.9192L73.7977 78.4176ZM73.7456 78.4158L73.7586 78.9156L73.7581 78.9156L73.7456 78.4158ZM73.6979 78.4202L73.637 77.9239L73.6371 77.9239L73.6979 78.4202ZM73.6492 78.4284L73.5392 77.9406L73.5393 77.9406L73.6492 78.4284ZM73.6009 78.4427L73.7598 78.9167L73.7598 78.9168L73.6009 78.4427ZM73.5582 78.4586L73.7599 78.916L73.7597 78.9162L73.5582 78.4586ZM73.5346 78.4674L73.3105 78.0204L73.3107 78.0203L73.5346 78.4674ZM73.5054 78.4859L73.2508 78.0555L73.2514 78.0552L73.5054 78.4859ZM73.4841 78.4974L73.2091 78.0798L73.2093 78.0796L73.4841 78.4974ZM68.7624 79.5888L68.5056 80.0178L68.5055 80.0178L68.7624 79.5888ZM67.4738 77.0628L67.9727 77.0286L67.9727 77.029L67.4738 77.0628ZM66.9411 76.5986L66.9068 76.0997L66.9076 76.0997L66.9411 76.5986ZM66.4768 77.1313L65.978 77.1652L65.978 77.1651L66.4768 77.1313ZM68.2484 80.447L67.9915 80.8759L67.9915 80.8759L68.2484 80.447ZM73.5686 79.6271L73.3089 79.1998L73.7559 78.9281L74.0071 79.3869L73.5686 79.6271ZM77.7652 82.997L77.7732 83.4969L77.7732 83.4969L77.7652 82.997ZM80.9572 81.0113L81.3725 81.2898L81.3723 81.2901L80.9572 81.0113ZM80.8215 80.3178L81.0999 79.9025L81.1006 79.903L80.8215 80.3178ZM80.128 80.4535L79.7129 80.1748L79.7133 80.1742L80.128 80.4535ZM77.7491 81.9968L77.7571 82.4968L77.757 82.4968L77.7491 81.9968ZM74.2057 78.6907L74.6525 78.4662L74.6527 78.4666L74.2057 78.6907ZM74.1954 78.6728L74.6325 78.43L74.6326 78.4303L74.1954 78.6728ZM74.177 78.6395L74.5944 78.3643L74.5946 78.3647L74.177 78.6395ZM74.1605 78.6179L74.5627 78.3209L74.5628 78.321L74.1605 78.6179ZM74.1368 78.5893L73.7579 78.9155L73.7577 78.9153L74.1368 78.5893ZM74.0942 78.5446L74.4297 78.1738L74.4299 78.174L74.0942 78.5446ZM74.0634 78.5201L73.7583 78.9163L73.7582 78.9162L74.0634 78.5201ZM74.0191 78.4891L73.759 78.9161L73.7587 78.9159L74.0191 78.4891ZM73.982 78.469L74.205 78.0215L74.2056 78.0218L73.982 78.469ZM73.9305 78.4461L73.7593 78.9159L73.7584 78.9156L73.9305 78.4461ZM73.8921 78.4348L74.0253 77.9529L74.0263 77.9532L73.8921 78.4348ZM73.8388 78.4225L73.7579 78.916L73.7579 78.916L73.7977 78.4176L73.8374 77.9192C73.8638 77.9213 73.8913 77.9245 73.9197 77.9291L73.8388 78.4225ZM73.7977 78.4176L73.7587 78.9161L73.7586 78.9156L73.7456 78.4158L73.7326 77.9159C73.7752 77.9148 73.8122 77.9172 73.8366 77.9191L73.7977 78.4176ZM73.7456 78.4158L73.7581 78.9156C73.7628 78.9155 73.7664 78.9153 73.7687 78.9151C73.7699 78.915 73.7708 78.915 73.7714 78.9149C73.772 78.9148 73.7724 78.9148 73.7724 78.9148C73.7724 78.9148 73.7722 78.9148 73.7716 78.9149C73.771 78.915 73.7702 78.9151 73.769 78.9152C73.7661 78.9155 73.7639 78.9158 73.7586 78.9165L73.6979 78.4202L73.6371 77.9239C73.6451 77.9229 73.6877 77.9171 73.733 77.9159L73.7456 78.4158ZM73.6979 78.4202L73.7588 78.9164L73.7591 78.9161L73.6492 78.4284L73.5393 77.9406C73.5765 77.9322 73.6101 77.9272 73.637 77.9239L73.6979 78.4202ZM73.6492 78.4284L73.7592 78.9161C73.763 78.9152 73.766 78.9145 73.7679 78.9139C73.7699 78.9134 73.771 78.9131 73.771 78.9131C73.771 78.9131 73.7708 78.9131 73.7703 78.9133C73.7699 78.9134 73.7692 78.9136 73.7683 78.914C73.7662 78.9146 73.7638 78.9154 73.7598 78.9167L73.6009 78.4427L73.4419 77.9687C73.4556 77.964 73.4945 77.9507 73.5392 77.9406L73.6492 78.4284ZM73.6009 78.4427L73.7598 78.9168L73.7599 78.916L73.5582 78.4586L73.3564 78.0011C73.3942 77.9844 73.4288 77.973 73.4419 77.9686L73.6009 78.4427ZM73.5582 78.4586L73.7597 78.9162C73.7414 78.9242 73.7261 78.9298 73.7171 78.9329C73.7125 78.9345 73.7086 78.9358 73.7063 78.9366C73.7052 78.9369 73.7042 78.9373 73.7036 78.9374C73.7029 78.9377 73.7029 78.9377 73.7027 78.9377C73.7026 78.9378 73.7041 78.9373 73.7063 78.9365C73.7086 78.9358 73.7123 78.9344 73.7169 78.9327C73.726 78.9293 73.7408 78.9233 73.7585 78.9145L73.5346 78.4674L73.3107 78.0203C73.3322 78.0096 73.3508 78.002 73.3638 77.9971C73.3764 77.9924 73.3868 77.9889 73.39 77.9879C73.3908 77.9876 73.3918 77.9873 73.3921 77.9872C73.3925 77.9871 73.3925 77.9871 73.3924 77.9871C73.3921 77.9872 73.3902 77.9878 73.3876 77.9888C73.3825 77.9905 73.3711 77.9946 73.3567 78.001L73.5582 78.4586ZM73.5346 78.4674L73.7587 78.9144C73.7728 78.9073 73.7837 78.9008 73.7903 78.8967C73.7966 78.8928 73.8009 78.8899 73.8004 78.8902C73.7999 78.8906 73.8001 78.8905 73.7979 78.8919C73.7964 78.893 73.7936 78.8949 73.7904 78.897C73.784 78.9013 73.773 78.9085 73.7594 78.9166L73.5054 78.4859L73.2514 78.0552C73.2426 78.0603 73.2365 78.0645 73.2349 78.0655C73.2341 78.0661 73.2337 78.0663 73.2345 78.0657C73.2347 78.0656 73.2373 78.0639 73.2391 78.0626C73.2434 78.0597 73.2525 78.0536 73.2638 78.0466C73.2753 78.0394 73.2912 78.0301 73.3105 78.0204L73.5346 78.4674ZM73.5054 78.4859L73.76 78.9162C73.7467 78.9241 73.7354 78.93 73.7288 78.9334C73.7254 78.9351 73.7225 78.9366 73.7209 78.9374C73.7201 78.9378 73.7193 78.9382 73.7189 78.9384C73.7184 78.9386 73.7183 78.9387 73.7182 78.9387C73.7177 78.939 73.7223 78.9367 73.7287 78.9332C73.7353 78.9296 73.746 78.9235 73.7589 78.9151L73.4841 78.4974L73.2093 78.0796C73.2255 78.069 73.2397 78.0608 73.25 78.0553C73.2598 78.0499 73.2681 78.0457 73.2711 78.0442C73.272 78.0438 73.2728 78.0434 73.2732 78.0432C73.2737 78.043 73.2738 78.0429 73.2739 78.0428C73.2741 78.0428 73.273 78.0433 73.2714 78.0441C73.2683 78.0457 73.2606 78.0497 73.2508 78.0555L73.5054 78.4859ZM73.4841 78.4974L73.7591 78.9149C71.2075 80.5954 69.5461 80.6407 68.5056 80.0178L68.7624 79.5888L69.0192 79.1598C69.561 79.4842 70.7716 79.6851 73.2091 78.0798L73.4841 78.4974ZM68.7624 79.5888L68.5055 80.0178C67.4648 79.3945 67.043 78.1007 66.975 77.0966L67.4738 77.0628L67.9727 77.029C68.0314 77.8969 68.3911 78.7836 69.0193 79.1599L68.7624 79.5888ZM67.4738 77.0628L66.975 77.0971L66.9745 77.0974L66.9411 76.5986L66.9076 76.0997C67.4569 76.0629 67.9348 76.4771 67.9727 77.0286L67.4738 77.0628ZM66.9411 76.5986L66.9753 77.0974L66.9757 77.0976L66.4768 77.1313L65.978 77.1651C65.9407 76.6151 66.3556 76.1376 66.9068 76.0997L66.9411 76.5986ZM66.4768 77.1313L66.9757 77.0975C67.0437 78.1012 67.4646 79.3947 68.5053 80.018L68.2484 80.447L67.9915 80.8759C66.5361 80.0042 66.055 78.301 65.978 77.1652L66.4768 77.1313ZM68.2484 80.447L68.5052 80.018C69.4836 80.6038 71.007 80.599 73.3089 79.1998L73.5686 79.6271L73.8283 80.0543C71.3961 81.5327 69.4399 81.7432 67.9915 80.8759L68.2484 80.447ZM73.5686 79.6271L74.0071 79.3869C75.3011 81.7495 76.6171 82.5153 77.7572 82.497L77.7652 82.997L77.7732 83.4969C76.0851 83.5239 74.4971 82.3633 73.1301 79.8672L73.5686 79.6271ZM77.7652 82.997L77.7572 82.497C78.9701 82.4776 79.9813 81.5679 80.5421 80.7326L80.9572 81.0113L81.3723 81.2901C80.7377 82.2352 79.4695 83.4697 77.7732 83.4969L77.7652 82.997ZM80.9572 81.0113L80.5419 80.7329L80.5424 80.7327L80.8215 80.3178L81.1006 79.903C81.5592 80.2114 81.6792 80.8324 81.3725 81.2898L80.9572 81.0113ZM80.8215 80.3178L80.5432 80.7332L80.5428 80.7328L80.128 80.4535L79.7133 80.1742C80.0217 79.7162 80.6425 79.5959 81.0999 79.9025L80.8215 80.3178ZM80.128 80.4535L80.5432 80.7322C79.9822 81.5678 78.97 82.4773 77.7571 82.4968L77.7491 81.9968L77.7411 81.4969C78.4733 81.4852 79.2281 80.8971 79.7129 80.1748L80.128 80.4535ZM77.7491 81.9968L77.757 82.4968C76.5444 82.516 75.1283 81.6461 73.7588 78.9148L74.2057 78.6907L74.6527 78.4666C75.961 81.0757 77.1098 81.5069 77.7411 81.4969L77.7491 81.9968ZM74.2057 78.6907L73.7589 78.9152C73.7631 78.9234 73.7666 78.9298 73.7689 78.9337C73.771 78.9375 73.7726 78.9401 73.7724 78.9398C73.7722 78.9395 73.7722 78.9395 73.7715 78.9383C73.7709 78.9373 73.7699 78.9356 73.7687 78.9337C73.7664 78.9299 73.7626 78.9233 73.7581 78.9153L74.1954 78.6728L74.6326 78.4303C74.6298 78.4252 74.6277 78.4216 74.6272 78.4208C74.6269 78.4203 74.6268 78.4201 74.6271 78.4207C74.6272 78.4208 74.6281 78.4224 74.6288 78.4236C74.6304 78.4262 74.6338 78.4318 74.6376 78.4385C74.6416 78.4455 74.6468 78.4549 74.6525 78.4662L74.2057 78.6907ZM74.1954 78.6728L73.7583 78.9155C73.7536 78.9072 73.7499 78.9 73.7477 78.896C73.7468 78.8941 73.7456 78.8919 73.7452 78.8911C73.7446 78.8899 73.7444 78.8896 73.7443 78.8895C73.7442 78.8892 73.7456 78.8918 73.7479 78.8958C73.7502 78.8999 73.7541 78.9064 73.7593 78.9144L74.177 78.6395L74.5946 78.3647C74.6115 78.3903 74.6234 78.4127 74.6287 78.4226C74.6301 78.4253 74.6314 78.4277 74.6322 78.4294C74.6333 78.4314 74.6335 78.4319 74.634 78.4329C74.6349 78.4344 74.634 78.4328 74.6325 78.43L74.1954 78.6728ZM74.177 78.6395L73.7595 78.9147C73.7652 78.9233 73.77 78.9299 73.7729 78.9338C73.7758 78.9376 73.7778 78.9401 73.7775 78.9398C73.7773 78.9396 73.7772 78.9394 73.7762 78.9382C73.7755 78.9373 73.7741 78.9356 73.7726 78.9336C73.7696 78.9298 73.7643 78.9231 73.7582 78.9149L74.1605 78.6179L74.5628 78.321C74.5594 78.3164 74.5569 78.3132 74.5566 78.3129C74.5565 78.3128 74.5565 78.3128 74.5572 78.3137C74.5577 78.3142 74.559 78.3158 74.5602 78.3174C74.5646 78.3229 74.579 78.341 74.5944 78.3643L74.177 78.6395ZM74.1605 78.6179L73.7583 78.9149C73.761 78.9186 73.7632 78.9214 73.7646 78.9232C73.7653 78.9241 73.7659 78.9248 73.7663 78.9252C73.7666 78.9257 73.7668 78.9259 73.7668 78.9259C73.7669 78.9259 73.7667 78.9257 73.7663 78.9253C73.7659 78.9249 73.7654 78.9243 73.7647 78.9234C73.7638 78.9224 73.7631 78.9216 73.7618 78.9201C73.7607 78.9189 73.7594 78.9173 73.7579 78.9155L74.1368 78.5893L74.5158 78.2631C74.5174 78.265 74.5179 78.2657 74.5211 78.2693C74.5235 78.2721 74.5271 78.2762 74.531 78.2808C74.5387 78.29 74.5502 78.3039 74.5627 78.3209L74.1605 78.6179ZM74.1368 78.5893L73.7577 78.9153L73.7585 78.9151L74.0942 78.5446L74.4299 78.174C74.468 78.2085 74.4976 78.242 74.516 78.2634L74.1368 78.5893ZM74.0942 78.5446L73.7588 78.9154C73.7635 78.9196 73.7673 78.9228 73.7698 78.9249C73.7711 78.9259 73.772 78.9267 73.7727 78.9272C73.773 78.9274 73.7733 78.9276 73.7734 78.9278C73.7736 78.9279 73.7737 78.928 73.7737 78.928C73.7737 78.928 73.7736 78.9279 73.7735 78.9278C73.7733 78.9277 73.7731 78.9275 73.7727 78.9273C73.772 78.9267 73.7712 78.9261 73.7699 78.9251C73.7676 78.9234 73.7631 78.92 73.7583 78.9163L74.0634 78.5201L74.3684 78.124C74.3688 78.1243 74.3695 78.1248 74.3725 78.1271C74.3749 78.1288 74.3795 78.1323 74.3844 78.1361C74.3942 78.1437 74.4109 78.1568 74.4297 78.1738L74.0942 78.5446ZM74.0634 78.5201L73.7582 78.9162L73.759 78.9161L74.0191 78.4891L74.2792 78.062C74.3177 78.0855 74.349 78.109 74.3685 78.124L74.0634 78.5201ZM74.0191 78.4891L73.7587 78.9159L73.7585 78.9162L73.982 78.469L74.2056 78.0218C74.22 78.029 74.2484 78.0432 74.2795 78.0622L74.0191 78.4891ZM73.982 78.469L73.759 78.9165L73.7593 78.9159L73.9305 78.4461L74.1017 77.9763C74.1469 77.9928 74.1843 78.0112 74.205 78.0215L73.982 78.469ZM73.9305 78.4461L73.7584 78.9156C73.7696 78.9196 73.7771 78.9217 73.7764 78.9215C73.776 78.9214 73.7752 78.9212 73.7718 78.9202C73.7691 78.9195 73.7636 78.9181 73.7579 78.9165L73.8921 78.4348L74.0263 77.9532C74.027 77.9534 74.028 77.9536 74.0318 77.9546C74.0348 77.9555 74.0404 77.957 74.0465 77.9587C74.0586 77.9621 74.079 77.968 74.1026 77.9767L73.9305 78.4461ZM73.8921 78.4348L73.759 78.9167L73.7589 78.9161L73.8388 78.4225L73.9187 77.929C73.964 77.9363 74.0024 77.9465 74.0253 77.9529L73.8921 78.4348Z" fill="#002427"/>
<ellipse cx="5.43504" cy="7.47318" rx="5.43504" ry="7.47318" transform="matrix(-0.965926 -0.258819 -0.258819 0.965926 105.773 77.0532)" fill="#002427"/>
<ellipse cx="5.43504" cy="7.47318" rx="5.43504" ry="7.47318" transform="matrix(-0.965926 -0.258819 -0.258819 0.965926 64.7178 63.9521)" fill="#002427"/>
<ellipse cx="17.1029" cy="13.035" rx="17.1029" ry="13.035" transform="matrix(-0.961503 0.274795 0.326998 0.945025 164.887 35.1487)" fill="url(#paint5_linear_620_987)" stroke="#FFFFF6" stroke-width="2"/>
<ellipse cx="14.0791" cy="9.60429" rx="14.0791" ry="9.60429" transform="matrix(-0.961503 0.274795 0.326998 0.945025 163.277 42.0447)" fill="#17B4C8"/>
<path d="M43.5161 98.9163C45.1306 104.964 46.0407 115.646 42.2311 119.105C40.2598 120.895 30.195 119.185 23.9244 115.542C15.8135 110.829 11.3267 101.807 15.3782 93.0993C18.8575 85.6207 26.5024 83.5687 32.6979 85.1383C35.6677 85.8907 41.3788 90.9102 43.5161 98.9163Z" fill="#00AFC8" stroke="#FFFFF6" stroke-width="2"/>
<circle cx="4.2881" cy="4.2881" r="4.2881" transform="matrix(-0.965926 -0.258819 -0.258819 0.965926 31.3596 96.0769)" fill="#86DAE6"/>
<circle cx="2.85873" cy="2.85873" r="2.85873" transform="matrix(-0.965926 -0.258819 -0.258819 0.965926 35.6733 107.591)" fill="#86DAE6"/>
<defs>
<filter id="filter0_f_620_987" x="6.76123" y="1.91284" width="170.907" height="155.277" filterUnits="userSpaceOnUse" color-interpolation-filters="sRGB">
<feFlood flood-opacity="0" result="BackgroundImageFix"/>
<feBlend mode="normal" in="SourceGraphic" in2="BackgroundImageFix" result="shape"/>
<feGaussianBlur stdDeviation="3.5" result="effect1_foregroundBlur_620_987"/>
</filter>
<filter id="filter1_d_620_987" x="9.26123" y="13.2498" width="146.164" height="138.44" filterUnits="userSpaceOnUse" color-interpolation-filters="sRGB">
<feFlood flood-opacity="0" result="BackgroundImageFix"/>
<feColorMatrix in="SourceAlpha" type="matrix" values="0 0 0 0 0 0 0 0 0 0 0 0 0 0 0 0 0 0 127 0" result="hardAlpha"/>
<feOffset dy="-3"/>
<feGaussianBlur stdDeviation="2.25"/>
<feComposite in2="hardAlpha" operator="out"/>
<feColorMatrix type="matrix" values="0 0 0 0 0 0 0 0 0 0 0 0 0 0 0 0 0 0 0.25 0"/>
<feBlend mode="normal" in2="BackgroundImageFix" result="effect1_dropShadow_620_987"/>
<feBlend mode="normal" in="SourceGraphic" in2="effect1_dropShadow_620_987" result="shape"/>
</filter>
<filter id="filter2_d_620_987" x="27.811" y="16.6812" width="125.54" height="132.036" filterUnits="userSpaceOnUse" color-interpolation-filters="sRGB">
<feFlood flood-opacity="0" result="BackgroundImageFix"/>
<feColorMatrix in="SourceAlpha" type="matrix" values="0 0 0 0 0 0 0 0 0 0 0 0 0 0 0 0 0 0 127 0" result="hardAlpha"/>
<feOffset dy="-3"/>
<feGaussianBlur stdDeviation="2.25"/>
<feComposite in2="hardAlpha" operator="out"/>
<feColorMatrix type="matrix" values="0 0 0 0 0 0 0 0 0 0 0 0 0 0 0 0 0 0 0.25 0"/>
<feBlend mode="normal" in2="BackgroundImageFix" result="effect1_dropShadow_620_987"/>
<feBlend mode="normal" in="SourceGraphic" in2="effect1_dropShadow_620_987" result="shape"/>
</filter>
<linearGradient id="paint0_linear_620_987" x1="15.7002" y1="21.8663" x2="24.895" y2="0.268991" gradientUnits="userSpaceOnUse">
<stop stop-color="#3DDCFF"/>
<stop offset="1" stop-color="#61FFB0"/>
</linearGradient>
<linearGradient id="paint1_linear_620_987" x1="49.7235" y1="32.9261" x2="58.9183" y2="11.3287" gradientUnits="userSpaceOnUse">
<stop stop-color="#3DDCFF"/>
<stop offset="1" stop-color="#61FFB0"/>
</linearGradient>
<radialGradient id="paint2_radial_620_987" cx="0" cy="0" r="1" gradientUnits="userSpaceOnUse" gradientTransform="translate(81.9088 114.65) rotate(127.463) scale(85.018 120.177)">
<stop stop-color="#25FBFF"/>
<stop offset="0.303481" stop-color="#95EEFC"/>
<stop offset="0.591346" stop-color="#FFE2F8"/>
<stop offset="1" stop-color="#84FFC1"/>
</radialGradient>
<linearGradient id="paint3_linear_620_987" x1="14.9914" y1="19.5297" x2="22.8232" y2="-0.13723" gradientUnits="userSpaceOnUse">
<stop stop-color="#3DDCFF"/>
<stop offset="1" stop-color="#61FFB0"/>
</linearGradient>
<radialGradient id="paint4_radial_620_987" cx="0" cy="0" r="1" gradientUnits="userSpaceOnUse" gradientTransform="translate(82.8805 114.845) rotate(127.268) scale(81.8029 114.842)">
<stop stop-color="#25FBFF"/>
<stop offset="0.303481" stop-color="#95EEFC"/>
<stop offset="0.591346" stop-color="#FFE2F8"/>
<stop offset="1" stop-color="#84FFC1"/>
</radialGradient>
<linearGradient id="paint5_linear_620_987" x1="14.9914" y1="19.5297" x2="22.8232" y2="-0.13723" gradientUnits="userSpaceOnUse">
<stop stop-color="#3DDCFF"/>
<stop offset="1" stop-color="#61FFB0"/>
</linearGradient>
</defs>
</svg>
