<svg width="274" height="60" viewBox="0 0 274 60" fill="none" xmlns="http://www.w3.org/2000/svg">
<path d="M250.5 0C263.479 0 274 10.5213 274 23.5C274 36.4787 263.479 47 250.5 47H23.5C10.5213 47 0 36.4787 0 23.5C0 10.5213 10.5213 0 23.5 0H250.5Z" fill="#FFFFF6"/>
<path d="M32.826 18.934V20.082H30.04V21.328C30.04 22.0093 30.1753 22.686 30.446 23.358C30.7167 24.0207 31.0947 24.618 31.58 25.15C32.0747 25.6727 32.6347 26.0693 33.26 26.34L32.49 27.432C31.7807 27.1053 31.1553 26.6247 30.614 25.99C30.0727 25.3553 29.6573 24.6273 29.368 23.806C29.0787 24.6927 28.6587 25.486 28.108 26.186C27.5667 26.8767 26.9413 27.39 26.232 27.726L25.448 26.648C26.064 26.3587 26.6147 25.9293 27.1 25.36C27.5947 24.7907 27.9773 24.1513 28.248 23.442C28.5187 22.7327 28.654 22.028 28.654 21.328V20.082H25.882V18.934H32.826ZM35.668 17.702V30.092H34.296V17.702H35.668ZM47.5543 18.318V19.256C47.5543 19.9373 47.5357 20.5393 47.4983 21.062C47.4703 21.5847 47.3863 22.1773 47.2463 22.84H48.9683V23.96H37.7403V22.84H45.8883C46.0283 22.2053 46.117 21.636 46.1543 21.132C46.1917 20.6187 46.2103 20.054 46.2103 19.438H39.1543V18.318H47.5543ZM47.5683 25.486V29.952H39.0983V25.486H47.5683ZM40.4423 26.578V28.846H46.2243V26.578H40.4423ZM63.3812 17.688V30.106H61.9952V17.688H63.3812ZM56.8012 18.612C57.4172 18.612 57.9632 18.794 58.4392 19.158C58.9246 19.5127 59.3026 20.0213 59.5732 20.684C59.8439 21.3373 59.9792 22.098 59.9792 22.966C59.9792 23.8433 59.8439 24.6133 59.5732 25.276C59.3026 25.9387 58.9246 26.452 58.4392 26.816C57.9632 27.1707 57.4172 27.348 56.8012 27.348C56.1852 27.348 55.6346 27.1707 55.1492 26.816C54.6639 26.452 54.2859 25.9387 54.0152 25.276C53.7446 24.6133 53.6092 23.8433 53.6092 22.966C53.6092 22.098 53.7446 21.3373 54.0152 20.684C54.2859 20.0213 54.6639 19.5127 55.1492 19.158C55.6346 18.794 56.1852 18.612 56.8012 18.612ZM56.8012 19.858C56.2412 19.858 55.7886 20.138 55.4432 20.698C55.1072 21.258 54.9392 22.014 54.9392 22.966C54.9392 23.9273 55.1072 24.6927 55.4432 25.262C55.7886 25.822 56.2412 26.102 56.8012 26.102C57.3519 26.102 57.7999 25.822 58.1452 25.262C58.4906 24.6927 58.6632 23.9273 58.6632 22.966C58.6632 22.014 58.4906 21.258 58.1452 20.698C57.7999 20.138 57.3519 19.858 56.8012 19.858ZM77.5421 20.502V17.716H78.9141V26.928H77.5421V21.636H75.0081V20.502H77.5421ZM73.0341 18.444V19.928C73.0341 20.796 73.2908 21.594 73.8041 22.322C74.3268 23.05 75.0408 23.5773 75.9461 23.904L75.2181 24.954C74.5554 24.702 73.9814 24.338 73.4961 23.862C73.0108 23.3767 72.6374 22.812 72.3761 22.168C72.1054 22.8867 71.7134 23.512 71.2001 24.044C70.6868 24.576 70.0708 24.982 69.3521 25.262L68.6381 24.17C69.5714 23.834 70.3088 23.274 70.8501 22.49C71.3914 21.706 71.6621 20.8473 71.6621 19.914V18.444H73.0341ZM72.2361 25.934V28.72H79.1941V29.84H70.8501V25.934H72.2361ZM86.1944 18.57V19.69H82.7084V21.034H86.0684V22.084H82.7084V23.526C83.5578 23.5167 84.2718 23.4933 84.8504 23.456C85.4291 23.4093 86.0171 23.3347 86.6144 23.232L86.7404 24.338C86.0778 24.4593 85.4151 24.5433 84.7524 24.59C84.0991 24.6273 83.2498 24.646 82.2044 24.646H81.3924V18.57H86.1944ZM91.3744 17.702V25.234H90.0724V21.986H88.6584V25.164H87.3704V17.94H88.6584V20.866H90.0724V17.702H91.3744ZM91.3744 25.836V30.092H90.0164V26.956H82.9884V25.836H91.3744ZM104.367 24.982V26.074H99.3968V30.092H98.0248V26.074H93.1388V24.982H104.367ZM95.8548 18.206V19.788H101.609V18.206H102.953V23.61H94.4968V18.206H95.8548ZM95.8548 22.49H101.609V20.88H95.8548V22.49ZM115.637 17.688V30.106H114.279V23.372H111.871V22.266H114.279V17.688H115.637ZM111.661 18.794V19.928H107.293V22.252H111.171V23.344H107.293V26.074C108.385 26.074 109.304 26.0507 110.051 26.004C110.807 25.9573 111.572 25.864 112.347 25.724L112.487 26.844C111.628 26.984 110.779 27.082 109.939 27.138C109.108 27.1847 108.096 27.208 106.901 27.208H105.935V18.794H111.661ZM118.619 30.792H117.639L118.129 27.782H119.515L118.619 30.792ZM129.743 27.404V24.492H131.115V27.404H136.099V28.538H124.871V27.404H129.743ZM131.157 18.458V19.396C131.157 20.0307 131.358 20.6467 131.759 21.244C132.17 21.832 132.716 22.336 133.397 22.756C134.079 23.176 134.821 23.4513 135.623 23.582L135.035 24.744C134.018 24.5387 133.094 24.142 132.263 23.554C131.442 22.966 130.831 22.2567 130.429 21.426C130.019 22.2567 129.403 22.966 128.581 23.554C127.76 24.142 126.841 24.5387 125.823 24.744L125.249 23.582C126.043 23.4513 126.78 23.176 127.461 22.756C128.152 22.3267 128.698 21.818 129.099 21.23C129.501 20.6327 129.701 20.0213 129.701 19.396V18.458H131.157ZM142.708 17.842C144.098 17.842 145.181 18.0287 145.956 18.402C146.73 18.766 147.118 19.2887 147.118 19.97C147.118 20.6513 146.73 21.1787 145.956 21.552C145.181 21.9253 144.098 22.112 142.708 22.112C141.317 22.112 140.234 21.9253 139.46 21.552C138.685 21.1787 138.298 20.6513 138.298 19.97C138.298 19.2887 138.685 18.766 139.46 18.402C140.234 18.0287 141.317 17.842 142.708 17.842ZM142.708 18.864C141.737 18.864 140.995 18.962 140.482 19.158C139.968 19.3447 139.712 19.6153 139.712 19.97C139.712 20.334 139.968 20.6093 140.482 20.796C140.995 20.9827 141.737 21.076 142.708 21.076C143.669 21.076 144.406 20.9827 144.92 20.796C145.433 20.6093 145.69 20.334 145.69 19.97C145.69 19.6153 145.433 19.3447 144.92 19.158C144.406 18.962 143.669 18.864 142.708 18.864ZM148.294 22.812V23.904H143.38V24.926H146.894V27.866H139.81V28.93H147.244V29.98H138.466V26.886H145.536V25.962H138.424V24.926H142.008V23.904H137.108V22.812H148.294ZM154.538 19.074V22.308H156.12V17.954H157.408V29.49H156.12V23.428H154.538V26.858H149.764V19.074H154.538ZM151.038 20.152V25.78H153.25V20.152H151.038ZM159.9 17.702V30.092H158.598V17.702H159.9ZM171.758 17.688V30.106H170.372V17.688H171.758ZM165.178 18.612C165.794 18.612 166.34 18.794 166.816 19.158C167.302 19.5127 167.68 20.0213 167.95 20.684C168.221 21.3373 168.356 22.098 168.356 22.966C168.356 23.8433 168.221 24.6133 167.95 25.276C167.68 25.9387 167.302 26.452 166.816 26.816C166.34 27.1707 165.794 27.348 165.178 27.348C164.562 27.348 164.012 27.1707 163.526 26.816C163.041 26.452 162.663 25.9387 162.392 25.276C162.122 24.6133 161.986 23.8433 161.986 22.966C161.986 22.098 162.122 21.3373 162.392 20.684C162.663 20.0213 163.041 19.5127 163.526 19.158C164.012 18.794 164.562 18.612 165.178 18.612ZM165.178 19.858C164.618 19.858 164.166 20.138 163.82 20.698C163.484 21.258 163.316 22.014 163.316 22.966C163.316 23.9273 163.484 24.6927 163.82 25.262C164.166 25.822 164.618 26.102 165.178 26.102C165.729 26.102 166.177 25.822 166.522 25.262C166.868 24.6927 167.04 23.9273 167.04 22.966C167.04 22.014 166.868 21.258 166.522 20.698C166.177 20.138 165.729 19.858 165.178 19.858ZM183.673 18.696V19.802H176.603V21.44H183.407V22.532H176.603V24.254H183.799V25.36H175.217V18.696H183.673ZM185.045 27.432V28.552H173.817V27.432H185.045ZM189.735 18.472C190.36 18.472 190.925 18.598 191.429 18.85C191.933 19.102 192.325 19.4567 192.605 19.914C192.894 20.362 193.039 20.8707 193.039 21.44C193.039 22.196 192.796 22.84 192.311 23.372C191.835 23.8947 191.209 24.2213 190.435 24.352V26.284C191.751 26.2187 192.791 26.13 193.557 26.018L193.669 27.026C191.867 27.334 189.59 27.488 186.837 27.488H186.109L185.913 26.368C187.266 26.368 188.316 26.3587 189.063 26.34V24.352C188.269 24.2213 187.63 23.8947 187.145 23.372C186.659 22.8493 186.417 22.2053 186.417 21.44C186.417 20.8707 186.557 20.362 186.837 19.914C187.126 19.4567 187.523 19.102 188.027 18.85C188.531 18.598 189.1 18.472 189.735 18.472ZM189.735 19.648C189.156 19.648 188.68 19.8113 188.307 20.138C187.943 20.4647 187.761 20.8987 187.761 21.44C187.761 21.972 187.943 22.406 188.307 22.742C188.68 23.0687 189.156 23.232 189.735 23.232C190.304 23.232 190.771 23.0687 191.135 22.742C191.508 22.406 191.695 21.972 191.695 21.44C191.695 20.8987 191.513 20.4647 191.149 20.138C190.785 19.8113 190.313 19.648 189.735 19.648ZM195.657 17.702V22.714H197.505V23.862H195.657V30.092H194.285V17.702H195.657ZM211.176 17.702V20.894H212.94V22.028H211.176V25.15H209.804V17.702H211.176ZM211.176 25.794V29.938H203.294V25.794H211.176ZM204.638 26.9V28.846H209.832V26.9H204.638ZM204.498 18.934V17.604H205.884V18.934H208.838V20.04H201.544V18.934H204.498ZM205.184 20.558C205.772 20.558 206.294 20.6513 206.752 20.838C207.209 21.0153 207.564 21.272 207.816 21.608C208.068 21.944 208.194 22.3313 208.194 22.77C208.194 23.442 207.914 23.9787 207.354 24.38C206.803 24.7813 206.08 24.982 205.184 24.982C204.288 24.982 203.564 24.7813 203.014 24.38C202.472 23.9787 202.202 23.442 202.202 22.77C202.202 22.3313 202.323 21.944 202.566 21.608C202.818 21.272 203.168 21.0153 203.616 20.838C204.073 20.6513 204.596 20.558 205.184 20.558ZM205.184 21.594C204.68 21.594 204.274 21.7013 203.966 21.916C203.667 22.1213 203.518 22.406 203.518 22.77C203.518 23.134 203.667 23.4233 203.966 23.638C204.274 23.8527 204.68 23.96 205.184 23.96C205.697 23.96 206.103 23.8527 206.402 23.638C206.71 23.4233 206.864 23.134 206.864 22.77C206.864 22.406 206.71 22.1213 206.402 21.916C206.103 21.7013 205.697 21.594 205.184 21.594ZM216.762 19.158C216.762 20.8007 216.622 22.2893 216.342 23.624C216.062 24.9493 215.535 26.1673 214.76 27.278L213.682 26.676C214.345 25.7613 214.816 24.7907 215.096 23.764C215.385 22.728 215.553 21.566 215.6 20.278H214.004V19.158H216.762ZM219.52 19.158C219.52 20.446 219.469 21.552 219.366 22.476H220.738V17.996H222.026V29.476H220.738V23.596H219.212C218.895 25.3227 218.325 26.7927 217.504 28.006L216.426 27.39C217.145 26.4007 217.635 25.3273 217.896 24.17C218.157 23.0127 218.302 21.7153 218.33 20.278H217.154V19.158H219.52ZM224.378 17.702V30.092H223.062V17.702H224.378ZM228.326 19.732V18.038H229.684V19.732H232.022V20.824H225.96V19.732H228.326ZM228.998 21.566C229.512 21.566 229.974 21.6873 230.384 21.93C230.795 22.1727 231.112 22.5133 231.336 22.952C231.57 23.3813 231.686 23.8713 231.686 24.422C231.686 24.982 231.57 25.4813 231.336 25.92C231.112 26.3587 230.795 26.6993 230.384 26.942C229.974 27.1847 229.512 27.306 228.998 27.306C228.485 27.306 228.023 27.1847 227.612 26.942C227.211 26.6993 226.894 26.3587 226.66 25.92C226.436 25.4813 226.324 24.982 226.324 24.422C226.324 23.8713 226.436 23.3813 226.66 22.952C226.894 22.5133 227.211 22.1727 227.612 21.93C228.023 21.6873 228.485 21.566 228.998 21.566ZM228.998 22.7C228.578 22.7 228.228 22.8633 227.948 23.19C227.678 23.5073 227.542 23.918 227.542 24.422C227.542 24.9447 227.678 25.3647 227.948 25.682C228.219 25.99 228.569 26.144 228.998 26.144C229.428 26.144 229.778 25.99 230.048 25.682C230.328 25.3647 230.468 24.9447 230.468 24.422C230.468 23.918 230.328 23.5073 230.048 23.19C229.778 22.8633 229.428 22.7 228.998 22.7ZM236.516 17.702V30.092H235.214V23.974H233.87V29.504H232.568V17.968H233.87V22.854H235.214V17.702H236.516ZM240.871 27.432V24.198C240.367 23.918 239.975 23.5587 239.695 23.12C239.415 22.6813 239.275 22.1913 239.275 21.65C239.275 21.006 239.471 20.4367 239.863 19.942C240.255 19.4473 240.791 19.0693 241.473 18.808C242.163 18.5373 242.947 18.402 243.825 18.402C244.702 18.402 245.486 18.5373 246.177 18.808C246.867 19.0693 247.404 19.4473 247.787 19.942C248.179 20.4367 248.375 21.006 248.375 21.65C248.375 22.1913 248.235 22.6813 247.955 23.12C247.684 23.5493 247.297 23.9087 246.793 24.198V27.432H249.453V28.552H238.225V27.432H240.871ZM243.825 19.494C242.873 19.494 242.098 19.69 241.501 20.082C240.913 20.4647 240.619 20.9873 240.619 21.65C240.619 22.3127 240.913 22.84 241.501 23.232C242.098 23.6147 242.873 23.806 243.825 23.806C244.777 23.806 245.547 23.61 246.135 23.218C246.732 22.826 247.031 22.3033 247.031 21.65C247.031 20.9967 246.732 20.474 246.135 20.082C245.547 19.69 244.777 19.494 243.825 19.494ZM245.421 27.432V24.716C244.935 24.828 244.403 24.884 243.825 24.884C243.265 24.884 242.737 24.828 242.243 24.716V27.432H245.421Z" fill="#343434"/>
<path d="M212.806 54.7854C211.666 56.8576 208.689 56.8576 207.549 54.7854L202.077 44.8369C200.977 42.8375 202.424 40.391 204.705 40.391L215.65 40.391C217.932 40.391 219.378 42.8375 218.278 44.8369L212.806 54.7854Z" fill="white"/>
</svg>
