<svg width="128" height="119" viewBox="0 0 128 119" fill="none" xmlns="http://www.w3.org/2000/svg">
<g filter="url(#filter0_f_485_1778)">
<ellipse cx="22.6997" cy="21.3006" rx="14.2968" ry="11.6492" transform="rotate(19.6481 22.6997 21.3006)" fill="url(#paint0_linear_485_1778)" stroke="#FFFFF6" stroke-width="2"/>
<ellipse cx="14.2968" cy="11.6492" rx="14.2968" ry="11.6492" transform="matrix(-0.941776 0.336242 0.336242 0.941776 114.75 5.52246)" fill="url(#paint1_linear_485_1778)" stroke="#FFFFF6" stroke-width="2"/>
<ellipse cx="22.4651" cy="22.6362" rx="11.7691" ry="8.58322" transform="rotate(19.6481 22.4651 22.6362)" fill="#17B4C8"/>
<g filter="url(#filter1_d_485_1778)">
<path d="M65.0144 9.14014C92.6223 9.14017 112.65 30.1977 112.65 56.1733C112.65 63.8058 110.059 71.0124 105.954 77.3862C111.593 80.949 114.696 86.6977 113.261 92.0542C111.364 99.1311 102.265 102.842 92.9363 100.342C92.6246 100.259 92.3167 100.169 92.0125 100.074C91.0672 105.934 85.2807 110.444 78.281 110.444C73.0854 110.444 68.5571 107.959 66.1814 104.282C63.7023 107.959 58.9786 110.444 53.5574 110.444C45.5649 110.444 39.0857 105.044 39.0857 98.3833C39.0857 98.0638 39.1004 97.7473 39.1297 97.4341C37.7571 98.1343 36.2668 98.7122 34.6805 99.1372C25.352 101.637 16.2527 97.9267 14.3562 90.8501C12.8197 85.1157 16.4845 78.9305 22.8934 75.4604C19.4781 69.5751 17.3777 63.0463 17.3777 56.1733C17.3778 30.1977 37.4065 9.14014 65.0144 9.14014Z" fill="url(#paint2_radial_485_1778)"/>
<path d="M65.0144 9.14014V8.14014V9.14014ZM112.65 56.1733H113.65V56.1733L112.65 56.1733ZM105.954 77.3862L105.113 76.8448C104.969 77.069 104.92 77.3417 104.977 77.6021C105.035 77.8625 105.194 78.0891 105.42 78.2316L105.954 77.3862ZM113.261 92.0542L114.226 92.313L114.226 92.313L113.261 92.0542ZM92.9363 100.342L92.6775 101.308H92.6775L92.9363 100.342ZM92.0125 100.074L92.3108 99.1193C92.0339 99.0327 91.7331 99.0707 91.4864 99.2233C91.2397 99.3759 91.0714 99.6281 91.0253 99.9145L92.0125 100.074ZM78.281 110.444V111.444H78.2811L78.281 110.444ZM66.1814 104.282L67.0214 103.739C66.8391 103.457 66.5272 103.285 66.1913 103.282C65.8553 103.278 65.5401 103.444 65.3523 103.723L66.1814 104.282ZM53.5574 110.444V111.444V110.444ZM39.0857 98.3833L38.0857 98.3833V98.3833H39.0857ZM39.1297 97.4341L40.1253 97.5271C40.1593 97.1641 39.9929 96.8113 39.6911 96.6066C39.3894 96.4018 39.0001 96.3776 38.6753 96.5433L39.1297 97.4341ZM34.6805 99.1372L34.9393 100.103H34.9393L34.6805 99.1372ZM14.3562 90.8501L13.3903 91.1089L13.3903 91.1089L14.3562 90.8501ZM22.8934 75.4604L23.3695 76.3398C23.6072 76.2111 23.7827 75.9916 23.8559 75.7314C23.9292 75.4712 23.894 75.1924 23.7583 74.9585L22.8934 75.4604ZM17.3777 56.1733L16.3777 56.1733V56.1733H17.3777ZM65.0144 9.14014L65.0144 10.1401C92.0641 10.1402 111.65 30.744 111.65 56.1733L112.65 56.1733L113.65 56.1733C113.65 29.6514 93.1805 8.14018 65.0144 8.14014V9.14014ZM112.65 56.1733H111.65C111.65 63.5745 109.138 70.5958 105.113 76.8448L105.954 77.3862L106.795 77.9277C110.98 71.429 113.65 64.0372 113.65 56.1733H112.65ZM105.954 77.3862L105.42 78.2316C110.836 81.6536 113.577 87.0089 112.295 91.7954L113.261 92.0542L114.226 92.313C115.814 86.3865 112.35 80.2444 106.488 76.5408L105.954 77.3862ZM113.261 92.0542L112.295 91.7954C111.445 94.9664 108.965 97.4536 105.508 98.8634C102.05 100.274 97.668 100.575 93.1951 99.3764L92.9363 100.342L92.6775 101.308C97.5332 102.609 102.365 102.305 106.263 100.715C110.162 99.1255 113.18 96.2189 114.226 92.313L113.261 92.0542ZM92.9363 100.342L93.1951 99.3764C92.8977 99.2967 92.6031 99.2106 92.3108 99.1193L92.0125 100.074L91.7142 101.028C92.0303 101.127 92.3514 101.221 92.6775 101.308L92.9363 100.342ZM92.0125 100.074L91.0253 99.9145C90.1727 105.2 84.8875 109.444 78.281 109.444L78.281 110.444L78.2811 111.444C85.6739 111.444 91.9617 106.668 92.9997 100.233L92.0125 100.074ZM78.281 110.444V109.444C73.3954 109.444 69.1975 107.107 67.0214 103.739L66.1814 104.282L65.3415 104.824C67.9168 108.811 72.7754 111.444 78.281 111.444V110.444ZM66.1814 104.282L65.3523 103.723C63.0808 107.092 58.6869 109.444 53.5574 109.444V110.444V111.444C59.2703 111.444 64.3239 108.825 67.0106 104.841L66.1814 104.282ZM53.5574 110.444V109.444C45.9388 109.444 40.0857 104.329 40.0857 98.3833H39.0857H38.0857C38.0857 105.759 45.191 111.444 53.5574 111.444V110.444ZM39.0857 98.3833L40.0857 98.3833C40.0857 98.0945 40.099 97.809 40.1253 97.5271L39.1297 97.4341L38.134 97.341C38.1018 97.6856 38.0857 98.0332 38.0857 98.3833L39.0857 98.3833ZM39.1297 97.4341L38.6753 96.5433C37.3652 97.2116 35.9404 97.7643 34.4216 98.1713L34.6805 99.1372L34.9393 100.103C36.5931 99.66 38.1491 99.0569 39.5841 98.3249L39.1297 97.4341ZM34.6805 99.1372L34.4216 98.1713C29.9488 99.3698 25.5669 99.0687 22.1089 97.6587C18.6517 96.2491 16.1719 93.7621 15.3222 90.5912L14.3562 90.8501L13.3903 91.1089C14.437 95.0147 17.4551 97.921 21.3538 99.5107C25.2517 101.1 30.0837 101.404 34.9393 100.103L34.6805 99.1372ZM14.3562 90.8501L15.3222 90.5913C13.9497 85.4691 17.195 79.683 23.3695 76.3398L22.8934 75.4604L22.4172 74.5811C15.774 78.1781 11.6897 84.7622 13.3903 91.1089L14.3562 90.8501ZM22.8934 75.4604L23.7583 74.9585C20.4142 69.1957 18.3777 62.8384 18.3777 56.1733H17.3777H16.3777C16.3777 63.2542 18.5421 69.9544 22.0284 75.9624L22.8934 75.4604ZM17.3777 56.1733L18.3777 56.1733C18.3778 30.744 37.9647 10.1401 65.0144 10.1401V9.14014V8.14014C36.8483 8.14014 16.3778 29.6513 16.3777 56.1733L17.3777 56.1733Z" fill="#FFFFF6"/>
</g>
<path d="M74.1093 68.6363C74.2199 68.3837 74.5146 68.2682 74.7675 68.3784C75.02 68.489 75.1353 68.7838 75.0253 69.0367C74.614 69.9798 73.6688 71.1368 72.1483 71.4771C70.6825 71.8049 68.8319 71.3407 66.6171 69.4927C64.4026 71.3402 62.5525 71.8049 61.0868 71.4771C59.5664 71.1368 58.6211 69.9798 58.2099 69.0367C58.0999 68.7838 58.2152 68.489 58.4677 68.3784C58.7206 68.2682 59.0153 68.3837 59.1259 68.6363C59.4506 69.3812 60.1845 70.2506 61.3056 70.5015C62.41 70.7484 64.0545 70.4302 66.286 68.4615C66.2921 68.4561 66.2993 68.4518 66.3056 68.4468C66.3175 68.4372 66.3301 68.4288 66.3427 68.4204C66.3556 68.4119 66.3683 68.4032 66.3817 68.396C66.401 68.3857 66.421 68.3773 66.4413 68.3697C66.4507 68.3661 66.4601 68.3628 66.4696 68.3599C66.4877 68.3543 66.5058 68.3497 66.5243 68.3462C66.5399 68.3433 66.5555 68.3408 66.5712 68.3394C66.5764 68.3389 66.5816 68.3378 66.5868 68.3374H66.6483C66.6533 68.3377 66.6581 68.3389 66.663 68.3394C66.6791 68.3408 66.6949 68.3432 66.7108 68.3462C66.7286 68.3496 66.7462 68.3536 66.7636 68.3589C66.7752 68.3625 66.7864 68.3672 66.7978 68.3716C66.8161 68.3787 66.8339 68.3867 66.8515 68.396C66.8652 68.4033 66.8783 68.4117 66.8915 68.4204C66.9042 68.4288 66.9166 68.4372 66.9286 68.4468C66.9351 68.452 66.9428 68.4559 66.9491 68.4615C69.1807 70.4303 70.8251 70.7484 71.9296 70.5015C73.0507 70.2506 73.7845 69.3813 74.1093 68.6363Z" fill="#002427"/>
<path d="M74.1093 68.6363L73.6513 68.4357L73.6509 68.4365L74.1093 68.6363ZM74.7675 68.3784L74.968 67.9204L74.9673 67.9201L74.7675 68.3784ZM75.0253 69.0367L75.4836 69.2365L75.4838 69.2362L75.0253 69.0367ZM72.1483 71.4771L72.2575 71.965L72.2576 71.965L72.1483 71.4771ZM66.6171 69.4927L66.9374 69.1088L66.6171 68.8415L66.2968 69.1088L66.6171 69.4927ZM61.0868 71.4771L60.9776 71.965L60.9777 71.965L61.0868 71.4771ZM58.2099 69.0367L57.7514 69.2361L57.7516 69.2365L58.2099 69.0367ZM58.4677 68.3784L58.2679 67.9201L58.2671 67.9204L58.4677 68.3784ZM59.1259 68.6363L59.5842 68.4365L59.5839 68.4357L59.1259 68.6363ZM61.3056 70.5015L61.1964 70.9894L61.1965 70.9895L61.3056 70.5015ZM66.286 68.4615L66.6168 68.8364L66.6168 68.8364L66.286 68.4615ZM66.3056 68.4468L66.6182 68.8371L66.6184 68.8368L66.3056 68.4468ZM66.3427 68.4204L66.6184 68.8375L66.6186 68.8374L66.3427 68.4204ZM66.3817 68.396L66.1459 67.9551L66.1456 67.9553L66.3817 68.396ZM66.4413 68.3697L66.6174 68.8376L66.6176 68.8376L66.4413 68.3697ZM66.4696 68.3599L66.322 67.8822L66.3219 67.8822L66.4696 68.3599ZM66.5243 68.3462L66.4315 67.8549L66.4313 67.855L66.5243 68.3462ZM66.5712 68.3394L66.6172 68.8373L66.6176 68.8372L66.5712 68.3394ZM66.5868 68.3374V67.8374H66.5714L66.556 67.8384L66.5868 68.3374ZM66.6483 68.3374L66.6791 67.8384L66.6637 67.8374H66.6483V68.3374ZM66.663 68.3394L66.6177 68.8373L66.6181 68.8374L66.663 68.3394ZM66.7108 68.3462L66.8038 67.8549L66.8036 67.8549L66.7108 68.3462ZM66.7636 68.3589L66.9092 67.8806L66.9091 67.8806L66.7636 68.3589ZM66.7978 68.3716L66.6174 68.838L66.6177 68.838L66.7978 68.3716ZM66.8515 68.396L67.086 67.9544L67.0857 67.9543L66.8515 68.396ZM66.8915 68.4204L66.6163 68.8379L66.6165 68.838L66.8915 68.4204ZM66.9286 68.4468L66.6164 68.8373L66.6167 68.8376L66.9286 68.4468ZM66.9491 68.4615L66.6183 68.8364L66.6183 68.8364L66.9491 68.4615ZM71.9296 70.5015L72.0387 70.9895L72.0388 70.9894L71.9296 70.5015ZM74.1093 68.6363L74.5673 68.8368L74.5677 68.8368L74.7675 68.3784L74.9673 67.9201C74.4617 67.6997 73.8726 67.9303 73.6513 68.4357L74.1093 68.6363ZM74.7675 68.3784L74.567 68.8365L74.5668 68.8371L75.0253 69.0367L75.4838 69.2362C75.7035 68.7311 75.4737 68.1418 74.968 67.9204L74.7675 68.3784ZM75.0253 69.0367L74.567 68.8368C74.1987 69.6813 73.3594 70.6936 72.0391 70.9892L72.1483 71.4771L72.2576 71.965C73.9782 71.5799 75.0293 70.2783 75.4836 69.2365L75.0253 69.0367ZM72.1483 71.4771L72.0392 70.9891C70.7798 71.2708 69.084 70.8999 66.9374 69.1088L66.6171 69.4927L66.2968 69.8766C68.5797 71.7815 70.5853 72.339 72.2575 71.965L72.1483 71.4771ZM66.6171 69.4927L66.2968 69.1088C64.1504 70.8995 62.4552 71.2708 61.196 70.9891L61.0868 71.4771L60.9777 71.965C62.6498 72.339 64.6548 71.781 66.9374 69.8766L66.6171 69.4927ZM61.0868 71.4771L61.196 70.9892C59.8758 70.6936 59.0364 69.6812 58.6682 68.8368L58.2099 69.0367L57.7516 69.2365C58.2059 70.2783 59.2571 71.5799 60.9776 71.965L61.0868 71.4771ZM58.2099 69.0367L58.6684 68.8372L58.6682 68.8365L58.4677 68.3784L58.2671 67.9204C57.7615 68.1418 57.5317 68.7311 57.7514 69.2361L58.2099 69.0367ZM58.4677 68.3784L58.6675 68.8368L58.6679 68.8368L59.1259 68.6363L59.5839 68.4357C59.3626 67.9303 58.7735 67.6997 58.2679 67.9201L58.4677 68.3784ZM59.1259 68.6363L58.6675 68.8361C59.0358 69.6809 59.8761 70.6939 61.1964 70.9894L61.3056 70.5015L61.4148 70.0136C60.493 69.8072 59.8655 69.0816 59.5842 68.4365L59.1259 68.6363ZM61.3056 70.5015L61.1965 70.9895C62.5173 71.2847 64.3205 70.8624 66.6168 68.8364L66.286 68.4615L65.9552 68.0865C63.7886 69.9981 62.3027 70.212 61.4146 70.0135L61.3056 70.5015ZM66.286 68.4615L66.6168 68.8364C66.6066 68.8454 66.598 68.8522 66.5928 68.8561C66.5878 68.8599 66.5841 68.8624 66.5847 68.8621C66.5847 68.862 66.5848 68.862 66.5852 68.8617C66.5855 68.8615 66.5862 68.861 66.5868 68.8606C66.5881 68.8596 66.5904 68.858 66.5932 68.856C66.5984 68.8522 66.6075 68.8456 66.6182 68.8371L66.3056 68.4468L65.993 68.0566C66.0005 68.0505 66.0063 68.0463 66.0083 68.0449C66.0094 68.0441 66.01 68.0437 66.0097 68.0439C66.0095 68.044 66.0093 68.0442 66.0088 68.0445C66.0083 68.0449 66.0076 68.0454 66.0068 68.0459C66.004 68.0479 65.997 68.0529 65.9888 68.0591C65.9803 68.0655 65.9686 68.0748 65.9552 68.0865L66.286 68.4615ZM66.3056 68.4468L66.6184 68.8368L66.6184 68.8375L66.3427 68.4204L66.0669 68.0034C66.0541 68.0119 66.0244 68.0314 65.9927 68.0568L66.3056 68.4468ZM66.3427 68.4204L66.6186 68.8374C66.6206 68.8361 66.6226 68.8348 66.6241 68.8338C66.6258 68.8327 66.627 68.8319 66.6281 68.8311C66.6292 68.8304 66.6299 68.8299 66.6305 68.8295C66.6307 68.8294 66.6309 68.8292 66.6311 68.8292C66.6312 68.8291 66.6313 68.829 66.6313 68.829C66.6313 68.829 66.6312 68.8291 66.6311 68.8292C66.6309 68.8293 66.6307 68.8294 66.6304 68.8296C66.6299 68.8299 66.629 68.8304 66.6279 68.8311C66.6258 68.8324 66.6223 68.8344 66.6179 68.8368L66.3817 68.396L66.1456 67.9553C66.1065 67.9763 66.07 68.0013 66.0668 68.0034L66.3427 68.4204ZM66.3817 68.396L66.6175 68.8369L66.6174 68.8376L66.4413 68.3697L66.2652 67.9017C66.2337 67.9136 66.1916 67.9307 66.1459 67.9551L66.3817 68.396ZM66.4413 68.3697L66.6176 68.8376L66.6174 68.8376L66.4696 68.3599L66.3219 67.8822C66.301 67.8887 66.282 67.8954 66.265 67.9018L66.4413 68.3697ZM66.4696 68.3599L66.6173 68.8376L66.6174 68.8375L66.5243 68.3462L66.4313 67.855C66.3929 67.8622 66.3565 67.8715 66.322 67.8822L66.4696 68.3599ZM66.5243 68.3462L66.6171 68.8375L66.6172 68.8373L66.5712 68.3394L66.5252 67.8415C66.4889 67.8449 66.4568 67.8501 66.4315 67.8549L66.5243 68.3462ZM66.5712 68.3394L66.6176 68.8372C66.629 68.8362 66.6384 68.8349 66.6439 68.8342C66.6467 68.8338 66.6491 68.8334 66.6505 68.8332C66.6512 68.8331 66.6518 68.833 66.6521 68.833C66.6525 68.8329 66.6526 68.8329 66.6527 68.8329C66.6532 68.8328 66.6493 68.8334 66.644 68.8341C66.6384 68.8348 66.6292 68.8358 66.6176 68.8365L66.5868 68.3374L66.556 67.8384C66.5419 67.8393 66.5301 67.8405 66.5218 67.8415C66.5139 67.8425 66.5074 67.8435 66.5053 67.8438C66.5048 67.8439 66.5042 67.844 66.504 67.844C66.5036 67.8441 66.5036 67.8441 66.5036 67.8441C66.5037 67.844 66.5048 67.8439 66.5063 67.8437C66.5093 67.8433 66.516 67.8424 66.5248 67.8415L66.5712 68.3394ZM66.5868 68.3374V68.8374H66.6483V68.3374V67.8374H66.5868V68.3374ZM66.6483 68.3374L66.6176 68.8365C66.6038 68.8356 66.5928 68.8343 66.5861 68.8334C66.5798 68.8326 66.575 68.8318 66.5757 68.8319C66.5758 68.8319 66.5758 68.8319 66.5764 68.832C66.5768 68.8321 66.5775 68.8322 66.5783 68.8323C66.58 68.8326 66.5828 68.833 66.5862 68.8335C66.5928 68.8345 66.6039 68.8361 66.6177 68.8373L66.663 68.3394L66.7083 67.8414C66.7196 67.8425 66.7283 67.8437 66.7325 67.8443C66.7347 67.8446 66.7363 67.8449 66.7367 67.845C66.7369 67.845 66.737 67.845 66.7368 67.845C66.7368 67.845 66.7361 67.8449 66.7357 67.8448C66.7339 67.8445 66.7267 67.8433 66.718 67.8422C66.7088 67.841 66.6953 67.8394 66.6791 67.8384L66.6483 68.3374ZM66.663 68.3394L66.6181 68.8374L66.6181 68.8375L66.7108 68.3462L66.8036 67.8549C66.7756 67.8496 66.7434 67.8446 66.7079 67.8414L66.663 68.3394ZM66.7108 68.3462L66.6179 68.8375L66.618 68.8373L66.7636 68.3589L66.9091 67.8806C66.87 67.8687 66.8341 67.8607 66.8038 67.8549L66.7108 68.3462ZM66.7636 68.3589L66.618 68.8373C66.6125 68.8356 66.6081 68.8341 66.6054 68.8331C66.604 68.8326 66.6029 68.8322 66.6023 68.832C66.6019 68.8319 66.6016 68.8318 66.6015 68.8317C66.6013 68.8316 66.6012 68.8316 66.6012 68.8316C66.6012 68.8316 66.6013 68.8316 66.6014 68.8317C66.6016 68.8317 66.6018 68.8318 66.6022 68.832C66.6029 68.8323 66.6038 68.8326 66.6052 68.8332C66.6076 68.8341 66.6124 68.836 66.6174 68.838L66.7978 68.3716L66.9781 67.9053C66.9774 67.905 66.9766 67.9047 66.9733 67.9034C66.9706 67.9023 66.9657 67.9004 66.9603 67.8983C66.9496 67.8942 66.9313 67.8873 66.9092 67.8806L66.7636 68.3589ZM66.7978 68.3716L66.6177 68.838L66.6173 68.8378L66.8515 68.396L67.0857 67.9543C67.0494 67.935 67.0133 67.9189 66.9779 67.9052L66.7978 68.3716ZM66.8515 68.396L66.6169 68.8376L66.6163 68.8379L66.8915 68.4204L67.1667 68.003C67.1522 67.9934 67.1223 67.9737 67.086 67.9544L66.8515 68.396ZM66.8915 68.4204L66.6165 68.838L66.6164 68.8373L66.9286 68.4468L67.2408 68.0563C67.2099 68.0316 67.1814 68.0127 67.1665 68.0029L66.8915 68.4204ZM66.9286 68.4468L66.6167 68.8376C66.6317 68.8495 66.6446 68.8585 66.6521 68.8637C66.656 68.8663 66.6592 68.8685 66.6611 68.8697C66.6621 68.8704 66.663 68.8709 66.6634 68.8712C66.664 68.8716 66.6641 68.8717 66.6642 68.8717C66.6644 68.8718 66.6631 68.871 66.6613 68.8698C66.6594 68.8685 66.6563 68.8664 66.6525 68.8636C66.645 68.8583 66.6327 68.8491 66.6183 68.8364L66.9491 68.4615L67.2799 68.0865C67.2624 68.0711 67.2468 68.0593 67.2359 68.0515C67.2254 68.0439 67.2164 68.0381 67.2137 68.0362C67.2129 68.0357 67.2121 68.0352 67.2118 68.035C67.2114 68.0347 67.2114 68.0347 67.2115 68.0348C67.2116 68.0349 67.2131 68.0359 67.2152 68.0373C67.2193 68.0401 67.2288 68.0467 67.2406 68.0561L66.9286 68.4468ZM66.9491 68.4615L66.6183 68.8364C68.9147 70.8624 70.7178 71.2847 72.0387 70.9895L71.9296 70.5015L71.8205 70.0135C70.9324 70.2121 69.4466 69.9981 67.2799 68.0865L66.9491 68.4615ZM71.9296 70.5015L72.0388 70.9894C73.3591 70.6939 74.1994 69.6809 74.5676 68.8361L74.1093 68.6363L73.6509 68.4365C73.3697 69.0816 72.7422 69.8073 71.8204 70.0136L71.9296 70.5015Z" fill="#002427"/>
<path d="M45.1156 28.38C46.9607 30.742 45.051 34.8833 42.4266 36.9334C39.8022 38.9835 36.179 38.7307 34.3339 36.3688C32.4888 34.0068 33.1205 30.4301 35.745 28.38C38.3694 26.3299 43.2705 26.018 45.1156 28.38Z" fill="#FFFFF9" fill-opacity="0.61"/>
<path d="M52.8165 22.9021C53.5075 23.7866 52.7923 25.3376 51.8095 26.1054C50.8266 26.8731 49.4697 26.7784 48.7787 25.8939C48.0877 25.0093 48.3243 23.6698 49.3072 22.9021C50.29 22.1343 52.1255 22.0175 52.8165 22.9021Z" fill="#FFFFF9" fill-opacity="0.61"/>
<path d="M94.5613 82.7053C94.3225 82.7053 93.8413 82.9043 93.1196 83.3053C92.756 83.5073 92.3978 83.7063 92.0939 83.958C91.79 84.2098 91.5512 84.5083 90.9434 85.1173" stroke="#00C8A3" stroke-opacity="0.23" stroke-width="2" stroke-linecap="round"/>
<path d="M35.4674 82.7053C35.7062 82.7053 36.1874 82.9043 36.9091 83.3053C37.2727 83.5073 37.6309 83.7063 37.9348 83.958C38.2387 84.2098 38.4775 84.5083 39.0853 85.1173" stroke="#00C8A3" stroke-opacity="0.23" stroke-width="2" stroke-linecap="round"/>
<path d="M61.6658 90.3757C62.0314 90.4576 62.7597 90.5462 63.3919 90.7001C64.1096 90.8748 64.8264 91.2318 65.6067 91.6329C66.1262 91.9001 66.8379 91.2228 67.5626 90.9251C68.1698 90.6757 68.7937 90.5128 69.4249 90.3329C69.8064 90.2837 70.165 90.2186 70.5436 90.1331C70.7728 90.096 71.0774 90.0718 71.3912 90.0469" stroke="#00C6E0" stroke-opacity="0.48" stroke-width="2" stroke-linecap="round"/>
<ellipse cx="43.9094" cy="64.0125" rx="4.82393" ry="6.6329" fill="#002427"/>
<ellipse cx="88.5314" cy="64.0123" rx="4.82393" ry="6.6329" fill="#002427"/>
</g>
<ellipse cx="13.6513" cy="10.4044" rx="13.6513" ry="10.4044" transform="matrix(0.857618 0.514287 -0.560446 0.828191 17.3514 4.81445)" fill="url(#paint3_linear_485_1778)" stroke="#FFFFF6" stroke-width="2"/>
<ellipse cx="13.6513" cy="10.4044" rx="13.6513" ry="10.4044" transform="matrix(-0.857618 0.514287 0.560446 0.828191 111.236 4.81445)" fill="url(#paint4_linear_485_1778)" stroke="#FFFFF6" stroke-width="2"/>
<ellipse cx="11.2378" cy="7.66602" rx="11.2378" ry="7.66602" transform="matrix(0.857618 0.514287 -0.560446 0.828191 17.168 10.4641)" fill="#17B4C8"/>
<ellipse cx="11.2378" cy="7.66602" rx="11.2378" ry="7.66602" transform="matrix(-0.857618 0.514287 0.560446 0.828191 111.42 10.4641)" fill="#17B4C8"/>
<g filter="url(#filter2_d_485_1778)">
<path d="M65.1622 11.1562C91.7634 11.1564 111.062 31.4461 111.062 56.4746C111.062 63.8289 108.564 70.7726 104.608 76.9141C110.042 80.3469 113.032 85.8866 111.65 91.0479C109.822 97.8667 101.054 101.443 92.0655 99.0342C91.6566 98.9246 91.2548 98.8029 90.8595 98.6729C89.3427 103.145 84.1361 106.441 77.9444 106.441C73.2797 106.441 69.1747 104.569 66.7843 101.734C66.427 101.76 66.074 101.773 65.7257 101.782C63.2254 104.59 58.9631 106.441 54.1231 106.441C46.541 106.441 40.3715 101.903 40.1827 96.25C38.8708 96.9159 37.4475 97.4665 35.9337 97.8721C26.9453 100.28 18.1778 96.7045 16.3507 89.8857C14.8704 84.3604 18.401 78.4001 24.5763 75.0566C21.2861 69.3862 19.2628 63.0964 19.2628 56.4746C19.2628 31.446 38.5609 11.1562 65.1622 11.1562Z" fill="url(#paint5_radial_485_1778)"/>
<path d="M65.1622 11.1562L65.1622 10.1562H65.1622V11.1562ZM111.062 56.4746H112.062V56.4746L111.062 56.4746ZM104.608 76.9141L103.768 76.3726C103.623 76.5968 103.575 76.8695 103.632 77.1299C103.69 77.3904 103.849 77.617 104.074 77.7595L104.608 76.9141ZM111.65 91.0479L112.615 91.3067L112.615 91.3066L111.65 91.0479ZM92.0655 99.0342L91.8067 100L91.8067 100L92.0655 99.0342ZM90.8595 98.6729L91.1719 97.7229C90.6507 97.5515 90.0887 97.832 89.9125 98.3517L90.8595 98.6729ZM77.9444 106.441V107.441H77.9445L77.9444 106.441ZM66.7843 101.734L67.5488 101.09C67.3428 100.846 67.0326 100.714 66.7139 100.737L66.7843 101.734ZM65.7257 101.782L65.7 100.783C65.4237 100.79 65.1626 100.911 64.9788 101.117L65.7257 101.782ZM54.1231 106.441V107.441H54.1232L54.1231 106.441ZM40.1827 96.25L41.1822 96.2166C41.1708 95.8751 40.9857 95.563 40.6916 95.3892C40.3974 95.2153 40.0348 95.2036 39.7301 95.3583L40.1827 96.25ZM35.9337 97.8721L36.1925 98.838H36.1925L35.9337 97.8721ZM16.3507 89.8857L15.3847 90.1445L15.3848 90.1446L16.3507 89.8857ZM24.5763 75.0566L25.0524 75.936C25.2901 75.8073 25.4656 75.5878 25.5389 75.3276C25.6121 75.0674 25.5769 74.7886 25.4412 74.5548L24.5763 75.0566ZM19.2628 56.4746L18.2628 56.4746V56.4746H19.2628ZM65.1622 11.1562L65.1622 12.1562C91.2052 12.1564 110.062 31.9924 110.062 56.4746L111.062 56.4746L112.062 56.4746C112.062 30.8997 92.3216 10.1564 65.1622 10.1562L65.1622 11.1562ZM111.062 56.4746H110.062C110.062 63.5975 107.643 70.3559 103.768 76.3726L104.608 76.9141L105.449 77.4555C109.485 71.1892 112.062 64.0603 112.062 56.4746H111.062ZM104.608 76.9141L104.074 77.7595C109.285 81.0515 111.914 86.1978 110.684 90.7891L111.65 91.0479L112.615 91.3066C114.151 85.5753 110.799 79.6423 105.143 76.0687L104.608 76.9141ZM111.65 91.0479L110.684 90.789C109.868 93.831 107.489 96.22 104.165 97.5753C100.841 98.9309 96.6272 99.2212 92.3243 98.0683L92.0655 99.0342L91.8067 100C96.4924 101.256 101.157 100.962 104.921 99.4272C108.685 97.8919 111.603 95.0835 112.615 91.3067L111.65 91.0479ZM92.0655 99.0342L92.3244 98.0683C91.936 97.9642 91.5522 97.848 91.1719 97.7229L90.8595 98.6729L90.547 99.6228C90.9574 99.7578 91.3772 99.885 91.8067 100L92.0655 99.0342ZM90.8595 98.6729L89.9125 98.3517C88.5701 102.309 83.8346 105.441 77.9444 105.441L77.9444 106.441L77.9445 107.441C84.4375 107.441 90.1152 103.98 91.8065 98.994L90.8595 98.6729ZM77.9444 106.441V105.441C73.5318 105.441 69.7233 103.669 67.5488 101.09L66.7843 101.734L66.0198 102.379C68.6261 105.47 73.0277 107.441 77.9444 107.441V106.441ZM66.7843 101.734L66.7139 100.737C66.3769 100.761 66.04 100.774 65.7 100.783L65.7257 101.782L65.7514 102.782C66.108 102.773 66.4771 102.759 66.8547 102.732L66.7843 101.734ZM65.7257 101.782L64.9788 101.117C62.6985 103.678 58.7265 105.441 54.1231 105.441L54.1231 106.441L54.1232 107.441C59.1996 107.441 63.7523 105.502 66.4725 102.447L65.7257 101.782ZM54.1231 106.441V105.441C50.5248 105.441 47.2984 104.363 44.9713 102.659C42.6436 100.954 41.264 98.667 41.1822 96.2166L40.1827 96.25L39.1833 96.2834C39.2902 99.4855 41.0897 102.295 43.7895 104.272C46.4899 106.25 50.1393 107.441 54.1231 107.441V106.441ZM40.1827 96.25L39.7301 95.3583C38.4799 95.9929 37.1216 96.5185 35.6749 96.9061L35.9337 97.8721L36.1925 98.838C37.7733 98.4144 39.2616 97.839 40.6353 97.1417L40.1827 96.25ZM35.9337 97.8721L35.6749 96.9061C31.3721 98.059 27.1582 97.7687 23.8343 96.4131C20.5113 95.0579 18.1317 92.6689 17.3166 89.6269L16.3507 89.8857L15.3848 90.1446C16.3968 93.9214 19.3145 96.7297 23.0791 98.265C26.8428 99.8 31.5069 100.093 36.1925 98.838L35.9337 97.8721ZM16.3507 89.8857L17.3166 89.627C16.0003 84.7137 19.1116 79.1525 25.0524 75.936L24.5763 75.0566L24.1002 74.1773C17.6904 77.6477 13.7404 84.007 15.3847 90.1445L16.3507 89.8857ZM24.5763 75.0566L25.4412 74.5548C22.2221 69.0069 20.2628 62.8885 20.2628 56.4746H19.2628H18.2628C18.2628 63.3043 20.35 69.7655 23.7113 75.5585L24.5763 75.0566ZM19.2628 56.4746L20.2628 56.4746C20.2628 31.9923 39.119 12.1562 65.1622 12.1562V11.1562V10.1562C38.0027 10.1562 18.2628 30.8996 18.2628 56.4746L19.2628 56.4746Z" fill="#FFFFF6"/>
</g>
<path d="M49.4663 28.6994C51.2869 31.0301 49.4025 35.1167 46.8128 37.1396C44.2232 39.1626 40.6479 38.9131 38.8272 36.5824C37.0066 34.2517 37.63 30.7224 40.2196 28.6994C42.8093 26.6765 47.6456 26.3687 49.4663 28.6994Z" fill="#FFFFF9" fill-opacity="0.67"/>
<path d="M57.0649 23.2945C57.7467 24.1674 57.041 25.6978 56.0712 26.4554C55.1013 27.213 53.7624 27.1195 53.0805 26.2467C52.3987 25.3738 52.6322 24.0521 53.602 23.2945C54.5718 22.5369 56.383 22.4216 57.0649 23.2945Z" fill="#FFFFF9" fill-opacity="0.67"/>
<path d="M101.337 46.8755C102.323 46.3694 103.694 47.3495 104.256 48.4442C104.818 49.5389 104.476 50.8365 103.49 51.3427C102.505 51.8488 101.251 51.3716 100.688 50.2769C100.126 49.1823 100.352 47.3816 101.337 46.8755Z" fill="#54F6FD" fill-opacity="0.26"/>
<path d="M93.6313 82.0391C93.4012 82.0391 92.9376 82.2308 92.2421 82.6172C91.8918 82.8118 91.5466 83.0035 91.2538 83.2461C90.961 83.4887 90.7309 83.7763 90.1453 84.3631" stroke="#00C8A3" stroke-opacity="0.5" stroke-width="2" stroke-linecap="round"/>
<path d="M36.6924 82.0391C36.9225 82.0391 37.3862 82.2308 38.0816 82.6172C38.432 82.8118 38.7771 83.0035 39.0699 83.2461C39.3627 83.4887 39.5928 83.7763 40.1785 84.3631" stroke="#00C8A3" stroke-opacity="0.5" stroke-width="2" stroke-linecap="round"/>
<path d="M62.257 88.5906C62.6092 88.6695 63.311 88.7548 63.9201 88.9031C64.6117 89.0715 65.3023 89.4154 66.0542 89.8019C66.5548 90.0593 67.2405 89.4068 67.9388 89.1199C68.5238 88.8796 69.125 88.7227 69.7332 88.5493C70.1008 88.5019 70.4463 88.4392 70.8111 88.3568C71.032 88.321 71.3254 88.2977 71.6278 88.2737" stroke="#00C6E0" stroke-opacity="0.8" stroke-width="2" stroke-linecap="round"/>
<path d="M73.1909 58.0169C73.3014 57.7642 73.5961 57.6488 73.8491 57.7591C74.1018 57.8696 74.2171 58.1644 74.1069 58.4173C73.7326 59.2755 72.8715 60.3305 71.4838 60.6409C70.1522 60.9386 68.4837 60.5184 66.4995 58.8733C64.5158 60.5177 62.8485 60.9384 61.517 60.6409C60.1293 60.3306 59.2683 59.2755 58.894 58.4173C58.7837 58.1643 58.899 57.8696 59.1518 57.7591C59.4047 57.6491 59.6996 57.7642 59.81 58.0169C60.0978 58.677 60.7466 59.4443 61.7348 59.6653C62.7063 59.8824 64.1701 59.607 66.1704 57.8421L66.1997 57.8177C66.2109 57.8093 66.2231 57.8026 66.2348 57.7952C66.2439 57.7895 66.2528 57.7837 66.2622 57.7786C66.2809 57.7685 66.3001 57.7599 66.3198 57.7523C66.327 57.7494 66.3339 57.7459 66.3413 57.7435L66.3745 57.7337C66.3831 57.7315 66.3921 57.7306 66.4008 57.7288C66.4184 57.7253 66.4358 57.7217 66.4536 57.72C66.4585 57.7196 66.4633 57.7184 66.4682 57.7181H66.5317C66.5363 57.7184 66.5408 57.7196 66.5454 57.72C66.5631 57.7216 66.5805 57.7253 66.5981 57.7288C66.6135 57.7319 66.6289 57.735 66.644 57.7396C66.6549 57.7429 66.6655 57.7472 66.6762 57.7513C66.6972 57.7592 66.7178 57.7678 66.7378 57.7786C66.7471 57.7837 66.756 57.7895 66.7651 57.7952C66.7832 57.8066 66.801 57.8184 66.8178 57.8323C66.8219 57.8357 66.8265 57.8386 66.8305 57.8421C68.8311 59.6072 70.2946 59.8826 71.2661 59.6653C72.2542 59.4443 72.9031 58.6769 73.1909 58.0169Z" fill="#002427"/>
<path d="M73.1909 58.0169L72.7328 57.8165L72.7325 57.8171L73.1909 58.0169ZM73.8491 57.7591L74.0494 57.301L74.0489 57.3007L73.8491 57.7591ZM74.1069 58.4173L74.5652 58.6172L74.5653 58.617L74.1069 58.4173ZM71.4838 60.6409L71.5929 61.1289L71.593 61.1289L71.4838 60.6409ZM66.4995 58.8733L66.8186 58.4884L66.4995 58.2239L66.1804 58.4884L66.4995 58.8733ZM61.517 60.6409L61.4079 61.1289L61.408 61.1289L61.517 60.6409ZM58.894 58.4173L58.4357 58.6171L58.4357 58.6172L58.894 58.4173ZM59.1518 57.7591L58.9524 57.3006L58.9516 57.3009L59.1518 57.7591ZM59.81 58.0169L60.2684 57.8171L60.2682 57.8167L59.81 58.0169ZM61.7348 59.6653L61.6257 60.1533L61.6258 60.1533L61.7348 59.6653ZM66.1704 57.8421L65.8501 57.4578L65.8396 57.4672L66.1704 57.8421ZM66.1997 57.8177L65.8988 57.4183L65.889 57.4257L65.8796 57.4336L66.1997 57.8177ZM66.2348 57.7952L66.501 58.2185L66.5017 58.218L66.2348 57.7952ZM66.2622 57.7786L66.0239 57.339L66.023 57.3395L66.2622 57.7786ZM66.3198 57.7523L66.5 58.2187L66.5009 58.2183L66.3198 57.7523ZM66.3413 57.7435L66.2002 57.2638L66.1911 57.2665L66.1821 57.2695L66.3413 57.7435ZM66.3745 57.7337L66.2495 57.2496L66.2414 57.2517L66.2334 57.254L66.3745 57.7337ZM66.4008 57.7288L66.4997 58.2189L66.5004 58.2188L66.4008 57.7288ZM66.4536 57.72L66.4074 57.2222L66.4069 57.2222L66.4536 57.72ZM66.4682 57.7181V57.2181H66.4525L66.4367 57.2191L66.4682 57.7181ZM66.5317 57.7181L66.5628 57.219L66.5473 57.2181H66.5317V57.7181ZM66.5454 57.72L66.5907 57.2221L66.5902 57.222L66.5454 57.72ZM66.5981 57.7288L66.4998 58.2191L66.5005 58.2192L66.5981 57.7288ZM66.644 57.7396L66.7883 57.2608L66.7874 57.2606L66.644 57.7396ZM66.6762 57.7513L66.4992 58.2189L66.5001 58.2192L66.6762 57.7513ZM66.7378 57.7786L66.9766 57.3394L66.9757 57.3389L66.7378 57.7786ZM66.7651 57.7952L66.4985 58.2182L66.4992 58.2187L66.7651 57.7952ZM66.8178 57.8323L66.4992 58.2176L66.4992 58.2176L66.8178 57.8323ZM66.8305 57.8421L67.1613 57.4672L67.161 57.4669L66.8305 57.8421ZM71.2661 59.6653L71.3752 60.1533L71.3752 60.1533L71.2661 59.6653ZM73.1909 58.0169L73.649 58.2173L73.6493 58.2174L73.8491 57.7591L74.0489 57.3007C73.5434 57.0804 72.9541 57.3106 72.7328 57.8165L73.1909 58.0169ZM73.8491 57.7591L73.6487 58.2172L73.6485 58.2176L74.1069 58.4173L74.5653 58.617C74.7854 58.1117 74.5554 57.5223 74.0494 57.301L73.8491 57.7591ZM74.1069 58.4173L73.6486 58.2174C73.3174 58.9769 72.5622 59.8873 71.3747 60.153L71.4838 60.6409L71.593 61.1289C73.1808 60.7737 74.1479 59.5741 74.5652 58.6172L74.1069 58.4173ZM71.4838 60.6409L71.3748 60.153C70.2482 60.4048 68.7341 60.0766 66.8186 58.4884L66.4995 58.8733L66.1803 59.2583C68.2332 60.9602 70.0562 61.4724 71.5929 61.1289L71.4838 60.6409ZM66.4995 58.8733L66.1804 58.4884C64.2652 60.0759 62.7523 60.4046 61.6261 60.153L61.517 60.6409L61.408 61.1289C62.9446 61.4722 64.7664 60.9594 66.8186 59.2583L66.4995 58.8733ZM61.517 60.6409L61.6262 60.153C60.4386 59.8874 59.6836 58.977 59.3523 58.2174L58.894 58.4173L58.4357 58.6172C58.853 59.5741 59.82 60.7737 61.4079 61.1289L61.517 60.6409ZM58.894 58.4173L59.3523 58.2175L59.3521 58.2172L59.1518 57.7591L58.9516 57.3009C58.4453 57.5222 58.2153 58.1117 58.4357 58.6171L58.894 58.4173ZM59.1518 57.7591L59.3512 58.2176L59.3519 58.2172L59.81 58.0169L60.2682 57.8167C60.0468 57.3102 59.4571 57.0811 58.9524 57.3006L59.1518 57.7591ZM59.81 58.0169L59.3517 58.2167C59.6829 58.9765 60.4381 59.8877 61.6257 60.1533L61.7348 59.6653L61.8439 59.1774C61.0551 59.001 60.5126 58.3774 60.2684 57.8171L59.81 58.0169ZM61.7348 59.6653L61.6258 60.1533C62.8135 60.4187 64.4358 60.0393 66.5012 58.217L66.1704 57.8421L65.8396 57.4672C63.9043 59.1747 62.5991 59.3461 61.8439 59.1774L61.7348 59.6653ZM66.1704 57.8421L66.4905 58.2262L66.5198 58.2018L66.1997 57.8177L65.8796 57.4336L65.8503 57.458L66.1704 57.8421ZM66.1997 57.8177L66.5005 58.2171C66.4937 58.2222 66.488 58.226 66.4844 58.2284C66.4826 58.2296 66.4812 58.2306 66.4802 58.2312C66.4798 58.2315 66.4794 58.2317 66.4792 58.2318C66.4789 58.232 66.4788 58.2321 66.4788 58.2321C66.4788 58.2321 66.4789 58.232 66.4791 58.2319C66.4793 58.2318 66.4796 58.2316 66.4801 58.2313C66.4816 58.2304 66.4819 58.2302 66.4843 58.2288C66.4876 58.2267 66.4939 58.2229 66.501 58.2185L66.2348 57.7952L65.9687 57.372C65.9699 57.3712 65.9702 57.371 65.9676 57.3726C65.9662 57.3734 65.9605 57.3768 65.9553 57.38C65.9443 57.3868 65.923 57.4001 65.8988 57.4183L66.1997 57.8177ZM66.2348 57.7952L66.5017 58.218C66.5032 58.2171 66.5047 58.2162 66.5058 58.2155C66.507 58.2147 66.5079 58.2141 66.5087 58.2136C66.5095 58.2131 66.51 58.2128 66.5104 58.2125C66.5106 58.2124 66.5108 58.2123 66.5109 58.2122C66.511 58.2122 66.511 58.2122 66.511 58.2122C66.511 58.2122 66.5108 58.2123 66.5104 58.2125C66.51 58.2128 66.5094 58.2131 66.5086 58.2136C66.507 58.2145 66.5045 58.216 66.5013 58.2177L66.2622 57.7786L66.023 57.3395C65.9958 57.3544 65.9693 57.3715 65.9679 57.3724L66.2348 57.7952ZM66.2622 57.7786L66.5004 58.2182L66.5 58.2187L66.3198 57.7523L66.1396 57.2858C66.1035 57.2998 66.0644 57.3171 66.0239 57.339L66.2622 57.7786ZM66.3198 57.7523L66.5009 58.2183C66.5102 58.2147 66.5178 58.2115 66.5222 58.2096C66.5244 58.2086 66.5264 58.2078 66.5275 58.2073C66.5289 58.2067 66.529 58.2067 66.5292 58.2065C66.5296 58.2064 66.5266 58.2077 66.5221 58.2095C66.5175 58.2113 66.51 58.2142 66.5004 58.2175L66.3413 57.7435L66.1821 57.2695C66.1689 57.2739 66.1578 57.2782 66.1495 57.2815C66.1415 57.2847 66.135 57.2875 66.1317 57.2889C66.1303 57.2896 66.1285 57.2903 66.1282 57.2905C66.1275 57.2908 66.1277 57.2907 66.1281 57.2905C66.129 57.2901 66.133 57.2884 66.1386 57.2862L66.3198 57.7523ZM66.3413 57.7435L66.4823 58.2231L66.5156 58.2134L66.3745 57.7337L66.2334 57.254L66.2002 57.2638L66.3413 57.7435ZM66.3745 57.7337L66.4995 58.2178C66.4893 58.2204 66.4811 58.2221 66.476 58.2231C66.4734 58.2236 66.4714 58.224 66.4701 58.2242C66.4694 58.2243 66.4689 58.2244 66.4686 58.2245C66.4684 58.2245 66.4683 58.2245 66.4682 58.2245C66.4682 58.2245 66.4682 58.2246 66.4681 58.2246C66.4681 58.2246 66.4681 58.2246 66.4681 58.2246C66.4681 58.2246 66.4681 58.2246 66.4681 58.2246C66.4681 58.2246 66.4681 58.2246 66.4681 58.2246C66.4681 58.2246 66.4681 58.2246 66.4681 58.2246C66.4681 58.2246 66.4681 58.2246 66.4681 58.2246C66.4681 58.2246 66.4681 58.2246 66.4681 58.2246C66.4682 58.2246 66.4682 58.2245 66.4682 58.2245C66.4683 58.2245 66.4684 58.2245 66.4686 58.2245C66.4691 58.2244 66.4693 58.2244 66.4701 58.2242C66.4713 58.2241 66.4735 58.2237 66.476 58.2233C66.481 58.2225 66.4895 58.221 66.4997 58.2189L66.4008 57.7288L66.3019 57.2387C66.3077 57.2375 66.3119 57.2368 66.3124 57.2367C66.3127 57.2367 66.3128 57.2367 66.3118 57.2369C66.3111 57.237 66.3091 57.2373 66.3071 57.2376C66.3001 57.2387 66.277 57.2425 66.2495 57.2496L66.3745 57.7337ZM66.4008 57.7288L66.5004 58.2188C66.5052 58.2178 66.5079 58.2173 66.5105 58.2168C66.5116 58.2166 66.5124 58.2164 66.513 58.2163C66.5132 58.2162 66.5134 58.2162 66.5136 58.2162C66.5137 58.2162 66.5138 58.2161 66.5138 58.2161C66.5138 58.2161 66.5137 58.2162 66.5136 58.2162C66.5134 58.2162 66.5132 58.2162 66.5129 58.2163C66.5124 58.2164 66.5115 58.2165 66.5104 58.2167C66.5081 58.217 66.5047 58.2174 66.5002 58.2178L66.4536 57.72L66.4069 57.2222C66.3579 57.2268 66.314 57.2362 66.3012 57.2388L66.4008 57.7288ZM66.4536 57.72L66.4997 58.2179C66.513 58.2167 66.5239 58.2152 66.5303 58.2142C66.5336 58.2137 66.5363 58.2133 66.5379 58.213C66.5388 58.2129 66.5395 58.2128 66.5398 58.2127C66.5404 58.2126 66.5404 58.2126 66.5405 58.2126C66.5411 58.2125 66.5365 58.2133 66.5304 58.2141C66.5239 58.215 66.5132 58.2162 66.4997 58.2171L66.4682 57.7181L66.4367 57.2191C66.4208 57.2201 66.4077 57.2216 66.3987 57.2228C66.3901 57.2239 66.3831 57.2251 66.3813 57.2254C66.3808 57.2255 66.3802 57.2256 66.3801 57.2256C66.3799 57.2256 66.38 57.2256 66.3802 57.2256C66.3806 57.2255 66.3821 57.2253 66.3841 57.2249C66.3882 57.2244 66.3966 57.2232 66.4074 57.2222L66.4536 57.72ZM66.4682 57.7181V58.2181H66.5317V57.7181V57.2181H66.4682V57.7181ZM66.5317 57.7181L66.5006 58.2171C66.4844 58.2161 66.4715 58.2144 66.4637 58.2133C66.4597 58.2127 66.4566 58.2122 66.4546 58.2119C66.4528 58.2116 66.4515 58.2114 66.4516 58.2114C66.4522 58.2115 66.4513 58.2113 66.4524 58.2115C66.4529 58.2116 66.4537 58.2118 66.4547 58.2119C66.4566 58.2123 66.4599 58.2128 66.4638 58.2134C66.4715 58.2147 66.4845 58.2166 66.5006 58.218L66.5454 57.72L66.5902 57.222C66.6039 57.2233 66.6146 57.2249 66.6201 57.2257C66.6229 57.2262 66.625 57.2265 66.6258 57.2267C66.6261 57.2267 66.6271 57.2269 66.6254 57.2266C66.624 57.2264 66.6161 57.225 66.6065 57.2236C66.5964 57.2221 66.5813 57.2202 66.5628 57.219L66.5317 57.7181ZM66.5454 57.72L66.5 58.218C66.4949 58.2175 66.491 58.217 66.4884 58.2166C66.4871 58.2165 66.4861 58.2163 66.4855 58.2162C66.4852 58.2161 66.4849 58.2161 66.4848 58.2161C66.4846 58.216 66.4845 58.216 66.4845 58.216C66.4845 58.216 66.4846 58.216 66.4847 58.2161C66.4849 58.2161 66.4851 58.2161 66.4854 58.2162C66.4861 58.2163 66.487 58.2165 66.4883 58.2168C66.4916 58.2174 66.494 58.2179 66.4998 58.2191L66.5981 57.7288L66.6964 57.2386C66.6877 57.2368 66.6409 57.2267 66.5907 57.2221L66.5454 57.72ZM66.5981 57.7288L66.5005 58.2192C66.5041 58.2199 66.5063 58.2204 66.5081 58.2207C66.509 58.2209 66.5096 58.221 66.51 58.2211C66.5104 58.2212 66.5106 58.2213 66.5106 58.2213C66.5106 58.2213 66.5104 58.2212 66.5099 58.2211C66.5095 58.221 66.5089 58.2208 66.508 58.2206C66.5063 58.2202 66.5038 58.2195 66.5006 58.2185L66.644 57.7396L66.7874 57.2606C66.7468 57.2484 66.71 57.2413 66.6957 57.2384L66.5981 57.7288ZM66.644 57.7396L66.4997 58.2183C66.4946 58.2168 66.4907 58.2154 66.4882 58.2146C66.4869 58.2141 66.4859 58.2138 66.4853 58.2135C66.485 58.2134 66.4847 58.2133 66.4846 58.2133C66.4844 58.2132 66.4843 58.2132 66.4843 58.2132C66.4843 58.2132 66.4844 58.2132 66.4845 58.2133C66.4847 58.2133 66.4849 58.2134 66.4852 58.2135C66.4859 58.2138 66.4867 58.2141 66.488 58.2146C66.4901 58.2154 66.4946 58.2171 66.4992 58.2189L66.6762 57.7513L66.8533 57.2837C66.8525 57.2834 66.8516 57.283 66.8484 57.2818C66.8458 57.2808 66.8412 57.279 66.8361 57.2771C66.8259 57.2733 66.8089 57.267 66.7883 57.2608L66.644 57.7396ZM66.6762 57.7513L66.5001 58.2192L66.4998 58.2184L66.7378 57.7786L66.9757 57.3389C66.9281 57.3131 66.8843 57.2954 66.8523 57.2833L66.6762 57.7513ZM66.7378 57.7786L66.4989 58.2179C66.4956 58.2161 66.493 58.2146 66.4913 58.2136C66.4905 58.2131 66.4898 58.2127 66.4894 58.2125C66.489 58.2122 66.4888 58.2121 66.4888 58.2121C66.4888 58.2121 66.4888 58.2121 66.4889 58.2122C66.489 58.2122 66.4892 58.2123 66.4894 58.2124C66.4898 58.2127 66.4903 58.2131 66.4912 58.2136C66.4921 58.2142 66.4929 58.2147 66.4942 58.2155C66.4954 58.2163 66.4969 58.2172 66.4985 58.2182L66.7651 57.7952L67.0317 57.3722C67.0313 57.372 67.0041 57.3543 66.9766 57.3394L66.7378 57.7786ZM66.7651 57.7952L66.4992 58.2187C66.502 58.2204 66.5038 58.2216 66.5052 58.2225C66.5065 58.2233 66.507 58.2237 66.5069 58.2236C66.5069 58.2236 66.5039 58.2215 66.4992 58.2176L66.8178 57.8323L67.1365 57.447C67.0945 57.4123 67.055 57.3868 67.031 57.3718L66.7651 57.7952ZM66.8178 57.8323L66.4992 58.2176C66.5088 58.2256 66.517 58.2318 66.5218 58.2354C66.5242 58.2372 66.5263 58.2387 66.5275 58.2396C66.5281 58.2401 66.5286 58.2405 66.5289 58.2407C66.5293 58.2409 66.5294 58.241 66.5294 58.241C66.5299 58.2414 66.5265 58.2389 66.522 58.2354C66.5172 58.2317 66.5094 58.2255 66.5 58.2173L66.8305 57.8421L67.161 57.4669C67.1497 57.4569 67.1398 57.449 67.1329 57.4437C67.1262 57.4386 67.1207 57.4345 67.119 57.4333C67.1185 57.4329 67.118 57.4326 67.1178 57.4325C67.1176 57.4323 67.1176 57.4323 67.1177 57.4323C67.1178 57.4324 67.1188 57.4332 67.1202 57.4342C67.1228 57.4362 67.1289 57.4407 67.1365 57.447L66.8178 57.8323ZM66.8305 57.8421L66.4997 58.217C68.5652 60.0394 70.1874 60.4189 71.3752 60.1533L71.2661 59.6653L71.157 59.1774C70.4018 59.3463 69.0969 59.1749 67.1613 57.4672L66.8305 57.8421ZM71.2661 59.6653L71.3752 60.1533C72.5627 59.8876 73.318 58.9765 73.6492 58.2167L73.1909 58.0169L72.7325 57.8171C72.4883 58.3774 71.9457 59.0009 71.1569 59.1774L71.2661 59.6653Z" fill="#002427"/>
<ellipse cx="45.6789" cy="55.4679" rx="4.33818" ry="5.96499" fill="#002427"/>
<ellipse cx="86.0819" cy="55.4682" rx="4.33818" ry="5.96499" fill="#002427"/>
<defs>
<filter id="filter0_f_485_1778" x="0.667603" y="1.14014" width="126.567" height="117.304" filterUnits="userSpaceOnUse" color-interpolation-filters="sRGB">
<feFlood flood-opacity="0" result="BackgroundImageFix"/>
<feBlend mode="normal" in="SourceGraphic" in2="BackgroundImageFix" result="shape"/>
<feGaussianBlur stdDeviation="3.5" result="effect1_foregroundBlur_485_1778"/>
</filter>
<filter id="filter1_d_485_1778" x="8.50439" y="0.640137" width="110.607" height="112.304" filterUnits="userSpaceOnUse" color-interpolation-filters="sRGB">
<feFlood flood-opacity="0" result="BackgroundImageFix"/>
<feColorMatrix in="SourceAlpha" type="matrix" values="0 0 0 0 0 0 0 0 0 0 0 0 0 0 0 0 0 0 127 0" result="hardAlpha"/>
<feOffset dy="-3"/>
<feGaussianBlur stdDeviation="2.25"/>
<feComposite in2="hardAlpha" operator="out"/>
<feColorMatrix type="matrix" values="0 0 0 0 0 0 0 0 0 0 0 0 0 0 0 0 0 0 0.25 0"/>
<feBlend mode="normal" in2="BackgroundImageFix" result="effect1_dropShadow_485_1778"/>
<feBlend mode="normal" in="SourceGraphic" in2="effect1_dropShadow_485_1778" result="shape"/>
</filter>
<filter id="filter2_d_485_1778" x="10.5116" y="2.65625" width="106.976" height="106.285" filterUnits="userSpaceOnUse" color-interpolation-filters="sRGB">
<feFlood flood-opacity="0" result="BackgroundImageFix"/>
<feColorMatrix in="SourceAlpha" type="matrix" values="0 0 0 0 0 0 0 0 0 0 0 0 0 0 0 0 0 0 127 0" result="hardAlpha"/>
<feOffset dy="-3"/>
<feGaussianBlur stdDeviation="2.25"/>
<feComposite in2="hardAlpha" operator="out"/>
<feColorMatrix type="matrix" values="0 0 0 0 0 0 0 0 0 0 0 0 0 0 0 0 0 0 0.25 0"/>
<feBlend mode="normal" in2="BackgroundImageFix" result="effect1_dropShadow_485_1778"/>
<feBlend mode="normal" in="SourceGraphic" in2="effect1_dropShadow_485_1778" result="shape"/>
</filter>
<linearGradient id="paint0_linear_485_1778" x1="20.9347" y1="27.1048" x2="28.2738" y2="9.86608" gradientUnits="userSpaceOnUse">
<stop stop-color="#3DDCFF"/>
<stop offset="1" stop-color="#61FFB0"/>
</linearGradient>
<linearGradient id="paint1_linear_485_1778" x1="12.5317" y1="17.4534" x2="19.8709" y2="0.214705" gradientUnits="userSpaceOnUse">
<stop stop-color="#3DDCFF"/>
<stop offset="1" stop-color="#61FFB0"/>
</linearGradient>
<radialGradient id="paint2_radial_485_1778" cx="0" cy="0" r="1" gradientUnits="userSpaceOnUse" gradientTransform="translate(64.4112 83.9119) rotate(67.5371) scale(67.8606 95.9245)">
<stop stop-color="#25FBFF"/>
<stop offset="0.303481" stop-color="#95EEFC"/>
<stop offset="0.591346" stop-color="#FFE2F8"/>
<stop offset="1" stop-color="#84FFC1"/>
</radialGradient>
<linearGradient id="paint3_linear_485_1778" x1="11.9659" y1="15.5884" x2="18.2172" y2="-0.109535" gradientUnits="userSpaceOnUse">
<stop stop-color="#3DDCFF"/>
<stop offset="1" stop-color="#61FFB0"/>
</linearGradient>
<linearGradient id="paint4_linear_485_1778" x1="11.9659" y1="15.5884" x2="18.2172" y2="-0.109535" gradientUnits="userSpaceOnUse">
<stop stop-color="#3DDCFF"/>
<stop offset="1" stop-color="#61FFB0"/>
</linearGradient>
<radialGradient id="paint5_radial_485_1778" cx="0" cy="0" r="1" gradientUnits="userSpaceOnUse" gradientTransform="translate(64.5808 83.2009) rotate(67.5368) scale(65.3857 92.4271)">
<stop stop-color="#25FBFF"/>
<stop offset="0.303481" stop-color="#95EEFC"/>
<stop offset="0.591346" stop-color="#FFE2F8"/>
<stop offset="1" stop-color="#84FFC1"/>
</radialGradient>
</defs>
</svg>
