<svg width="208" height="53" viewBox="0 0 208 53" fill="none" xmlns="http://www.w3.org/2000/svg">
<path d="M184.676 0C197.557 0 208 10.4429 208 23.3242C208 36.2054 197.557 46.6475 184.676 46.6475H109.95L107.463 50.9492C105.923 53.6131 102.077 53.613 100.537 50.9492L98.0498 46.6475H23.3242C10.443 46.6475 0.000242252 36.2054 0 23.3242C0 10.4429 10.4429 0 23.3242 0H184.676Z" fill="#FFFFF6"/>
<path d="M47.752 17.0855V29.5035H46.394V22.6575H43.902V21.5375H46.394V17.0855H47.752ZM44.616 18.3315V19.4515H41.914V20.5155C41.914 21.2155 42.0447 21.9201 42.306 22.6295C42.5767 23.3295 42.95 23.9595 43.426 24.5195C43.9113 25.0701 44.462 25.4855 45.078 25.7655L44.266 26.8575C43.5753 26.5121 42.9687 26.0081 42.446 25.3455C41.9233 24.6828 41.5173 23.9268 41.228 23.0775C40.948 23.9828 40.542 24.7901 40.01 25.4995C39.478 26.2088 38.862 26.7455 38.162 27.1095L37.364 26.0175C37.98 25.7188 38.526 25.2801 39.002 24.7015C39.4873 24.1228 39.8607 23.4695 40.122 22.7415C40.3927 22.0041 40.528 21.2621 40.528 20.5155V19.4515H37.826V18.3315H44.616ZM53.4223 17.8695C54.0477 17.8695 54.6123 17.9955 55.1163 18.2475C55.6203 18.4995 56.0123 18.8541 56.2923 19.3115C56.5817 19.7595 56.7263 20.2681 56.7263 20.8375C56.7263 21.5935 56.4837 22.2375 55.9983 22.7695C55.5223 23.2921 54.897 23.6188 54.1223 23.7495V25.6815C55.4383 25.6161 56.479 25.5275 57.2443 25.4155L57.3563 26.4235C55.555 26.7315 53.2777 26.8855 50.5243 26.8855H49.7963L49.6003 25.7655C50.9537 25.7655 52.0037 25.7561 52.7503 25.7375V23.7495C51.957 23.6188 51.3177 23.2921 50.8323 22.7695C50.347 22.2468 50.1043 21.6028 50.1043 20.8375C50.1043 20.2681 50.2443 19.7595 50.5243 19.3115C50.8137 18.8541 51.2103 18.4995 51.7143 18.2475C52.2183 17.9955 52.7877 17.8695 53.4223 17.8695ZM53.4223 19.0455C52.8437 19.0455 52.3677 19.2088 51.9943 19.5355C51.6303 19.8621 51.4483 20.2961 51.4483 20.8375C51.4483 21.3695 51.6303 21.8035 51.9943 22.1395C52.3677 22.4661 52.8437 22.6295 53.4223 22.6295C53.9917 22.6295 54.4583 22.4661 54.8223 22.1395C55.1957 21.8035 55.3823 21.3695 55.3823 20.8375C55.3823 20.2961 55.2003 19.8621 54.8363 19.5355C54.4723 19.2088 54.001 19.0455 53.4223 19.0455ZM59.3443 17.0995V22.1115H61.1923V23.2595H59.3443V29.4895H57.9723V17.0995H59.3443ZM74.8632 17.0995V20.2915H76.6272V21.4255H74.8632V24.5475H73.4912V17.0995H74.8632ZM74.8632 25.1915V29.3355H66.9812V25.1915H74.8632ZM68.3252 26.2975V28.2435H73.5192V26.2975H68.3252ZM68.1852 18.3315V17.0015H69.5712V18.3315H72.5252V19.4375H65.2312V18.3315H68.1852ZM68.8712 19.9555C69.4592 19.9555 69.9819 20.0488 70.4392 20.2355C70.8966 20.4128 71.2512 20.6695 71.5032 21.0055C71.7552 21.3415 71.8812 21.7288 71.8812 22.1675C71.8812 22.8395 71.6012 23.3761 71.0412 23.7775C70.4906 24.1788 69.7672 24.3795 68.8712 24.3795C67.9752 24.3795 67.2519 24.1788 66.7012 23.7775C66.1599 23.3761 65.8892 22.8395 65.8892 22.1675C65.8892 21.7288 66.0106 21.3415 66.2532 21.0055C66.5052 20.6695 66.8552 20.4128 67.3032 20.2355C67.7606 20.0488 68.2832 19.9555 68.8712 19.9555ZM68.8712 20.9915C68.3672 20.9915 67.9612 21.0988 67.6532 21.3135C67.3546 21.5188 67.2052 21.8035 67.2052 22.1675C67.2052 22.5315 67.3546 22.8208 67.6532 23.0355C67.9612 23.2501 68.3672 23.3575 68.8712 23.3575C69.3846 23.3575 69.7906 23.2501 70.0892 23.0355C70.3972 22.8208 70.5512 22.5315 70.5512 22.1675C70.5512 21.8035 70.3972 21.5188 70.0892 21.3135C69.7906 21.0988 69.3846 20.9915 68.8712 20.9915ZM80.4495 18.5555C80.4495 20.1981 80.3095 21.6868 80.0295 23.0215C79.7495 24.3468 79.2222 25.5648 78.4475 26.6755L77.3695 26.0735C78.0322 25.1588 78.5035 24.1881 78.7835 23.1615C79.0729 22.1255 79.2409 20.9635 79.2875 19.6755H77.6915V18.5555H80.4495ZM83.2075 18.5555C83.2075 19.8435 83.1562 20.9495 83.0535 21.8735H84.4255V17.3935H85.7135V28.8735H84.4255V22.9935H82.8995C82.5822 24.7201 82.0129 26.1901 81.1915 27.4035L80.1135 26.7875C80.8322 25.7981 81.3222 24.7248 81.5835 23.5675C81.8449 22.4101 81.9895 21.1128 82.0175 19.6755H80.8415V18.5555H83.2075ZM88.0655 17.0995V29.4895H86.7495V17.0995H88.0655ZM97.4384 18.1355V20.1795C97.4384 20.9355 97.5738 21.6775 97.8444 22.4055C98.1151 23.1335 98.4931 23.7821 98.9784 24.3515C99.4638 24.9115 100.024 25.3315 100.658 25.6115L99.8464 26.7175C99.1464 26.3815 98.5304 25.8868 97.9984 25.2335C97.4664 24.5801 97.0558 23.8288 96.7664 22.9795C96.4771 23.9035 96.0618 24.7108 95.5204 25.4015C94.9791 26.0921 94.3444 26.6148 93.6164 26.9695L92.7904 25.8355C93.4251 25.5461 93.9898 25.1075 94.4844 24.5195C94.9791 23.9315 95.3618 23.2595 95.6324 22.5035C95.9124 21.7381 96.0524 20.9635 96.0524 20.1795V18.1355H97.4384ZM103.066 17.0855V29.5035H101.694V17.0855H103.066ZM112.083 17.9115V19.0315H109.465V19.2835C109.465 20.0955 109.726 20.8421 110.249 21.5235C110.771 22.1955 111.495 22.6901 112.419 23.0075L111.705 24.0855C111.033 23.8521 110.449 23.5115 109.955 23.0635C109.46 22.6061 109.073 22.0695 108.793 21.4535C108.522 22.1161 108.125 22.6948 107.603 23.1895C107.089 23.6841 106.478 24.0575 105.769 24.3095L105.027 23.2315C105.979 22.9141 106.725 22.3961 107.267 21.6775C107.817 20.9495 108.093 20.1561 108.093 19.2975V19.0315H105.433V17.9115H112.083ZM114.799 17.0995V20.2635H116.563V21.4115H114.799V24.5475H113.427V17.0995H114.799ZM114.799 25.1775V29.4895H113.427V26.2835H106.679V25.1775H114.799ZM119.713 19.1295V17.4355H121.071V19.1295H123.409V20.2215H117.347V19.1295H119.713ZM120.385 20.9635C120.898 20.9635 121.36 21.0848 121.771 21.3275C122.182 21.5701 122.499 21.9108 122.723 22.3495C122.956 22.7788 123.073 23.2688 123.073 23.8195C123.073 24.3795 122.956 24.8788 122.723 25.3175C122.499 25.7561 122.182 26.0968 121.771 26.3395C121.36 26.5821 120.898 26.7035 120.385 26.7035C119.872 26.7035 119.41 26.5821 118.999 26.3395C118.598 26.0968 118.28 25.7561 118.047 25.3175C117.823 24.8788 117.711 24.3795 117.711 23.8195C117.711 23.2688 117.823 22.7788 118.047 22.3495C118.28 21.9108 118.598 21.5701 118.999 21.3275C119.41 21.0848 119.872 20.9635 120.385 20.9635ZM120.385 22.0975C119.965 22.0975 119.615 22.2608 119.335 22.5875C119.064 22.9048 118.929 23.3155 118.929 23.8195C118.929 24.3421 119.064 24.7621 119.335 25.0795C119.606 25.3875 119.956 25.5415 120.385 25.5415C120.814 25.5415 121.164 25.3875 121.435 25.0795C121.715 24.7621 121.855 24.3421 121.855 23.8195C121.855 23.3155 121.715 22.9048 121.435 22.5875C121.164 22.2608 120.814 22.0975 120.385 22.0975ZM127.903 17.0995V29.4895H126.601V23.3715H125.257V28.9015H123.955V17.3655H125.257V22.2515H126.601V17.0995H127.903ZM132.439 17.2955V18.3175H137.983V17.2955H139.355V21.3975H135.883V22.4475H140.797V23.5395H129.611V22.4475H134.497V21.3975H131.081V17.2955H132.439ZM132.439 20.3615H137.983V19.3535H132.439V20.3615ZM139.397 24.4215V27.3195H132.313V28.3275H139.747V29.3775H130.969V26.3535H138.039V25.4435H130.927V24.4215H139.397ZM151.62 17.0995V22.0975H153.384V23.2455H151.62V29.4895H150.248V17.0995H151.62ZM145.53 18.4015C145.53 20.1561 145.334 21.7101 144.942 23.0635C144.55 24.4075 143.836 25.6441 142.8 26.7735L141.722 25.9895C142.562 25.0935 143.173 24.1228 143.556 23.0775C143.948 22.0228 144.172 20.8375 144.228 19.5215H142.17V18.4015H145.53ZM148.932 18.4015C148.932 20.2961 148.75 21.9948 148.386 23.4975C148.031 24.9908 147.345 26.3535 146.328 27.5855L145.236 26.8155C146.076 25.8075 146.673 24.7108 147.028 23.5255C147.382 22.3308 147.583 20.9961 147.63 19.5215H145.936V18.4015H148.932ZM156.73 26.8295V23.5955C156.226 23.3155 155.834 22.9561 155.554 22.5175C155.274 22.0788 155.134 21.5888 155.134 21.0475C155.134 20.4035 155.33 19.8341 155.722 19.3395C156.114 18.8448 156.651 18.4668 157.332 18.2055C158.023 17.9348 158.807 17.7995 159.684 17.7995C160.561 17.7995 161.345 17.9348 162.036 18.2055C162.727 18.4668 163.263 18.8448 163.646 19.3395C164.038 19.8341 164.234 20.4035 164.234 21.0475C164.234 21.5888 164.094 22.0788 163.814 22.5175C163.543 22.9468 163.156 23.3061 162.652 23.5955V26.8295H165.312V27.9495H154.084V26.8295H156.73ZM159.684 18.8915C158.732 18.8915 157.957 19.0875 157.36 19.4795C156.772 19.8621 156.478 20.3848 156.478 21.0475C156.478 21.7101 156.772 22.2375 157.36 22.6295C157.957 23.0121 158.732 23.2035 159.684 23.2035C160.636 23.2035 161.406 23.0075 161.994 22.6155C162.591 22.2235 162.89 21.7008 162.89 21.0475C162.89 20.3941 162.591 19.8715 161.994 19.4795C161.406 19.0875 160.636 18.8915 159.684 18.8915ZM161.28 26.8295V24.1135C160.795 24.2255 160.263 24.2815 159.684 24.2815C159.124 24.2815 158.597 24.2255 158.102 24.1135V26.8295H161.28ZM169.428 28.6775C169.186 28.6775 168.985 28.5981 168.826 28.4395C168.677 28.2901 168.602 28.0941 168.602 27.8515C168.602 27.6181 168.677 27.4268 168.826 27.2775C168.985 27.1281 169.186 27.0535 169.428 27.0535C169.671 27.0535 169.862 27.1281 170.002 27.2775C170.152 27.4175 170.226 27.6088 170.226 27.8515C170.226 28.0941 170.152 28.2901 170.002 28.4395C169.853 28.5981 169.662 28.6775 169.428 28.6775ZM168.742 25.7795C168.733 25.0701 168.836 24.4868 169.05 24.0295C169.274 23.5628 169.643 23.1381 170.156 22.7555C170.679 22.3728 171.029 22.0368 171.206 21.7475C171.393 21.4581 171.486 21.1361 171.486 20.7815C171.486 20.2961 171.314 19.9041 170.968 19.6055C170.632 19.2975 170.194 19.1435 169.652 19.1435C169.242 19.1435 168.854 19.2788 168.49 19.5495C168.136 19.8108 167.874 20.1515 167.706 20.5715L166.446 20.1095C166.698 19.4281 167.123 18.8728 167.72 18.4435C168.318 18.0141 168.962 17.7995 169.652 17.7995C170.278 17.7995 170.828 17.9255 171.304 18.1775C171.79 18.4201 172.163 18.7701 172.424 19.2275C172.695 19.6755 172.83 20.1935 172.83 20.7815C172.83 21.3135 172.686 21.8315 172.396 22.3355C172.107 22.8395 171.631 23.3435 170.968 23.8475C170.604 24.1088 170.362 24.3655 170.24 24.6175C170.128 24.8601 170.077 25.2428 170.086 25.7655L168.742 25.7795Z" fill="#343434"/>
</svg>
