<svg width="51" height="51" viewBox="0 0 51 51" fill="none" xmlns="http://www.w3.org/2000/svg">
<g filter="url(#filter0_f_693_2079)">
<path d="M17.3716 15.3115C16.9688 13.4164 19.2264 12.113 20.6662 13.4094L25.0445 17.3517C25.6884 17.9314 26.6324 18.0307 27.3827 17.5974L32.485 14.6516C34.1629 13.6829 36.1001 15.4272 35.3121 17.1972L32.9158 22.5794C32.5634 23.371 32.7607 24.2994 33.4046 24.8792L37.7829 28.8214C39.2227 30.1178 38.1624 32.4993 36.2356 32.2968L30.3763 31.6809C29.5146 31.5904 28.6925 32.065 28.3401 32.8565L25.9438 38.2387C25.1558 40.0087 22.5632 39.7362 22.1604 37.8411L20.9355 32.0782C20.7553 31.2307 20.0499 30.5956 19.1882 30.505L13.3289 29.8892C11.4021 29.6867 10.8601 27.1368 12.538 26.1681L17.6402 23.2223C18.3906 22.789 18.7767 21.9219 18.5965 21.0744L17.3716 15.3115Z" fill="url(#paint0_radial_693_2079)"/>
<path d="M16.6378 15.4672C16.0842 12.8617 19.1879 11.0699 21.1676 12.852L25.5466 16.7942C25.949 17.1564 26.5385 17.2183 27.0075 16.9475L32.1098 14.0017C34.4169 12.6697 37.0808 15.0689 35.9972 17.5026L33.6007 22.8849C33.3807 23.3795 33.5038 23.9599 33.9062 24.3222L38.2852 28.2643C40.2644 30.0469 38.8062 33.3213 36.1569 33.0429L30.2983 32.4267C29.7598 32.3701 29.2458 32.6669 29.0255 33.1616L26.6289 38.5438C25.5454 40.9774 21.9814 40.6027 21.4273 37.9972L20.202 32.2343C20.0894 31.7046 19.6485 31.3077 19.11 31.2511L13.2505 30.6354C10.6013 30.357 9.85571 26.8505 12.1624 25.5183L17.2647 22.5725C17.7337 22.3018 17.9758 21.7599 17.8632 21.2302L16.6378 15.4672Z" stroke="#FFFFF6" stroke-width="1.5"/>
</g>
<path d="M17.8664 17.3911C17.3129 14.7856 20.4165 12.9936 22.3961 14.7758L25.8673 17.9014C26.2697 18.2636 26.8598 18.3261 27.3287 18.0556L31.3747 15.7197C33.6816 14.3882 36.3449 16.7862 35.2616 19.2197L33.3612 23.4867C33.141 23.9813 33.2645 24.5616 33.6667 24.924L37.1379 28.0495C39.1175 29.832 37.6601 33.1066 35.0109 32.8284L30.3649 32.3399C29.8265 32.2835 29.3123 32.5802 29.0921 33.0748L27.193 37.3421C26.1095 39.7758 22.5439 39.4009 21.99 36.7951L21.0197 32.2257C20.9069 31.6963 20.466 31.2992 19.9277 31.2425L15.2822 30.7549C12.6328 30.4764 11.8876 26.9707 14.1945 25.6386L18.2397 23.3032C18.7086 23.0324 18.9502 22.4897 18.8376 21.96L17.8664 17.3911Z" fill="url(#paint1_radial_693_2079)" stroke="#FFFFF6" stroke-width="1.5"/>
<defs>
<filter id="filter0_f_693_2079" x="6.03467" y="7.38184" width="37.9205" height="37.5442" filterUnits="userSpaceOnUse" color-interpolation-filters="sRGB">
<feFlood flood-opacity="0" result="BackgroundImageFix"/>
<feBlend mode="normal" in="SourceGraphic" in2="BackgroundImageFix" result="shape"/>
<feGaussianBlur stdDeviation="2" result="effect1_foregroundBlur_693_2079"/>
</filter>
<radialGradient id="paint0_radial_693_2079" cx="0" cy="0" r="1" gradientUnits="userSpaceOnUse" gradientTransform="translate(30.4567 33.3558) rotate(37.4318) scale(25.4526 36.1109)">
<stop stop-color="#25FBFF"/>
<stop offset="0.303481" stop-color="#95EEFC"/>
<stop offset="0.591346" stop-color="#FFE2F8"/>
<stop offset="1" stop-color="#84FFC1"/>
</radialGradient>
<radialGradient id="paint1_radial_693_2079" cx="0" cy="0" r="1" gradientUnits="userSpaceOnUse" gradientTransform="translate(30.3862 33.1039) rotate(37.4318) scale(23.1513 32.8459)">
<stop stop-color="#25FBFF"/>
<stop offset="0.303481" stop-color="#95EEFC"/>
<stop offset="0.591346" stop-color="#FFE2F8"/>
<stop offset="1" stop-color="#84FFC1"/>
</radialGradient>
</defs>
</svg>
